<svg width="70" height="31" viewBox="0 0 70 31" fill="none" xmlns="http://www.w3.org/2000/svg">
<circle opacity="0.3" cx="15.3232" cy="15.1094" r="15" fill="#FF3914"/>
<circle cx="15.2466" cy="15.1099" r="10.7603" fill="#FF3914"/>
<path d="M18.5367 12.1221L12.292 18.3668M12.292 12.1221L18.5367 18.3668" stroke="white" stroke-width="2.08158" stroke-linecap="round" stroke-linejoin="round"/>
<path d="M52.6201 7.875V15.0312H50.8857V13.7969H47.4795V12.4688H50.8857V11.0781H47.667C46.7764 13.2344 44.7139 14.6406 41.5889 15.3438L40.9795 13.9219C44.2998 13.2344 45.9561 11.7734 46.1982 9.89062H41.7607V8.48438H48.1357C48.1357 8.92969 48.0967 9.35156 48.042 9.75H50.8857V7.875H52.6201ZM52.6201 15.5781V19.2969H45.0732V20.4688H52.9951V21.8594H43.3389V18H50.8857V16.9531H43.3232V15.5781H52.6201ZM60.2251 10.1094C60.2251 11.9219 61.3657 13.6562 63.5376 14.3594L62.6001 15.75C61.0689 15.2109 59.9751 14.1406 59.3814 12.7812C58.7486 14.2656 57.6001 15.4297 55.9751 16.0156L55.0376 14.625C57.3345 13.8594 58.4751 12.0156 58.4751 10V8.60938H60.2251V10.1094ZM66.9282 16.9531V22H65.1939V18.3281H57.3032V16.9531H66.9282ZM66.9282 7.875V16.2656H65.1939V12.0469H62.3814V10.625H65.1939V7.875H66.9282Z" fill="#212529"/>
</svg>
