<svg width="69" height="31" viewBox="0 0 69 31" fill="none" xmlns="http://www.w3.org/2000/svg">
<g opacity="0.3">
<circle opacity="0.3" cx="15.5" cy="15.0029" r="15" fill="#FF3914"/>
<circle cx="15.4243" cy="15.0034" r="10.7603" fill="#FF3914"/>
<path d="M18.7135 12.0156L12.4688 18.2604M12.4688 12.0156L18.7135 18.2604" stroke="white" stroke-width="2.08158" stroke-linecap="round" stroke-linejoin="round"/>
<path d="M52.9062 8.22168V15.3779H50.9219V14.2842H47.6719V12.7686H50.9219V11.5186H47.8281C46.9453 13.6592 44.9141 15.0264 41.7656 15.7061L41.0938 14.0811C44.3516 13.4326 45.8594 12.0889 46.125 10.3779H41.8906V8.76855H48.3281C48.3281 9.19824 48.2969 9.6123 48.2344 10.0029H50.9219V8.22168H52.9062ZM52.9062 15.8936V19.7842H45.4688V20.7217H53.2188V22.2998H43.4688V18.3154H50.9062V17.4561H43.4531V15.8936H52.9062ZM60.0781 10.4404C60.0625 12.2061 61.0625 13.9248 63.3125 14.6436L62.25 16.2217C60.7188 15.7061 59.6797 14.6826 59.0781 13.3936C58.4453 14.7998 57.3438 15.9014 55.7344 16.4717L54.6562 14.8779C57.0312 14.1123 58.0469 12.2529 58.0625 10.3154V8.95605H60.0781V10.4404ZM66.7344 17.3311V22.4404H64.75V18.9092H56.9688V17.3311H66.7344ZM66.7344 8.22168V16.6904H64.75V12.5029H62.0781V10.8623H64.75V8.22168H66.7344Z" fill="#212529"/>
</g>
</svg>
