<svg width="292" height="51" viewBox="0 0 292 51" fill="none" xmlns="http://www.w3.org/2000/svg">
<rect y="0.333984" width="292" height="50" rx="8" fill="#0DA98F"/>
<path d="M121.5 26.334H116.5V31.334C116.5 31.5992 116.395 31.8536 116.207 32.0411C116.02 32.2286 115.765 32.334 115.5 32.334C115.235 32.334 114.98 32.2286 114.793 32.0411C114.605 31.8536 114.5 31.5992 114.5 31.334V26.334H109.5C109.235 26.334 108.98 26.2286 108.793 26.0411C108.605 25.8536 108.5 25.5992 108.5 25.334C108.5 25.0688 108.605 24.8144 108.793 24.6269C108.98 24.4393 109.235 24.334 109.5 24.334H114.5V19.334C114.5 19.0688 114.605 18.8144 114.793 18.6269C114.98 18.4393 115.235 18.334 115.5 18.334C115.765 18.334 116.02 18.4393 116.207 18.6269C116.395 18.8144 116.5 19.0688 116.5 19.334V24.334H121.5C121.765 24.334 122.02 24.4393 122.207 24.6269C122.395 24.8144 122.5 25.0688 122.5 25.334C122.5 25.5992 122.395 25.8536 122.207 26.0411C122.02 26.2286 121.765 26.334 121.5 26.334Z" fill="white"/>
<path d="M137.468 19.654C137.468 21.334 139.18 23.19 142.428 23.59L141.66 25.222C139.164 24.854 137.34 23.702 136.428 22.15C135.5 23.702 133.676 24.854 131.196 25.222L130.428 23.59C133.66 23.19 135.372 21.334 135.356 19.654V18.982H137.468V19.654ZM129.916 27.91V26.278H142.908V27.91H137.372V32.774H135.388V27.91H129.916ZM147.712 19.142C149.52 19.142 150.976 20.182 151.376 21.702H153.76V18.534H155.744V26.182H153.76V23.302H151.392C151.008 24.854 149.552 25.926 147.712 25.926C145.536 25.926 143.92 24.502 143.936 22.534C143.92 20.566 145.536 19.142 147.712 19.142ZM145.824 22.534C145.824 23.59 146.608 24.262 147.712 24.262C148.8 24.262 149.568 23.59 149.568 22.534C149.568 21.462 148.8 20.806 147.712 20.806C146.608 20.806 145.824 21.462 145.824 22.534ZM146.24 32.614V26.822H148.224V28.198H153.76V26.822H155.744V32.614H146.24ZM148.224 31.014H153.76V29.734H148.224V31.014ZM174.252 27.078V28.678H168.716V32.774H166.732V28.678H161.26V27.078H174.252ZM161.932 24.742C164.86 24.406 166.46 23.014 166.7 21.766H162.444V20.198H166.732V18.566H168.716V20.198H173.036V21.766H168.78C169.02 23.014 170.604 24.406 173.548 24.742L172.812 26.31C170.412 26.022 168.668 25.03 167.756 23.734C166.828 25.046 165.068 26.022 162.636 26.31L161.932 24.742ZM186.32 18.534V24.006H188.336V25.638H186.32V32.742H184.304V18.534H186.32ZM174.928 28.774C178.304 27.078 180.096 24.806 180.48 21.638H175.76V20.006H182.512C182.496 24.262 180.848 27.942 176.08 30.278L174.928 28.774Z" fill="white"/>
</svg>
