<svg width="113" height="37" viewBox="0 0 113 37" fill="none" xmlns="http://www.w3.org/2000/svg">
<rect x="0.429688" y="0.403809" width="112" height="36" rx="8" fill="#0DA98F"/>
<path d="M24.4297 19.4038H19.4297V24.4038C19.4297 24.669 19.3243 24.9234 19.1368 25.1109C18.9493 25.2985 18.6949 25.4038 18.4297 25.4038C18.1645 25.4038 17.9101 25.2985 17.7226 25.1109C17.535 24.9234 17.4297 24.669 17.4297 24.4038V19.4038H12.4297C12.1645 19.4038 11.9101 19.2985 11.7226 19.1109C11.535 18.9234 11.4297 18.669 11.4297 18.4038C11.4297 18.1386 11.535 17.8842 11.7226 17.6967C11.9101 17.5092 12.1645 17.4038 12.4297 17.4038H17.4297V12.4038C17.4297 12.1386 17.535 11.8842 17.7226 11.6967C17.9101 11.5092 18.1645 11.4038 18.4297 11.4038C18.6949 11.4038 18.9493 11.5092 19.1368 11.6967C19.3243 11.8842 19.4297 12.1386 19.4297 12.4038V17.4038H24.4297C24.6949 17.4038 24.9493 17.5092 25.1368 17.6967C25.3243 17.8842 25.4297 18.1386 25.4297 18.4038C25.4297 18.669 25.3243 18.9234 25.1368 19.1109C24.9493 19.2985 24.6949 19.4038 24.4297 19.4038Z" fill="white"/>
<path d="M41.4062 13.6499C41.4062 14.9038 42.6836 16.2983 45.1328 16.603L44.5469 17.8101C42.6836 17.5405 41.3184 16.6792 40.6211 15.5249C39.918 16.6792 38.5645 17.5405 36.7188 17.8101L36.1211 16.603C38.5469 16.2983 39.8359 14.9038 39.8359 13.6499V13.1343H41.4062V13.6499ZM45.4727 18.6187V19.8374H41.3242V23.4819H39.8477V19.8374H35.7461V18.6187H45.4727ZM49.0938 13.2749C50.459 13.2632 51.543 14.0425 51.8359 15.1851H53.6172V12.8179H55.1055V18.5483H53.6172V16.3804H51.8477C51.5664 17.5522 50.4707 18.3491 49.0938 18.3491C47.4531 18.3491 46.2461 17.2827 46.2578 15.7944C46.2461 14.3296 47.4531 13.2632 49.0938 13.2749ZM49.0938 14.5171C48.2617 14.5054 47.6641 14.9976 47.6758 15.7944C47.6641 16.5913 48.2617 17.0952 49.0938 17.0952C49.9023 17.0952 50.4883 16.5913 50.4883 15.7944C50.4883 14.9976 49.9023 14.5054 49.0938 14.5171ZM49.4688 19.0171V20.0483H53.6172V19.0171H55.1055V23.3647H47.9922V19.0171H49.4688ZM49.4688 22.1577H53.6172V21.1968H49.4688V22.1577ZM66.4141 16.8608V18.0796H64.9023V23.4585H63.4023V12.8179H64.9023V16.8608H66.4141ZM58.3164 13.8374V19.6147C59.6816 19.5972 61.1465 19.4683 62.6875 19.1577L62.8398 20.3999C61.0586 20.7632 59.3242 20.8569 57.7539 20.8569H56.8281V13.8374H58.3164ZM76.6094 18.7827V19.978H72.4375V23.4702H70.9609V19.978H66.8477V18.7827H76.6094ZM75.4375 13.3335V17.6343H67.9961V13.3335H75.4375ZM69.4727 14.5171V16.4624H73.9492V14.5171H69.4727ZM89.7227 19.2046V20.4233H85.5859V23.4937H84.1094V20.4233H79.9961V19.2046H89.7227ZM88.832 14.0483V15.2202H85.6328C85.8027 16.1577 87.0039 17.2124 89.207 17.4585L88.668 18.6304C86.8633 18.4253 85.5566 17.687 84.8594 16.7085C84.168 17.6987 82.8496 18.4253 81.0273 18.6304L80.4883 17.4585C82.6914 17.2124 83.9043 16.1636 84.0859 15.2202H80.875V14.0483H84.1094V12.8296H85.5859V14.0483H88.832ZM98.7812 12.8179V16.9077H100.293V18.1382H98.7812V23.4585H97.2812V12.8179H98.7812ZM95.9336 13.9077C95.9219 17.0952 94.6797 19.8608 91.0938 21.6187L90.25 20.4702C92.7754 19.2046 94.1289 17.5054 94.4102 15.1265H90.8594V13.9077H95.9336Z" fill="white"/>
</svg>
