<svg width="92" height="37" viewBox="0 0 92 37" fill="none" xmlns="http://www.w3.org/2000/svg">
<rect y="0.760254" width="92" height="36" rx="8" fill="#0DA98F"/>
<path d="M24 19.7603H19V24.7603C19 25.0255 18.8946 25.2798 18.7071 25.4674C18.5196 25.6549 18.2652 25.7603 18 25.7603C17.7348 25.7603 17.4804 25.6549 17.2929 25.4674C17.1054 25.2798 17 25.0255 17 24.7603V19.7603H12C11.7348 19.7603 11.4804 19.6549 11.2929 19.4674C11.1054 19.2798 11 19.0255 11 18.7603C11 18.495 11.1054 18.2407 11.2929 18.0531C11.4804 17.8656 11.7348 17.7603 12 17.7603H17V12.7603C17 12.495 17.1054 12.2407 17.2929 12.0531C17.4804 11.8656 17.7348 11.7603 18 11.7603C18.2652 11.7603 18.5196 11.8656 18.7071 12.0531C18.8946 12.2407 19 12.495 19 12.7603V17.7603H24C24.2652 17.7603 24.5196 17.8656 24.7071 18.0531C24.8946 18.2407 25 18.495 25 18.7603C25 19.0255 24.8946 19.2798 24.7071 19.4674C24.5196 19.6549 24.2652 19.7603 24 19.7603Z" fill="white"/>
<path d="M40.976 14.0003C40.976 15.2603 42.26 16.6523 44.696 16.9523L44.12 18.1763C42.248 17.9003 40.88 17.0363 40.196 15.8723C39.5 17.0363 38.132 17.9003 36.272 18.1763L35.696 16.9523C38.12 16.6523 39.404 15.2603 39.392 14.0003V13.4963H40.976V14.0003ZM35.312 20.1923V18.9683H45.056V20.1923H40.904V23.8403H39.416V20.1923H35.312ZM48.6591 13.6163C50.0151 13.6163 51.1071 14.3963 51.4071 15.5363H53.1951V13.1603H54.6831V18.8963H53.1951V16.7363H51.4191C51.1311 17.9003 50.0391 18.7043 48.6591 18.7043C47.0271 18.7043 45.8151 17.6363 45.8271 16.1603C45.8151 14.6843 47.0271 13.6163 48.6591 13.6163ZM47.2431 16.1603C47.2431 16.9523 47.8311 17.4563 48.6591 17.4563C49.4751 17.4563 50.0511 16.9523 50.0511 16.1603C50.0511 15.3563 49.4751 14.8643 48.6591 14.8643C47.8311 14.8643 47.2431 15.3563 47.2431 16.1603ZM47.5551 23.7203V19.3763H49.0431V20.4083H53.1951V19.3763H54.6831V23.7203H47.5551ZM49.0431 22.5203H53.1951V21.5603H49.0431V22.5203ZM68.5638 19.5683V20.7683H64.4118V23.8403H62.9238V20.7683H58.8198V19.5683H68.5638ZM59.3238 17.8163C61.5198 17.5643 62.7198 16.5203 62.8998 15.5843H59.7078V14.4083H62.9238V13.1843H64.4118V14.4083H67.6518V15.5843H64.4598C64.6398 16.5203 65.8278 17.5643 68.0358 17.8163L67.4838 18.9923C65.6838 18.7763 64.3758 18.0323 63.6918 17.0603C62.9958 18.0443 61.6758 18.7763 59.8518 18.9923L59.3238 17.8163ZM77.6149 13.1603V17.2643H79.1269V18.4883H77.6149V23.8163H76.1029V13.1603H77.6149ZM69.0709 20.8403C71.6029 19.5683 72.9469 17.8643 73.2349 15.4883H69.6949V14.2643H74.7589C74.7469 17.4563 73.5109 20.2163 69.9349 21.9683L69.0709 20.8403Z" fill="white"/>
</svg>
