<svg width="21" height="21" viewBox="0 0 21 21" fill="none" xmlns="http://www.w3.org/2000/svg">
<circle opacity="0.6" cx="16.9521" cy="3.91162" r="2.10059" fill="#FF623D"/>
<circle cx="16.9521" cy="3.91162" r="1.25098" fill="#FF623D"/>
<path d="M7.89834 3.91162C7.42806 3.91162 7.04811 4.28319 7.04811 4.7431V5.24199C5.10853 5.62655 3.64721 7.30511 3.64721 9.31625V9.80475C3.64721 11.026 3.18756 12.2057 2.35859 13.1203L2.16197 13.3359C1.93879 13.5802 1.88565 13.931 2.02115 14.2298C2.15666 14.5286 2.46221 14.7209 2.79698 14.7209H12.9997C13.3345 14.7209 13.6374 14.5286 13.7755 14.2298C13.9137 13.931 13.8579 13.5802 13.6347 13.3359L13.4381 13.1203C12.6091 12.2057 12.1495 11.0286 12.1495 9.80475V9.31625C12.1495 7.30511 10.6881 5.62655 8.74857 5.24199V4.7431C8.74857 4.28319 8.36862 3.91162 7.89834 3.91162ZM9.10194 16.7294C9.42078 16.4176 9.59879 15.9941 9.59879 15.5524H6.19789C6.19789 15.9941 6.3759 16.4176 6.69474 16.7294C7.01357 17.0412 7.44666 17.2153 7.89834 17.2153C8.35002 17.2153 8.78311 17.0412 9.10194 16.7294Z" fill="#7DCDBD"/>
</svg>
