<svg width="148" height="182" viewBox="0 0 148 182" fill="none" xmlns="http://www.w3.org/2000/svg">
<g opacity="0.8">
<mask id="mask0_3806_41763" style="mask-type:alpha" maskUnits="userSpaceOnUse" x="7" y="6" width="154" height="220">
<mask id="mask1_3806_41763" style="mask-type:alpha" maskUnits="userSpaceOnUse" x="7" y="6" width="154" height="220">
<path fill-rule="evenodd" clip-rule="evenodd" d="M88.3455 6.13067C81.4352 12.4846 71.8897 26.2286 71.5212 37.444C70.8266 58.591 82.8721 59.706 86.5792 59.9011C90.2862 60.0963 102.438 59.9347 103.122 39.1077C103.505 27.4576 94.129 13.3189 88.3455 6.13067ZM81.1904 225.31C123.437 227.534 158.837 194.241 160.259 150.948C161.682 107.654 128.587 70.7554 86.3406 68.5313C44.0942 66.3071 8.69377 99.6002 7.27157 142.893C5.84938 186.186 38.9439 223.086 81.1904 225.31Z" fill="#FF623D"/>
</mask>
<g mask="url(#mask1_3806_41763)">
<ellipse opacity="0.7" cx="38.8906" cy="43.519" rx="38.8906" ry="43.519" transform="matrix(0.999521 0.0526214 -0.0328043 0.9986 107.074 130.219)" fill="#FF3F18"/>
<ellipse opacity="0.6" cx="55.6517" cy="62.2748" rx="55.6517" ry="62.2748" transform="matrix(0.999521 0.0526214 -0.0328043 0.9986 29.7695 146.311)" fill="#FF3F18"/>
<ellipse opacity="0.8" cx="80.7377" cy="90.6602" rx="80.7377" ry="90.6602" transform="matrix(0.999521 0.0526225 -0.0328037 0.9986 -39.6758 18.48)" fill="#FF3F18"/>
<ellipse opacity="0.4" cx="55.1891" cy="61.9718" rx="55.1891" ry="61.9718" transform="matrix(0.999521 0.0526214 -0.0328043 0.9986 -38.3164 48.9775)" fill="#EB2706"/>
<ellipse opacity="0.3" cx="83.4598" cy="93.3923" rx="83.4598" ry="93.3923" transform="matrix(0.999521 0.0526214 -0.0328043 0.9986 25.8789 69.4795)" fill="#FF3F18"/>
<ellipse opacity="0.3" cx="53.6768" cy="60.0649" rx="53.6768" ry="60.0649" transform="matrix(0.999521 0.0526225 -0.0328037 0.9986 109.516 -6.35425)" fill="#FF3F18"/>
<path opacity="0.6" fill-rule="evenodd" clip-rule="evenodd" d="M111.728 -0.819785L88.5387 -2.04064L88.5383 -2.02904L65.6324 -3.23498L63.6105 58.3149L86.7997 59.5357L86.8001 59.5241L109.706 60.7301L111.728 -0.819785Z" fill="#00D6A2"/>
<rect width="23.2003" height="61.6362" transform="matrix(0.999521 0.0526225 -0.0328037 0.9986 88.0938 1.13159)" fill="#038F7E"/>
<rect width="34.7291" height="21.4576" transform="matrix(0.706392 -0.693557 0.687435 0.739906 77.5547 49.9722)" fill="#0DA98F"/>
<rect width="23.2003" height="61.6362" transform="matrix(0.999521 0.0526225 -0.0328037 0.9986 65.1836 -0.23291)" fill="#00D6A2"/>
<ellipse opacity="0.5" cx="14.517" cy="6.96104" rx="14.517" ry="6.96104" transform="matrix(0.638407 -0.756776 0.753766 0.672158 21.75 110.461)" fill="white"/>
<ellipse opacity="0.5" cx="14.6564" cy="6.89276" rx="14.6564" ry="6.89276" transform="matrix(0.078956 -0.995092 0.996754 0.101104 22.1523 133.708)" fill="white"/>
</g>
<mask id="mask2_3806_41763" style="mask-type:alpha" maskUnits="userSpaceOnUse" x="7" y="6" width="154" height="220">
<path fill-rule="evenodd" clip-rule="evenodd" d="M135.718 6.884C128.808 13.2379 119.262 26.9819 118.894 38.1973C118.199 59.3443 130.245 60.4593 133.952 60.6544C137.659 60.8496 149.811 60.6881 150.495 39.861C150.877 28.2109 141.501 14.0722 135.718 6.884ZM81.1801 225.312C123.426 227.536 158.827 194.243 160.249 150.95C161.671 107.657 128.577 70.7577 86.3303 68.5336C44.0839 66.3095 8.68347 99.6025 7.26128 142.896C5.83909 186.189 38.9336 223.088 81.1801 225.312Z" fill="#FF623D"/>
</mask>
<g mask="url(#mask2_3806_41763)">
<path opacity="0.5" d="M160.185 142.314C159.139 174.176 129.987 190.289 101.587 188.794C73.1861 187.299 51.0113 160.258 52.058 128.396C53.1046 96.5343 76.9764 71.9174 105.377 73.4126C133.778 74.9078 161.232 110.453 160.185 142.314Z" fill="#FF3F18"/>
<ellipse opacity="0.6" cx="65.5472" cy="67.3447" rx="65.5472" ry="67.3447" transform="matrix(0.998775 -0.0304586 0.0471465 0.999631 33.5977 135.488)" fill="#EB2706"/>
<ellipse opacity="0.5" cx="59.3057" cy="60.932" rx="59.3057" ry="60.932" transform="matrix(0.998775 -0.0304586 0.0471465 0.999631 43.6602 150.069)" fill="#EB2706"/>
<ellipse opacity="0.5" cx="38.8906" cy="43.519" rx="38.8906" ry="43.519" transform="matrix(0.999521 0.0526214 -0.0328043 0.9986 105.879 132.146)" fill="#FF3F18"/>
<ellipse opacity="0.5" cx="31.0859" cy="34.7855" rx="31.0859" ry="34.7855" transform="matrix(0.999521 0.0526214 -0.0328043 0.9986 122.109 141.052)" fill="#FF3F18"/>
<ellipse opacity="0.7" cx="44.2486" cy="45.4621" rx="44.2486" ry="45.4621" transform="matrix(0.998775 -0.0304586 0.0471465 0.999631 60.6172 163.395)" fill="#EB2706"/>
</g>
</mask>
<g mask="url(#mask0_3806_41763)">
<path opacity="0.7" d="M146.707 215.428C167.829 214.456 184.067 194.445 182.976 170.731C181.885 147.018 163.878 128.582 142.756 129.554C121.634 130.526 105.396 150.537 106.487 174.251C107.578 197.964 125.585 216.4 146.707 215.428Z" fill="#249675"/>
<path opacity="0.6" d="M87.2007 269.193C117.523 267.798 140.837 239.145 139.275 205.195C137.713 171.244 111.865 144.853 81.5434 146.249C51.2214 147.644 27.907 176.297 29.4693 210.247C31.0315 244.197 56.8787 270.588 87.2007 269.193Z" fill="#249675"/>
<path opacity="0.8" d="M43.6331 200.369C87.5699 198.463 121.451 156.887 119.309 107.507C117.166 58.1264 79.8116 19.6411 35.8749 21.5473C-8.0619 23.4535 -41.9429 65.0294 -39.8006 114.41C-37.6582 163.79 -0.303635 202.275 43.6331 200.369Z" fill="#249675"/>
<path opacity="0.4" d="M19.3792 172.447C49.448 171.142 72.6385 142.767 71.1765 109.07C69.7146 75.3718 44.1539 49.1118 14.085 50.4163C-15.9838 51.7208 -39.1742 80.0958 -37.7123 113.794C-36.2503 147.491 -10.6896 173.751 19.3792 172.447Z" fill="#00855E"/>
<path opacity="0.3" d="M110.209 257.944C155.692 255.851 190.668 212.976 188.331 162.181C185.994 111.385 147.228 71.9033 101.745 73.9961C56.2618 76.0889 21.2853 118.963 23.6226 169.759C25.9599 220.555 64.7258 260.037 110.209 257.944Z" fill="#249675"/>
<path opacity="0.3" d="M163.893 113.945C193.178 112.597 215.7 85.0332 214.198 52.3787C212.695 19.7243 187.737 -5.65498 158.452 -4.3075C129.166 -2.96002 106.644 24.604 108.146 57.2584C109.649 89.9128 134.607 115.292 163.893 113.945Z" fill="#249675"/>
<path opacity="0.6" fill-rule="evenodd" clip-rule="evenodd" d="M112.333 -1.55249L89.5492 -2.72692L67.0002 -4.13623L65.1211 56.6991L87.905 57.8736L110.454 59.048L112.333 -1.55249Z" fill="#4FAB90"/>
<path d="M89.0788 0.325928L111.863 1.50036L109.984 62.3357L86.9648 60.9264L89.0788 0.325928Z" fill="#088863"/>
<path d="M78.7422 48.4778L102.935 24.7544L117.498 40.2568L93.3051 64.2152L78.7422 48.4778Z" fill="#299878"/>
<path d="M66.528 -1.08228L89.3119 0.0921526L87.4329 60.9275L64.4141 59.7531L66.528 -1.08228Z" fill="#4BC19F"/>
<path opacity="0.5" d="M43.3719 106.529C48.3393 100.537 49.9372 93.6655 46.941 91.1818C43.9447 88.6981 37.489 91.5425 32.5216 97.5349C27.5542 103.527 25.9563 110.399 28.9525 112.882C31.9487 115.366 38.4045 112.522 43.3719 106.529Z" fill="white"/>
<path opacity="0.5" d="M38.5833 117.803C39.1597 109.912 36.5855 103.292 32.8337 103.018C29.0819 102.744 25.5731 108.919 24.9968 116.811C24.4204 124.703 26.9946 131.322 30.7464 131.596C34.4982 131.871 38.007 125.695 38.5833 117.803Z" fill="white"/>
<path opacity="0.5" d="M159.308 141.396C158.368 172.87 129.477 188.843 101.526 187.198C73.5746 185.789 51.4953 159.012 52.6698 127.537C53.6093 96.0627 77.3328 71.8695 105.284 73.2788C133.47 74.923 160.482 109.921 159.308 141.396Z" fill="#249675"/>
<path opacity="0.6" d="M122.822 261.086C156.872 250.448 175.574 213.317 164.595 178.15C153.616 142.984 117.113 123.1 83.0629 133.737C49.013 144.375 30.3105 181.506 41.2897 216.672C52.2689 251.839 88.7722 271.723 122.822 261.086Z" fill="#00855E"/>
<path opacity="0.5" d="M124.454 263.248C155.162 253.657 171.999 220.086 162.061 188.264C152.122 156.442 119.172 138.419 88.4645 148.01C57.7568 157.6 40.9199 191.171 50.8583 222.993C60.7966 254.816 93.7467 272.838 124.454 263.248Z" fill="#00855E"/>
<path opacity="0.5" d="M145.535 217.307C166.657 216.335 182.895 196.324 181.804 172.611C180.713 148.897 162.706 130.462 141.584 131.433C120.462 132.405 104.224 152.417 105.315 176.13C106.407 199.843 124.414 218.279 145.535 217.307Z" fill="#249675"/>
<path opacity="0.5" d="M153.842 208.621C170.817 207.84 183.872 191.87 183.002 172.951C182.131 154.033 167.664 139.329 150.689 140.11C133.714 140.891 120.659 156.861 121.529 175.78C122.4 194.699 136.867 209.402 153.842 208.621Z" fill="#249675"/>
<path opacity="0.7" d="M121.079 247.029C143.986 239.875 156.537 214.803 149.112 191.03C141.687 167.256 117.098 153.783 94.1915 160.937C71.2846 168.091 58.7338 193.163 66.1586 216.937C73.5833 240.71 98.172 254.183 121.079 247.029Z" fill="#00855E"/>
</g>
</g>
</svg>
