<svg width="16" height="16" viewBox="0 0 16 16" fill="none" xmlns="http://www.w3.org/2000/svg">
<path d="M5.21244 3.1981C5.07642 3.32499 5 3.49706 5 3.67647C5 3.85589 5.07642 4.02795 5.21244 4.15484L8.80413 7.50408L5.21244 10.8533C5.08027 10.9809 5.00714 11.1519 5.00879 11.3293C5.01044 11.5067 5.08675 11.6764 5.22128 11.8018C5.35581 11.9273 5.5378 11.9984 5.72805 12C5.9183 12.0015 6.10158 11.9333 6.23843 11.8101L10.3431 7.98245C10.4791 7.85557 10.5556 7.6835 10.5556 7.50408C10.5556 7.32467 10.4791 7.1526 10.3431 7.02572L6.23843 3.1981C6.10236 3.07126 5.91784 3 5.72544 3C5.53304 3 5.34851 3.07126 5.21244 3.1981Z" fill="#798583"/>
</svg>
