<svg width="16" height="16" viewBox="0 0 16 16" fill="none" xmlns="http://www.w3.org/2000/svg">
<path d="M9.8088 11.8019C9.93123 11.675 10 11.5029 10 11.3235C10 11.1441 9.93123 10.972 9.8088 10.8452L6.57628 7.49592L9.8088 4.14667C9.92776 4.01906 9.99358 3.84814 9.99209 3.67074C9.9906 3.49333 9.92192 3.32363 9.80084 3.19818C9.67977 3.07273 9.51598 3.00157 9.34475 3.00003C9.17353 2.99848 9.00857 3.06668 8.88541 3.18993L5.1912 7.01755C5.06877 7.14443 5 7.3165 5 7.49592C5 7.67533 5.06877 7.8474 5.1912 7.97428L8.88541 11.8019C9.00787 11.9287 9.17394 12 9.34711 12C9.52027 12 9.68634 11.9287 9.8088 11.8019Z" fill="#798583"/>
</svg>
