<svg width="79" height="41" viewBox="0 0 79 41" fill="none" xmlns="http://www.w3.org/2000/svg">
<circle opacity="0.3" cx="20.3232" cy="20.1094" r="20" fill="#0DA98F"/>
<circle cx="20.3231" cy="20.1102" r="14.347" fill="#0DA98F"/>
<path d="M25.9216 16.8628L18.5204 24.264L14.8198 20.5634" stroke="white" stroke-width="3" stroke-linecap="round" stroke-linejoin="round"/>
<path d="M63.6826 18.8906V20.3438H58.2139V21.2344H62.1357V24.7031H54.2139V25.4844H62.5107V26.9531H52.2607V23.3594H60.167V22.6562H52.2451V21.2344H56.2295V20.3438H50.7764V18.8906H63.6826ZM51.2764 17.0312C54.1201 16.9062 55.5654 16.2266 55.9795 15.4062H51.9951V13.9375H56.2295V12.8125H58.1982V13.9375H62.4639V15.4062H58.4404C58.8467 16.2266 60.2998 16.9062 63.167 17.0312L62.5889 18.5C59.9482 18.3672 58.1123 17.7031 57.2139 16.6328C56.3154 17.7031 54.4873 18.3672 51.8232 18.5L51.2764 17.0312ZM69.9014 15.0469C69.8936 16.8203 70.8857 18.5391 73.1357 19.25L72.0732 20.8281C70.5498 20.3125 69.5029 19.2891 68.9014 18C68.2764 19.4062 67.1592 20.5078 65.5576 21.0781L64.4795 19.4844C66.8623 18.7266 67.8779 16.8672 67.8857 14.9219V13.5625H69.9014V15.0469ZM66.792 23.5156V21.9375H76.5576V27.0469H74.5732V23.5156H66.792ZM71.9014 17.1094V15.4688H74.5732V12.8281H76.5576V21.2969H74.5732V17.1094H71.9014Z" fill="#212529"/>
</svg>
