<svg width="79" height="41" viewBox="0 0 79 41" fill="none" xmlns="http://www.w3.org/2000/svg">
<g opacity="0.3">
<circle opacity="0.3" cx="20.5" cy="20.0029" r="20" fill="#0DA98F"/>
<circle cx="20.4994" cy="20.0033" r="14.347" fill="#0DA98F"/>
<path d="M26.0978 16.7559L18.6967 24.157L14.9961 20.4564" stroke="white" stroke-width="3" stroke-linecap="round" stroke-linejoin="round"/>
<path d="M63.8594 18.7842V20.2373H58.3906V21.1279H62.3125V24.5967H54.3906V25.3779H62.6875V26.8467H52.4375V23.2529H60.3438V22.5498H52.4219V21.1279H56.4062V20.2373H50.9531V18.7842H63.8594ZM58.375 12.7061V13.8311H62.6406V15.2998H58.625C59.0156 16.1279 60.4688 16.8076 63.3438 16.9248L62.7656 18.3936C60.125 18.2686 58.2969 17.5967 57.3906 16.5186C56.4922 17.5967 54.6562 18.2686 52 18.3936L51.4531 16.9248C54.3047 16.8076 55.75 16.1279 56.1562 15.2998H52.1719V13.8311H56.4062V12.7061H58.375ZM70.0781 14.9404C70.0625 16.7061 71.0625 18.4248 73.3125 19.1436L72.25 20.7217C70.7188 20.2061 69.6797 19.1826 69.0781 17.8936C68.4453 19.2998 67.3438 20.4014 65.7344 20.9717L64.6562 19.3779C67.0312 18.6123 68.0469 16.7529 68.0625 14.8154V13.4561H70.0781V14.9404ZM76.7344 21.8311V26.9404H74.75V23.4092H66.9688V21.8311H76.7344ZM76.7344 12.7217V21.1904H74.75V17.0029H72.0781V15.3623H74.75V12.7217H76.7344Z" fill="#212529"/>
</g>
</svg>
