<svg width="18" height="18" viewBox="0 0 18 18" fill="none" xmlns="http://www.w3.org/2000/svg">
<g id="ep:arrow-right-bold">
<path id="Vector" d="M12.3178 2.41411C12.517 2.61336 12.6289 2.88356 12.6289 3.1653C12.6289 3.44704 12.517 3.71724 12.3178 3.91649L7.05845 9.17586L12.3178 14.4352C12.5114 14.6356 12.6185 14.904 12.616 15.1826C12.6136 15.4612 12.5019 15.7277 12.3049 15.9247C12.1079 16.1217 11.8414 16.2334 11.5628 16.2358C11.2842 16.2383 11.0158 16.1312 10.8154 15.9376L4.80488 9.92705C4.60569 9.7278 4.4938 9.4576 4.4938 9.17586C4.4938 8.89413 4.60569 8.62392 4.80488 8.42468L10.8154 2.41411C11.0147 2.21492 11.2849 2.10303 11.5666 2.10303C11.8484 2.10303 12.1186 2.21492 12.3178 2.41411Z" fill="#798583"/>
</g>
</svg>
