<svg width="41" height="41" viewBox="0 0 41 41" fill="none" xmlns="http://www.w3.org/2000/svg">
<path d="M24.2253 13.3023C24.4212 13.5053 24.5312 13.7806 24.5312 14.0677C24.5312 14.3548 24.4212 14.6301 24.2253 14.8331L19.0533 20.1919L24.2253 25.5507C24.4157 25.7549 24.521 26.0283 24.5186 26.3122C24.5162 26.596 24.4063 26.8675 24.2126 27.0683C24.0189 27.269 23.7568 27.3828 23.4829 27.3853C23.2089 27.3878 22.945 27.2787 22.7479 27.0815L16.8372 20.9573C16.6413 20.7543 16.5313 20.4789 16.5313 20.1919C16.5313 19.9048 16.6413 19.6295 16.8372 19.4265L22.7479 13.3023C22.9438 13.0994 23.2096 12.9854 23.4866 12.9854C23.7637 12.9854 24.0294 13.0994 24.2253 13.3023Z" fill="#757A80"/>
</svg>
