<svg width="20" height="20" viewBox="0 0 20 20" fill="none" xmlns="http://www.w3.org/2000/svg">
<circle opacity="0.6" cx="16.4521" cy="3.79785" r="2.10059" fill="#FF623D"/>
<circle cx="16.4521" cy="3.79785" r="1.25098" fill="#FF623D"/>
<path d="M7.39834 3.79785C6.92806 3.79785 6.54811 4.16942 6.54811 4.62933V5.12822C4.60853 5.51278 3.14721 7.19134 3.14721 9.20248V9.69098C3.14721 10.9122 2.68756 12.0919 1.85859 13.0065L1.66197 13.2222C1.43879 13.4664 1.38565 13.8172 1.52115 14.116C1.65666 14.4148 1.96221 14.6071 2.29698 14.6071H12.4997C12.8345 14.6071 13.1374 14.4148 13.2755 14.116C13.4137 13.8172 13.3579 13.4664 13.1347 13.2222L12.9381 13.0065C12.1091 12.0919 11.6495 10.9148 11.6495 9.69098V9.20248C11.6495 7.19134 10.1881 5.51278 8.24857 5.12822V4.62933C8.24857 4.16942 7.86862 3.79785 7.39834 3.79785ZM8.60194 16.6157C8.92078 16.3039 9.09879 15.8803 9.09879 15.4386H5.69789C5.69789 15.8803 5.8759 16.3039 6.19474 16.6157C6.51357 16.9275 6.94666 17.1016 7.39834 17.1016C7.85002 17.1016 8.28311 16.9275 8.60194 16.6157Z" fill="#7DCDBD"/>
</svg>
