<svg width="29" height="33" viewBox="0 0 29 33" fill="none" xmlns="http://www.w3.org/2000/svg">
<path id="Vector" d="M14.4986 0C13.3528 0 12.4272 0.92168 12.4272 2.0625V3.3C7.70178 4.25391 4.14156 8.41758 4.14156 13.4062V14.618C4.14156 17.6473 3.02171 20.5734 1.0021 22.8422L0.523084 23.3771C-0.0206584 23.983 -0.150121 24.8531 0.180009 25.5943C0.510138 26.3356 1.25455 26.8125 2.07016 26.8125H26.927C27.7426 26.8125 28.4805 26.3356 28.8171 25.5943C29.1537 24.8531 29.0178 23.983 28.4741 23.3771L27.995 22.8422C25.9754 20.5734 24.8556 17.6537 24.8556 14.618V13.4062C24.8556 8.41758 21.2954 4.25391 16.57 3.3V2.0625C16.57 0.92168 15.6443 0 14.4986 0ZM17.4309 31.7947C18.2077 31.0213 18.6414 29.9707 18.6414 28.875H10.3558C10.3558 29.9707 10.7895 31.0213 11.5662 31.7947C12.343 32.5682 13.3981 33 14.4986 33C15.599 33 16.6541 32.5682 17.4309 31.7947Z" fill="#B0E0D6"/>
</svg>
