<svg width="18" height="18" viewBox="0 0 18 18" fill="none" xmlns="http://www.w3.org/2000/svg">
<path d="M15.819 1.63972H13.819V0.985877C13.819 0.812467 13.7488 0.646158 13.6237 0.523538C13.4987 0.400918 13.3292 0.332031 13.1523 0.332031C12.9755 0.332031 12.806 0.400918 12.6809 0.523538C12.5559 0.646158 12.4857 0.812467 12.4857 0.985877V1.63972H5.81901V0.985877C5.81901 0.812467 5.74877 0.646158 5.62375 0.523538C5.49872 0.400918 5.32915 0.332031 5.15234 0.332031C4.97553 0.332031 4.80596 0.400918 4.68094 0.523538C4.55592 0.646158 4.48568 0.812467 4.48568 0.985877V1.63972H2.48568C2.13206 1.63972 1.79292 1.7775 1.54287 2.02274C1.29282 2.26798 1.15234 2.60059 1.15234 2.94742V16.0243C1.15234 16.3712 1.29282 16.7038 1.54287 16.949C1.79292 17.1943 2.13206 17.332 2.48568 17.332H15.819C16.1726 17.332 16.5118 17.1943 16.7618 16.949C17.0119 16.7038 17.1523 16.3712 17.1523 16.0243V2.94742C17.1523 2.60059 17.0119 2.26798 16.7618 2.02274C16.5118 1.7775 16.1726 1.63972 15.819 1.63972ZM15.819 5.5628H2.48568V2.94742H4.48568V3.60126C4.48568 3.77467 4.55592 3.94098 4.68094 4.0636C4.80596 4.18622 4.97553 4.25511 5.15234 4.25511C5.32915 4.25511 5.49872 4.18622 5.62375 4.0636C5.74877 3.94098 5.81901 3.77467 5.81901 3.60126V2.94742H12.4857V3.60126C12.4857 3.77467 12.5559 3.94098 12.6809 4.0636C12.806 4.18622 12.9755 4.25511 13.1523 4.25511C13.3292 4.25511 13.4987 4.18622 13.6237 4.0636C13.7488 3.94098 13.819 3.77467 13.819 3.60126V2.94742H15.819V5.5628Z" fill="#CED4DA"/>
</svg>
