<svg width="18" height="18" viewBox="0 0 18 18" fill="none" xmlns="http://www.w3.org/2000/svg">
<mask id="mask0_2741_25304" style="mask-type:alpha" maskUnits="userSpaceOnUse" x="1" y="0" width="17" height="18">
<path d="M15.7839 1.41878H13.7839V0.76493C13.7839 0.591519 13.7136 0.425211 13.5886 0.302591C13.4636 0.179971 13.294 0.111084 13.1172 0.111084C12.9404 0.111084 12.7708 0.179971 12.6458 0.302591C12.5208 0.425211 12.4505 0.591519 12.4505 0.76493V1.41878H5.78385V0.76493C5.78385 0.591519 5.71362 0.425211 5.58859 0.302591C5.46357 0.179971 5.294 0.111084 5.11719 0.111084C4.94038 0.111084 4.77081 0.179971 4.64578 0.302591C4.52076 0.425211 4.45052 0.591519 4.45052 0.76493V1.41878H2.45052C2.0969 1.41878 1.75776 1.55655 1.50771 1.80179C1.25766 2.04703 1.11719 2.37965 1.11719 2.72647V15.8034C1.11719 16.1502 1.25766 16.4828 1.50771 16.7281C1.75776 16.9733 2.0969 17.1111 2.45052 17.1111H15.7839C16.1375 17.1111 16.4766 16.9733 16.7267 16.7281C16.9767 16.4828 17.1172 16.1502 17.1172 15.8034V2.72647C17.1172 2.37965 16.9767 2.04703 16.7267 1.80179C16.4766 1.55655 16.1375 1.41878 15.7839 1.41878ZM15.7839 5.34185H2.45052V2.72647H4.45052V3.38031C4.45052 3.55373 4.52076 3.72003 4.64578 3.84265C4.77081 3.96527 4.94038 4.03416 5.11719 4.03416C5.294 4.03416 5.46357 3.96527 5.58859 3.84265C5.71362 3.72003 5.78385 3.55373 5.78385 3.38031V2.72647H12.4505V3.38031C12.4505 3.55373 12.5208 3.72003 12.6458 3.84265C12.7708 3.96527 12.9404 4.03416 13.1172 4.03416C13.294 4.03416 13.4636 3.96527 13.5886 3.84265C13.7136 3.72003 13.7839 3.55373 13.7839 3.38031V2.72647H15.7839V5.34185Z" fill="#CED4DA"/>
</mask>
<g mask="url(#mask0_2741_25304)">
<path d="M9.1175 -2.26807L19.4999 7.94891H-1.26493L9.1175 -2.26807Z" fill="#D9D9D9"/>
<path opacity="0.8" d="M9.1175 -2.26807L19.4999 7.94891H-1.26493L9.1175 -2.26807Z" fill="#00CF91"/>
<path opacity="0.8" d="M12.8792 -3.39917L23.2616 6.81781H2.49679L12.8792 -3.39917Z" fill="#5FE1B7"/>
<path opacity="0.8" d="M3.13703 -3.22729L13.5195 6.98968H-7.2454L3.13703 -3.22729Z" fill="#02BDA5"/>
<rect opacity="0.8" x="0.460938" y="7.88062" width="17.3137" height="9.23018" fill="#5FE1B7"/>
<rect opacity="0.8" x="8.46094" y="12.4956" width="17.3137" height="9.23018" fill="#5FE1B7"/>
<rect opacity="0.8" x="1.09375" y="10.1257" width="17.3137" height="9.23018" fill="#009980"/>
<rect opacity="0.5" x="4.65625" y="7.88062" width="17.3137" height="9.23018" fill="#00D6A2"/>
<rect opacity="0.5" x="4.65625" y="14.7407" width="17.3137" height="9.23018" fill="#00D6A2"/>
</g>
</svg>
