<svg width="50" height="51" viewBox="0 0 50 51" fill="none" xmlns="http://www.w3.org/2000/svg">
<g clip-path="url(#clip0_550_39934)">
<mask id="mask0_550_39934" style="mask-type:alpha" maskUnits="userSpaceOnUse" x="17" y="10" width="17" height="18">
<path d="M31.7839 11.3253H29.7839V10.6714C29.7839 10.498 29.7136 10.3317 29.5886 10.2091C29.4636 10.0865 29.294 10.0176 29.1172 10.0176C28.9404 10.0176 28.7708 10.0865 28.6458 10.2091C28.5208 10.3317 28.4505 10.498 28.4505 10.6714V11.3253H21.7839V10.6714C21.7839 10.498 21.7136 10.3317 21.5886 10.2091C21.4636 10.0865 21.294 10.0176 21.1172 10.0176C20.9404 10.0176 20.7708 10.0865 20.6458 10.2091C20.5208 10.3317 20.4505 10.498 20.4505 10.6714V11.3253H18.4505C18.0969 11.3253 17.7578 11.463 17.5077 11.7083C17.2577 11.9535 17.1172 12.2861 17.1172 12.633V25.7099C17.1172 26.0567 17.2577 26.3893 17.5077 26.6346C17.7578 26.8798 18.0969 27.0176 18.4505 27.0176H31.7839C32.1375 27.0176 32.4766 26.8798 32.7267 26.6346C32.9767 26.3893 33.1172 26.0567 33.1172 25.7099V12.633C33.1172 12.2861 32.9767 11.9535 32.7267 11.7083C32.4766 11.463 32.1375 11.3253 31.7839 11.3253ZM31.7839 15.2483H18.4505V12.633H20.4505V13.2868C20.4505 13.4602 20.5208 13.6265 20.6458 13.7491C20.7708 13.8718 20.9404 13.9407 21.1172 13.9407C21.294 13.9407 21.4636 13.8718 21.5886 13.7491C21.7136 13.6265 21.7839 13.4602 21.7839 13.2868V12.633H28.4505V13.2868C28.4505 13.4602 28.5208 13.6265 28.6458 13.7491C28.7708 13.8718 28.9404 13.9407 29.1172 13.9407C29.294 13.9407 29.4636 13.8718 29.5886 13.7491C29.7136 13.6265 29.7839 13.4602 29.7839 13.2868V12.633H31.7839V15.2483Z" fill="#CED4DA"/>
</mask>
<g mask="url(#mask0_550_39934)">
<path d="M25.1175 7.63867L35.4999 17.8556H14.7351L25.1175 7.63867Z" fill="#D9D9D9"/>
<path opacity="0.8" d="M25.1175 7.63867L35.4999 17.8556H14.7351L25.1175 7.63867Z" fill="#00CF91"/>
<path opacity="0.8" d="M28.8792 6.50781L39.2616 16.7248H18.4968L28.8792 6.50781Z" fill="#5FE1B7"/>
<path opacity="0.8" d="M19.137 6.67969L29.5195 16.8967H8.7546L19.137 6.67969Z" fill="#02BDA5"/>
<rect opacity="0.8" x="16.4609" y="17.7871" width="17.3137" height="9.23018" fill="#5FE1B7"/>
<rect opacity="0.8" x="24.4609" y="22.4023" width="17.3137" height="9.23018" fill="#5FE1B7"/>
<rect opacity="0.8" x="17.0938" y="20.0312" width="17.3137" height="9.23018" fill="#009980"/>
<rect opacity="0.5" x="20.6562" y="17.7871" width="17.3137" height="9.23018" fill="#00D6A2"/>
<rect opacity="0.5" x="20.6562" y="24.6465" width="17.3137" height="9.23018" fill="#00D6A2"/>
</g>
</g>
<path d="M16.2646 32.4844C16.2598 34.5742 15.21 36.0732 12.8564 36.9473L12.4463 36.293C13.584 35.8828 14.3555 35.3408 14.8193 34.667L12.5537 34.916L12.417 34.1641L15.166 33.998C15.2539 33.7539 15.3125 33.5 15.3418 33.2363H12.8174V32.4844H16.2646ZM13.9502 37.6602V36.9277H19.8193V39.0664H14.8877V39.8965H20.1514V40.6289H13.9697V38.3828H18.9111V37.6602H13.9502ZM17.0068 36.498V32.1523H17.8857V33.9297H18.9404V31.9961H19.8193V36.5566H18.9404V34.6914H17.8857V36.498H17.0068ZM28.2471 31.9961V38.4316H27.3291V31.9961H28.2471ZM21.4404 33.3438V32.6016H25.4639V35.209H22.3682V36.4688C23.9746 36.459 25.0732 36.4102 26.3721 36.1758L26.4697 36.9375C25.0928 37.1768 23.9307 37.2256 22.1924 37.2305H21.46V34.5059H24.5459V33.3438H21.4404ZM22.4658 40.5508V37.9238H23.3936V39.7988H28.4912V40.5508H22.4658ZM34.0869 32.7969V33.5684H31.0107V37.8359C32.4805 37.8262 33.4814 37.7725 34.6338 37.5527L34.7412 38.3145C33.4814 38.5537 32.417 38.6074 30.7666 38.6074H30.0732V32.7969H34.0869ZM33.5889 35.8828V35.1113H36.0205V31.9863H36.9482V40.7559H36.0205V35.8828H33.5889Z" fill="#006C52"/>
<defs>
<clipPath id="clip0_550_39934">
<rect width="18" height="18" fill="white" transform="translate(16 9.90625)"/>
</clipPath>
</defs>
</svg>
