<svg width="50" height="51" viewBox="0 0 50 51" fill="none" xmlns="http://www.w3.org/2000/svg">
<g clip-path="url(#clip0_550_39963)">
<path d="M31.819 11.546H29.819V10.8921C29.819 10.7187 29.7488 10.5524 29.6237 10.4298C29.4987 10.3072 29.3292 10.2383 29.1523 10.2383C28.9755 10.2383 28.806 10.3072 28.6809 10.4298C28.5559 10.5524 28.4857 10.7187 28.4857 10.8921V11.546H21.819V10.8921C21.819 10.7187 21.7488 10.5524 21.6237 10.4298C21.4987 10.3072 21.3292 10.2383 21.1523 10.2383C20.9755 10.2383 20.806 10.3072 20.6809 10.4298C20.5559 10.5524 20.4857 10.7187 20.4857 10.8921V11.546H18.4857C18.1321 11.546 17.7929 11.6837 17.5429 11.929C17.2928 12.1742 17.1523 12.5068 17.1523 12.8537V25.9306C17.1523 26.2774 17.2928 26.61 17.5429 26.8553C17.7929 27.1005 18.1321 27.2383 18.4857 27.2383H31.819C32.1726 27.2383 32.5118 27.1005 32.7618 26.8553C33.0119 26.61 33.1523 26.2774 33.1523 25.9306V12.8537C33.1523 12.5068 33.0119 12.1742 32.7618 11.929C32.5118 11.6837 32.1726 11.546 31.819 11.546ZM31.819 15.4691H18.4857V12.8537H20.4857V13.5075C20.4857 13.6809 20.5559 13.8472 20.6809 13.9699C20.806 14.0925 20.9755 14.1614 21.1523 14.1614C21.3292 14.1614 21.4987 14.0925 21.6237 13.9699C21.7488 13.8472 21.819 13.6809 21.819 13.5075V12.8537H28.4857V13.5075C28.4857 13.6809 28.5559 13.8472 28.6809 13.9699C28.806 14.0925 28.9755 14.1614 29.1523 14.1614C29.3292 14.1614 29.4987 14.0925 29.6237 13.9699C29.7488 13.8472 29.819 13.6809 29.819 13.5075V12.8537H31.819V15.4691Z" fill="#CED4DA"/>
</g>
<path d="M16.2646 32.4844C16.2598 34.5742 15.21 36.0732 12.8564 36.9473L12.4463 36.293C13.584 35.8828 14.3555 35.3408 14.8193 34.667L12.5537 34.916L12.417 34.1641L15.166 33.998C15.2539 33.7539 15.3125 33.5 15.3418 33.2363H12.8174V32.4844H16.2646ZM13.9502 37.6602V36.9277H19.8193V39.0664H14.8877V39.8965H20.1514V40.6289H13.9697V38.3828H18.9111V37.6602H13.9502ZM17.0068 36.498V32.1523H17.8857V33.9297H18.9404V31.9961H19.8193V36.5566H18.9404V34.6914H17.8857V36.498H17.0068ZM28.2471 31.9961V38.4316H27.3291V31.9961H28.2471ZM21.4404 33.3438V32.6016H25.4639V35.209H22.3682V36.4688C23.9746 36.459 25.0732 36.4102 26.3721 36.1758L26.4697 36.9375C25.0928 37.1768 23.9307 37.2256 22.1924 37.2305H21.46V34.5059H24.5459V33.3438H21.4404ZM22.4658 40.5508V37.9238H23.3936V39.7988H28.4912V40.5508H22.4658ZM34.0869 32.7969V33.5684H31.0107V37.8359C32.4805 37.8262 33.4814 37.7725 34.6338 37.5527L34.7412 38.3145C33.4814 38.5537 32.417 38.6074 30.7666 38.6074H30.0732V32.7969H34.0869ZM33.5889 35.8828V35.1113H36.0205V31.9863H36.9482V40.7559H36.0205V35.8828H33.5889Z" fill="#CED4DA"/>
<defs>
<clipPath id="clip0_550_39963">
<rect width="18" height="18" fill="white" transform="translate(16 9.90625)"/>
</clipPath>
</defs>
</svg>
