<svg width="69" height="31" viewBox="0 0 69 31" fill="none" xmlns="http://www.w3.org/2000/svg">
<g opacity="0.3">
<circle opacity="0.2" cx="15.5" cy="15.0029" r="15" fill="#45494D"/>
<circle cx="15.4986" cy="15.0034" r="10.7603" fill="#899199"/>
<path d="M19.5997 14.9407L15.4366 14.9404L11.2734 14.9407" stroke="white" stroke-width="3" stroke-linecap="round" stroke-linejoin="round"/>
<path d="M49.4688 9.64355V11.1904H46.6562C46.6953 12.3076 47.7031 13.3389 49.8125 13.7217L49.0312 15.2529C47.4219 14.9404 46.3125 14.2295 45.6875 13.2686C45.0547 14.3232 43.9219 15.1201 42.25 15.4561L41.4375 13.9092C43.5859 13.5107 44.5859 12.3936 44.6406 11.1904H41.8125V9.64355H44.6562V8.25293H46.6562V9.64355H49.4688ZM52.9062 8.2373V22.4404H50.9375V8.2373H52.9062ZM40.9531 16.0654C43.5781 16.0654 47.0781 16.0498 50.0781 15.6592L50.2031 17.0967C49.0312 17.2998 47.8281 17.4404 46.6406 17.5186V22.0029H44.6562V17.6279C43.4219 17.6748 42.2422 17.6826 41.2031 17.6748L40.9531 16.0654ZM67.7656 19.1436V20.7373H54.75V19.1436H60.1875V15.9248H62.1719V19.1436H67.7656ZM62.2344 10.0498C62.2344 12.0811 64.0625 14.2217 67.3125 14.7217L66.4688 16.3779C63.9688 15.9248 62.1094 14.5889 61.1719 12.8154C60.2344 14.5811 58.3906 15.9326 55.9062 16.3779L55.0625 14.7217C58.2812 14.2217 60.0938 12.0654 60.1094 10.0498V9.03418H62.2344V10.0498Z" fill="#212529"/>
</g>
</svg>
