<svg width="70" height="31" viewBox="0 0 70 31" fill="none" xmlns="http://www.w3.org/2000/svg">
<circle opacity="0.2" cx="15.3232" cy="15.1094" r="15" fill="#45494D"/>
<circle cx="15.3228" cy="15.1099" r="10.7603" fill="#899199"/>
<path d="M19.424 15.0466L15.2608 15.0464L11.0977 15.0466" stroke="white" stroke-width="3" stroke-linecap="round" stroke-linejoin="round"/>
<path d="M49.2764 9.35938V10.7188H46.3545C46.3857 11.9375 47.5029 13.0234 49.5889 13.4375L48.9014 14.7812C47.2842 14.4453 46.1357 13.6875 45.5107 12.6719C44.8936 13.7812 43.7373 14.6172 42.0732 14.9688L41.3389 13.625C43.4561 13.2109 44.5811 12.0156 44.6045 10.7188H41.6982V9.35938H44.6201V7.90625H46.3545V9.35938H49.2764ZM52.6045 7.89062V21.9844H50.8857V7.89062H52.6045ZM40.8076 15.7031C43.4326 15.7031 46.9482 15.6875 49.9639 15.3125L50.0889 16.5625C48.8701 16.7734 47.6045 16.9062 46.3701 16.9844V21.5625H44.6201V17.0781C43.3311 17.1328 42.1045 17.1406 41.0264 17.1406L40.8076 15.7031ZM68.0064 18.8438V20.25H55.1001V18.8438H60.6314V15.5781H62.3501V18.8438H68.0064ZM62.397 9.76562C62.397 11.9062 64.5376 14.0156 67.5064 14.4844L66.7564 15.9219C64.3657 15.4688 62.4126 14.1016 61.4751 12.25C60.5376 14.0938 58.6001 15.4844 56.2251 15.9219L55.4751 14.4844C58.4282 14.0156 60.5376 11.8906 60.5532 9.76562V8.73438H62.397V9.76562Z" fill="#212529"/>
</svg>
