<svg width="22" height="18" viewBox="0 0 22 18" fill="none" xmlns="http://www.w3.org/2000/svg">
<g id="Group 427319750">
<path id="Vector" d="M3 0.90625L19 16.9062" stroke="#A9AEB3" stroke-linecap="round" stroke-linejoin="round"/>
<path id="Vector_2" d="M15.5 13.6622C14.1474 14.3909 12.6186 14.9062 11 14.9062C5.47715 14.9062 1 8.90625 1 8.90625C1 8.90625 3.08842 6.10748 6.17205 4.33295M18.5 11.5399C20.0559 10.1715 21 8.90625 21 8.90625C21 8.90625 16.5228 2.90625 11 2.90625C10.6625 2.90625 10.3289 2.92866 10 2.97073" stroke="#A9AEB3" stroke-linecap="round" stroke-linejoin="round"/>
<path id="Vector_3" d="M12.3229 10.4064C11.9703 10.7176 11.5072 10.9064 11 10.9064C9.89543 10.9064 9 10.011 9 8.90644C9 8.36694 9.21362 7.87733 9.56088 7.51758" stroke="#A9AEB3" stroke-linecap="round" stroke-linejoin="round"/>
</g>
</svg>
