<svg width="50" height="51" viewBox="0 0 50 51" fill="none" xmlns="http://www.w3.org/2000/svg">
<g clip-path="url(#clip0_550_39951)">
<mask id="mask0_550_39951" style="mask-type:alpha" maskUnits="userSpaceOnUse" x="18" y="8" width="15" height="20">
<path fill-rule="evenodd" clip-rule="evenodd" d="M25.0104 8.89648C24.3982 9.47782 23.5675 10.7107 23.5675 11.6829C23.5675 13.5161 24.6712 13.5577 25.0104 13.5577C25.3497 13.5577 26.4593 13.4883 26.4593 11.6829C26.4593 10.673 25.5603 9.49218 25.0104 8.89648ZM25.0156 27.8966C28.8816 27.8966 32.0156 24.8542 32.0156 21.1013C32.0156 17.3483 28.8816 14.306 25.0156 14.306C21.1496 14.306 18.0156 17.3483 18.0156 21.1013C18.0156 24.8542 21.1496 27.8966 25.0156 27.8966Z" fill="#757A80"/>
</mask>
<g mask="url(#mask0_550_39951)">
<ellipse cx="18.7095" cy="16.7516" rx="3.5572" ry="3.76723" fill="#02BDA5"/>
<ellipse cx="32.0142" cy="16.3707" rx="3.5572" ry="3.76723" fill="#00906D"/>
<ellipse cx="25.1041" cy="26.8532" rx="3.5572" ry="3.76723" fill="#00B38E"/>
<path d="M23.8281 22.6165C23.8822 23.7172 24.3215 24.7166 25.0137 25.4829C25.706 24.7166 26.1453 23.7172 26.1994 22.6163C25.8152 22.585 25.4193 22.5684 25.0149 22.5684C24.6106 22.5684 24.213 22.585 23.8281 22.6167V22.6165Z" fill="#00AC8E"/>
<path d="M25.0147 19.4838C25.8596 18.5486 27.0817 17.961 28.4411 17.961C28.8534 17.961 29.2529 18.0153 29.6333 18.1167C29.6188 15.5774 27.5573 13.5234 25.0159 13.5234C22.4745 13.5234 20.4132 15.5772 20.3984 18.1161C20.7781 18.015 21.1769 17.961 21.5884 17.961C22.9477 17.961 24.1696 18.5487 25.0148 19.4838H25.0147Z" fill="#5FE1B7"/>
<path d="M18.4479 25.4057C18.4479 24.2477 20.7683 23.0615 23.8311 22.811C23.8277 22.7434 23.8261 22.6753 23.8257 22.6069C21.8532 22.081 20.4001 20.2817 20.4001 18.1427C20.4001 18.1335 20.4005 18.1244 20.4005 18.1152C18.4269 18.6405 16.9727 20.4403 16.9727 22.5801C16.9727 24.5069 18.1517 26.1579 19.8272 26.8511C18.9626 26.4523 18.4478 25.9511 18.4478 25.4057H18.448H18.4479Z" fill="#00AB8E"/>
<path d="M23.8241 22.6078C23.8241 22.5989 23.8237 22.5898 23.8237 22.581C23.8237 21.3893 24.2747 20.3033 25.0152 19.4838C24.1703 18.5485 22.9482 17.9609 21.5888 17.9609C21.1773 17.9609 20.7785 18.0152 20.3988 18.1161C20.3988 18.1253 20.3984 18.1343 20.3984 18.1435C20.3984 20.2825 21.8516 22.0817 23.824 22.6078H23.8241Z" fill="#00CF91"/>
<path d="M33.0577 22.5816C33.0577 20.4424 31.6046 18.6431 29.6321 18.1172C29.6321 18.126 29.6325 18.1351 29.6325 18.144C29.6325 20.2839 28.1783 22.0837 26.2047 22.609C26.2043 22.677 26.2026 22.7448 26.1992 22.8121C29.2631 23.0621 31.5847 24.2486 31.5847 25.4069C31.5847 25.9535 31.0643 26.4571 30.1914 26.8572C31.873 26.167 33.0577 24.5126 33.0577 22.5814V22.5816Z" fill="#02BDA5"/>
<path d="M25.0156 19.4838C25.756 20.3031 26.2071 21.3893 26.2071 22.581C26.2071 22.5902 26.2067 22.5992 26.2067 22.6084C28.1803 22.0833 29.6345 20.2835 29.6345 18.1435C29.6345 18.1345 29.6342 18.1255 29.6342 18.1167C29.2538 18.0153 28.8543 17.9609 28.442 17.9609C27.0826 17.9609 25.8607 18.5487 25.0156 19.4838Z" fill="#00AB8E"/>
<path d="M25.0156 19.4844C24.2752 20.3038 23.8242 21.39 23.8242 22.5817C23.8242 22.5907 23.8246 22.5995 23.8246 22.6085C24.2049 22.7098 24.6045 22.7642 25.0168 22.7642C25.4291 22.7642 25.8271 22.71 26.2067 22.6091C26.2067 22.5999 26.2071 22.5909 26.2071 22.5817C26.2071 21.39 25.7561 20.304 25.0156 19.4844Z" fill="#00B38E"/>
<path d="M25.0142 25.6789C24.3219 24.9127 23.8826 23.9134 23.8286 22.8125C20.7659 23.063 18.4453 24.2493 18.4453 25.4072C18.4453 25.9526 18.9601 26.4541 19.8247 26.8527C20.368 27.0774 20.9635 27.2017 21.5878 27.2017C22.9472 27.2017 24.1691 26.614 25.0142 25.6789Z" fill="#0CBE97"/>
<path d="M31.5867 25.4074C31.5867 24.2493 29.2651 23.0626 26.2012 22.8125C26.1472 23.9134 25.7079 24.9128 25.0156 25.6791C25.8605 26.6141 27.0826 27.2019 28.442 27.2019C29.062 27.2019 29.6533 27.0793 30.1934 26.8576C31.0664 26.4576 31.5867 25.954 31.5867 25.4074Z" fill="#008B6E"/>
<path d="M23.8281 22.8117C23.8822 23.9125 24.3215 24.9119 25.0137 25.6781C25.706 24.9119 26.1453 23.9125 26.1994 22.8117C25.8152 22.7803 25.4193 22.7637 25.0149 22.7637C24.6106 22.7637 24.213 22.7803 23.8281 22.8119V22.8117Z" fill="#18A78D"/>
<rect x="22.9062" y="8.18945" width="2.12205" height="5.33555" fill="#00CF91"/>
<rect x="25.0039" y="8.18945" width="2.12205" height="5.33555" fill="#008A68"/>
<ellipse opacity="0.5" cx="21.3485" cy="17.1781" rx="4.28986" ry="4.16441" fill="#74F9CE"/>
<ellipse opacity="0.8" cx="21.2819" cy="9.84265" rx="3.26629" ry="3.17077" fill="#74F9CE"/>
</g>
</g>
<path d="M11.2988 32.7578C11.2939 33.9199 12.7148 35.0088 14.4336 35.2383L14.0723 36C12.6416 35.7705 11.3867 35.0283 10.8154 33.998C10.2441 35.0283 8.98926 35.7705 7.56836 36L7.19727 35.2383C8.91113 35.0088 10.3271 33.9346 10.332 32.7578V32.2793H11.2988V32.7578ZM6.81641 37.6211V36.8594H14.7949V37.6211H11.2402V40.7363H10.332V37.6211H6.81641ZM17.8809 32.3867C19.0332 32.377 19.9268 33.0459 20.1172 34.0273H21.8262V31.9863H22.7539V36.6836H21.8262V34.7891H20.1221C19.9414 35.7949 19.043 36.4688 17.8809 36.4688C16.543 36.4688 15.5811 35.624 15.5859 34.418C15.5811 33.2266 16.543 32.377 17.8809 32.3867ZM16.4746 34.418C16.4697 35.165 17.0557 35.6875 17.8809 35.6875C18.6914 35.6875 19.2676 35.165 19.2676 34.418C19.2676 33.666 18.6914 33.1533 17.8809 33.1582C17.0557 33.1533 16.4697 33.666 16.4746 34.418ZM17.0508 40.6289V37.1035H17.9688V38.1191H21.8262V37.1035H22.7539V40.6289H17.0508ZM17.9688 39.8672H21.8262V38.8516H17.9688V39.8672ZM31.416 32.6504V33.1387C31.4062 33.7246 31.4062 34.5938 31.1914 35.7266L30.2734 35.6387C30.4639 34.6719 30.4932 33.9639 30.5029 33.4121H27.002V32.6504H31.416ZM26.4746 36.4785C27.0117 36.4785 27.6221 36.4736 28.2617 36.459V34.6133H29.1797V36.4297C30.1172 36.3906 31.084 36.3223 31.9629 36.1953L32.0215 36.8691C30.1953 37.1914 28.1055 37.2256 26.5625 37.2305L26.4746 36.4785ZM27.8027 40.5508V37.9629H28.7305V39.7988H33.75V40.5508H27.8027ZM32.5195 38.5586V31.9863H33.4668V34.7695H34.668V35.5508H33.4668V38.5586H32.5195ZM42.4512 31.9863V40.7559H41.5234V31.9863H42.4512ZM35.6738 33.5293V32.7773H39.7754V35.9707H36.6309V37.8848C38.0518 37.8799 39.2871 37.8115 40.752 37.5723L40.8398 38.334C39.292 38.5928 37.9736 38.6514 36.4258 38.6562H35.6836V35.2285H38.8281V33.5293H35.6738Z" fill="#006C52"/>
<defs>
<clipPath id="clip0_550_39951">
<rect width="16" height="19" fill="white" transform="translate(17 8.90625)"/>
</clipPath>
</defs>
</svg>
