<svg width="50" height="51" viewBox="0 0 50 51" fill="none" xmlns="http://www.w3.org/2000/svg">
<g clip-path="url(#clip0_986_65811)">
<mask id="mask0_986_65811" style="mask-type:alpha" maskUnits="userSpaceOnUse" x="18" y="8" width="15" height="20">
<path fill-rule="evenodd" clip-rule="evenodd" d="M25.0104 8.89648C24.3982 9.47782 23.5675 10.7107 23.5675 11.6829C23.5675 13.5161 24.6712 13.5577 25.0104 13.5577C25.3497 13.5577 26.4593 13.4883 26.4593 11.6829C26.4593 10.673 25.5603 9.49218 25.0104 8.89648ZM25.0156 27.8966C28.8816 27.8966 32.0156 24.8542 32.0156 21.1013C32.0156 17.3483 28.8816 14.306 25.0156 14.306C21.1496 14.306 18.0156 17.3483 18.0156 21.1013C18.0156 24.8542 21.1496 27.8966 25.0156 27.8966Z" fill="#757A80"/>
</mask>
<g mask="url(#mask0_986_65811)">
<ellipse cx="18.7095" cy="16.7516" rx="3.5572" ry="3.76723" fill="#02BDA5"/>
<ellipse cx="32.0142" cy="16.3707" rx="3.5572" ry="3.76723" fill="#00906D"/>
<ellipse cx="25.1041" cy="26.8522" rx="3.5572" ry="3.76723" fill="#00B38E"/>
<path d="M23.8281 22.6155C23.8822 23.7162 24.3215 24.7156 25.0137 25.4819C25.706 24.7156 26.1453 23.7162 26.1994 22.6154C25.8152 22.584 25.4193 22.5674 25.0149 22.5674C24.6106 22.5674 24.213 22.584 23.8281 22.6157V22.6155Z" fill="#00AC8E"/>
<path d="M25.0147 19.4838C25.8596 18.5486 27.0817 17.961 28.4411 17.961C28.8534 17.961 29.2529 18.0153 29.6333 18.1167C29.6188 15.5774 27.5573 13.5234 25.0159 13.5234C22.4745 13.5234 20.4132 15.5772 20.3984 18.1161C20.7781 18.015 21.1769 17.961 21.5884 17.961C22.9477 17.961 24.1696 18.5487 25.0148 19.4838H25.0147Z" fill="#5FE1B7"/>
<path d="M18.4479 25.4067C18.4479 24.2487 20.7683 23.0625 23.8311 22.812C23.8277 22.7444 23.8261 22.6763 23.8257 22.6079C21.8532 22.082 20.4001 20.2827 20.4001 18.1436C20.4001 18.1344 20.4005 18.1254 20.4005 18.1162C18.4269 18.6415 16.9727 20.4413 16.9727 22.5811C16.9727 24.5079 18.1517 26.1589 19.8272 26.8521C18.9626 26.4533 18.4478 25.952 18.4478 25.4067H18.448H18.4479Z" fill="#00AB8E"/>
<path d="M23.8241 22.6087C23.8241 22.5999 23.8237 22.5908 23.8237 22.5819C23.8237 21.3903 24.2747 20.3042 25.0152 19.4847C24.1703 18.5495 22.9482 17.9619 21.5888 17.9619C21.1773 17.9619 20.7785 18.0161 20.3988 18.1171C20.3988 18.1262 20.3984 18.1353 20.3984 18.1445C20.3984 20.2835 21.8516 22.0827 23.824 22.6087H23.8241Z" fill="#00CF91"/>
<path d="M33.0577 22.5816C33.0577 20.4424 31.6046 18.6431 29.6321 18.1172C29.6321 18.126 29.6325 18.1351 29.6325 18.144C29.6325 20.2839 28.1783 22.0837 26.2047 22.609C26.2043 22.677 26.2026 22.7448 26.1992 22.8121C29.2631 23.0621 31.5847 24.2486 31.5847 25.4069C31.5847 25.9535 31.0643 26.4571 30.1914 26.8572C31.873 26.167 33.0577 24.5126 33.0577 22.5814V22.5816Z" fill="#02BDA5"/>
<path d="M25.0156 19.4847C25.756 20.3041 26.2071 21.3903 26.2071 22.5819C26.2071 22.5911 26.2067 22.6002 26.2067 22.6094C28.1803 22.0842 29.6345 20.2845 29.6345 18.1445C29.6345 18.1354 29.6342 18.1265 29.6342 18.1177C29.2538 18.0162 28.8543 17.9619 28.442 17.9619C27.0826 17.9619 25.8607 18.5497 25.0156 19.4847Z" fill="#00AB8E"/>
<path d="M25.0156 19.4844C24.2752 20.3038 23.8242 21.39 23.8242 22.5817C23.8242 22.5907 23.8246 22.5995 23.8246 22.6085C24.2049 22.7098 24.6045 22.7642 25.0168 22.7642C25.4291 22.7642 25.8271 22.71 26.2067 22.6091C26.2067 22.5999 26.2071 22.5909 26.2071 22.5817C26.2071 21.39 25.7561 20.304 25.0156 19.4844Z" fill="#00B38E"/>
<path d="M25.0142 25.6789C24.3219 24.9127 23.8826 23.9134 23.8286 22.8125C20.7659 23.063 18.4453 24.2493 18.4453 25.4072C18.4453 25.9526 18.9601 26.4541 19.8247 26.8527C20.368 27.0774 20.9635 27.2017 21.5878 27.2017C22.9472 27.2017 24.1691 26.614 25.0142 25.6789Z" fill="#0CBE97"/>
<path d="M31.5867 25.4074C31.5867 24.2493 29.2651 23.0626 26.2012 22.8125C26.1472 23.9134 25.7079 24.9128 25.0156 25.6791C25.8605 26.6141 27.0826 27.2019 28.442 27.2019C29.062 27.2019 29.6533 27.0793 30.1934 26.8576C31.0664 26.4576 31.5867 25.954 31.5867 25.4074Z" fill="#008B6E"/>
<path d="M23.8281 22.8117C23.8822 23.9125 24.3215 24.9119 25.0137 25.6781C25.706 24.9119 26.1453 23.9125 26.1994 22.8117C25.8152 22.7803 25.4193 22.7637 25.0149 22.7637C24.6106 22.7637 24.213 22.7803 23.8281 22.8119V22.8117Z" fill="#18A78D"/>
<rect x="22.9062" y="8.18848" width="2.12205" height="5.33555" fill="#00CF91"/>
<rect x="25.0039" y="8.18848" width="2.12205" height="5.33555" fill="#008A68"/>
<ellipse opacity="0.5" cx="21.3485" cy="17.1781" rx="4.28986" ry="4.16441" fill="#74F9CE"/>
<ellipse opacity="0.8" cx="21.2819" cy="9.84265" rx="3.26629" ry="3.17077" fill="#74F9CE"/>
</g>
</g>
<path d="M12.0346 33.9946C11.4648 35.0306 10.2114 35.7695 8.78874 35.9974L8.41581 35.2412C10.132 35.0098 11.5477 33.9325 11.5477 32.755V32.2785H12.5146V32.755C12.5146 33.9187 13.9338 35.0098 15.6568 35.2412L15.2874 35.9974C13.8578 35.7695 12.6043 35.0237 12.0346 33.9946ZM8.03943 36.8572H16.0159V37.6238H12.4628V40.735H11.5512V37.6238H8.03943V36.8572ZM23.0494 34.0292V31.985H23.9748V36.6811H23.0494V34.7854H21.3436C21.1641 35.7902 20.2663 36.467 19.0991 36.467C17.7628 36.467 16.8029 35.6245 16.8098 34.4194C16.8029 33.2246 17.7628 32.3752 19.0991 32.3821C20.2524 32.3752 21.1468 33.0451 21.3402 34.0292H23.0494ZM19.0991 35.6866C19.9106 35.6866 20.4907 35.1652 20.4907 34.4194C20.4907 33.6632 19.9106 33.1556 19.0991 33.1625C18.2739 33.1556 17.6903 33.6632 17.6903 34.4194C17.6903 35.1652 18.2739 35.6866 19.0991 35.6866ZM19.1889 38.1245H23.0494V37.1058H23.9748V40.6245H18.2704V37.1058H19.1889V38.1245ZM19.1889 39.8683H23.0494V38.8531H19.1889V39.8683ZM32.2445 31.985V34.7716H33.4496V35.5554H32.2445V38.5596H31.3018V31.985H32.2445ZM29.9724 35.7212L29.0539 35.6417C29.2438 34.668 29.2749 33.9636 29.2818 33.4145H25.7804V32.648H30.1934V33.1417C30.1865 33.7253 30.1865 34.5955 29.9724 35.7212ZM30.7459 36.1942L30.8011 36.871C28.9744 37.1922 26.8854 37.2267 25.3384 37.2301L25.2521 36.4774C25.7907 36.4739 26.4019 36.4705 27.0442 36.4567V34.6162H27.9627V36.4256C28.9019 36.3876 29.8653 36.3185 30.7459 36.1942ZM26.5815 37.9656H27.5069V39.7958H32.5242V40.5554H26.5815V37.9656ZM40.3069 40.7522V31.985H41.2255V40.7522H40.3069ZM35.414 35.9732V37.8862C36.8297 37.8793 38.0694 37.8137 39.5335 37.572L39.6198 38.3386C38.0694 38.5941 36.7503 38.6528 35.2103 38.6528H34.4609V35.2274H37.6101V33.5319H34.4506V32.7723H38.5493V35.9732H35.414Z" fill="#006654"/>
<defs>
<clipPath id="clip0_986_65811">
<rect width="16" height="19" fill="white" transform="translate(17 8.90625)"/>
</clipPath>
</defs>
</svg>
