<svg width="50" height="51" viewBox="0 0 50 51" fill="none" xmlns="http://www.w3.org/2000/svg">
<g clip-path="url(#clip0_986_65826)">
<mask id="mask0_986_65826" style="mask-type:alpha" maskUnits="userSpaceOnUse" x="18" y="9" width="14" height="20">
<path fill-rule="evenodd" clip-rule="evenodd" d="M24.9948 9.40625C24.3826 9.98758 23.5518 11.2204 23.5518 12.1927C23.5518 14.0258 24.6556 14.0674 24.9948 14.0674C25.334 14.0674 26.4436 13.9981 26.4436 12.1927C26.4436 11.1827 25.5447 10.0019 24.9948 9.40625ZM25 28.4063C28.866 28.4063 32 25.364 32 21.611C32 17.8581 28.866 14.8157 25 14.8157C21.134 14.8157 18 17.8581 18 21.611C18 25.364 21.134 28.4063 25 28.4063Z" fill="#CED4DA"/>
</mask>
<g mask="url(#mask0_986_65826)">
<ellipse cx="18.6939" cy="17.2614" rx="3.5572" ry="3.76723" fill="#CED4DA"/>
<ellipse cx="31.9986" cy="16.8805" rx="3.5572" ry="3.76723" fill="#CED4DA"/>
<ellipse cx="25.0884" cy="27.362" rx="3.5572" ry="3.76723" fill="#CED4DA"/>
<path d="M23.8125 23.1253C23.8666 24.226 24.3059 25.2254 24.9981 25.9917C25.6904 25.2254 26.1297 24.226 26.1837 23.1251C25.7996 23.0938 25.4036 23.0771 24.9993 23.0771C24.5949 23.0771 24.1974 23.0938 23.8125 23.1255V23.1253Z" fill="#CED4DA"/>
<path d="M24.9991 19.9936C25.844 19.0583 27.0661 18.4708 28.4255 18.4708C28.8378 18.4708 29.2373 18.5251 29.6177 18.6265C29.6032 16.0872 27.5417 14.0332 25.0003 14.0332C22.4588 14.0332 20.3976 16.087 20.3828 18.6259C20.7625 18.5248 21.1613 18.4708 21.5728 18.4708C22.9321 18.4708 24.154 19.0585 24.9992 19.9936H24.9991Z" fill="#CED4DA"/>
<path d="M18.4322 25.9165C18.4322 24.7584 20.7527 23.5722 23.8155 23.3217C23.8121 23.2542 23.8105 23.186 23.81 23.1177C21.8376 22.5918 20.3845 20.7924 20.3845 18.6534C20.3845 18.6442 20.3848 18.6352 20.3848 18.626C18.4112 19.1513 16.957 20.951 16.957 23.0909C16.957 25.0177 18.136 26.6687 19.8115 27.3618C18.947 26.963 18.4322 26.4618 18.4322 25.9165H18.4323H18.4322Z" fill="#CED4DA"/>
<path d="M23.8085 23.1185C23.8085 23.1097 23.8081 23.1006 23.8081 23.0917C23.8081 21.9001 24.2591 20.814 24.9995 19.9945C24.1546 19.0593 22.9325 18.4717 21.5732 18.4717C21.1617 18.4717 20.7629 18.5259 20.3832 18.6268C20.3832 18.636 20.3828 18.645 20.3828 18.6542C20.3828 20.7933 21.8359 22.5925 23.8084 23.1185H23.8085Z" fill="#CED4DA"/>
<path d="M33.0421 23.0913C33.0421 20.9522 31.589 19.1528 29.6165 18.627C29.6165 18.6358 29.6168 18.6449 29.6168 18.6538C29.6168 20.7937 28.1626 22.5935 26.189 23.1187C26.1887 23.1868 26.187 23.2545 26.1836 23.3219C29.2474 23.5718 31.5691 24.7583 31.5691 25.9167C31.5691 26.4633 31.0487 26.9669 30.1757 27.367C31.8574 26.6767 33.0421 25.0224 33.0421 23.0911V23.0913Z" fill="#CED4DA"/>
<path d="M25 19.9945C25.7404 20.8138 26.1914 21.9001 26.1914 23.0917C26.1914 23.1009 26.1911 23.1099 26.1911 23.1191C28.1647 22.594 29.6189 20.7942 29.6189 18.6542C29.6189 18.6452 29.6186 18.6363 29.6186 18.6274C29.2382 18.526 28.8387 18.4717 28.4264 18.4717C27.067 18.4717 25.8451 19.0594 25 19.9945Z" fill="#CED4DA"/>
<path d="M25 19.9941C24.2596 20.8136 23.8086 21.8998 23.8086 23.0914C23.8086 23.1004 23.809 23.1093 23.809 23.1182C24.1893 23.2196 24.5889 23.274 25.0012 23.274C25.4135 23.274 25.8115 23.2197 26.1911 23.1188C26.1911 23.1096 26.1915 23.1006 26.1915 23.0914C26.1915 21.8998 25.7404 20.8137 25 19.9941Z" fill="#CED4DA"/>
<path d="M24.9986 26.1887C24.3063 25.4224 23.867 24.4232 23.8129 23.3223C20.7503 23.5728 18.4297 24.759 18.4297 25.917C18.4297 26.4623 18.9445 26.9638 19.8091 27.3624C20.3523 27.5872 20.9479 27.7115 21.5722 27.7115C22.9316 27.7115 24.1535 27.1237 24.9986 26.1887Z" fill="#CED4DA"/>
<path d="M31.5711 25.9172C31.5711 24.759 29.2495 23.5723 26.1856 23.3223C26.1315 24.4232 25.6922 25.4226 25 26.1888C25.8449 27.1239 27.067 27.7117 28.4264 27.7117C29.0464 27.7117 29.6376 27.5891 30.1778 27.3674C31.0508 26.9674 31.5711 26.4638 31.5711 25.9172Z" fill="#CED4DA"/>
<path d="M23.8125 23.3215C23.8666 24.4222 24.3059 25.4217 24.9981 26.1879C25.6904 25.4217 26.1297 24.4222 26.1837 23.3214C25.7996 23.2901 25.4036 23.2734 24.9993 23.2734C24.5949 23.2734 24.1974 23.2901 23.8125 23.3217V23.3215Z" fill="#CED4DA"/>
<rect x="22.8906" y="8.69824" width="2.12205" height="5.33555" fill="#CED4DA"/>
<rect x="24.9883" y="8.69824" width="2.12205" height="5.33555" fill="#CED4DA"/>
<ellipse opacity="0.5" cx="21.3328" cy="17.6878" rx="4.28986" ry="4.16441" fill="#CED4DA"/>
<ellipse opacity="0.8" cx="21.2663" cy="10.3524" rx="3.26629" ry="3.17077" fill="#CED4DA"/>
</g>
</g>
<path d="M12.0346 34.4946C11.4648 35.5306 10.2114 36.2695 8.78874 36.4974L8.41581 35.7412C10.132 35.5098 11.5477 34.4325 11.5477 33.255V32.7785H12.5146V33.255C12.5146 34.4187 13.9338 35.5098 15.6568 35.7412L15.2874 36.4974C13.8578 36.2695 12.6043 35.5237 12.0346 34.4946ZM8.03943 37.3572H16.0159V38.1238H12.4628V41.235H11.5512V38.1238H8.03943V37.3572ZM23.0494 34.5292V32.485H23.9748V37.1811H23.0494V35.2854H21.3436C21.1641 36.2902 20.2663 36.967 19.0991 36.967C17.7628 36.967 16.8029 36.1245 16.8098 34.9194C16.8029 33.7246 17.7628 32.8752 19.0991 32.8821C20.2524 32.8752 21.1468 33.5451 21.3402 34.5292H23.0494ZM19.0991 36.1866C19.9106 36.1866 20.4907 35.6652 20.4907 34.9194C20.4907 34.1632 19.9106 33.6556 19.0991 33.6625C18.2739 33.6556 17.6903 34.1632 17.6903 34.9194C17.6903 35.6652 18.2739 36.1866 19.0991 36.1866ZM19.1889 38.6245H23.0494V37.6058H23.9748V41.1245H18.2704V37.6058H19.1889V38.6245ZM19.1889 40.3683H23.0494V39.3531H19.1889V40.3683ZM32.2445 32.485V35.2716H33.4496V36.0554H32.2445V39.0596H31.3018V32.485H32.2445ZM29.9724 36.2212L29.0539 36.1417C29.2438 35.168 29.2749 34.4636 29.2818 33.9145H25.7804V33.148H30.1934V33.6417C30.1865 34.2253 30.1865 35.0955 29.9724 36.2212ZM30.7459 36.6942L30.8011 37.371C28.9744 37.6922 26.8854 37.7267 25.3384 37.7301L25.2521 36.9774C25.7907 36.9739 26.4019 36.9705 27.0442 36.9567V35.1162H27.9627V36.9256C28.9019 36.8876 29.8653 36.8185 30.7459 36.6942ZM26.5815 38.4656H27.5069V40.2958H32.5242V41.0554H26.5815V38.4656ZM40.3069 41.2522V32.485H41.2255V41.2522H40.3069ZM35.414 36.4732V38.3862C36.8297 38.3793 38.0694 38.3137 39.5335 38.072L39.6198 38.8386C38.0694 39.0941 36.7503 39.1528 35.2103 39.1528H34.4609V35.7274H37.6101V34.0319H34.4506V33.2723H38.5493V36.4732H35.414Z" fill="#CED4DA"/>
<defs>
<clipPath id="clip0_986_65826">
<rect width="16" height="19" fill="white" transform="translate(17 9.40625)"/>
</clipPath>
</defs>
</svg>
