<svg width="50" height="51" viewBox="0 0 50 51" fill="none" xmlns="http://www.w3.org/2000/svg">
<g clip-path="url(#clip0_550_39966)">
<mask id="mask0_550_39966" style="mask-type:alpha" maskUnits="userSpaceOnUse" x="18" y="9" width="14" height="20">
<path fill-rule="evenodd" clip-rule="evenodd" d="M24.9948 9.40625C24.3826 9.98758 23.5518 11.2204 23.5518 12.1927C23.5518 14.0258 24.6556 14.0674 24.9948 14.0674C25.334 14.0674 26.4436 13.9981 26.4436 12.1927C26.4436 11.1827 25.5447 10.0019 24.9948 9.40625ZM25 28.4063C28.866 28.4063 32 25.364 32 21.611C32 17.8581 28.866 14.8157 25 14.8157C21.134 14.8157 18 17.8581 18 21.611C18 25.364 21.134 28.4063 25 28.4063Z" fill="#CED4DA"/>
</mask>
<g mask="url(#mask0_550_39966)">
<ellipse cx="18.6939" cy="17.2614" rx="3.5572" ry="3.76723" fill="#CED4DA"/>
<ellipse cx="31.9986" cy="16.8805" rx="3.5572" ry="3.76723" fill="#CED4DA"/>
<ellipse cx="25.0884" cy="27.3629" rx="3.5572" ry="3.76723" fill="#CED4DA"/>
<path d="M23.8125 23.1263C23.8666 24.227 24.3059 25.2264 24.9981 25.9927C25.6904 25.2264 26.1297 24.227 26.1837 23.1261C25.7996 23.0948 25.4036 23.0781 24.9993 23.0781C24.5949 23.0781 24.1974 23.0948 23.8125 23.1265V23.1263Z" fill="#CED4DA"/>
<path d="M24.9991 19.9936C25.844 19.0583 27.0661 18.4708 28.4255 18.4708C28.8378 18.4708 29.2373 18.5251 29.6177 18.6265C29.6032 16.0872 27.5417 14.0332 25.0003 14.0332C22.4588 14.0332 20.3976 16.087 20.3828 18.6259C20.7625 18.5248 21.1613 18.4708 21.5728 18.4708C22.9321 18.4708 24.154 19.0585 24.9992 19.9936H24.9991Z" fill="#CED4DA"/>
<path d="M18.4322 25.9155C18.4322 24.7574 20.7527 23.5713 23.8155 23.3208C23.8121 23.2532 23.8105 23.1851 23.81 23.1167C21.8376 22.5908 20.3845 20.7915 20.3845 18.6524C20.3845 18.6432 20.3848 18.6342 20.3848 18.625C18.4112 19.1503 16.957 20.9501 16.957 23.0899C16.957 25.0167 18.136 26.6677 19.8115 27.3608C18.947 26.9621 18.4322 26.4608 18.4322 25.9155H18.4323H18.4322Z" fill="#CED4DA"/>
<path d="M23.8085 23.1175C23.8085 23.1087 23.8081 23.0996 23.8081 23.0907C23.8081 21.8991 24.2591 20.813 24.9995 19.9935C24.1546 19.0583 22.9325 18.4707 21.5732 18.4707C21.1617 18.4707 20.7629 18.5249 20.3832 18.6258C20.3832 18.635 20.3828 18.6441 20.3828 18.6533C20.3828 20.7923 21.8359 22.5915 23.8084 23.1175H23.8085Z" fill="#CED4DA"/>
<path d="M33.0421 23.0913C33.0421 20.9522 31.589 19.1528 29.6165 18.627C29.6165 18.6358 29.6168 18.6449 29.6168 18.6538C29.6168 20.7937 28.1626 22.5935 26.189 23.1187C26.1887 23.1868 26.187 23.2545 26.1836 23.3219C29.2474 23.5718 31.5691 24.7583 31.5691 25.9167C31.5691 26.4633 31.0487 26.9669 30.1757 27.367C31.8574 26.6767 33.0421 25.0224 33.0421 23.0911V23.0913Z" fill="#CED4DA"/>
<path d="M25 19.9935C25.7404 20.8129 26.1914 21.8991 26.1914 23.0907C26.1914 23.0999 26.1911 23.1089 26.1911 23.1181C28.1647 22.593 29.6189 20.7933 29.6189 18.6533C29.6189 18.6442 29.6186 18.6353 29.6186 18.6264C29.2382 18.525 28.8387 18.4707 28.4264 18.4707C27.067 18.4707 25.8451 19.0585 25 19.9935Z" fill="#CED4DA"/>
<path d="M25 19.9941C24.2596 20.8136 23.8086 21.8998 23.8086 23.0914C23.8086 23.1004 23.809 23.1093 23.809 23.1182C24.1893 23.2196 24.5889 23.274 25.0012 23.274C25.4135 23.274 25.8115 23.2197 26.1911 23.1188C26.1911 23.1096 26.1915 23.1006 26.1915 23.0914C26.1915 21.8998 25.7404 20.8137 25 19.9941Z" fill="#CED4DA"/>
<path d="M24.9986 26.1887C24.3063 25.4224 23.867 24.4232 23.8129 23.3223C20.7503 23.5728 18.4297 24.759 18.4297 25.917C18.4297 26.4623 18.9445 26.9638 19.8091 27.3624C20.3523 27.5872 20.9479 27.7115 21.5722 27.7115C22.9316 27.7115 24.1535 27.1237 24.9986 26.1887Z" fill="#CED4DA"/>
<path d="M31.5711 25.9172C31.5711 24.759 29.2495 23.5723 26.1856 23.3223C26.1315 24.4232 25.6922 25.4226 25 26.1888C25.8449 27.1239 27.067 27.7117 28.4264 27.7117C29.0464 27.7117 29.6376 27.5891 30.1778 27.3674C31.0508 26.9674 31.5711 26.4638 31.5711 25.9172Z" fill="#CED4DA"/>
<path d="M23.8125 23.3215C23.8666 24.4222 24.3059 25.4217 24.9981 26.1879C25.6904 25.4217 26.1297 24.4222 26.1837 23.3214C25.7996 23.2901 25.4036 23.2734 24.9993 23.2734C24.5949 23.2734 24.1974 23.2901 23.8125 23.3217V23.3215Z" fill="#CED4DA"/>
<rect x="22.8906" y="8.69922" width="2.12205" height="5.33555" fill="#CED4DA"/>
<rect x="24.9883" y="8.69922" width="2.12205" height="5.33555" fill="#CED4DA"/>
<ellipse opacity="0.5" cx="21.3328" cy="17.6878" rx="4.28986" ry="4.16441" fill="#CED4DA"/>
<ellipse opacity="0.8" cx="21.2663" cy="10.3524" rx="3.26629" ry="3.17077" fill="#CED4DA"/>
</g>
</g>
<path d="M11.2988 33.2578C11.2939 34.4199 12.7148 35.5088 14.4336 35.7383L14.0723 36.5C12.6416 36.2705 11.3867 35.5283 10.8154 34.498C10.2441 35.5283 8.98926 36.2705 7.56836 36.5L7.19727 35.7383C8.91113 35.5088 10.3271 34.4346 10.332 33.2578V32.7793H11.2988V33.2578ZM6.81641 38.1211V37.3594H14.7949V38.1211H11.2402V41.2363H10.332V38.1211H6.81641ZM17.8809 32.8867C19.0332 32.877 19.9268 33.5459 20.1172 34.5273H21.8262V32.4863H22.7539V37.1836H21.8262V35.2891H20.1221C19.9414 36.2949 19.043 36.9688 17.8809 36.9688C16.543 36.9688 15.5811 36.124 15.5859 34.918C15.5811 33.7266 16.543 32.877 17.8809 32.8867ZM16.4746 34.918C16.4697 35.665 17.0557 36.1875 17.8809 36.1875C18.6914 36.1875 19.2676 35.665 19.2676 34.918C19.2676 34.166 18.6914 33.6533 17.8809 33.6582C17.0557 33.6533 16.4697 34.166 16.4746 34.918ZM17.0508 41.1289V37.6035H17.9688V38.6191H21.8262V37.6035H22.7539V41.1289H17.0508ZM17.9688 40.3672H21.8262V39.3516H17.9688V40.3672ZM31.416 33.1504V33.6387C31.4062 34.2246 31.4062 35.0938 31.1914 36.2266L30.2734 36.1387C30.4639 35.1719 30.4932 34.4639 30.5029 33.9121H27.002V33.1504H31.416ZM26.4746 36.9785C27.0117 36.9785 27.6221 36.9736 28.2617 36.959V35.1133H29.1797V36.9297C30.1172 36.8906 31.084 36.8223 31.9629 36.6953L32.0215 37.3691C30.1953 37.6914 28.1055 37.7256 26.5625 37.7305L26.4746 36.9785ZM27.8027 41.0508V38.4629H28.7305V40.2988H33.75V41.0508H27.8027ZM32.5195 39.0586V32.4863H33.4668V35.2695H34.668V36.0508H33.4668V39.0586H32.5195ZM42.4512 32.4863V41.2559H41.5234V32.4863H42.4512ZM35.6738 34.0293V33.2773H39.7754V36.4707H36.6309V38.3848C38.0518 38.3799 39.2871 38.3115 40.752 38.0723L40.8398 38.834C39.292 39.0928 37.9736 39.1514 36.4258 39.1562H35.6836V35.7285H38.8281V34.0293H35.6738Z" fill="#CED4DA"/>
<defs>
<clipPath id="clip0_550_39966">
<rect width="16" height="19" fill="white" transform="translate(17 9.40625)"/>
</clipPath>
</defs>
</svg>
