<svg width="19" height="18" viewBox="0 0 19 18" fill="none" xmlns="http://www.w3.org/2000/svg">
<path d="M5.5 7C5.5 6.46957 5.71071 5.96086 6.08579 5.58579C6.46086 5.21071 6.96957 5 7.5 5H15.5C16.0304 5 16.5391 5.21071 16.9142 5.58579C17.2893 5.96086 17.5 6.46957 17.5 7V15C17.5 15.5304 17.2893 16.0391 16.9142 16.4142C16.5391 16.7893 16.0304 17 15.5 17H7.5C6.96957 17 6.46086 16.7893 6.08579 16.4142C5.71071 16.0391 5.5 15.5304 5.5 15V7Z" stroke="#45B9A2" stroke-width="2" stroke-linecap="round" stroke-linejoin="round"/>
<path d="M13.5 5V3C13.5 2.46957 13.2893 1.96086 12.9142 1.58579C12.5391 1.21071 12.0304 1 11.5 1H3.5C2.96957 1 2.46086 1.21071 2.08579 1.58579C1.71071 1.96086 1.5 2.46957 1.5 3V11C1.5 11.5304 1.71071 12.0391 2.08579 12.4142C2.46086 12.7893 2.96957 13 3.5 13H5.5" stroke="#45B9A2" stroke-width="2" stroke-linecap="round" stroke-linejoin="round"/>
</svg>
