<svg width="160" height="155" viewBox="0 0 160 155" fill="none" xmlns="http://www.w3.org/2000/svg">
<g filter="url(#filter0_d_3975_43403)">
<g opacity="0.5">
<g opacity="0.8">
<path d="M79.5773 58.8392C91.4221 58.8392 101.024 48.9457 101.024 36.7409C101.024 24.5361 91.4221 14.6426 79.5773 14.6426C67.7326 14.6426 58.1309 24.5361 58.1309 36.7409C58.1309 48.9457 67.7326 58.8392 79.5773 58.8392Z" fill="#6CDDAF"/>
</g>
<path opacity="0.8" d="M63.6603 80.0638C75.5051 80.0638 85.1068 70.1703 85.1068 57.9655C85.1068 45.7607 75.5051 35.8672 63.6603 35.8672C51.8156 35.8672 42.2139 45.7607 42.2139 57.9655C42.2139 70.1703 51.8156 80.0638 63.6603 80.0638Z" fill="#00C78F"/>
<path d="M95.4865 80.0638C107.331 80.0638 116.933 70.1703 116.933 57.9655C116.933 45.7607 107.331 35.8672 95.4865 35.8672C83.6418 35.8672 74.04 45.7607 74.04 57.9655C74.04 70.1703 83.6418 80.0638 95.4865 80.0638Z" fill="#00AB8E"/>
<path opacity="0.8" d="M110.093 71.4806C110.093 77.6966 96.4363 82.7487 79.5792 82.7487C62.722 82.7487 49.0654 77.7154 49.0654 71.4806C49.0654 65.2457 62.722 58.8398 79.5792 58.8398C96.4363 58.8398 110.093 65.2457 110.093 71.4806Z" fill="#008855"/>
<path d="M79.5752 43.151C83.5005 38.6787 89.1749 35.8669 95.489 35.8669C97.4021 35.8669 99.2564 36.1256 101.022 36.6116C100.955 24.4652 91.3795 14.6426 79.5773 14.6426C67.775 14.6426 58.1996 24.4673 58.1328 36.6116C59.8981 36.1276 61.7504 35.869 63.6635 35.869C69.9776 35.869 75.652 38.6808 79.5773 43.153L79.5752 43.151Z" fill="#E9ECEF"/>
<path d="M49.0644 71.4818C49.0644 65.9436 59.8423 60.2699 74.0678 59.0705C74.0516 58.7472 74.0435 58.4218 74.0435 58.0943C64.8811 55.5808 58.1297 46.9721 58.1297 36.7407C58.1297 36.6969 58.1297 36.6551 58.1297 36.6113C48.9673 39.1228 42.2139 47.7314 42.2139 57.965C42.2139 67.1723 47.6797 75.0633 55.4514 78.3841C51.4492 76.4776 49.0644 74.085 49.0644 71.4797V71.4818Z" fill="#DEE2E6"/>
<path d="M74.0407 58.0948C74.0407 58.051 74.0407 58.0093 74.0407 57.9655C74.0407 52.2668 76.1359 47.0707 79.5734 43.1512C75.648 38.679 69.9737 35.8672 63.6596 35.8672C61.7465 35.8672 59.8942 36.1258 58.1289 36.6098C58.1289 36.6536 58.1289 36.6953 58.1289 36.7391C58.1289 46.9727 64.8803 55.5792 74.0427 58.0928L74.0407 58.0948Z" fill="#CED4DA"/>
<path d="M116.935 57.965C116.935 47.7314 110.184 39.1249 101.021 36.6113C101.021 36.6551 101.021 36.6969 101.021 36.7407C101.021 46.9742 94.2678 55.5828 85.1053 58.0964C85.1053 58.4239 85.0952 58.7493 85.0811 59.0726C99.3106 60.2699 110.092 65.9437 110.092 71.4839C110.092 74.0955 107.679 76.5026 103.633 78.4154C111.439 75.1113 116.935 67.2015 116.935 57.9671V57.965Z" fill="#C1C6CC"/>
<path d="M79.5732 43.1514C83.0127 47.0708 85.1059 52.2669 85.1059 57.9656C85.1059 58.0094 85.1059 58.0512 85.1059 58.095C94.2704 55.5814 101.022 46.9749 101.022 36.7392C101.022 36.6954 101.022 36.6537 101.022 36.6099C99.2565 36.126 97.4021 35.8652 95.4891 35.8652C89.175 35.8652 83.5006 38.6771 79.5753 43.1493L79.5732 43.1514Z" fill="#AEB6BF"/>
<path d="M74.0421 58.095C74.0421 58.4225 74.0522 58.7479 74.0664 59.0712C75.8539 58.921 77.6961 58.8397 79.5768 58.8397C81.4574 58.8397 83.2936 58.9189 85.0791 59.0691C85.0953 58.7458 85.1034 58.4204 85.1034 58.0929C83.3381 58.5768 81.4858 58.8355 79.5727 58.8355C77.6597 58.8355 75.8053 58.5768 74.04 58.0908L74.0421 58.095Z" fill="#ACACAC"/>
<path d="M79.5737 43.1523C76.1342 47.0718 74.041 52.2679 74.041 57.9666C74.041 58.0104 74.041 58.0521 74.041 58.0959C75.8063 58.5799 77.6606 58.8406 79.5737 58.8406C81.4868 58.8406 83.3391 58.582 85.1044 58.098C85.1044 58.0542 85.1044 58.0125 85.1044 57.9687C85.1044 52.2699 83.0091 47.0739 79.5717 43.1544L79.5737 43.1523Z" fill="#A9AEB3"/>
<path d="M79.5749 72.7785C75.6496 77.2507 69.9752 80.0625 63.6611 80.0625C60.752 80.0625 57.9806 79.4639 55.4521 78.3833C61.0334 81.0408 69.7626 82.7471 79.5789 82.7471C89.3952 82.7471 98.0495 81.0492 103.633 78.4105C101.121 79.4743 98.3714 80.0604 95.4887 80.0604C89.1746 80.0604 83.5002 77.2486 79.5749 72.7764V72.7785Z" fill="#A9AEB3"/>
<path d="M79.5751 72.781C76.3604 69.116 74.3198 64.3371 74.0688 59.0723C59.8433 60.2696 49.0654 65.9433 49.0654 71.4835C49.0654 74.0868 51.4481 76.4814 55.4524 78.388C57.9809 79.4685 60.7543 80.0671 63.6613 80.0671C69.9754 80.0671 75.6498 77.2553 79.5751 72.7831V72.781Z" fill="#899199"/>
<path d="M110.091 71.4835C110.091 65.9433 99.3091 60.2696 85.0796 59.0723C84.8286 64.3371 82.788 69.1181 79.5732 72.781C83.4986 77.2532 89.1729 80.065 95.487 80.065C98.3698 80.065 101.121 79.4768 103.631 78.4151C107.678 76.5023 110.091 74.0951 110.091 71.4835Z" fill="#757A80"/>
<path d="M74.0684 59.0693C74.3194 64.3342 76.36 69.113 79.5747 72.778C82.7895 69.113 84.8301 64.3342 85.0811 59.0693C83.2956 58.9191 81.4574 58.8398 79.5788 58.8398C77.7001 58.8398 75.8559 58.9212 74.0684 59.0714V59.0693Z" fill="#72777D"/>
<path d="M88.4101 11.793C88.4101 6.77349 84.462 2.68555 79.5737 2.68555C74.6854 2.68555 70.7373 6.75404 70.7373 11.793C76.4372 9.6257 82.7098 9.6257 88.4096 11.793H88.4101Z" fill="#F1F3F5"/>
<path d="M67.4199 89.1122H67.4386C67.4386 96.0355 72.8787 101.642 79.5961 101.642C86.3135 101.642 91.7536 96.0355 91.7536 89.1122C83.9075 86.1371 75.2847 86.1371 67.4208 89.1122H67.4199Z" fill="#879098"/>
</g>
<path d="M17.4512 135.966V137.406H11.9472V138.302H15.8832V141.79H7.9472V142.558H16.2672V144.03H5.9952V140.446H13.9312V139.742H5.9952V138.302H9.9952V137.406H4.5232V135.966H17.4512ZM5.0352 134.11C7.8832 133.998 9.3232 133.31 9.7392 132.478H5.7392V131.006H9.9632V129.886H11.9472V131.006H16.2032V132.478H12.1872C12.5872 133.31 14.0432 133.998 16.9072 134.11L16.3312 135.582C13.7072 135.438 11.8672 134.766 10.9712 133.71C10.0752 134.766 8.2352 135.438 5.5792 135.582L5.0352 134.11ZM30.3193 129.886V137.054H28.3353V135.966H25.0713V134.462H28.3353V133.214H25.2313C24.3513 135.342 22.3193 136.702 19.1833 137.374L18.5113 135.774C21.7593 135.118 23.2633 133.774 23.5193 132.062H19.3113V130.462H25.7433C25.7433 130.894 25.7113 131.294 25.6473 131.678H28.3353V129.886H30.3193ZM20.8473 139.134V137.566H30.3193V141.47H22.8633V142.398H30.6393V143.998H20.8793V139.998H28.3033V139.134H20.8473ZM38.6434 130.11C41.9074 130.11 43.7954 130.958 43.7954 132.542C43.7954 134.11 41.9074 134.974 38.6434 134.974C35.3474 134.974 33.4434 134.11 33.4594 132.542C33.4434 130.958 35.3474 130.11 38.6434 130.11ZM32.1474 137.214V135.646H45.1394V137.214H32.1474ZM33.6514 144.03V140.286H41.5874V139.518H33.6514V138.046H43.5394V141.662H35.6034V142.526H43.9234V144.03H33.6514ZM35.5394 132.542C35.5394 133.23 36.5474 133.502 38.6434 133.502C40.7394 133.502 41.7474 133.23 41.7474 132.542C41.7474 131.902 40.7394 131.566 38.6434 131.55C36.5474 131.566 35.5394 131.902 35.5394 132.542ZM62.6871 140.83V142.462H49.6631V140.83H55.1671V137.918H51.0391V130.942H61.2151V137.918H57.1191V140.83H62.6871ZM53.0231 136.35H59.2631V132.542H53.0231V136.35ZM74.9792 134.974V136.542H65.1552V130.654H74.8192V132.254H67.1712V134.974H74.9792ZM63.4912 139.55V137.95H76.4832V139.55H70.9472V144.094H68.9632V139.55H63.4912ZM85.4548 134.238C85.4548 136.398 86.2228 138.558 88.2388 139.646L87.1508 141.086C85.8708 140.43 85.0228 139.278 84.5268 137.902C84.0308 139.406 83.1988 140.686 81.9028 141.438L80.7508 139.934C82.7988 138.75 83.5668 136.43 83.5668 134.238V133.918H81.2948V132.318H83.5668V130.398H85.4228V132.318H87.6948V133.918H85.4548V134.238ZM86.8628 136.926V135.294H88.5268V130.142H90.3828V143.454H88.5268V136.926H86.8628ZM91.4068 144.126V129.886H93.2948V144.126H91.4068ZM106.483 131.166V132.83C106.483 134.878 106.483 136.846 105.811 139.934L103.827 139.742C104.115 138.574 104.275 137.534 104.371 136.574L96.1469 136.958L95.8909 135.358L104.483 135.054C104.515 134.286 104.531 133.55 104.531 132.83V132.766H96.3389V131.166H106.483ZM94.8349 142.398V140.798H107.827V142.398H94.8349ZM120.887 129.918V138.686H118.999V135.166H117.879V138.526H116.023V130.11H117.879V133.566H118.999V129.918H120.887ZM108.599 132.83V131.262H111.095V129.982H113.079V131.262H115.575V132.83H108.599ZM109.015 135.774C109.031 134.286 110.327 133.294 112.087 133.278C113.911 133.294 115.207 134.286 115.223 135.774C115.207 137.23 113.911 138.254 112.087 138.27C110.327 138.254 109.031 137.23 109.015 135.774ZM109.463 142.462C111.303 141.934 112.135 140.654 112.151 139.39V139.102H114.103V139.39C114.103 140.446 114.567 141.518 115.687 142.222C116.823 141.47 117.319 140.366 117.335 139.39V139.102H119.319V139.39C119.319 140.718 120.103 141.982 122.007 142.462L121.079 143.966C119.703 143.534 118.791 142.702 118.295 141.646C117.847 142.702 117.015 143.63 115.735 144.094C114.407 143.63 113.575 142.766 113.111 141.726C112.599 142.718 111.703 143.534 110.391 143.966L109.463 142.462ZM110.807 135.774C110.807 136.446 111.335 136.83 112.087 136.83C112.887 136.83 113.415 136.446 113.399 135.774C113.415 135.086 112.887 134.718 112.087 134.718C111.335 134.718 110.807 135.086 110.807 135.774ZM126.427 130.91C128.331 130.91 129.771 132.478 130.059 135.038H132.539V129.886H134.491V144.158H132.539V136.638H130.075C129.867 139.358 128.395 141.054 126.427 141.054C124.251 141.054 122.715 139.086 122.715 135.966C122.715 132.862 124.251 130.91 126.427 130.91ZM124.635 135.966C124.619 138.094 125.355 139.23 126.427 139.23C127.499 139.23 128.203 138.094 128.219 135.966C128.203 133.854 127.499 132.702 126.427 132.702C125.355 132.702 124.619 133.854 124.635 135.966ZM149.343 140.83V142.462H136.319V140.83H139.231V137.342C138.127 136.67 137.471 135.662 137.471 134.398C137.471 132.126 139.727 130.59 142.815 130.59C145.887 130.59 148.159 132.126 148.159 134.398C148.159 135.646 147.503 136.654 146.431 137.31V140.83H149.343ZM139.423 134.398C139.439 135.806 140.767 136.67 142.815 136.67C144.815 136.67 146.191 135.806 146.207 134.398C146.191 132.99 144.815 132.158 142.815 132.158C140.767 132.158 139.439 132.99 139.423 134.398ZM141.215 140.83H144.415V138.062C143.919 138.158 143.375 138.206 142.815 138.206C142.255 138.206 141.711 138.158 141.215 138.062V140.83ZM153.379 131.358L153.187 139.294H151.171L150.979 131.358H153.379ZM150.883 141.502C150.851 140.798 151.459 140.206 152.195 140.222C152.883 140.206 153.491 140.798 153.507 141.502C153.491 142.238 152.883 142.83 152.195 142.814C151.459 142.83 150.851 142.238 150.883 141.502Z" fill="#A9AEB3"/>
</g>
<defs>
<filter id="filter0_d_3975_43403" x="0.0751953" y="0.685547" width="159" height="154" filterUnits="userSpaceOnUse" color-interpolation-filters="sRGB">
<feFlood flood-opacity="0" result="BackgroundImageFix"/>
<feColorMatrix in="SourceAlpha" type="matrix" values="0 0 0 0 0 0 0 0 0 0 0 0 0 0 0 0 0 0 127 0" result="hardAlpha"/>
<feOffset dy="4"/>
<feGaussianBlur stdDeviation="2"/>
<feComposite in2="hardAlpha" operator="out"/>
<feColorMatrix type="matrix" values="0 0 0 0 0 0 0 0 0 0 0 0 0 0 0 0 0 0 0.25 0"/>
<feBlend mode="normal" in2="BackgroundImageFix" result="effect1_dropShadow_3975_43403"/>
<feBlend mode="normal" in="SourceGraphic" in2="effect1_dropShadow_3975_43403" result="shape"/>
</filter>
</defs>
</svg>
