<svg width="152" height="147" viewBox="0 0 152 147" fill="none" xmlns="http://www.w3.org/2000/svg">
<g opacity="0.5">
<g opacity="0.8">
<path d="M75.5773 58.8392C87.4221 58.8392 97.0238 48.9457 97.0238 36.7409C97.0238 24.5361 87.4221 14.6426 75.5773 14.6426C63.7326 14.6426 54.1309 24.5361 54.1309 36.7409C54.1309 48.9457 63.7326 58.8392 75.5773 58.8392Z" fill="#6CDDAF"/>
</g>
<path opacity="0.8" d="M59.6603 80.0638C71.5051 80.0638 81.1068 70.1703 81.1068 57.9655C81.1068 45.7607 71.5051 35.8672 59.6603 35.8672C47.8156 35.8672 38.2139 45.7607 38.2139 57.9655C38.2139 70.1703 47.8156 80.0638 59.6603 80.0638Z" fill="#00C78F"/>
<path d="M91.4865 80.0638C103.331 80.0638 112.933 70.1703 112.933 57.9655C112.933 45.7607 103.331 35.8672 91.4865 35.8672C79.6418 35.8672 70.04 45.7607 70.04 57.9655C70.04 70.1703 79.6418 80.0638 91.4865 80.0638Z" fill="#00AB8E"/>
<path opacity="0.8" d="M106.093 71.4806C106.093 77.6966 92.4363 82.7487 75.5792 82.7487C58.722 82.7487 45.0654 77.7154 45.0654 71.4806C45.0654 65.2457 58.722 58.8398 75.5792 58.8398C92.4363 58.8398 106.093 65.2457 106.093 71.4806Z" fill="#008855"/>
<path d="M75.5752 43.151C79.5005 38.6787 85.1749 35.8669 91.489 35.8669C93.4021 35.8669 95.2564 36.1256 97.0217 36.6116C96.9549 24.4652 87.3795 14.6426 75.5773 14.6426C63.775 14.6426 54.1996 24.4673 54.1328 36.6116C55.8981 36.1276 57.7504 35.869 59.6635 35.869C65.9776 35.869 71.652 38.6808 75.5773 43.153L75.5752 43.151Z" fill="#E9ECEF"/>
<path d="M45.0644 71.4818C45.0644 65.9436 55.8423 60.2699 70.0678 59.0705C70.0516 58.7472 70.0435 58.4218 70.0435 58.0943C60.8811 55.5808 54.1297 46.9721 54.1297 36.7407C54.1297 36.6969 54.1297 36.6551 54.1297 36.6113C44.9673 39.1228 38.2139 47.7314 38.2139 57.965C38.2139 67.1723 43.6797 75.0633 51.4514 78.3841C47.4492 76.4776 45.0644 74.085 45.0644 71.4797V71.4818Z" fill="#DEE2E6"/>
<path d="M70.0407 58.0948C70.0407 58.051 70.0407 58.0093 70.0407 57.9655C70.0407 52.2668 72.1359 47.0707 75.5734 43.1512C71.648 38.679 65.9737 35.8672 59.6596 35.8672C57.7465 35.8672 55.8942 36.1258 54.1289 36.6098C54.1289 36.6536 54.1289 36.6953 54.1289 36.7391C54.1289 46.9727 60.8803 55.5792 70.0427 58.0928L70.0407 58.0948Z" fill="#CED4DA"/>
<path d="M112.935 57.965C112.935 47.7314 106.184 39.1249 97.0212 36.6113C97.0212 36.6551 97.0212 36.6969 97.0212 36.7407C97.0212 46.9742 90.2678 55.5828 81.1053 58.0964C81.1053 58.4239 81.0952 58.7493 81.0811 59.0726C95.3106 60.2699 106.092 65.9437 106.092 71.4839C106.092 74.0955 103.679 76.5026 99.6326 78.4154C107.439 75.1113 112.935 67.2015 112.935 57.9671V57.965Z" fill="#C1C6CC"/>
<path d="M75.5732 43.1514C79.0127 47.0708 81.1059 52.2669 81.1059 57.9656C81.1059 58.0094 81.1059 58.0512 81.1059 58.095C90.2704 55.5814 97.0217 46.9749 97.0217 36.7392C97.0217 36.6954 97.0217 36.6537 97.0217 36.6099C95.2565 36.126 93.4021 35.8652 91.4891 35.8652C85.175 35.8652 79.5006 38.6771 75.5753 43.1493L75.5732 43.1514Z" fill="#AEB6BF"/>
<path d="M70.0421 58.095C70.0421 58.4225 70.0522 58.7479 70.0664 59.0712C71.8539 58.921 73.6961 58.8397 75.5768 58.8397C77.4574 58.8397 79.2936 58.9189 81.0791 59.0691C81.0953 58.7458 81.1034 58.4204 81.1034 58.0929C79.3381 58.5768 77.4858 58.8355 75.5727 58.8355C73.6597 58.8355 71.8053 58.5768 70.04 58.0908L70.0421 58.095Z" fill="#ACACAC"/>
<path d="M75.5737 43.1523C72.1342 47.0718 70.041 52.2679 70.041 57.9666C70.041 58.0104 70.041 58.0521 70.041 58.0959C71.8063 58.5799 73.6606 58.8406 75.5737 58.8406C77.4868 58.8406 79.3391 58.582 81.1044 58.098C81.1044 58.0542 81.1044 58.0125 81.1044 57.9687C81.1044 52.2699 79.0091 47.0739 75.5717 43.1544L75.5737 43.1523Z" fill="#A9AEB3"/>
<path d="M75.5749 72.7785C71.6496 77.2507 65.9752 80.0625 59.6611 80.0625C56.752 80.0625 53.9806 79.4639 51.4521 78.3833C57.0334 81.0408 65.7626 82.7471 75.5789 82.7471C85.3952 82.7471 94.0495 81.0492 99.6328 78.4105C97.1205 79.4743 94.3714 80.0604 91.4887 80.0604C85.1746 80.0604 79.5002 77.2486 75.5749 72.7764V72.7785Z" fill="#A9AEB3"/>
<path d="M75.5751 72.781C72.3604 69.116 70.3198 64.3371 70.0688 59.0723C55.8433 60.2696 45.0654 65.9433 45.0654 71.4835C45.0654 74.0868 47.4481 76.4814 51.4524 78.388C53.9809 79.4685 56.7543 80.0671 59.6613 80.0671C65.9754 80.0671 71.6498 77.2553 75.5751 72.7831V72.781Z" fill="#899199"/>
<path d="M106.091 71.4835C106.091 65.9433 95.3091 60.2696 81.0796 59.0723C80.8286 64.3371 78.788 69.1181 75.5732 72.781C79.4986 77.2532 85.1729 80.065 91.487 80.065C94.3698 80.065 97.1209 79.4768 99.6312 78.4151C103.678 76.5023 106.091 74.0951 106.091 71.4835Z" fill="#757A80"/>
<path d="M70.0684 59.0693C70.3194 64.3342 72.36 69.113 75.5747 72.778C78.7895 69.113 80.8301 64.3342 81.0811 59.0693C79.2956 58.9191 77.4574 58.8398 75.5788 58.8398C73.7001 58.8398 71.8559 58.9212 70.0684 59.0714V59.0693Z" fill="#72777D"/>
<path d="M84.4101 11.793C84.4101 6.77349 80.462 2.68555 75.5737 2.68555C70.6854 2.68555 66.7373 6.75404 66.7373 11.793C72.4372 9.6257 78.7098 9.6257 84.4096 11.793H84.4101Z" fill="#F1F3F5"/>
<path d="M63.4199 89.1122H63.4386C63.4386 96.0355 68.8787 101.642 75.5961 101.642C82.3135 101.642 87.7536 96.0355 87.7536 89.1122C79.9075 86.1371 71.2847 86.1371 63.4208 89.1122H63.4199Z" fill="#879098"/>
</g>
<path d="M13.4512 135.966V137.406H7.9472V138.302H11.8832V141.79H3.9472V142.558H12.2672V144.03H1.9952V140.446H9.9312V139.742H1.9952V138.302H5.9952V137.406H0.523195V135.966H13.4512ZM1.0352 134.11C3.8832 133.998 5.3232 133.31 5.7392 132.478H1.7392V131.006H5.9632V129.886H7.9472V131.006H12.2032V132.478H8.1872C8.5872 133.31 10.0432 133.998 12.9072 134.11L12.3312 135.582C9.7072 135.438 7.8672 134.766 6.9712 133.71C6.0752 134.766 4.2352 135.438 1.5792 135.582L1.0352 134.11ZM26.3193 129.886V137.054H24.3353V135.966H21.0713V134.462H24.3353V133.214H21.2313C20.3513 135.342 18.3193 136.702 15.1833 137.374L14.5113 135.774C17.7593 135.118 19.2633 133.774 19.5193 132.062H15.3113V130.462H21.7433C21.7433 130.894 21.7113 131.294 21.6473 131.678H24.3353V129.886H26.3193ZM16.8473 139.134V137.566H26.3193V141.47H18.8633V142.398H26.6393V143.998H16.8793V139.998H24.3033V139.134H16.8473ZM34.6434 130.11C37.9074 130.11 39.7954 130.958 39.7954 132.542C39.7954 134.11 37.9074 134.974 34.6434 134.974C31.3474 134.974 29.4434 134.11 29.4594 132.542C29.4434 130.958 31.3474 130.11 34.6434 130.11ZM28.1474 137.214V135.646H41.1394V137.214H28.1474ZM29.6514 144.03V140.286H37.5874V139.518H29.6514V138.046H39.5394V141.662H31.6034V142.526H39.9234V144.03H29.6514ZM31.5394 132.542C31.5394 133.23 32.5474 133.502 34.6434 133.502C36.7394 133.502 37.7474 133.23 37.7474 132.542C37.7474 131.902 36.7394 131.566 34.6434 131.55C32.5474 131.566 31.5394 131.902 31.5394 132.542ZM58.6871 140.83V142.462H45.6631V140.83H51.1671V137.918H47.0391V130.942H57.2151V137.918H53.1191V140.83H58.6871ZM49.0231 136.35H55.2631V132.542H49.0231V136.35ZM70.9792 134.974V136.542H61.1552V130.654H70.8192V132.254H63.1712V134.974H70.9792ZM59.4912 139.55V137.95H72.4832V139.55H66.9472V144.094H64.9632V139.55H59.4912ZM81.4548 134.238C81.4548 136.398 82.2228 138.558 84.2388 139.646L83.1508 141.086C81.8708 140.43 81.0228 139.278 80.5268 137.902C80.0308 139.406 79.1988 140.686 77.9028 141.438L76.7508 139.934C78.7988 138.75 79.5668 136.43 79.5668 134.238V133.918H77.2948V132.318H79.5668V130.398H81.4228V132.318H83.6948V133.918H81.4548V134.238ZM82.8628 136.926V135.294H84.5268V130.142H86.3828V143.454H84.5268V136.926H82.8628ZM87.4068 144.126V129.886H89.2948V144.126H87.4068ZM102.483 131.166V132.83C102.483 134.878 102.483 136.846 101.811 139.934L99.8269 139.742C100.115 138.574 100.275 137.534 100.371 136.574L92.1469 136.958L91.8909 135.358L100.483 135.054C100.515 134.286 100.531 133.55 100.531 132.83V132.766H92.3389V131.166H102.483ZM90.8349 142.398V140.798H103.827V142.398H90.8349ZM116.887 129.918V138.686H114.999V135.166H113.879V138.526H112.023V130.11H113.879V133.566H114.999V129.918H116.887ZM104.599 132.83V131.262H107.095V129.982H109.079V131.262H111.575V132.83H104.599ZM105.015 135.774C105.031 134.286 106.327 133.294 108.087 133.278C109.911 133.294 111.207 134.286 111.223 135.774C111.207 137.23 109.911 138.254 108.087 138.27C106.327 138.254 105.031 137.23 105.015 135.774ZM105.463 142.462C107.303 141.934 108.135 140.654 108.151 139.39V139.102H110.103V139.39C110.103 140.446 110.567 141.518 111.687 142.222C112.823 141.47 113.319 140.366 113.335 139.39V139.102H115.319V139.39C115.319 140.718 116.103 141.982 118.007 142.462L117.079 143.966C115.703 143.534 114.791 142.702 114.295 141.646C113.847 142.702 113.015 143.63 111.735 144.094C110.407 143.63 109.575 142.766 109.111 141.726C108.599 142.718 107.703 143.534 106.391 143.966L105.463 142.462ZM106.807 135.774C106.807 136.446 107.335 136.83 108.087 136.83C108.887 136.83 109.415 136.446 109.399 135.774C109.415 135.086 108.887 134.718 108.087 134.718C107.335 134.718 106.807 135.086 106.807 135.774ZM122.427 130.91C124.331 130.91 125.771 132.478 126.059 135.038H128.539V129.886H130.491V144.158H128.539V136.638H126.075C125.867 139.358 124.395 141.054 122.427 141.054C120.251 141.054 118.715 139.086 118.715 135.966C118.715 132.862 120.251 130.91 122.427 130.91ZM120.635 135.966C120.619 138.094 121.355 139.23 122.427 139.23C123.499 139.23 124.203 138.094 124.219 135.966C124.203 133.854 123.499 132.702 122.427 132.702C121.355 132.702 120.619 133.854 120.635 135.966ZM145.343 140.83V142.462H132.319V140.83H135.231V137.342C134.127 136.67 133.471 135.662 133.471 134.398C133.471 132.126 135.727 130.59 138.815 130.59C141.887 130.59 144.159 132.126 144.159 134.398C144.159 135.646 143.503 136.654 142.431 137.31V140.83H145.343ZM135.423 134.398C135.439 135.806 136.767 136.67 138.815 136.67C140.815 136.67 142.191 135.806 142.207 134.398C142.191 132.99 140.815 132.158 138.815 132.158C136.767 132.158 135.439 132.99 135.423 134.398ZM137.215 140.83H140.415V138.062C139.919 138.158 139.375 138.206 138.815 138.206C138.255 138.206 137.711 138.158 137.215 138.062V140.83ZM149.379 131.358L149.187 139.294H147.171L146.979 131.358H149.379ZM146.883 141.502C146.851 140.798 147.459 140.206 148.195 140.222C148.883 140.206 149.491 140.798 149.507 141.502C149.491 142.238 148.883 142.83 148.195 142.814C147.459 142.83 146.851 142.238 146.883 141.502Z" fill="#A9AEB3"/>
</svg>
