<svg width="84" height="113" viewBox="0 0 84 113" fill="none" xmlns="http://www.w3.org/2000/svg">
<g opacity="0.5">
<g opacity="0.8">
<path d="M42.0051 58.827C53.8498 58.827 63.4515 48.9334 63.4515 36.7287C63.4515 24.5239 53.8498 14.6304 42.0051 14.6304C30.1603 14.6304 20.5586 24.5239 20.5586 36.7287C20.5586 48.9334 30.1603 58.827 42.0051 58.827Z" fill="#6CDDAF"/>
</g>
<path opacity="0.8" d="M26.0871 80.0521C37.9319 80.0521 47.5336 70.1586 47.5336 57.9538C47.5336 45.749 37.9319 35.8555 26.0871 35.8555C14.2423 35.8555 4.64062 45.749 4.64062 57.9538C4.64062 70.1586 14.2423 80.0521 26.0871 80.0521Z" fill="#00C78F"/>
<path d="M57.9113 80.0516C69.7561 80.0516 79.3578 70.1581 79.3578 57.9533C79.3578 45.7485 69.7561 35.855 57.9113 35.855C46.0666 35.855 36.4648 45.7485 36.4648 57.9533C36.4648 70.1581 46.0666 80.0516 57.9113 80.0516Z" fill="#00AB8E"/>
<path opacity="0.8" d="M72.5197 71.4688C72.5197 77.6849 58.8631 82.737 42.0059 82.737C25.1488 82.737 11.4922 77.7037 11.4922 71.4688C11.4922 65.234 25.1488 58.8281 42.0059 58.8281C58.8631 58.8281 72.5197 65.234 72.5197 71.4688Z" fill="#008855"/>
<path d="M42.001 43.1388C45.9263 38.6665 51.6007 35.8547 57.9148 35.8547C59.8279 35.8547 61.6822 36.1133 63.4475 36.5994C63.3807 24.453 53.8053 14.6304 42.003 14.6304C30.2008 14.6304 20.6254 24.4551 20.5586 36.5994C22.3239 36.1154 24.1762 35.8568 26.0892 35.8568C32.4033 35.8568 38.0777 38.6686 42.003 43.1408L42.001 43.1388Z" fill="#E9ECEF"/>
<path d="M11.4912 71.4701C11.4912 65.9319 22.2691 60.2582 36.4945 59.0588C36.4783 58.7355 36.4702 58.4101 36.4702 58.0826C27.3078 55.569 20.5564 46.9604 20.5564 36.7289C20.5564 36.6851 20.5564 36.6434 20.5564 36.5996C11.394 39.1111 4.64062 47.7197 4.64062 57.9533C4.64062 67.1605 10.1065 75.0516 17.8782 78.3724C13.8759 76.4659 11.4912 74.0733 11.4912 71.468V71.4701Z" fill="#DEE2E6"/>
<path d="M36.4665 58.0826C36.4665 58.0388 36.4665 57.9971 36.4665 57.9533C36.4665 52.2545 38.5617 47.0585 41.9991 43.139C38.0738 38.6668 32.3994 35.855 26.0853 35.855C24.1723 35.855 22.32 36.1136 20.5547 36.5976C20.5547 36.6414 20.5547 36.6831 20.5547 36.7269C20.5547 46.9605 27.3061 55.567 36.4685 58.0805L36.4665 58.0826Z" fill="#CED4DA"/>
<path d="M79.3617 57.9528C79.3617 47.7192 72.6103 39.1127 63.4479 36.5991C63.4479 36.6429 63.4479 36.6846 63.4479 36.7284C63.4479 46.962 56.6945 55.5706 47.5321 58.0842C47.5321 58.4117 47.522 58.7371 47.5078 59.0604C61.7373 60.2577 72.5193 65.9314 72.5193 71.4717C72.5193 74.0833 70.1062 76.4904 66.0594 78.4032C73.8655 75.0991 79.3617 67.1893 79.3617 57.9549V57.9528Z" fill="#C1C6CC"/>
<path d="M42 43.1392C45.4395 47.0586 47.5327 52.2547 47.5327 57.9534C47.5327 57.9972 47.5327 58.039 47.5327 58.0828C56.6971 55.5692 63.4485 46.9627 63.4485 36.727C63.4485 36.6832 63.4485 36.6415 63.4485 36.5977C61.6832 36.1138 59.8289 35.853 57.9158 35.853C51.6017 35.853 45.9273 38.6649 42.002 43.1371L42 43.1392Z" fill="#AEB6BF"/>
<path d="M36.4669 58.0828C36.4669 58.4103 36.477 58.7357 36.4912 59.059C38.2787 58.9088 40.1209 58.8275 42.0016 58.8275C43.8822 58.8275 45.7184 58.9067 47.5039 59.0569C47.5201 58.7336 47.5282 58.4082 47.5282 58.0807C45.7629 58.5646 43.9106 58.8233 41.9975 58.8233C40.0845 58.8233 38.2301 58.5646 36.4648 58.0786L36.4669 58.0828Z" fill="#ACACAC"/>
<path d="M42.0014 43.1401C38.562 47.0596 36.4688 52.2556 36.4688 57.9544C36.4688 57.9982 36.4688 58.0399 36.4688 58.0837C38.234 58.5677 40.0884 58.8284 42.0014 58.8284C43.9145 58.8284 45.7668 58.5697 47.5321 58.0858C47.5321 58.042 47.5321 58.0003 47.5321 57.9565C47.5321 52.2577 45.4368 47.0617 41.9994 43.1422L42.0014 43.1401Z" fill="#A9AEB3"/>
<path d="M42.0016 72.7667C38.0763 77.239 32.4019 80.0508 26.0878 80.0508C23.1788 80.0508 20.4074 79.4521 17.8789 78.3716C23.4602 81.0291 32.1894 82.7354 42.0057 82.7354C51.822 82.7354 60.4763 81.0374 66.0596 78.3987C63.5473 79.4626 60.7982 80.0487 57.9154 80.0487C51.6013 80.0487 45.9269 77.2369 42.0016 72.7646V72.7667Z" fill="#A9AEB3"/>
<path d="M42.0019 72.7688C38.7872 69.1038 36.7466 64.3249 36.4955 59.0601C22.2701 60.2574 11.4922 65.9311 11.4922 71.4713C11.4922 74.0746 13.8749 76.4692 17.8792 78.3758C20.4076 79.4563 23.1811 80.0549 26.0881 80.0549C32.4022 80.0549 38.0766 77.2431 42.0019 72.7709V72.7688Z" fill="#899199"/>
<path d="M72.5178 71.4713C72.5178 65.9311 61.7359 60.2574 47.5064 59.0601C47.2553 64.3249 45.2147 69.1059 42 72.7688C45.9253 77.241 51.5997 80.0528 57.9138 80.0528C60.7965 80.0528 63.5477 79.4646 66.058 78.4029C70.1047 76.4901 72.5178 74.0829 72.5178 71.4713Z" fill="#757A80"/>
<path d="M36.4961 59.0576C36.7471 64.3225 38.7877 69.1013 42.0025 72.7663C45.2172 69.1013 47.2578 64.3225 47.5088 59.0576C45.7233 58.9074 43.8851 58.8281 42.0065 58.8281C40.1279 58.8281 38.2836 58.9095 36.4961 59.0597V59.0576Z" fill="#72777D"/>
<path d="M50.8368 11.7813C50.8368 6.76177 46.8888 2.67383 42.0004 2.67383C37.1121 2.67383 33.1641 6.74232 33.1641 11.7813C38.8639 9.61398 45.1365 9.61398 50.8364 11.7813H50.8368Z" fill="#F1F3F5"/>
<path d="M29.8477 89.1H29.8663C29.8663 96.0233 35.3064 101.63 42.0238 101.63C48.7412 101.63 54.1813 96.0233 54.1813 89.1C46.3352 86.1249 37.7124 86.1249 29.8485 89.1H29.8477Z" fill="#879098"/>
</g>
</svg>
