<svg width="101" height="100" viewBox="0 0 101 100" fill="none" xmlns="http://www.w3.org/2000/svg">
<g clip-path="url(#clip0_3614_55910)">
<circle cx="50.5" cy="50" r="49.375" stroke="#B0E0D6" stroke-width="1.25"/>
<path d="M45.9443 53.641C46.1635 55.9233 46.535 57.6195 47.0463 58.7386C47.5639 59.8541 48.4828 60.4105 49.8093 60.4105C50.0573 60.4105 50.2791 60.3717 50.4991 60.3266C50.7246 60.3717 50.9455 60.4105 51.1953 60.4105C52.5182 60.4105 53.4398 59.8541 53.9547 58.7386C54.4687 57.6195 54.8339 55.9233 55.0575 53.641L56.2352 36.0188C56.4543 32.584 56.5662 30.1195 56.5662 28.6235C56.5662 26.5873 56.035 24.9984 54.9691 23.8577C53.8997 22.717 52.4947 22.1479 50.7543 22.1479C50.6614 22.1479 50.592 22.1687 50.5009 22.1723C50.4144 22.1687 50.3431 22.1479 50.2529 22.1479C48.5089 22.1479 47.1067 22.717 46.039 23.8577C44.9722 25.0002 44.4375 26.59 44.4375 28.6244C44.4375 30.1204 44.5466 32.5849 44.7693 36.0197L45.9443 53.641ZM50.5451 66.8517C48.8552 66.8517 47.4196 67.3847 46.2275 68.4505C45.0363 69.5173 44.4393 70.8123 44.4393 72.3326C44.4393 74.0487 45.0435 75.3995 46.2428 76.3806C47.4476 77.3617 48.8525 77.8523 50.4585 77.8523C52.0934 77.8523 53.5191 77.3689 54.7383 76.3995C55.9557 75.4329 56.5643 74.0748 56.5643 72.3344C56.5643 70.8141 55.9818 69.5191 54.8167 68.4523C53.6517 67.3847 52.2278 66.8517 50.5424 66.8517" fill="#B0E0D6"/>
</g>
<defs>
<clipPath id="clip0_3614_55910">
<rect width="100" height="100" fill="white" transform="translate(0.5)"/>
</clipPath>
</defs>
</svg>
