<svg width="33" height="43" viewBox="0 0 33 43" fill="none" xmlns="http://www.w3.org/2000/svg">
<g clip-path="url(#clip0_984_54425)">
<mask id="mask0_984_54425" style="mask-type:alpha" maskUnits="userSpaceOnUse" x="14" y="19" width="6" height="25">
<path d="M16.1691 19.0127H18.0859L19.6583 43.0364H14.3242L16.1691 19.0127Z" fill="#D7953B"/>
</mask>
<g mask="url(#mask0_984_54425)">
<ellipse opacity="0.4" cx="14.8618" cy="41.4229" rx="2.86376" ry="2.96" fill="#D9A45C"/>
<path opacity="0.8" d="M16.1671 19.0127H18.0839L19.6563 43.0364H14.3223L16.1671 19.0127Z" fill="#D7953B"/>
<rect opacity="0.8" x="16.1328" y="26.7441" width="4.00518" height="16.7272" fill="#D7953B"/>
<rect x="16.9883" y="26.4355" width="4.00518" height="16.7272" fill="#D7953B"/>
<rect opacity="0.8" x="17.7461" y="26.4346" width="4.4416" height="16.7272" fill="#C48734"/>
<ellipse opacity="0.5" cx="13.5257" cy="35.0233" rx="3.70541" ry="3.82994" fill="#C38734"/>
<ellipse opacity="0.5" cx="13.5258" cy="35.0232" rx="3.11954" ry="3.22438" fill="#C38734"/>
<ellipse opacity="0.5" cx="16.4335" cy="41.9216" rx="2.49401" ry="2.57782" fill="#C38734"/>
<ellipse opacity="0.5" cx="19.852" cy="44.0459" rx="2.86376" ry="2.96" fill="#C38734"/>
<ellipse opacity="0.5" cx="16.9927" cy="28.4258" rx="2.86376" ry="2.96" fill="#C38734"/>
<ellipse opacity="0.9" cx="17.8247" cy="27.0088" rx="2.86376" ry="2.96" fill="#C38734"/>
<ellipse opacity="0.8" cx="19.4106" cy="44.9698" rx="2.86376" ry="2.96" fill="#D9A45C"/>
<ellipse opacity="0.8" cx="19.4302" cy="44.9141" rx="2.86376" ry="2.96" fill="#C38734"/>
<ellipse opacity="0.3" cx="19.0044" cy="40.8272" rx="2.86376" ry="2.96" fill="#8B5D1D"/>
<ellipse opacity="0.3" cx="19.6588" cy="42.247" rx="2.47909" ry="2.5624" fill="#8B5D1D"/>
<ellipse opacity="0.3" cx="20.4107" cy="43.036" rx="2.47909" ry="2.5624" fill="#8B5D1D"/>
<ellipse opacity="0.3" cx="17.8458" cy="29.9087" rx="1.8126" ry="1.87351" fill="#8B5D1D"/>
<ellipse opacity="0.3" cx="18.1781" cy="31.8518" rx="2.11949" ry="2.19071" fill="#8B5D1D"/>
<ellipse opacity="0.3" cx="18.6036" cy="31.86" rx="1.6153" ry="1.66959" fill="#8B5D1D"/>
<ellipse opacity="0.3" cx="19.4219" cy="31.859" rx="1.6153" ry="1.66959" fill="#8B5D1D"/>
<ellipse opacity="0.4" cx="18.2739" cy="26.5303" rx="2.86376" ry="2.96" fill="#8B5D1D"/>
<ellipse opacity="0.6" cx="12.5669" cy="34.9571" rx="2.86376" ry="2.96" fill="#D9A45C"/>
<ellipse opacity="0.3" cx="21.5532" cy="43.708" rx="2.86376" ry="2.96" fill="#D9A45C"/>
<ellipse opacity="0.3" cx="20.9497" cy="33.543" rx="2.86376" ry="2.96" fill="#D9A45C"/>
</g>
<mask id="mask1_984_54425" style="mask-type:alpha" maskUnits="userSpaceOnUse" x="1" y="3" width="31" height="28">
<path d="M16.9182 14.9703C18.4868 13.0981 20.7543 11.921 23.2774 11.921C24.0419 11.921 24.7829 12.0293 25.4883 12.2328C25.4616 7.14807 21.6352 3.03613 16.919 3.03613C12.2027 3.03613 8.37631 7.14894 8.34961 12.2328C9.05503 12.0302 9.79523 11.9219 10.5597 11.9219C13.0829 11.9219 15.3504 13.099 16.919 14.9711L16.9182 14.9703Z" fill="#5FE1B7"/>
<path d="M4.72582 26.8308C4.72582 24.5124 9.03275 22.1373 14.7173 21.6352C14.7109 21.4999 14.7076 21.3637 14.7076 21.2266C11.0463 20.1744 8.34836 16.5706 8.34836 12.2875C8.34836 12.2692 8.34836 12.2517 8.34836 12.2334C4.68699 13.2847 1.98828 16.8885 1.98828 21.1724C1.98828 25.0268 4.17249 28.3301 7.2781 29.7203C5.67878 28.9221 4.72582 27.9206 4.72582 26.8299V26.8308Z" fill="#00D6A2"/>
<path d="M14.7061 21.2258C14.7061 21.2075 14.7061 21.19 14.7061 21.1717C14.7061 18.7861 15.5434 16.6109 16.917 14.9701C15.3484 13.098 13.0809 11.9209 10.5577 11.9209C9.79328 11.9209 9.05307 12.0292 8.34766 12.2318C8.34766 12.2501 8.34766 12.2676 8.34766 12.2859C8.34766 16.5699 11.0456 20.1727 14.7069 21.2249L14.7061 21.2258Z" fill="#00CF91"/>
<path d="M31.8463 21.1724C31.8463 16.8885 29.1484 13.2856 25.487 12.2334C25.487 12.2517 25.487 12.2692 25.487 12.2875C25.487 16.5715 22.7883 20.1752 19.1269 21.2274C19.1269 21.3645 19.1229 21.5008 19.1172 21.6361C24.8034 22.1373 29.1119 24.5124 29.1119 26.8317C29.1119 27.9249 28.1477 28.9326 26.5305 29.7334C29.6499 28.3502 31.8463 25.039 31.8463 21.1733V21.1724Z" fill="#02BDA5"/>
<path d="M16.918 14.97C18.2924 16.6108 19.1289 18.786 19.1289 21.1716C19.1289 21.1899 19.1289 21.2074 19.1289 21.2257C22.7911 20.1735 25.489 16.5706 25.489 12.2858C25.489 12.2675 25.489 12.25 25.489 12.2317C24.7835 12.0291 24.0425 11.9199 23.2781 11.9199C20.7549 11.9199 18.4874 13.097 16.9188 14.9692L16.918 14.97Z" fill="#00AB8E"/>
<path d="M14.7059 21.2264C14.7059 21.3635 14.7099 21.4997 14.7156 21.635C15.4299 21.5721 16.1661 21.5381 16.9176 21.5381C17.6691 21.5381 18.4029 21.5713 19.1164 21.6341C19.1228 21.4988 19.1261 21.3626 19.1261 21.2255C18.4207 21.4281 17.6804 21.5363 16.916 21.5363C16.1515 21.5363 15.4105 21.4281 14.7051 21.2246L14.7059 21.2264Z" fill="#00AC8E"/>
<path d="M16.9179 14.9707C15.5435 16.6115 14.707 18.7866 14.707 21.1722C14.707 21.1906 14.707 21.208 14.707 21.2264C15.4124 21.4289 16.1535 21.5381 16.9179 21.5381C17.6824 21.5381 18.4226 21.4298 19.128 21.2272C19.128 21.2089 19.128 21.1914 19.128 21.1731C19.128 18.7875 18.2907 16.6123 16.9171 14.9716L16.9179 14.9707Z" fill="#00B38E"/>
<path d="M16.9185 27.3735C15.6338 25.8393 14.8184 23.8387 14.7181 21.6348C9.03349 22.136 4.72656 24.5111 4.72656 26.8304C4.72656 27.9201 5.67871 28.9226 7.27885 29.7207C8.28925 30.173 9.39753 30.4236 10.5592 30.4236C13.0824 30.4236 15.3499 29.2465 16.9185 27.3744V27.3735Z" fill="#00D6A2"/>
<path d="M29.1131 26.8304C29.1131 24.5111 24.8046 22.136 19.1184 21.6348C19.018 23.8387 18.2026 25.8401 16.918 27.3735C18.4866 29.2456 20.7541 30.4227 23.2772 30.4227C24.4292 30.4227 25.5286 30.1765 26.5317 29.732C28.1488 28.9313 29.1131 27.9236 29.1131 26.8304Z" fill="#02BDA5"/>
<path d="M14.7168 21.6351C14.8171 23.8391 15.6325 25.8396 16.9172 27.3738C18.2018 25.8396 19.0173 23.8391 19.1176 21.6351C18.4041 21.5722 17.6695 21.5391 16.9188 21.5391C16.1681 21.5391 15.4311 21.5731 14.7168 21.636V21.6351Z" fill="#00AB8E"/>
</mask>
<g mask="url(#mask1_984_54425)">
<path d="M23.2775 20.6792C24.8461 18.8071 27.1137 17.63 29.6368 17.63C30.4013 17.63 31.1423 17.7383 31.8477 17.9417C31.821 12.8571 27.9946 8.74512 23.2784 8.74512C18.5621 8.74512 14.7357 12.8579 14.709 17.9417C15.4144 17.7392 16.1546 17.6309 16.9191 17.6309C19.4422 17.6309 21.7098 18.808 23.2784 20.6801L23.2775 20.6792Z" fill="#5FE1B7"/>
<path d="M11.0852 32.5398C11.0852 30.2214 15.3921 27.8463 21.0767 27.3442C21.0702 27.2089 21.067 27.0726 21.067 26.9355C17.4056 25.8833 14.7077 22.2796 14.7077 17.9965C14.7077 17.9782 14.7077 17.9607 14.7077 17.9424C11.0464 18.9937 8.34766 22.5975 8.34766 26.8814C8.34766 30.7358 10.5319 34.0391 13.6375 35.4292C12.0382 34.6311 11.0852 33.6296 11.0852 32.5389V32.5398Z" fill="#00D6A2"/>
<path d="M21.0655 26.9358C21.0655 26.9174 21.0655 26.9 21.0655 26.8816C21.0655 24.496 21.9028 22.3209 23.2764 20.6801C21.7078 18.8079 19.4403 17.6309 16.9171 17.6309C16.1527 17.6309 15.4124 17.7391 14.707 17.9417C14.707 17.9601 14.707 17.9775 14.707 17.9959C14.707 22.2798 17.4049 25.8827 21.0663 26.9349L21.0655 26.9358Z" fill="#00CF91"/>
<path d="M38.2056 26.8814C38.2056 22.5975 35.5077 18.9946 31.8464 17.9424C31.8464 17.9607 31.8464 17.9782 31.8464 17.9965C31.8464 22.2805 29.1476 25.8842 25.4863 26.9364C25.4863 27.0735 25.4822 27.2097 25.4766 27.3451C31.1628 27.8463 35.4713 30.2214 35.4713 32.5407C35.4713 33.6339 34.507 34.6416 32.8899 35.4423C36.0093 34.0592 38.2056 30.748 38.2056 26.8823V26.8814Z" fill="#02BDA5"/>
<path d="M23.2773 20.679C24.6518 22.3198 25.4882 24.4949 25.4882 26.8805C25.4882 26.8989 25.4882 26.9163 25.4882 26.9347C29.1504 25.8825 31.8483 22.2796 31.8483 17.9948C31.8483 17.9764 31.8483 17.959 31.8483 17.9406C31.1429 17.7381 30.4019 17.6289 29.6374 17.6289C27.1143 17.6289 24.8467 18.806 23.2782 20.6781L23.2773 20.679Z" fill="#00AB8E"/>
<path d="M21.0672 26.9353C21.0672 27.0724 21.0713 27.2087 21.0769 27.344C21.7912 27.2811 22.5274 27.2471 23.2789 27.2471C24.0305 27.2471 24.7642 27.2803 25.4777 27.3431C25.4842 27.2078 25.4874 27.0716 25.4874 26.9345C24.782 27.1371 24.0418 27.2453 23.2773 27.2453C22.5128 27.2453 21.7718 27.1371 21.0664 26.9336L21.0672 26.9353Z" fill="#00AC8E"/>
<path d="M23.2773 20.6797C21.9029 22.3204 21.0664 24.4956 21.0664 26.8812C21.0664 26.8995 21.0664 26.917 21.0664 26.9353C21.7718 27.1379 22.5128 27.2471 23.2773 27.2471C24.0418 27.2471 24.782 27.1388 25.4874 26.9362C25.4874 26.9179 25.4874 26.9004 25.4874 26.8821C25.4874 24.4965 24.6501 22.3213 23.2765 20.6806L23.2773 20.6797Z" fill="#00B38E"/>
<path d="M23.2779 33.0825C21.9932 31.5482 21.1778 29.5477 21.0775 27.3438C15.3929 27.845 11.0859 30.2201 11.0859 32.5393C11.0859 33.6291 12.0381 34.6315 13.6382 35.4297C14.6486 35.882 15.7569 36.1326 16.9186 36.1326C19.4417 36.1326 21.7093 34.9555 23.2779 33.0833V33.0825Z" fill="#00D6A2"/>
<path d="M35.4725 32.5393C35.4725 30.2201 31.1639 27.845 25.4777 27.3438C25.3774 29.5477 24.562 31.5491 23.2773 33.0825C24.8459 34.9546 27.1135 36.1317 29.6366 36.1317C30.7886 36.1317 31.888 35.8855 32.8911 35.441C34.5082 34.6403 35.4725 33.6326 35.4725 32.5393Z" fill="#02BDA5"/>
<path d="M20.25 25.9511C20.3845 28.9066 21.478 31.5894 23.2008 33.6468C24.9235 31.5894 26.017 28.9066 26.1515 25.9511C25.1947 25.8668 24.2096 25.8223 23.2029 25.8223C22.1962 25.8223 21.2079 25.8679 20.25 25.9522V25.9511Z" fill="#00AB8E"/>
<ellipse opacity="0.7" cx="25.9596" cy="13.2864" rx="4.14324" ry="4.28248" fill="#00997D"/>
<path d="M12.6311 14.9703C14.1996 13.0981 16.4672 11.921 18.9903 11.921C19.7548 11.921 20.4958 12.0293 21.2012 12.2328C21.1745 7.14807 17.3481 3.03613 12.6319 3.03613C7.9156 3.03613 4.0892 7.14894 4.0625 12.2328C4.76792 12.0302 5.50812 11.9219 6.27259 11.9219C8.79575 11.9219 11.0633 13.099 12.6319 14.9711L12.6311 14.9703Z" fill="#5FE1B7"/>
<path d="M0.440663 26.8308C0.440663 24.5124 4.74759 22.1373 10.4322 21.6352C10.4257 21.4999 10.4225 21.3637 10.4225 21.2266C6.76111 20.1744 4.06321 16.5706 4.06321 12.2875C4.06321 12.2692 4.06321 12.2517 4.06321 12.2334C0.401833 13.2847 -2.29688 16.8885 -2.29688 21.1724C-2.29688 25.0268 -0.112669 28.3301 2.99295 29.7203C1.39362 28.9221 0.440663 27.9206 0.440663 26.8299V26.8308Z" fill="#00D6A2"/>
<path d="M10.421 21.2258C10.421 21.2075 10.421 21.19 10.421 21.1717C10.421 18.7861 11.2582 16.6109 12.6319 14.9701C11.0633 13.098 8.79575 11.9209 6.27259 11.9209C5.50812 11.9209 4.76792 12.0292 4.0625 12.2318C4.0625 12.2501 4.0625 12.2676 4.0625 12.2859C4.0625 16.5699 6.7604 20.1727 10.4218 21.2249L10.421 21.2258Z" fill="#00CF91"/>
<path d="M27.5611 21.1724C27.5611 16.8885 24.8632 13.2856 21.2018 12.2334C21.2018 12.2517 21.2018 12.2692 21.2018 12.2875C21.2018 16.5715 18.5031 20.1752 14.8417 21.2274C14.8417 21.3645 14.8377 21.5008 14.832 21.6361C20.5182 22.1373 24.8268 24.5124 24.8268 26.8317C24.8268 27.9249 23.8625 28.9326 22.2454 29.7334C25.3648 28.3502 27.5611 25.039 27.5611 21.1733V21.1724Z" fill="#02BDA5"/>
<path d="M12.6328 14.97C14.0072 16.6108 14.8437 18.786 14.8437 21.1716C14.8437 21.1899 14.8437 21.2074 14.8437 21.2257C18.5059 20.1735 21.2038 16.5706 21.2038 12.2858C21.2038 12.2675 21.2038 12.25 21.2038 12.2317C20.4984 12.0291 19.7574 11.9199 18.9929 11.9199C16.4697 11.9199 14.2022 13.097 12.6336 14.9692L12.6328 14.97Z" fill="#00AB8E"/>
<path d="M10.4207 21.2264C10.4207 21.3635 10.4248 21.4997 10.4304 21.635C11.1448 21.5721 11.8809 21.5381 12.6324 21.5381C13.384 21.5381 14.1177 21.5713 14.8312 21.6341C14.8377 21.4988 14.8409 21.3626 14.8409 21.2255C14.1355 21.4281 13.3953 21.5363 12.6308 21.5363C11.8663 21.5363 11.1253 21.4281 10.4199 21.2246L10.4207 21.2264Z" fill="#00AC8E"/>
<path d="M12.6328 14.9717C11.2583 16.6124 10.4219 18.7876 10.4219 21.1732C10.4219 21.1915 10.4219 21.209 10.4219 21.2273C11.1273 21.4299 11.8683 21.5391 12.6328 21.5391C13.3972 21.5391 14.1374 21.4308 14.8429 21.2282C14.8429 21.2099 14.8429 21.1924 14.8429 21.1741C14.8429 18.7885 14.0056 16.6133 12.632 14.9726L12.6328 14.9717Z" fill="#00B38E"/>
<path d="M12.6314 27.3745C11.3467 25.8402 10.5313 23.8397 10.431 21.6357C4.74639 22.137 0.439453 24.5121 0.439453 26.8313C0.439453 27.9211 1.39161 28.9235 2.99174 29.7216C4.00214 30.174 5.11042 30.4246 6.27209 30.4246C8.79526 30.4246 11.0628 29.2475 12.6314 27.3753V27.3745Z" fill="#00D6A2"/>
<path d="M24.828 26.8313C24.828 24.5121 20.5194 22.137 14.8332 21.6357C14.7329 23.8397 13.9174 25.8411 12.6328 27.3745C14.2014 29.2466 16.4689 30.4237 18.9921 30.4237C20.1441 30.4237 21.2434 30.1775 22.2466 29.733C23.8637 28.9323 24.828 27.9246 24.828 26.8313Z" fill="#02BDA5"/>
<path d="M10.4316 21.6351C10.532 23.8391 11.3474 25.8396 12.632 27.3738C13.9167 25.8396 14.7321 23.8391 14.8324 21.6351C14.1189 21.5722 13.3844 21.5391 12.6336 21.5391C11.8829 21.5391 11.146 21.5731 10.4316 21.636V21.6351Z" fill="#00AB8E"/>
<path d="M-3.52324 20.6783C-1.95466 18.8061 0.312873 17.629 2.83603 17.629C3.60051 17.629 4.34152 17.7373 5.04694 17.9408C5.02024 12.8561 1.19384 8.74414 -3.52243 8.74414C-8.2387 8.74414 -12.0651 12.857 -12.0918 17.9408C-11.3864 17.7382 -10.6462 17.6299 -9.8817 17.6299C-7.35854 17.6299 -5.09101 18.807 -3.52243 20.6791L-3.52324 20.6783Z" fill="#5FE1B7"/>
<path d="M11.4048 26.8804C11.4048 22.5965 8.70695 18.9936 5.04557 17.9414C5.04557 17.9597 5.04557 17.9772 5.04557 17.9955C5.04557 22.2795 2.34686 25.8832 -1.31451 26.9354C-1.31451 27.0725 -1.31856 27.2088 -1.32422 27.3441C4.362 27.8453 8.67054 30.2205 8.67054 32.5397C8.67054 33.633 7.70626 34.6406 6.08914 35.4414C9.20851 34.0582 11.4048 30.747 11.4048 26.8813V26.8804Z" fill="#02BDA5"/>
<path d="M-3.52344 20.678C-2.14901 22.3188 -1.31254 24.494 -1.31254 26.8796C-1.31254 26.8979 -1.31254 26.9154 -1.31254 26.9337C2.34965 25.8815 5.04755 22.2786 5.04755 17.9938C5.04755 17.9755 5.04755 17.958 5.04755 17.9397C4.34213 17.7371 3.60112 17.6279 2.83665 17.6279C0.313484 17.6279 -1.95405 18.805 -3.52263 20.6772L-3.52344 20.678Z" fill="#00AB8E"/>
<path d="M8.67171 32.5393C8.67171 30.2201 4.36316 27.845 -1.32305 27.3438C-1.42336 29.5477 -2.2388 31.5491 -3.52344 33.0825C-1.95485 34.9546 0.312675 36.1317 2.83584 36.1317C3.9878 36.1317 5.08719 35.8855 6.0903 35.441C7.70743 34.6403 8.67171 33.6326 8.67171 32.5393Z" fill="#02BDA5"/>
<g opacity="0.8">
<path d="M23.0158 4.34917C24.5844 2.47701 26.8519 1.29993 29.3751 1.29993C30.1396 1.29993 30.8806 1.40821 31.586 1.61166C31.5593 -3.47302 27.7329 -7.58496 23.0166 -7.58496C18.3004 -7.58496 14.474 -3.47215 14.4473 1.61166C15.1527 1.40908 15.8929 1.3008 16.6574 1.3008C19.1805 1.3008 21.448 2.47789 23.0166 4.35005L23.0158 4.34917Z" fill="#5FE1B7"/>
<path d="M10.8235 16.2087C10.8235 13.8904 15.1304 11.5153 20.815 11.0132C20.8085 10.8778 20.8053 10.7416 20.8053 10.6045C17.1439 9.55228 14.446 5.94855 14.446 1.66547C14.446 1.64713 14.446 1.62967 14.446 1.61133C10.7846 2.66267 8.08594 6.2664 8.08594 10.5504C8.08594 14.4047 10.2701 17.708 13.3758 19.0982C11.7764 18.3001 10.8235 17.2985 10.8235 16.2079V16.2087Z" fill="#00D6A2"/>
<path d="M20.8038 10.6047C20.8038 10.5864 20.8038 10.5689 20.8038 10.5506C20.8038 8.16496 21.6411 5.9898 23.0147 4.34905C21.4461 2.47689 19.1786 1.2998 16.6554 1.2998C15.8909 1.2998 15.1507 1.40808 14.4453 1.61067C14.4453 1.629 14.4453 1.64647 14.4453 1.66481C14.4453 5.94876 17.1432 9.55162 20.8046 10.6038L20.8038 10.6047Z" fill="#00CF91"/>
<path d="M37.9439 10.5504C37.9439 6.2664 35.246 2.66354 31.5846 1.61133C31.5846 1.62967 31.5846 1.64713 31.5846 1.66547C31.5846 5.94943 28.8859 9.55315 25.2246 10.6054C25.2246 10.7425 25.2205 10.8787 25.2148 11.014C30.9011 11.5153 35.2096 13.8904 35.2096 16.2096C35.2096 17.3029 34.2453 18.3106 32.6282 19.1113C35.7476 17.7281 37.9439 14.4169 37.9439 10.5512V10.5504Z" fill="#02BDA5"/>
<path d="M23.0156 4.34894C24.3901 5.9897 25.2265 8.16486 25.2265 10.5505C25.2265 10.5688 25.2265 10.5863 25.2265 10.6046C28.8887 9.55239 31.5866 5.94953 31.5866 1.6647C31.5866 1.64637 31.5866 1.6289 31.5866 1.61056C30.8812 1.40798 30.1402 1.29883 29.3757 1.29883C26.8525 1.29883 24.585 2.47591 23.0164 4.34807L23.0156 4.34894Z" fill="#00AB8E"/>
<path d="M20.8035 10.6053C20.8035 10.7424 20.8076 10.8786 20.8133 11.0139C21.5276 10.9511 22.2637 10.917 23.0153 10.917C23.7668 10.917 24.5005 10.9502 25.214 11.0131C25.2205 10.8777 25.2237 10.7415 25.2237 10.6044C24.5183 10.807 23.7781 10.9153 23.0136 10.9153C22.2492 10.9153 21.5082 10.807 20.8027 10.6035L20.8035 10.6053Z" fill="#00AC8E"/>
<path d="M23.0156 4.34961C21.6412 5.99037 20.8047 8.16553 20.8047 10.5511C20.8047 10.5695 20.8047 10.5869 20.8047 10.6053C21.5101 10.8079 22.2511 10.917 23.0156 10.917C23.7801 10.917 24.5203 10.8087 25.2257 10.6061C25.2257 10.5878 25.2257 10.5703 25.2257 10.552C25.2257 8.1664 24.3884 5.99124 23.0148 4.35048L23.0156 4.34961Z" fill="#00B38E"/>
<path d="M23.0161 16.7524C21.7315 15.2182 20.9161 13.2176 20.8157 11.0137C15.1312 11.5149 10.8242 13.89 10.8242 16.2093C10.8242 17.299 11.7764 18.3015 13.3765 19.0996C14.3869 19.5519 15.4952 19.8025 16.6569 19.8025C19.18 19.8025 21.4476 18.6254 23.0161 16.7533V16.7524Z" fill="#00D6A2"/>
<path d="M35.2108 16.2093C35.2108 13.89 30.9022 11.5149 25.216 11.0137C25.1157 13.2176 24.3003 15.219 23.0156 16.7524C24.5842 18.6245 26.8517 19.8016 29.3749 19.8016C30.5269 19.8016 31.6263 19.5554 32.6294 19.1109C34.2465 18.3102 35.2108 17.3025 35.2108 16.2093Z" fill="#02BDA5"/>
<path d="M20.8145 11.014C20.9148 13.218 21.7302 15.2185 23.0148 16.7527C24.2995 15.2185 25.1149 13.218 25.2152 11.014C24.5017 10.9512 23.7672 10.918 23.0165 10.918C22.2657 10.918 21.5288 10.952 20.8145 11.0149V11.014Z" fill="#00AB8E"/>
</g>
<ellipse opacity="0.6" cx="11.3815" cy="6.60377" rx="4.14324" ry="4.28248" fill="#0DA98E"/>
<ellipse opacity="0.6" cx="15.6979" cy="3.41138" rx="4.14324" ry="4.28248" fill="#45B9A2"/>
<ellipse opacity="0.7" cx="19.8428" cy="9.46282" rx="3.22174" ry="3.33001" fill="#038F7E"/>
<ellipse opacity="0.7" cx="26.8151" cy="26.1087" rx="4.14324" ry="4.28248" fill="#00997D"/>
</g>
<g clip-path="url(#clip1_984_54425)">
<mask id="mask2_984_54425" style="mask-type:alpha" maskUnits="userSpaceOnUse" x="13" y="0" width="9" height="12">
<path fill-rule="evenodd" clip-rule="evenodd" d="M18.6177 0.520912C18.2477 0.796996 17.7095 1.42035 17.6306 1.96498C17.4816 2.99189 18.0601 3.10457 18.239 3.13203C18.4178 3.1595 19.0084 3.2105 19.1551 2.19913C19.2372 1.63339 18.8592 0.899137 18.6177 0.520912ZM17.0769 11.1652C19.115 11.4782 21.0144 10.0277 21.3194 7.92532C21.6243 5.82298 20.2192 3.86494 18.1811 3.55191C16.143 3.23889 14.2435 4.68941 13.9386 6.79175C13.6337 8.89409 15.0387 10.8521 17.0769 11.1652Z" fill="#FF5D53"/>
</mask>
<g mask="url(#mask2_984_54425)">
<ellipse opacity="0.7" cx="1.8968" cy="2.133" rx="1.8968" ry="2.133" transform="matrix(0.988685 0.151846 -0.143502 0.989379 18.8516 6.65723)" fill="#FE5348"/>
<ellipse opacity="0.6" cx="2.71429" cy="3.05228" rx="2.71429" ry="3.05228" transform="matrix(0.988685 0.151846 -0.143502 0.989379 15.0117 7.06641)" fill="#FE5348"/>
<ellipse opacity="0.8" cx="3.9378" cy="4.44354" rx="3.9378" ry="4.44354" transform="matrix(0.988685 0.151846 -0.143502 0.989379 12.3379 0.50293)" fill="#FE5348"/>
<ellipse opacity="0.4" cx="2.69173" cy="3.03743" rx="2.69173" ry="3.03743" transform="matrix(0.988685 0.151846 -0.143502 0.989379 12.2383 1.99512)" fill="#EB2706"/>
<ellipse opacity="0.3" cx="4.07056" cy="4.57745" rx="4.07056" ry="4.57745" transform="matrix(0.988685 0.151846 -0.143502 0.989379 15.2402 3.30469)" fill="#FE5348"/>
<ellipse opacity="0.3" cx="2.61797" cy="2.94397" rx="2.61797" ry="2.94397" transform="matrix(0.988685 0.151846 -0.143502 0.989379 19.7129 0.0166016)" fill="#FE5348"/>
<path opacity="0.6" fill-rule="evenodd" clip-rule="evenodd" d="M18.6851 0.125922L17.5664 -0.0458984L17.1329 2.943L18.2385 3.1128L18.2384 3.11311L19.3572 3.28493L19.7907 0.296038L18.6851 0.126236L18.6851 0.125922Z" fill="#00D6A2"/>
<rect width="1.13154" height="3.02098" transform="matrix(0.988685 0.151846 -0.143502 0.989379 18.6309 0.276367)" fill="#038F7E"/>
<rect width="1.69932" height="1.04846" transform="matrix(0.777856 -0.620626 0.60026 0.805905 17.8555 2.60547)" fill="#0DA98E"/>
<rect width="1.13154" height="3.02098" transform="matrix(0.988685 0.151846 -0.143502 0.989379 17.5273 0.0986328)" fill="#00D6A2"/>
<ellipse opacity="0.5" cx="0.710207" cy="0.340176" rx="0.710207" ry="0.340176" transform="matrix(0.717582 -0.690413 0.673602 0.744828 14.8164 5.28223)" fill="white"/>
<ellipse opacity="0.5" cx="0.718333" cy="0.336183" rx="0.718333" ry="0.336183" transform="matrix(0.188812 -0.981341 0.980504 0.199999 14.709 6.41602)" fill="white"/>
</g>
<mask id="mask3_984_54425" style="mask-type:alpha" maskUnits="userSpaceOnUse" x="13" y="0" width="9" height="12">
<path fill-rule="evenodd" clip-rule="evenodd" d="M20.9127 0.78785C20.5427 1.06393 20.0046 1.68729 19.9256 2.23192C19.7766 3.25883 20.3551 3.3715 20.534 3.39897C20.7128 3.42644 21.3034 3.47744 21.4501 2.46606C21.5322 1.90033 21.1542 1.16608 20.9127 0.78785ZM17.0762 11.1663C19.1144 11.4793 21.0138 10.0288 21.3187 7.92648C21.6237 5.82414 20.2186 3.8661 18.1805 3.55307C16.1424 3.24005 14.2429 4.69057 13.938 6.79291C13.6331 8.89525 15.0381 10.8533 17.0762 11.1663Z" fill="#FF5D53"/>
</mask>
<g mask="url(#mask3_984_54425)">
<path opacity="0.5" d="M21.322 7.51612C21.0976 9.06334 19.595 9.70713 18.2249 9.4967C16.8547 9.28626 15.9259 7.8614 16.1503 6.31418C16.3747 4.76696 17.6674 3.68329 19.0375 3.89372C20.4077 4.10416 21.5464 5.9689 21.322 7.51612Z" fill="#FE5348"/>
<ellipse opacity="0.6" cx="3.19712" cy="3.30057" rx="3.19712" ry="3.30057" transform="matrix(0.99716 0.0687784 -0.0644566 0.998368 15.2578 6.55859)" fill="#EB2706"/>
<ellipse opacity="0.5" cx="2.89269" cy="2.98628" rx="2.89269" ry="2.98628" transform="matrix(0.99716 0.0687784 -0.0644566 0.998368 15.6641 7.31836)" fill="#EB2706"/>
<ellipse opacity="0.5" cx="1.8968" cy="2.133" rx="1.8968" ry="2.133" transform="matrix(0.988685 0.151846 -0.143502 0.989379 18.7812 6.74609)" fill="#FE5348"/>
<ellipse opacity="0.5" cx="1.51615" cy="1.70494" rx="1.51615" ry="1.70494" transform="matrix(0.988685 0.151846 -0.143502 0.989379 19.5215 7.25879)" fill="#FE5348"/>
<ellipse opacity="0.7" cx="2.15827" cy="2.2281" rx="2.15827" ry="2.2281" transform="matrix(0.99716 0.0687784 -0.0644566 0.998368 16.4141 8.0498)" fill="#EB2706"/>
</g>
</g>
<g clip-path="url(#clip2_984_54425)">
<ellipse opacity="0.7" cx="5.17788" cy="21.9023" rx="3.04702" ry="3.14942" fill="#00997D"/>
<mask id="mask4_984_54425" style="mask-type:alpha" maskUnits="userSpaceOnUse" x="1" y="13" width="8" height="11">
<path fill-rule="evenodd" clip-rule="evenodd" d="M2.53782 13.3225C2.35229 13.7392 2.18508 14.5331 2.37024 15.0333C2.71935 15.9766 3.26136 15.7859 3.42551 15.7208C3.58966 15.6556 4.11339 15.4068 3.76955 14.4779C3.57723 13.9582 2.91736 13.5234 2.53782 13.3225ZM6.15902 23.0983C8.02973 22.3557 8.96685 20.1883 8.25213 18.2573C7.53741 16.3263 5.4415 15.363 3.57079 16.1056C1.70008 16.8482 0.762963 19.0156 1.47768 20.9465C2.1924 22.8775 4.28831 23.8409 6.15902 23.0983Z" fill="#FF5D53"/>
</mask>
<g mask="url(#mask4_984_54425)">
<ellipse opacity="0.7" cx="1.85444" cy="2.06414" rx="1.85444" ry="2.06414" transform="matrix(0.928201 -0.368465 0.347574 0.93905 5.57617 18.4033)" fill="#FE5348"/>
<ellipse opacity="0.6" cx="2.65366" cy="2.95374" rx="2.65366" ry="2.95374" transform="matrix(0.928201 -0.368465 0.347574 0.93905 2.51367 20.6475)" fill="#FE5348"/>
<ellipse opacity="0.8" cx="3.84984" cy="4.30008" rx="3.84984" ry="4.30008" transform="matrix(0.928201 -0.368465 0.347574 0.93905 -2.78906 16.4121)" fill="#FE5348"/>
<ellipse opacity="0.4" cx="2.6316" cy="2.93937" rx="2.6316" ry="2.93937" transform="matrix(0.928201 -0.368465 0.347574 0.93905 -2.18164 17.7246)" fill="#EB2706"/>
<ellipse opacity="0.6" cx="1.85444" cy="2.06414" rx="1.85444" ry="2.06414" transform="matrix(0.928201 -0.368465 0.347574 0.93905 3.99414 24.5469)" fill="#FE5348"/>
<ellipse opacity="0.3" cx="3.97964" cy="4.42967" rx="3.97964" ry="4.42967" transform="matrix(0.928201 -0.368465 0.347574 0.93905 0.966797 17.3486)" fill="#FE5348"/>
<ellipse opacity="0.3" cx="2.55949" cy="2.84892" rx="2.55949" ry="2.84892" transform="matrix(0.928201 -0.368465 0.347574 0.93905 3.23047 12.3525)" fill="#FE5348"/>
<path opacity="0.6" fill-rule="evenodd" clip-rule="evenodd" d="M3.42674 12.5502L2.3999 12.9579L2.40039 12.9592L1.38525 13.3622L2.40137 16.1074L3.42821 15.6998L3.42772 15.6985L4.44286 15.2955L3.42674 12.5502Z" fill="#00D6A2"/>
<rect width="1.10627" height="2.92345" transform="matrix(0.928201 -0.368465 0.347574 0.93905 2.43555 13.1084)" fill="#038F7E"/>
<rect width="1.65232" height="1.01987" transform="matrix(0.382023 -0.936 0.905951 0.39646 2.85547 15.4639)" fill="#0DA98E"/>
<rect width="1.10627" height="2.92345" transform="matrix(0.928201 -0.368465 0.347574 0.93905 1.41992 13.5039)" fill="#00D6A2"/>
<ellipse opacity="0.5" cx="0.689924" cy="0.331221" rx="0.689924" ry="0.331221" transform="matrix(0.296592 -0.967024 0.939824 0.305716 1.52344 19.2324)" fill="white"/>
<ellipse opacity="0.5" cx="0.695157" cy="0.328666" rx="0.695157" ry="0.328666" transform="matrix(-0.304076 -0.955144 0.943931 -0.32263 1.95703 20.2461)" fill="white"/>
</g>
<mask id="mask5_984_54425" style="mask-type:alpha" maskUnits="userSpaceOnUse" x="1" y="12" width="8" height="12">
<path fill-rule="evenodd" clip-rule="evenodd" d="M4.60478 12.4115C4.41925 12.8282 4.25204 13.6221 4.43719 14.1224C4.7863 15.0656 5.32831 14.8749 5.49246 14.8098C5.65661 14.7446 6.18034 14.4958 5.83651 13.5669C5.64418 13.0472 4.98432 12.6124 4.60478 12.4115ZM6.15836 23.0965C8.02907 22.3539 8.96618 20.1865 8.25147 18.2555C7.53675 16.3246 5.44084 15.3612 3.57013 16.1038C1.69942 16.8464 0.762302 19.0138 1.47702 20.9448C2.19174 22.8758 4.28764 23.8391 6.15836 23.0965Z" fill="#FF5D53"/>
</mask>
<g mask="url(#mask5_984_54425)">
<path opacity="0.5" d="M8.06369 17.908C8.58968 19.3291 7.6153 20.6171 6.35769 21.1164C5.10008 21.6156 3.65418 20.8683 3.12819 19.4472C2.60219 18.0261 3.19527 16.4693 4.45288 15.9701C5.71049 15.4709 7.53769 16.4869 8.06369 17.908Z" fill="#FE5348"/>
<ellipse opacity="0.6" cx="1.85444" cy="2.06414" rx="1.85444" ry="2.06414" transform="matrix(0.928201 -0.368465 0.347574 0.93905 3.99414 24.5459)" fill="#FE5348"/>
<ellipse opacity="0.6" cx="3.12549" cy="3.19422" rx="3.12549" ry="3.19422" transform="matrix(0.896284 -0.44473 0.421013 0.906473 2.48633 20.0947)" fill="#EB2706"/>
<ellipse opacity="0.5" cx="2.82788" cy="2.89006" rx="2.82788" ry="2.89006" transform="matrix(0.896284 -0.44473 0.421013 0.906473 3.18359 20.5361)" fill="#EB2706"/>
<ellipse opacity="0.5" cx="1.85444" cy="2.06414" rx="1.85444" ry="2.06414" transform="matrix(0.928201 -0.368465 0.347574 0.93905 5.55859 18.5107)" fill="#FE5348"/>
<ellipse opacity="0.5" cx="1.48228" cy="1.6499" rx="1.48228" ry="1.6499" transform="matrix(0.928201 -0.368465 0.347574 0.93905 6.42188 18.5801)" fill="#FE5348"/>
<ellipse opacity="0.7" cx="2.10991" cy="2.15631" rx="2.10991" ry="2.15631" transform="matrix(0.896284 -0.44473 0.421013 0.906473 4.15625 20.7842)" fill="#EB2706"/>
</g>
</g>
<g clip-path="url(#clip3_984_54425)">
<mask id="mask6_984_54425" style="mask-type:alpha" maskUnits="userSpaceOnUse" x="20" y="16" width="9" height="12">
<path fill-rule="evenodd" clip-rule="evenodd" d="M26.6291 16.9337C26.214 17.1295 25.5681 17.6318 25.3874 18.1499C25.0467 19.1268 25.5927 19.3544 25.7629 19.4176C25.933 19.4807 26.5025 19.6503 26.8381 18.6882C27.0258 18.15 26.7943 17.3535 26.6291 16.9337ZM23.1002 27.0591C25.0395 27.7787 27.1771 26.7408 27.8745 24.7409C28.572 22.7411 27.5652 20.5365 25.6259 19.8169C23.6866 19.0973 21.549 20.1351 20.8516 22.135C20.1541 24.1349 21.1609 26.3394 23.1002 27.0591Z" fill="#FF5D53"/>
</mask>
<g mask="url(#mask6_984_54425)">
<ellipse opacity="0.7" cx="1.90159" cy="2.12794" rx="1.90159" ry="2.12794" transform="matrix(0.938385 0.348202 -0.329005 0.943395 25.6953 22.998)" fill="#FE5348"/>
<ellipse opacity="0.6" cx="2.72114" cy="3.04504" rx="2.72114" ry="3.04504" transform="matrix(0.938385 0.348202 -0.329005 0.943395 21.8516 22.6221)" fill="#FE5348"/>
<ellipse opacity="0.8" cx="3.94774" cy="4.433" rx="3.94774" ry="4.433" transform="matrix(0.938385 0.348202 -0.329005 0.943395 20.4727 15.6436)" fill="#FE5348"/>
<ellipse opacity="0.4" cx="2.69852" cy="3.03023" rx="2.69852" ry="3.03023" transform="matrix(0.938385 0.348202 -0.329005 0.943395 20.0938 17.0869)" fill="#EB2706"/>
<ellipse opacity="0.6" cx="1.90159" cy="2.12794" rx="1.90159" ry="2.12794" transform="matrix(0.938385 0.348202 -0.329005 0.943395 20.4727 26.6865)" fill="#FE5348"/>
<ellipse opacity="0.3" cx="4.08084" cy="4.56659" rx="4.08084" ry="4.56659" transform="matrix(0.938385 0.348202 -0.329005 0.943395 22.7891 18.9795)" fill="#FE5348"/>
<ellipse opacity="0.3" cx="2.62458" cy="2.93699" rx="2.62458" ry="2.93699" transform="matrix(0.938385 0.348202 -0.329005 0.943395 27.7988 16.6592)" fill="#FE5348"/>
<path opacity="0.6" fill-rule="evenodd" clip-rule="evenodd" d="M27.8211 16.9497L26.7566 16.5547L26.7565 16.5553L25.7049 16.1651L24.7133 19.0083L25.7778 19.4033L25.778 19.4028L26.8296 19.793L27.8211 16.9497Z" fill="#00D6A2"/>
<rect width="1.1344" height="3.01381" transform="matrix(0.938385 0.348202 -0.329005 0.943395 26.6895 16.6963)" fill="#038F7E"/>
<rect width="1.69916" height="1.04856" transform="matrix(0.880491 -0.451157 0.435859 0.911741 25.4863 18.8223)" fill="#0DA98E"/>
<rect width="1.1344" height="3.01381" transform="matrix(0.938385 0.348202 -0.329005 0.943395 25.6406 16.2988)" fill="#00D6A2"/>
<ellipse opacity="0.5" cx="0.709822" cy="0.340366" rx="0.709822" ry="0.340366" transform="matrix(0.834976 -0.53204 0.519106 0.866297 22 20.832)" fill="white"/>
<ellipse opacity="0.5" cx="0.716636" cy="0.337028" rx="0.716636" ry="0.337028" transform="matrix(0.372012 -0.926289 0.921291 0.393655 21.6797 21.9229)" fill="white"/>
</g>
<mask id="mask7_984_54425" style="mask-type:alpha" maskUnits="userSpaceOnUse" x="20" y="17" width="10" height="11">
<path fill-rule="evenodd" clip-rule="evenodd" d="M28.8287 17.6594C28.4136 17.8553 27.7677 18.3576 27.5871 18.8757C27.2464 19.8525 27.7923 20.0802 27.9625 20.1433C28.1327 20.2064 28.7022 20.376 29.0377 19.414C29.2254 18.8758 28.9939 18.0792 28.8287 17.6594ZM23.0995 27.0591C25.0388 27.7787 27.1763 26.7408 27.8738 24.7409C28.5712 22.7411 27.5645 20.5365 25.6251 19.8169C23.6858 19.0973 21.5483 20.1351 20.8508 22.135C20.1534 24.1349 21.1601 26.3394 23.0995 27.0591Z" fill="#FF5D53"/>
</mask>
<g mask="url(#mask7_984_54425)">
<path opacity="0.5" d="M27.9534 24.3399C27.4401 25.8117 25.8446 26.1388 24.5409 25.6551C23.2372 25.1713 22.5964 23.586 23.1097 22.1142C23.623 20.6424 25.0959 19.8414 26.3997 20.3252C27.7034 20.8089 28.4667 22.8681 27.9534 24.3399Z" fill="#FE5348"/>
<ellipse opacity="0.6" cx="1.90159" cy="2.12794" rx="1.90159" ry="2.12794" transform="matrix(0.938385 0.348202 -0.329005 0.943395 20.4727 26.6865)" fill="#FE5348"/>
<ellipse opacity="0.6" cx="3.20509" cy="3.29284" rx="3.20509" ry="3.29284" transform="matrix(0.962411 0.268669 -0.253006 0.968244 22.1875 22.1729)" fill="#EB2706"/>
<ellipse opacity="0.5" cx="2.89989" cy="2.97929" rx="2.89989" ry="2.97929" transform="matrix(0.962411 0.268669 -0.253006 0.968244 22.4453 23)" fill="#EB2706"/>
<ellipse opacity="0.5" cx="1.90159" cy="2.12794" rx="1.90159" ry="2.12794" transform="matrix(0.938385 0.348202 -0.329005 0.943395 25.6094 23.0703)" fill="#FE5348"/>
<ellipse opacity="0.5" cx="1.51997" cy="1.7009" rx="1.51997" ry="1.7009" transform="matrix(0.938385 0.348202 -0.329005 0.943395 26.2383 23.7227)" fill="#FE5348"/>
<ellipse opacity="0.7" cx="2.16364" cy="2.22288" rx="2.16364" ry="2.22288" transform="matrix(0.962411 0.268669 -0.253006 0.968244 23.043 23.8691)" fill="#EB2706"/>
</g>
</g>
</g>
<defs>
<clipPath id="clip0_984_54425">
<rect width="32" height="42" fill="white" transform="translate(0.5 0.5)"/>
</clipPath>
<clipPath id="clip1_984_54425">
<rect width="9.48766" height="13.7207" fill="white" transform="matrix(0.995054 0.0993312 -0.0930339 0.995663 13.7734 -1.5)"/>
</clipPath>
<clipPath id="clip2_984_54425">
<rect width="9.27601" height="13.2774" fill="white" transform="matrix(0.908833 -0.417159 0.394751 0.918788 -2.5 14.8701)"/>
</clipPath>
<clipPath id="clip3_984_54425">
<rect width="10.2237" height="14.1699" fill="white" transform="matrix(0.95453 0.298116 -0.280594 0.959827 20.6836 14.1406)"/>
</clipPath>
</defs>
</svg>
