<svg width="33" height="15" viewBox="0 0 33 15" fill="none" xmlns="http://www.w3.org/2000/svg">
<g clip-path="url(#clip0_984_54381)">
<mask id="mask0_984_54381" style="mask-type:alpha" maskUnits="userSpaceOnUse" x="6" y="-1" width="22" height="16">
<path opacity="0.9" d="M14.7686 1.1426C15.6477 1.86107 16.3578 2.71572 16.9 3.66926C17.4422 2.71572 18.1523 1.86107 19.0314 1.1426C21.2853 -0.699317 24.2521 -1.31993 27.3 -0.848786C27.2482 2.15489 26.1059 4.89183 23.852 6.73375C22.1096 8.1574 19.9415 8.85109 17.6389 8.87536L18.1394 15H15.8908L16.4781 8.8746C14.058 8.91318 11.7701 8.22256 9.94799 6.73375C7.69412 4.89183 6.55183 2.15489 6.5 -0.848786C9.54789 -1.31993 12.5147 -0.699317 14.7686 1.1426Z" fill="#00D6A2"/>
</mask>
<g mask="url(#mask0_984_54381)">
<path opacity="0.5" d="M14.7365 2.84271C15.6285 3.57164 16.3489 4.43872 16.899 5.40613C17.4491 4.43872 18.1694 3.57164 19.0614 2.84271C21.3481 0.974002 24.358 0.344359 27.4503 0.822359C27.3977 3.86974 26.2388 6.64649 23.9521 8.5152C22.1844 9.95957 19.9847 10.6633 17.6486 10.688L18.1564 16.9017H15.875L16.4709 10.6872C14.0156 10.7263 11.6945 10.0257 9.84581 8.5152C7.55915 6.64649 6.40024 3.86974 6.34766 0.822359C9.43989 0.344359 12.4498 0.974002 14.7365 2.84271Z" fill="#00D6A2"/>
<path opacity="0.5" d="M14.919 3.73537C15.7981 4.45384 16.5082 5.3085 17.0504 6.26203C17.5926 5.3085 18.3026 4.45384 19.1818 3.73537C21.4357 1.89346 24.4025 1.27284 27.4504 1.74399C27.3986 4.74767 26.2563 7.48461 24.0024 9.32652C22.26 10.7502 20.0919 11.4439 17.7893 11.4681L18.2898 17.5928H16.0412L16.6285 11.4674C14.2084 11.506 11.9205 10.8153 10.0984 9.32652C7.84451 7.48461 6.70222 4.74767 6.65039 1.74399C9.69828 1.27284 12.6651 1.89346 14.919 3.73537Z" fill="#00D6A2"/>
<path opacity="0.9" d="M14.7365 4.53705C15.6285 5.26597 16.3489 6.13306 16.899 7.10046C17.4491 6.13306 18.1694 5.26597 19.0614 4.53705C21.3481 2.66834 24.358 2.0387 27.4503 2.5167C27.3977 5.56407 26.2388 8.34083 23.9521 10.2095C22.1844 11.6539 19.9847 12.3577 17.6486 12.3823L18.1564 18.596H15.875L16.4709 12.3815C14.0156 12.4207 11.6945 11.72 9.84581 10.2095C7.55915 8.34083 6.40024 5.56407 6.34766 2.5167C9.43989 2.0387 12.4498 2.66834 14.7365 4.53705Z" fill="#00D6A2"/>
<path opacity="0.9" d="M14.9873 5.04689C15.8665 5.76536 16.5765 6.62002 17.1187 7.57355C17.661 6.62002 18.371 5.76536 19.2502 5.04689C21.5041 3.20498 24.4709 2.58437 27.5187 3.05551C27.4669 6.05919 26.3246 8.79613 24.0708 10.638C22.3284 12.0617 20.1602 12.7554 17.8577 12.7797L18.3581 18.9043H16.1095L16.6969 12.7789C14.2767 12.8175 11.9889 12.1269 10.1667 10.638C7.91287 8.79613 6.77058 6.05919 6.71875 3.05551C9.76664 2.58437 12.7334 3.20498 14.9873 5.04689Z" fill="#00D6A2"/>
<path d="M14.9209 7.47658C15.8001 8.19505 16.5101 9.04971 17.0523 10.0032C17.5946 9.04971 18.3046 8.19505 19.1838 7.47658C21.4377 5.63467 24.4044 5.01405 27.4523 5.4852C27.4005 8.48888 26.2582 11.2258 24.0044 13.0677C22.262 14.4914 20.0938 15.1851 17.7913 15.2093L18.2917 21.334H16.0431L16.6305 15.2086C14.2103 15.2472 11.9225 14.5565 10.1003 13.0677C7.84646 11.2258 6.70418 8.48888 6.65234 5.4852C9.70024 5.01405 12.667 5.63467 14.9209 7.47658Z" fill="#00D6A2"/>
</g>
</g>
<defs>
<clipPath id="clip0_984_54381">
<rect width="32" height="15" fill="white" transform="translate(0.5)"/>
</clipPath>
</defs>
</svg>
