<svg width="34" height="155" viewBox="0 0 34 155" fill="none" xmlns="http://www.w3.org/2000/svg">
<g clip-path="url(#clip0_984_58759)">
<path d="M-27.6464 74.1068C-22.2735 67.9026 -14.5066 64.0019 -5.86408 64.0019C-3.24555 64.0019 -0.707373 64.3607 1.70888 65.0349C1.61744 48.1847 -11.4891 34.5581 -27.6436 34.5581C-43.7981 34.5581 -56.9047 48.1876 -56.9961 65.0349C-54.5798 64.3636 -52.0444 64.0048 -49.4259 64.0048C-40.7834 64.0048 -33.0164 67.9055 -27.6436 74.1097L-27.6464 74.1068Z" fill="#5FE1B7"/>
<path d="M23.4951 94.6564C23.4951 80.4597 14.2541 68.5202 1.71284 65.0332C1.71284 65.094 1.71284 65.1518 1.71284 65.2126C1.71284 79.4093 -7.53098 91.3517 -20.0722 94.8387C-20.0722 95.293 -20.0861 95.7444 -20.1055 96.193C-0.628589 97.854 14.1294 105.725 14.1294 113.411C14.1294 117.034 10.8264 120.373 5.28735 123.027C15.9721 118.443 23.4951 107.47 23.4951 94.6593V94.6564Z" fill="#02BDA5"/>
<path d="M-27.6484 74.1039C-22.9406 79.5412 -20.0755 86.7495 -20.0755 94.6552C-20.0755 94.716 -20.0755 94.7739 -20.0755 94.8346C-7.53146 91.3477 1.7096 79.4081 1.7096 65.2086C1.7096 65.1478 1.7096 65.0899 1.7096 65.0292C-0.706658 64.3578 -3.24483 63.9961 -5.86336 63.9961C-14.5059 63.9961 -22.2728 67.8968 -27.6457 74.101L-27.6484 74.1039Z" fill="#00AB8E"/>
<path d="M14.1234 113.407C14.1234 105.722 -0.634619 97.8507 -20.1115 96.1897C-20.4551 103.493 -23.2482 110.126 -27.6484 115.207C-22.2756 121.411 -14.5087 125.312 -5.86614 125.312C-1.92033 125.312 1.84537 124.496 5.28133 123.023C10.8204 120.37 14.1234 117.03 14.1234 113.407Z" fill="#02BDA5"/>
</g>
<defs>
<clipPath id="clip0_984_58759">
<rect width="120.068" height="120.068" fill="white" transform="translate(-86.2852 34.5583)"/>
</clipPath>
</defs>
</svg>
