<svg width="36" height="121" viewBox="0 0 36 121" fill="none" xmlns="http://www.w3.org/2000/svg">
<g clip-path="url(#clip0_2742_136092)">
<path d="M-26.3651 39.9989C-20.9923 33.7947 -13.2254 29.8939 -4.58282 29.8939C-1.96429 29.8939 0.573875 30.2528 2.99013 30.927C2.89869 14.0768 -10.2078 0.450195 -26.3624 0.450195C-42.5169 0.450195 -55.6234 14.0797 -55.7148 30.927C-53.2986 30.2557 -50.7632 29.8968 -48.1447 29.8968C-39.5021 29.8968 -31.7352 33.7976 -26.3624 40.0018L-26.3651 39.9989Z" fill="#5FE1B7"/>
<path d="M24.7647 60.5485C24.7647 46.3518 15.5236 34.4122 2.98238 30.9253C2.98238 30.9861 2.98238 31.0439 2.98238 31.1047C2.98238 45.3014 -6.26145 57.2438 -18.8027 60.7308C-18.8027 61.1851 -18.8165 61.6365 -18.8359 62.085C0.640942 63.746 15.3989 71.617 15.3989 79.3028C15.3989 82.9257 12.096 86.2651 6.55688 88.9186C17.2416 84.335 24.7647 73.3619 24.7647 60.5514V60.5485Z" fill="#02BDA5"/>
<path d="M-26.3711 39.996C-21.6633 45.4333 -18.7981 52.6416 -18.7981 60.5473C-18.7981 60.6081 -18.7981 60.666 -18.7981 60.7267C-6.25412 57.2398 2.98694 45.3002 2.98694 31.1007C2.98694 31.0399 2.98694 30.982 2.98694 30.9212C0.570686 30.2499 -1.96749 29.8882 -4.58602 29.8882C-13.2286 29.8882 -20.9955 33.7889 -26.3683 39.9931L-26.3711 39.996Z" fill="#00AB8E"/>
<path d="M15.4007 79.2995C15.4007 71.6137 0.642725 63.7428 -18.8342 62.0818C-19.1778 69.3856 -21.9709 76.018 -26.3711 81.0994C-20.9983 87.3036 -13.2313 91.2043 -4.58879 91.2043C-0.642986 91.2043 3.12271 90.3883 6.55867 88.9154C12.0978 86.2618 15.4007 82.9225 15.4007 79.2995Z" fill="#02BDA5"/>
</g>
<defs>
<clipPath id="clip0_2742_136092">
<rect width="35" height="120" fill="white" transform="translate(0.296875 0.450195)"/>
</clipPath>
</defs>
</svg>
