<svg width="144" height="163" viewBox="0 0 144 163" fill="none" xmlns="http://www.w3.org/2000/svg">
<circle opacity="0.1" cx="77.2717" cy="81.4831" r="77.2717" fill="#00D6A2"/>
<circle opacity="0.2" cx="77.2737" cy="81.4827" r="60.0862" fill="#00D6A2"/>
<circle opacity="0.5" cx="77.2745" cy="81.483" r="29.5323" fill="#00D6A2"/>
<g clip-path="url(#clip0_1073_58899)">
<mask id="mask0_1073_58899" style="mask-type:alpha" maskUnits="userSpaceOnUse" x="66" y="76" width="20" height="89">
<path d="M73.0251 76.9136H79.9995L85.7207 164.325H66.3125L73.0251 76.9136Z" fill="#D7953B"/>
</mask>
<g mask="url(#mask0_1073_58899)">
<ellipse opacity="0.4" cx="68.2676" cy="158.454" rx="10.4199" ry="10.7701" fill="#D9A45C"/>
<path opacity="0.8" d="M73.0173 76.9136H79.9917L85.7129 164.325H66.3047L73.0173 76.9136Z" fill="#D7953B"/>
<rect opacity="0.8" x="72.8906" y="105.045" width="14.573" height="60.8627" fill="#D7953B"/>
<rect x="76.0078" y="103.922" width="14.573" height="60.8627" fill="#D7953B"/>
<rect opacity="0.8" x="78.7656" y="103.918" width="16.161" height="60.8627" fill="#C48734"/>
<ellipse opacity="0.5" cx="63.4042" cy="135.169" rx="13.4823" ry="13.9354" fill="#C38734"/>
<ellipse opacity="0.5" cx="63.4053" cy="135.169" rx="11.3506" ry="11.7321" fill="#C38734"/>
<ellipse opacity="0.5" cx="73.9886" cy="160.269" rx="9.07458" ry="9.37954" fill="#C38734"/>
<ellipse opacity="0.5" cx="86.4277" cy="167.998" rx="10.4199" ry="10.7701" fill="#C38734"/>
<ellipse opacity="0.5" cx="76.0176" cy="111.164" rx="10.4199" ry="10.7701" fill="#C38734"/>
<ellipse opacity="0.9" cx="79.0449" cy="106.008" rx="10.4199" ry="10.7701" fill="#C38734"/>
<ellipse opacity="0.8" cx="84.8223" cy="171.36" rx="10.4199" ry="10.7701" fill="#D9A45C"/>
<ellipse opacity="0.8" cx="84.8965" cy="171.157" rx="10.4199" ry="10.7701" fill="#C38734"/>
<ellipse opacity="0.3" cx="83.3418" cy="156.287" rx="10.4199" ry="10.7701" fill="#8B5D1D"/>
<ellipse opacity="0.3" cx="85.7234" cy="161.453" rx="9.02028" ry="9.32342" fill="#8B5D1D"/>
<ellipse opacity="0.3" cx="88.4578" cy="164.324" rx="9.02028" ry="9.32342" fill="#8B5D1D"/>
<ellipse opacity="0.3" cx="79.1265" cy="116.559" rx="6.59522" ry="6.81686" fill="#8B5D1D"/>
<ellipse opacity="0.3" cx="80.3369" cy="123.629" rx="7.71185" ry="7.97101" fill="#8B5D1D"/>
<ellipse opacity="0.3" cx="81.8852" cy="123.659" rx="5.87736" ry="6.07487" fill="#8B5D1D"/>
<ellipse opacity="0.3" cx="84.8617" cy="123.656" rx="5.87736" ry="6.07487" fill="#8B5D1D"/>
<ellipse opacity="0.4" cx="80.6816" cy="104.267" rx="10.4199" ry="10.7701" fill="#8B5D1D"/>
<ellipse opacity="0.6" cx="59.9238" cy="134.928" rx="10.4199" ry="10.7701" fill="#D9A45C"/>
<ellipse opacity="0.3" cx="92.6152" cy="166.769" rx="10.4199" ry="10.7701" fill="#D9A45C"/>
<ellipse opacity="0.3" cx="90.4199" cy="129.783" rx="10.4199" ry="10.7701" fill="#D9A45C"/>
</g>
<mask id="mask1_1073_58899" style="mask-type:alpha" maskUnits="userSpaceOnUse" x="21" y="18" width="110" height="101">
<path d="M75.7474 62.2049C81.4548 55.393 89.7053 51.1101 98.8859 51.1101C101.668 51.1101 104.364 51.5041 106.93 52.2443C106.833 33.7435 92.9107 18.782 75.7504 18.782C58.59 18.782 44.6674 33.7466 44.5703 52.2443C47.137 51.5072 49.8303 51.1133 52.6118 51.1133C61.7925 51.1133 70.043 55.3961 75.7504 62.2081L75.7474 62.2049Z" fill="#5FE1B7"/>
<path d="M31.3864 105.36C31.3864 96.9245 47.0574 88.2825 67.7411 86.4556C67.7175 85.9631 67.7058 85.4675 67.7058 84.9686C54.3837 81.1401 44.5672 68.0278 44.5672 52.4436C44.5672 52.3768 44.5672 52.3133 44.5672 52.2466C31.2452 56.0719 21.4258 69.1843 21.4258 84.7717C21.4258 98.7959 29.3731 110.815 40.6731 115.873C34.8538 112.969 31.3864 109.325 31.3864 105.357V105.36Z" fill="#00D6A2"/>
<path d="M67.702 84.9659C67.702 84.8992 67.702 84.8357 67.702 84.769C67.702 76.0888 70.7485 68.1744 75.7465 62.2044C70.0391 55.3925 61.7886 51.1096 52.6079 51.1096C49.8264 51.1096 47.1331 51.5036 44.5664 52.2407C44.5664 52.3074 44.5664 52.371 44.5664 52.4377C44.5664 68.0251 54.3828 81.1342 67.7049 84.9628L67.702 84.9659Z" fill="#00CF91"/>
<path d="M130.069 84.7717C130.069 69.1843 120.253 56.0751 106.931 52.2466C106.931 52.3133 106.931 52.3768 106.931 52.4436C106.931 68.031 97.1113 81.1433 83.7892 84.9718C83.7892 85.4707 83.7745 85.9663 83.7539 86.4588C104.443 88.2825 120.12 96.9245 120.12 105.363C120.12 109.341 116.612 113.008 110.728 115.921C122.078 110.888 130.069 98.8403 130.069 84.7748V84.7717Z" fill="#02BDA5"/>
<path d="M75.75 62.2042C80.7509 68.1742 83.7945 76.0886 83.7945 84.7687C83.7945 84.8354 83.7945 84.899 83.7945 84.9657C97.1195 81.1372 106.936 68.028 106.936 52.4375C106.936 52.3707 106.936 52.3072 106.936 52.2405C104.369 51.5033 101.673 51.1062 98.8915 51.1062C89.7108 51.1062 81.4603 55.3891 75.7529 62.201L75.75 62.2042Z" fill="#00AB8E"/>
<path d="M67.6983 84.968C67.6983 85.4669 67.713 85.9625 67.7336 86.455C70.3326 86.2262 73.0112 86.1023 75.7457 86.1023C78.4801 86.1023 81.1499 86.223 83.746 86.4518C83.7695 85.9593 83.7813 85.4637 83.7813 84.9649C81.2146 85.702 78.5213 86.0959 75.7398 86.0959C72.9582 86.0959 70.262 85.702 67.6953 84.9617L67.6983 84.968Z" fill="#00AC8E"/>
<path d="M75.7476 62.2065C70.7467 68.1765 67.7031 76.0909 67.7031 84.7711C67.7031 84.8378 67.7031 84.9013 67.7031 84.9681C70.2698 85.7052 72.966 86.1023 75.7476 86.1023C78.5292 86.1023 81.2224 85.7083 83.7891 84.9712C83.7891 84.9045 83.7891 84.841 83.7891 84.7743C83.7891 76.0941 80.7426 68.1797 75.7446 62.2097L75.7476 62.2065Z" fill="#00B38E"/>
<path d="M75.7476 107.335C71.0734 101.752 68.1064 94.4734 67.7414 86.4541C47.0577 88.2778 31.3867 96.9198 31.3867 105.358C31.3867 109.324 34.8512 112.971 40.6733 115.875C44.3497 117.521 48.3822 118.433 52.6091 118.433C61.7897 118.433 70.0402 114.15 75.7476 107.338V107.335Z" fill="#00D6A2"/>
<path d="M120.123 105.358C120.123 96.9198 104.446 88.2778 83.7562 86.4541C83.3912 94.4734 80.4242 101.756 75.75 107.335C81.4574 114.147 89.7079 118.43 98.8885 118.43C103.08 118.43 107.08 117.534 110.73 115.916C116.614 113.003 120.123 109.336 120.123 105.358Z" fill="#02BDA5"/>
<path d="M67.7383 86.4555C68.1033 94.4747 71.0703 101.754 75.7445 107.336C80.4187 101.754 83.3857 94.4747 83.7507 86.4555C81.1546 86.2267 78.4819 86.106 75.7504 86.106C73.0188 86.106 70.3374 86.2299 67.7383 86.4586V86.4555Z" fill="#00AB8E"/>
</mask>
<g mask="url(#mask1_1073_58899)">
<path d="M98.8841 82.9769C104.591 76.1649 112.842 71.882 122.023 71.882C124.804 71.882 127.5 72.276 130.067 73.0163C129.97 54.5154 116.047 39.554 98.8871 39.554C81.7267 39.554 67.8042 54.5186 67.707 73.0163C70.2737 72.2792 72.967 71.8852 75.7486 71.8852C84.9292 71.8852 93.1797 76.1681 98.8871 82.98L98.8841 82.9769Z" fill="#5FE1B7"/>
<path d="M54.5232 126.132C54.5232 117.696 70.1941 109.054 90.8778 107.228C90.8543 106.735 90.8425 106.239 90.8425 105.741C77.5204 101.912 67.704 88.7997 67.704 73.2155C67.704 73.1488 67.704 73.0853 67.704 73.0186C54.3819 76.8439 44.5625 89.9563 44.5625 105.544C44.5625 119.568 52.5098 131.587 63.8098 136.645C57.9906 133.741 54.5232 130.097 54.5232 126.129V126.132Z" fill="#00D6A2"/>
<path d="M90.8387 105.742C90.8387 105.675 90.8387 105.611 90.8387 105.545C90.8387 96.8645 93.8852 88.95 98.8832 82.9801C93.1758 76.1681 84.9253 71.8853 75.7447 71.8853C72.9631 71.8853 70.2698 72.2792 67.7031 73.0163C67.7031 73.0831 67.7031 73.1466 67.7031 73.2133C67.7031 88.8007 77.5196 101.91 90.8416 105.738L90.8387 105.742Z" fill="#00CF91"/>
<path d="M153.206 105.544C153.206 89.9563 143.389 76.8471 130.067 73.0186C130.067 73.0853 130.067 73.1488 130.067 73.2155C130.067 88.8029 120.248 101.915 106.926 105.744C106.926 106.243 106.911 106.738 106.891 107.231C127.58 109.054 143.257 117.696 143.257 126.135C143.257 130.113 139.748 133.779 133.864 136.693C145.214 131.66 153.206 119.612 153.206 105.547V105.544Z" fill="#02BDA5"/>
<path d="M98.8867 82.9759C103.888 88.9459 106.931 96.8603 106.931 105.54C106.931 105.607 106.931 105.671 106.931 105.737C120.256 101.909 130.073 88.7997 130.073 73.2092C130.073 73.1425 130.073 73.0789 130.073 73.0122C127.506 72.2751 124.81 71.8779 122.028 71.8779C112.848 71.8779 104.597 76.1608 98.8897 82.9727L98.8867 82.9759Z" fill="#00AB8E"/>
<path d="M90.8389 105.74C90.8389 106.239 90.8536 106.734 90.8742 107.227C93.4733 106.998 96.1518 106.874 98.8863 106.874C101.621 106.874 104.29 106.995 106.887 107.224C106.91 106.731 106.922 106.236 106.922 105.737C104.355 106.474 101.662 106.868 98.8804 106.868C96.0988 106.868 93.4026 106.474 90.8359 105.734L90.8389 105.74Z" fill="#00AC8E"/>
<path d="M98.8843 82.9785C93.8834 88.9485 90.8398 96.8629 90.8398 105.543C90.8398 105.61 90.8398 105.673 90.8398 105.74C93.4065 106.477 96.1027 106.874 98.8843 106.874C101.666 106.874 104.359 106.48 106.926 105.743C106.926 105.676 106.926 105.613 106.926 105.546C106.926 96.8661 103.879 88.9517 98.8814 82.9817L98.8843 82.9785Z" fill="#00B38E"/>
<path d="M98.8843 128.106C94.2101 122.524 91.2431 115.245 90.8781 107.226C70.1944 109.05 54.5234 117.692 54.5234 126.13C54.5234 130.095 57.9879 133.743 63.81 136.647C67.4864 138.293 71.519 139.204 75.7458 139.204C84.9264 139.204 93.1769 134.922 98.8843 128.11V128.106Z" fill="#00D6A2"/>
<path d="M143.259 126.13C143.259 117.692 127.582 109.05 106.893 107.226C106.528 115.245 103.561 122.527 98.8867 128.106C104.594 134.918 112.845 139.201 122.025 139.201C126.217 139.201 130.217 138.305 133.867 136.688C139.751 133.775 143.259 130.108 143.259 126.13Z" fill="#02BDA5"/>
<path d="M87.8711 102.159C88.3605 112.913 92.3394 122.674 98.6075 130.16C104.876 122.674 108.855 112.913 109.344 102.159C105.863 101.852 102.278 101.69 98.6154 101.69C94.9524 101.69 91.3565 101.856 87.8711 102.163V102.159Z" fill="#00AB8E"/>
<ellipse opacity="0.7" cx="108.646" cy="56.0774" rx="15.0754" ry="15.582" fill="#00997D"/>
<path d="M60.1498 62.2046C65.8571 55.3927 74.1076 51.1098 83.2883 51.1098C86.0698 51.1098 88.7661 51.5038 91.3327 52.2441C91.2356 33.7432 77.3131 18.7817 60.1527 18.7817C42.9923 18.7817 29.0698 33.7464 28.9727 52.2441C31.5394 51.507 34.2326 51.113 37.0142 51.113C46.1948 51.113 54.4453 55.3959 60.1527 62.2078L60.1498 62.2046Z" fill="#5FE1B7"/>
<path d="M15.7927 105.36C15.7927 96.9242 31.4637 88.2822 52.1473 86.4553C52.1238 85.9629 52.112 85.4672 52.112 84.9684C38.7899 81.1399 28.9735 68.0275 28.9735 52.4433C28.9735 52.3766 28.9735 52.3131 28.9735 52.2463C15.6514 56.0717 5.83203 69.184 5.83203 84.7714C5.83203 98.7956 13.7794 110.815 25.0793 115.873C19.2601 112.969 15.7927 109.325 15.7927 105.357V105.36Z" fill="#00D6A2"/>
<path d="M52.1043 84.9657C52.1043 84.899 52.1043 84.8354 52.1043 84.7687C52.1043 76.0886 55.1508 68.1742 60.1488 62.2042C54.4414 55.3922 46.1909 51.1094 37.0103 51.1094C34.2287 51.1094 31.5354 51.5033 28.9688 52.2405C28.9688 52.3072 28.9688 52.3707 28.9688 52.4375C28.9688 68.0248 38.7852 81.134 52.1073 84.9625L52.1043 84.9657Z" fill="#00CF91"/>
<path d="M114.475 84.7714C114.475 69.184 104.659 56.0749 91.3369 52.2463C91.3369 52.3131 91.3369 52.3766 91.3369 52.4433C91.3369 68.0307 81.5176 81.143 68.1955 84.9716C68.1955 85.4704 68.1808 85.9661 68.1602 86.4585C88.8497 88.2822 104.527 96.9243 104.527 105.363C104.527 109.341 101.018 113.007 95.134 115.921C106.484 110.888 114.475 98.8401 114.475 84.7746V84.7714Z" fill="#02BDA5"/>
<path d="M60.1562 62.2039C65.1572 68.1739 68.2007 76.0883 68.2007 84.7685C68.2007 84.8352 68.2007 84.8987 68.2007 84.9655C81.5258 81.1369 91.3422 68.0278 91.3422 52.4372C91.3422 52.3705 91.3422 52.3069 91.3422 52.2402C88.7755 51.5031 86.0793 51.106 83.2977 51.106C74.1171 51.106 65.8666 55.3888 60.1592 62.2008L60.1562 62.2039Z" fill="#00AB8E"/>
<path d="M52.1084 84.9678C52.1084 85.4666 52.1231 85.9623 52.1437 86.4547C54.7428 86.226 57.4213 86.102 60.1558 86.102C62.8903 86.102 65.56 86.2228 68.1561 86.4515C68.1797 85.9591 68.1915 85.4634 68.1915 84.9646C65.6248 85.7017 62.9315 86.0957 60.1499 86.0957C57.3684 86.0957 54.6722 85.7017 52.1055 84.9614L52.1084 84.9678Z" fill="#00AC8E"/>
<path d="M60.1538 62.21C55.1529 68.1799 52.1094 76.0944 52.1094 84.7745C52.1094 84.8412 52.1094 84.9048 52.1094 84.9715C54.6761 85.7086 57.3723 86.1057 60.1538 86.1057C62.9354 86.1057 65.6287 85.7118 68.1954 84.9747C68.1954 84.9079 68.1954 84.8444 68.1954 84.7777C68.1954 76.0975 65.1489 68.1831 60.1509 62.2131L60.1538 62.21Z" fill="#00B38E"/>
<path d="M60.1538 107.338C55.4796 101.756 52.5126 94.4765 52.1476 86.4573C31.4639 88.281 15.793 96.923 15.793 105.362C15.793 109.327 19.2574 112.974 25.0796 115.878C28.756 117.524 32.7885 118.436 37.0153 118.436C46.196 118.436 54.4465 114.153 60.1538 107.341V107.338Z" fill="#00D6A2"/>
<path d="M104.529 105.362C104.529 96.923 88.852 88.281 68.1625 86.4573C67.7975 94.4765 64.8305 101.759 60.1562 107.338C65.8636 114.15 74.1141 118.433 83.2948 118.433C87.4863 118.433 91.4864 117.537 95.1363 115.92C101.02 113.006 104.529 109.34 104.529 105.362Z" fill="#02BDA5"/>
<path d="M52.1445 86.455C52.5095 94.4742 55.4765 101.753 60.1507 107.336C64.8249 101.753 67.7919 94.4742 68.1569 86.455C65.5608 86.2262 62.8881 86.1055 60.1566 86.1055C57.4251 86.1055 54.7436 86.2294 52.1445 86.4581V86.455Z" fill="#00AB8E"/>
<path d="M1.37242 82.9737C7.07978 76.1618 15.3303 71.8789 24.5109 71.8789C27.2925 71.8789 29.9887 72.2729 32.5554 73.0131C32.4583 54.5123 18.5357 39.5508 1.37536 39.5508C-15.785 39.5508 -29.7076 54.5154 -29.8047 73.0131C-27.238 72.276 -24.5447 71.8821 -21.7632 71.8821C-12.5825 71.8821 -4.332 76.1649 1.37536 82.9769L1.37242 82.9737Z" fill="#5FE1B7"/>
<path d="M55.6942 105.54C55.6942 89.9531 45.8778 76.8439 32.5557 73.0154C32.5557 73.0821 32.5557 73.1456 32.5557 73.2124C32.5557 88.7998 22.7363 101.912 9.41423 105.741C9.41423 106.239 9.39951 106.735 9.37891 107.228C30.0685 109.051 45.7453 117.693 45.7453 126.132C45.7453 130.11 42.2367 133.776 36.3528 136.69C47.7027 131.657 55.6942 119.609 55.6942 105.544V105.54Z" fill="#02BDA5"/>
<path d="M1.375 82.973C6.37593 88.943 9.41947 96.8574 9.41947 105.538C9.41947 105.604 9.41947 105.668 9.41947 105.735C22.7445 101.906 32.5609 88.7968 32.5609 73.2063C32.5609 73.1395 32.5609 73.076 32.5609 73.0093C29.9942 72.2721 27.298 71.875 24.5165 71.875C15.3358 71.875 7.08531 76.1579 1.37794 82.9698L1.375 82.973Z" fill="#00AB8E"/>
<path d="M45.7476 126.131C45.7476 117.692 30.0708 109.05 9.3812 107.226C9.01622 115.246 6.04921 122.528 1.375 128.107C7.08236 134.919 15.3329 139.202 24.5135 139.202C28.705 139.202 32.7052 138.306 36.3551 136.689C42.239 133.775 45.7476 130.109 45.7476 126.131Z" fill="#02BDA5"/>
<g opacity="0.8">
<path d="M97.9349 23.5594C103.642 16.7474 111.893 12.4646 121.073 12.4646C123.855 12.4646 126.551 12.8585 129.118 13.5988C129.021 -4.90205 115.098 -19.8635 97.9379 -19.8635C80.7775 -19.8635 66.8549 -4.89887 66.7578 13.5988C69.3245 12.8617 72.0178 12.4678 74.7993 12.4678C83.98 12.4678 92.2305 16.7506 97.9379 23.5626L97.9349 23.5594Z" fill="#5FE1B7"/>
<path d="M53.5739 66.711C53.5739 58.2756 69.2449 49.6335 89.9286 47.8067C89.905 47.3142 89.8933 46.8185 89.8933 46.3197C76.5712 42.4912 66.7547 29.3788 66.7547 13.7946C66.7547 13.7279 66.7547 13.6644 66.7547 13.5977C53.4327 17.423 43.6133 30.5354 43.6133 46.1227C43.6133 60.1469 51.5606 72.1663 62.8606 77.2244C57.0413 74.3205 53.5739 70.6762 53.5739 66.7079V66.711Z" fill="#00D6A2"/>
<path d="M89.8895 46.3204C89.8895 46.2537 89.8895 46.1902 89.8895 46.1235C89.8895 37.4433 92.936 29.5289 97.934 23.5589C92.2266 16.747 83.9761 12.4641 74.7954 12.4641C72.0139 12.4641 69.3206 12.8581 66.7539 13.5952C66.7539 13.6619 66.7539 13.7255 66.7539 13.7922C66.7539 29.3796 76.5703 42.4887 89.8924 46.3173L89.8895 46.3204Z" fill="#00CF91"/>
<path d="M152.257 46.1227C152.257 30.5354 142.44 17.4262 129.118 13.5977C129.118 13.6644 129.118 13.7279 129.118 13.7946C129.118 29.382 119.299 42.4944 105.977 46.3229C105.977 46.8217 105.962 47.3174 105.941 47.8098C126.631 49.6336 142.308 58.2756 142.308 66.7142C142.308 70.6921 138.799 74.3586 132.915 77.2721C144.265 72.2394 152.257 60.1914 152.257 46.1259V46.1227Z" fill="#02BDA5"/>
<path d="M97.9375 23.5584C102.938 29.5284 105.982 37.4428 105.982 46.123C105.982 46.1897 105.982 46.2532 105.982 46.32C119.307 42.4914 129.123 29.3823 129.123 13.7917C129.123 13.725 129.123 13.6614 129.123 13.5947C126.557 12.8576 123.861 12.4604 121.079 12.4604C111.898 12.4604 103.648 16.7433 97.9404 23.5553L97.9375 23.5584Z" fill="#00AB8E"/>
<path d="M89.8858 46.3225C89.8858 46.8213 89.9005 47.317 89.9211 47.8095C92.5201 47.5807 95.1987 47.4568 97.9332 47.4568C100.668 47.4568 103.337 47.5775 105.933 47.8063C105.957 47.3138 105.969 46.8182 105.969 46.3193C103.402 47.0565 100.709 47.4504 97.9273 47.4504C95.1457 47.4504 92.4495 47.0565 89.8828 46.3162L89.8858 46.3225Z" fill="#00AC8E"/>
<path d="M97.9351 23.561C92.9342 29.531 89.8906 37.4454 89.8906 46.1256C89.8906 46.1923 89.8906 46.2558 89.8906 46.3226C92.4573 47.0597 95.1535 47.4568 97.9351 47.4568C100.717 47.4568 103.41 47.0628 105.977 46.3257C105.977 46.259 105.977 46.1955 105.977 46.1287C105.977 37.4486 102.93 29.5342 97.9321 23.5642L97.9351 23.561Z" fill="#00B38E"/>
<path d="M97.9351 68.689C93.2609 63.1066 90.2939 55.8276 89.9289 47.8083C69.2452 49.6321 53.5742 58.2741 53.5742 66.7127C53.5742 70.6779 57.0387 74.3253 62.8608 77.2293C66.5372 78.8751 70.5697 79.7869 74.7966 79.7869C83.9772 79.7869 92.2277 75.5041 97.9351 68.6921V68.689Z" fill="#00D6A2"/>
<path d="M142.31 66.7127C142.31 58.2741 126.633 49.6321 105.944 47.8083C105.579 55.8276 102.612 63.1098 97.9375 68.689C103.645 75.5009 111.895 79.7838 121.076 79.7838C125.268 79.7838 129.268 78.8878 132.918 77.2706C138.802 74.3571 142.31 70.6906 142.31 66.7127Z" fill="#02BDA5"/>
<path d="M89.9258 47.8099C90.2908 55.8292 93.2578 63.1082 97.932 68.6906C102.606 63.1082 105.573 55.8292 105.938 47.8099C103.342 47.5812 100.669 47.4604 97.9379 47.4604C95.2063 47.4604 92.5249 47.5844 89.9258 47.8131V47.8099Z" fill="#00AB8E"/>
</g>
<ellipse opacity="0.6" cx="55.6027" cy="31.7629" rx="15.0754" ry="15.582" fill="#0DA98E"/>
<ellipse opacity="0.6" cx="71.3137" cy="20.1474" rx="15.0754" ry="15.582" fill="#45B9A2"/>
<ellipse opacity="0.7" cx="86.3904" cy="42.1659" rx="11.7224" ry="12.1164" fill="#038F7E"/>
<ellipse opacity="0.7" cx="111.767" cy="102.732" rx="15.0754" ry="15.582" fill="#00997D"/>
</g>
<mask id="mask2_1073_58899" style="mask-type:alpha" maskUnits="userSpaceOnUse" x="64" y="9" width="28" height="40">
<path fill-rule="evenodd" clip-rule="evenodd" d="M81.9369 9.63073C80.5907 10.6353 78.6326 12.9034 78.3452 14.885C77.8032 18.6215 79.9082 19.0315 80.5589 19.1314C81.2096 19.2314 83.3586 19.4169 83.8923 15.737C84.1909 13.6785 82.8156 11.0069 81.9369 9.63073ZM76.3322 48.3605C83.748 49.4995 90.6592 44.2217 91.7687 36.5722C92.8782 28.9228 87.7659 21.7983 80.35 20.6594C72.9341 19.5204 66.023 24.7982 64.9135 32.4477C63.804 40.0971 68.9163 47.2216 76.3322 48.3605Z" fill="#FF5D53"/>
</mask>
<g mask="url(#mask2_1073_58899)">
<ellipse opacity="0.7" cx="6.90161" cy="7.76103" rx="6.90161" ry="7.76103" transform="matrix(0.988685 0.151846 -0.143502 0.989379 82.7891 31.9575)" fill="#FE5348"/>
<ellipse opacity="0.6" cx="9.87606" cy="11.1059" rx="9.87606" ry="11.1059" transform="matrix(0.988685 0.151846 -0.143502 0.989379 68.8164 33.4463)" fill="#FE5348"/>
<ellipse opacity="0.8" cx="14.3279" cy="16.168" rx="14.3279" ry="16.168" transform="matrix(0.988685 0.151846 -0.143502 0.989379 59.0859 9.5647)" fill="#FE5348"/>
<ellipse opacity="0.4" cx="9.79397" cy="11.0518" rx="9.79397" ry="11.0518" transform="matrix(0.988685 0.151846 -0.143502 0.989379 58.7266 14.9944)" fill="#EB2706"/>
<ellipse opacity="0.3" cx="14.8109" cy="16.6553" rx="14.8109" ry="16.6553" transform="matrix(0.988685 0.151846 -0.143502 0.989379 69.6523 19.759)" fill="#FE5348"/>
<ellipse opacity="0.3" cx="9.5256" cy="10.7118" rx="9.5256" ry="10.7118" transform="matrix(0.988685 0.151846 -0.143502 0.989379 85.9258 7.79517)" fill="#FE5348"/>
<path opacity="0.6" fill-rule="evenodd" clip-rule="evenodd" d="M82.18 8.19354L78.1094 7.56836L76.532 18.4436L80.5559 19.0616L80.5559 19.062L84.6264 19.6871L86.2038 8.81191L82.1799 8.1939L82.18 8.19354Z" fill="#00D6A2"/>
<rect width="4.11717" height="10.992" transform="matrix(0.988685 0.151846 -0.143502 0.989379 81.9883 8.74048)" fill="#038F7E"/>
<rect width="6.18307" height="3.81489" transform="matrix(0.777856 -0.620626 0.60026 0.805905 79.1602 17.2148)" fill="#0DA98E"/>
<rect width="4.11717" height="10.992" transform="matrix(0.988685 0.151846 -0.143502 0.989379 77.9727 8.09375)" fill="#00D6A2"/>
<ellipse opacity="0.5" cx="2.58412" cy="1.23775" rx="2.58412" ry="1.23775" transform="matrix(0.717582 -0.690413 0.673602 0.744828 68.1094 26.9543)" fill="white"/>
<ellipse opacity="0.5" cx="2.61369" cy="1.22322" rx="2.61369" ry="1.22322" transform="matrix(0.188812 -0.981341 0.980504 0.199999 67.7188 31.0798)" fill="white"/>
</g>
<mask id="mask3_1073_58899" style="mask-type:alpha" maskUnits="userSpaceOnUse" x="64" y="10" width="29" height="39">
<path fill-rule="evenodd" clip-rule="evenodd" d="M90.2918 10.6007C88.9455 11.6052 86.9875 13.8734 86.7001 15.855C86.1581 19.5915 88.263 20.0015 88.9138 20.1014C89.5645 20.2013 91.7135 20.3869 92.2472 16.707C92.5458 14.6485 91.1705 11.9769 90.2918 10.6007ZM76.3341 48.3639C83.7499 49.5028 90.6611 44.225 91.7706 36.5755C92.8801 28.9261 87.7678 21.8017 80.3519 20.6627C72.9361 19.5237 66.0249 24.8015 64.9154 32.451C63.8059 40.1005 68.9182 47.2249 76.3341 48.3639Z" fill="#FF5D53"/>
</mask>
<g mask="url(#mask3_1073_58899)">
<path opacity="0.5" d="M91.7764 35.082C90.9599 40.7117 85.4928 43.0541 80.5074 42.2885C75.522 41.5228 72.1425 36.3384 72.959 30.7087C73.7756 25.0791 78.479 21.1361 83.4644 21.9018C88.4497 22.6674 92.593 29.4524 91.7764 35.082Z" fill="#FE5348"/>
<ellipse opacity="0.6" cx="11.6329" cy="12.0093" rx="11.6329" ry="12.0093" transform="matrix(0.99716 0.0687784 -0.0644566 0.998368 69.7109 31.5984)" fill="#EB2706"/>
<ellipse opacity="0.5" cx="10.5252" cy="10.8657" rx="10.5252" ry="10.8657" transform="matrix(0.99716 0.0687784 -0.0644566 0.998368 71.1953 34.3625)" fill="#EB2706"/>
<ellipse opacity="0.5" cx="6.90161" cy="7.76103" rx="6.90161" ry="7.76103" transform="matrix(0.988685 0.151846 -0.143502 0.989379 82.5391 32.2805)" fill="#FE5348"/>
<ellipse opacity="0.5" cx="5.51657" cy="6.20352" rx="5.51657" ry="6.20352" transform="matrix(0.988685 0.151846 -0.143502 0.989379 85.2305 34.146)" fill="#FE5348"/>
<ellipse opacity="0.7" cx="7.85296" cy="8.10705" rx="7.85296" ry="8.10705" transform="matrix(0.99716 0.0687784 -0.0644566 0.998368 73.9258 37.0242)" fill="#EB2706"/>
</g>
<g clip-path="url(#clip1_1073_58899)">
<ellipse opacity="0.7" cx="33.0359" cy="87.4278" rx="11.0867" ry="11.4593" fill="#00997D"/>
<mask id="mask4_1073_58899" style="mask-type:alpha" maskUnits="userSpaceOnUse" x="18" y="56" width="28" height="37">
<path fill-rule="evenodd" clip-rule="evenodd" d="M23.4325 56.209C22.7574 57.7253 22.149 60.6139 22.8227 62.4341C24.093 65.866 26.0651 65.1724 26.6624 64.9353C27.2596 64.6982 29.1652 63.7929 27.9142 60.4129C27.2144 58.5222 24.8135 56.9399 23.4325 56.209ZM36.6074 91.779C43.4141 89.077 46.8238 81.1909 44.2233 74.165C41.6227 67.139 33.9967 63.6338 27.19 66.3358C20.3833 69.0378 16.9736 76.9239 19.5741 83.9499C22.1747 90.9758 29.8007 94.481 36.6074 91.779Z" fill="#FF5D53"/>
</mask>
<g mask="url(#mask4_1073_58899)">
<ellipse opacity="0.7" cx="6.74745" cy="7.51047" rx="6.74745" ry="7.51047" transform="matrix(0.928201 -0.368465 0.347574 0.93905 34.4805 74.6963)" fill="#FE5348"/>
<ellipse opacity="0.6" cx="9.65547" cy="10.7473" rx="9.65547" ry="10.7473" transform="matrix(0.928201 -0.368465 0.347574 0.93905 23.3398 82.8616)" fill="#FE5348"/>
<ellipse opacity="0.8" cx="14.0078" cy="15.6461" rx="14.0078" ry="15.6461" transform="matrix(0.928201 -0.368465 0.347574 0.93905 4.04688 67.4512)" fill="#FE5348"/>
<ellipse opacity="0.4" cx="9.57522" cy="10.695" rx="9.57522" ry="10.695" transform="matrix(0.928201 -0.368465 0.347574 0.93905 6.25391 72.2266)" fill="#EB2706"/>
<ellipse opacity="0.6" cx="6.74745" cy="7.51047" rx="6.74745" ry="7.51047" transform="matrix(0.928201 -0.368465 0.347574 0.93905 28.7305 97.0498)" fill="#FE5348"/>
<ellipse opacity="0.3" cx="14.4801" cy="16.1175" rx="14.4801" ry="16.1175" transform="matrix(0.928201 -0.368465 0.347574 0.93905 17.7148 70.8586)" fill="#FE5348"/>
<ellipse opacity="0.3" cx="9.31284" cy="10.3659" rx="9.31284" ry="10.3659" transform="matrix(0.928201 -0.368465 0.347574 0.93905 25.9531 52.6802)" fill="#FE5348"/>
<path opacity="0.6" fill-rule="evenodd" clip-rule="evenodd" d="M26.6648 53.4L22.9286 54.8831L22.9303 54.8876L19.2361 56.3541L22.9332 66.3429L26.6694 64.8598L26.6678 64.8552L30.362 63.3887L26.6648 53.4Z" fill="#00D6A2"/>
<rect width="4.02521" height="10.6371" transform="matrix(0.928201 -0.368465 0.347574 0.93905 23.0625 55.4304)" fill="#038F7E"/>
<rect width="6.01206" height="3.71085" transform="matrix(0.382023 -0.936 0.905951 0.39646 24.5938 64.001)" fill="#0DA98E"/>
<rect width="4.02521" height="10.6371" transform="matrix(0.928201 -0.368465 0.347574 0.93905 19.3633 56.8694)" fill="#00D6A2"/>
<ellipse opacity="0.5" cx="2.51032" cy="1.20516" rx="2.51032" ry="1.20516" transform="matrix(0.296592 -0.967024 0.939824 0.305716 19.7383 77.7129)" fill="white"/>
<ellipse opacity="0.5" cx="2.52936" cy="1.19587" rx="2.52936" ry="1.19587" transform="matrix(-0.304076 -0.955144 0.943931 -0.32263 21.3164 81.4014)" fill="white"/>
</g>
<mask id="mask5_1073_58899" style="mask-type:alpha" maskUnits="userSpaceOnUse" x="18" y="52" width="28" height="41">
<path fill-rule="evenodd" clip-rule="evenodd" d="M30.954 52.8932C30.279 54.4094 29.6706 57.2981 30.3443 59.1182C31.6145 62.5501 33.5866 61.8566 34.1839 61.6195C34.7812 61.3824 36.6868 60.4771 35.4357 57.0971C34.7359 55.2064 32.335 53.6241 30.954 52.8932ZM36.606 91.7712C43.4127 89.0692 46.8225 81.1831 44.2219 74.1571C41.6214 67.1312 33.9953 63.626 27.1887 66.328C20.382 69.03 16.9722 76.9161 19.5728 83.942C22.1733 90.968 29.7994 94.4732 36.606 91.7712Z" fill="#FF5D53"/>
</mask>
<g mask="url(#mask5_1073_58899)">
<path opacity="0.5" d="M43.5367 72.8935C45.4506 78.0643 41.9052 82.7508 37.3293 84.5673C32.7535 86.3838 27.4925 83.6646 25.5786 78.4938C23.6648 73.3231 25.8228 67.6588 30.3986 65.8423C34.9745 64.0259 41.6228 67.7228 43.5367 72.8935Z" fill="#FE5348"/>
<ellipse opacity="0.6" cx="6.74745" cy="7.51047" rx="6.74745" ry="7.51047" transform="matrix(0.928201 -0.368465 0.347574 0.93905 28.7305 97.0459)" fill="#FE5348"/>
<ellipse opacity="0.6" cx="11.3723" cy="11.6223" rx="11.3723" ry="11.6223" transform="matrix(0.896284 -0.44473 0.421013 0.906473 23.2422 80.8501)" fill="#EB2706"/>
<ellipse opacity="0.5" cx="10.2894" cy="10.5156" rx="10.2894" ry="10.5156" transform="matrix(0.896284 -0.44473 0.421013 0.906473 25.7773 82.4563)" fill="#EB2706"/>
<ellipse opacity="0.5" cx="6.74745" cy="7.51047" rx="6.74745" ry="7.51047" transform="matrix(0.928201 -0.368465 0.347574 0.93905 34.418 75.0867)" fill="#FE5348"/>
<ellipse opacity="0.5" cx="5.39335" cy="6.00324" rx="5.39335" ry="6.00324" transform="matrix(0.928201 -0.368465 0.347574 0.93905 37.5625 75.3389)" fill="#FE5348"/>
<ellipse opacity="0.7" cx="7.67701" cy="7.84582" rx="7.67701" ry="7.84582" transform="matrix(0.896284 -0.44473 0.421013 0.906473 29.3203 83.3586)" fill="#EB2706"/>
</g>
</g>
<mask id="mask6_1073_58899" style="mask-type:alpha" maskUnits="userSpaceOnUse" x="89" y="69" width="28" height="39">
<path fill-rule="evenodd" clip-rule="evenodd" d="M111.082 69.3471C109.571 70.0596 107.221 71.8873 106.564 73.7724C105.324 77.3267 107.311 78.1549 107.93 78.3847C108.549 78.6144 110.621 79.2315 111.842 75.7309C112.525 73.7728 111.682 70.8745 111.082 69.3471ZM98.2396 106.188C105.296 108.807 113.073 105.03 115.611 97.7537C118.149 90.4771 114.486 82.4556 107.429 79.8372C100.373 77.2189 92.5955 80.9952 90.0579 88.2718C87.5202 95.5484 91.1832 103.57 98.2396 106.188Z" fill="#FF5D53"/>
</mask>
<g mask="url(#mask6_1073_58899)">
<ellipse opacity="0.7" cx="6.91903" cy="7.74262" rx="6.91903" ry="7.74262" transform="matrix(0.938385 0.348202 -0.329005 0.943395 107.676 91.4131)" fill="#FE5348"/>
<ellipse opacity="0.6" cx="9.901" cy="11.0795" rx="9.901" ry="11.0795" transform="matrix(0.938385 0.348202 -0.329005 0.943395 93.6953 90.0452)" fill="#FE5348"/>
<ellipse opacity="0.8" cx="14.364" cy="16.1297" rx="14.364" ry="16.1297" transform="matrix(0.938385 0.348202 -0.329005 0.943395 88.6797 64.6536)" fill="#FE5348"/>
<ellipse opacity="0.4" cx="9.8187" cy="11.0256" rx="9.8187" ry="11.0256" transform="matrix(0.938385 0.348202 -0.329005 0.943395 87.2969 69.9055)" fill="#EB2706"/>
<ellipse opacity="0.6" cx="6.91903" cy="7.74262" rx="6.91903" ry="7.74262" transform="matrix(0.938385 0.348202 -0.329005 0.943395 88.6758 104.834)" fill="#FE5348"/>
<ellipse opacity="0.3" cx="14.8483" cy="16.6158" rx="14.8483" ry="16.6158" transform="matrix(0.938385 0.348202 -0.329005 0.943395 97.1133 76.7915)" fill="#FE5348"/>
<ellipse opacity="0.3" cx="9.54965" cy="10.6864" rx="9.54965" ry="10.6864" transform="matrix(0.938385 0.348202 -0.329005 0.943395 115.336 68.3489)" fill="#FE5348"/>
<path opacity="0.6" fill-rule="evenodd" clip-rule="evenodd" d="M115.418 69.4064L111.545 67.9692L111.544 67.9711L107.718 66.5515L104.11 76.8967L107.983 78.3339L107.984 78.332L111.81 79.7516L115.418 69.4064Z" fill="#00D6A2"/>
<rect width="4.12756" height="10.9659" transform="matrix(0.938385 0.348202 -0.329005 0.943395 111.297 68.4839)" fill="#038F7E"/>
<rect width="6.18246" height="3.81524" transform="matrix(0.880491 -0.451157 0.435859 0.911741 106.922 76.2195)" fill="#0DA98E"/>
<rect width="4.12756" height="10.9659" transform="matrix(0.938385 0.348202 -0.329005 0.943395 107.484 67.0378)" fill="#00D6A2"/>
<ellipse opacity="0.5" cx="2.58272" cy="1.23844" rx="2.58272" ry="1.23844" transform="matrix(0.834976 -0.53204 0.519106 0.866297 94.2344 83.532)" fill="white"/>
<ellipse opacity="0.5" cx="2.60752" cy="1.22629" rx="2.60752" ry="1.22629" transform="matrix(0.372012 -0.926289 0.921291 0.393655 93.0703 87.501)" fill="white"/>
</g>
<mask id="mask7_1073_58899" style="mask-type:alpha" maskUnits="userSpaceOnUse" x="89" y="71" width="32" height="37">
<path fill-rule="evenodd" clip-rule="evenodd" d="M119.084 71.9873C117.573 72.6998 115.223 74.5276 114.566 76.4126C113.326 79.967 115.313 80.7952 115.932 81.025C116.551 81.2547 118.623 81.8718 119.844 78.3712C120.527 76.4131 119.685 73.5148 119.084 71.9873ZM98.2349 106.188C105.291 108.807 113.069 105.03 115.606 97.7537C118.144 90.477 114.481 82.4556 107.425 79.8372C100.368 77.2188 92.5908 80.9951 90.0531 88.2717C87.5154 95.5484 91.1785 103.57 98.2349 106.188Z" fill="#FF5D53"/>
</mask>
<g mask="url(#mask7_1073_58899)">
<path opacity="0.5" d="M115.899 96.2958C114.031 101.651 108.226 102.841 103.482 101.081C98.7385 99.3207 96.407 93.5525 98.2746 88.1973C100.142 82.842 105.502 79.9277 110.245 81.6879C114.989 83.4481 117.766 90.9405 115.899 96.2958Z" fill="#FE5348"/>
<ellipse opacity="0.6" cx="6.91903" cy="7.74262" rx="6.91903" ry="7.74262" transform="matrix(0.938385 0.348202 -0.329005 0.943395 88.6797 104.834)" fill="#FE5348"/>
<ellipse opacity="0.6" cx="11.6619" cy="11.9812" rx="11.6619" ry="11.9812" transform="matrix(0.962411 0.268669 -0.253006 0.968244 94.9219 88.4106)" fill="#EB2706"/>
<ellipse opacity="0.5" cx="10.5514" cy="10.8403" rx="10.5514" ry="10.8403" transform="matrix(0.962411 0.268669 -0.253006 0.968244 95.8555 91.4204)" fill="#EB2706"/>
<ellipse opacity="0.5" cx="6.91903" cy="7.74262" rx="6.91903" ry="7.74262" transform="matrix(0.938385 0.348202 -0.329005 0.943395 107.371 91.6765)" fill="#FE5348"/>
<ellipse opacity="0.5" cx="5.5305" cy="6.18881" rx="5.5305" ry="6.18881" transform="matrix(0.938385 0.348202 -0.329005 0.943395 109.656 94.0498)" fill="#FE5348"/>
<ellipse opacity="0.7" cx="7.87252" cy="8.08807" rx="7.87252" ry="8.08807" transform="matrix(0.962411 0.268669 -0.253006 0.968244 98.0273 94.5828)" fill="#EB2706"/>
</g>
</g>
<defs>
<clipPath id="clip0_1073_58899">
<rect width="133.409" height="161.997" fill="white" transform="translate(7.52344 0.376709)"/>
</clipPath>
<clipPath id="clip1_1073_58899">
<rect width="33.7512" height="48.3104" fill="white" transform="matrix(0.908833 -0.417159 0.394751 0.918788 5.09766 61.8406)"/>
</clipPath>
</defs>
</svg>
