<svg width="33" height="39" viewBox="0 0 33 39" fill="none" xmlns="http://www.w3.org/2000/svg">
<g clip-path="url(#clip0_984_54414)">
<mask id="mask0_984_54414" style="mask-type:alpha" maskUnits="userSpaceOnUse" x="14" y="16" width="6" height="24">
<path d="M16.3869 16H18.3474L19.9556 39.3876H14.5L16.3869 16Z" fill="#D7953B"/>
</mask>
<g mask="url(#mask0_984_54414)">
<path opacity="0.8" d="M16.385 16H18.3454L19.9537 39.3876H14.498L16.385 16Z" fill="#D7953B"/>
<rect opacity="0.7" x="16.2969" y="23.4941" width="4.09646" height="16.2843" fill="#D7953B"/>
<rect x="18.0938" y="23.1045" width="4.54282" height="16.2843" fill="#C48734"/>
</g>
<mask id="mask1_984_54414" style="mask-type:alpha" maskUnits="userSpaceOnUse" x="2" y="2" width="29" height="25">
<path d="M16.6131 12.8943C18.084 11.1852 20.2103 10.1107 22.5763 10.1107C23.2932 10.1107 23.988 10.2096 24.6495 10.3953C24.6245 5.75364 21.0364 2 16.6138 2C12.1913 2 8.60316 5.75444 8.57812 10.3953C9.23961 10.2103 9.93372 10.1115 10.6506 10.1115C13.0166 10.1115 15.1429 11.186 16.6138 12.8951L16.6131 12.8943Z" fill="#5FE1B7"/>
<path d="M5.17838 23.7217C5.17838 21.6054 9.21709 19.4372 14.5477 18.9788C14.5416 18.8553 14.5386 18.7309 14.5386 18.6058C11.1052 17.6453 8.57533 14.3555 8.57533 10.4457C8.57533 10.4289 8.57533 10.413 8.57533 10.3962C5.14197 11.356 2.61133 14.6457 2.61133 18.5564C2.61133 22.0749 4.65951 25.0904 7.57172 26.3594C6.072 25.6308 5.17838 24.7165 5.17838 23.7209V23.7217Z" fill="#00D6A2"/>
<path d="M14.5387 18.6045C14.5387 18.5877 14.5387 18.5718 14.5387 18.5551C14.5387 16.3773 15.3238 14.3917 16.6119 12.8939C15.141 11.1849 13.0147 10.1104 10.6486 10.1104C9.93176 10.1104 9.23766 10.2092 8.57617 10.3941C8.57617 10.4109 8.57617 10.4268 8.57617 10.4435C8.57617 14.3542 11.1061 17.6431 14.5394 18.6037L14.5387 18.6045Z" fill="#00CF91"/>
<path d="M30.6121 18.5566C30.6121 14.6459 28.0822 11.357 24.6489 10.3965C24.6489 10.4132 24.6489 10.4292 24.6489 10.4459C24.6489 14.3566 22.1182 17.6463 18.6849 18.6068C18.6849 18.732 18.6811 18.8563 18.6758 18.9799C24.0079 19.4374 28.0481 21.6056 28.0481 23.7228C28.0481 24.7208 27.1439 25.6406 25.6275 26.3716C28.5526 25.109 30.6121 22.0863 30.6121 18.5574V18.5566Z" fill="#02BDA5"/>
<path d="M16.6113 12.8937C17.9002 14.3915 18.6845 16.3771 18.6845 18.5549C18.6845 18.5716 18.6845 18.5876 18.6845 18.6043C22.1187 17.6438 24.6485 14.3548 24.6485 10.4434C24.6485 10.4266 24.6485 10.4107 24.6485 10.3939C23.9871 10.209 23.2922 10.1094 22.5753 10.1094C20.2093 10.1094 18.083 11.1839 16.6121 12.8929L16.6113 12.8937Z" fill="#00AB8E"/>
<path d="M14.5379 18.6041C14.5379 18.7293 14.5417 18.8536 14.547 18.9772C15.2168 18.9198 15.9071 18.8887 16.6118 18.8887C17.3166 18.8887 18.0046 18.919 18.6737 18.9764C18.6797 18.8528 18.6828 18.7285 18.6828 18.6033C18.0213 18.7883 17.3272 18.8871 16.6103 18.8871C15.8935 18.8871 15.1986 18.7883 14.5371 18.6025L14.5379 18.6041Z" fill="#00AC8E"/>
<path d="M16.6103 12.8936C15.3215 14.3913 14.5371 16.377 14.5371 18.5547C14.5371 18.5715 14.5371 18.5874 14.5371 18.6041C15.1986 18.7891 15.8935 18.8887 16.6103 18.8887C17.3272 18.8887 18.0213 18.7899 18.6828 18.6049C18.6828 18.5882 18.6828 18.5722 18.6828 18.5555C18.6828 16.3778 17.8976 14.3921 16.6096 12.8944L16.6103 12.8936Z" fill="#00B38E"/>
<path d="M16.6104 24.2152C15.4058 22.8147 14.6411 20.9885 14.547 18.9766C9.21645 19.4341 5.17773 21.6023 5.17773 23.7194C5.17773 24.7142 6.07059 25.6293 7.57107 26.3579C8.51855 26.7708 9.55781 26.9996 10.6471 26.9996C13.0132 26.9996 15.1395 25.9251 16.6104 24.216V24.2152Z" fill="#00D6A2"/>
<path d="M28.047 23.7194C28.047 21.6023 24.0068 19.4341 18.6747 18.9766C18.5806 20.9885 17.816 22.8155 16.6113 24.2152C18.0822 25.9243 20.2085 26.9988 22.5746 26.9988C23.6548 26.9988 24.6857 26.774 25.6264 26.3683C27.1428 25.6373 28.047 24.7174 28.047 23.7194Z" fill="#02BDA5"/>
<path d="M14.5469 18.9773C14.6409 20.9893 15.4056 22.8155 16.6102 24.216C17.8149 22.8155 18.5795 20.9893 18.6736 18.9773C18.0045 18.9199 17.3157 18.8896 16.6117 18.8896C15.9078 18.8896 15.2167 18.9207 14.5469 18.9781V18.9773Z" fill="#00AB8E"/>
</mask>
<g mask="url(#mask1_984_54414)">
<path d="M22.574 18.1071C24.0449 16.3981 26.1712 15.3236 28.5372 15.3236C29.2541 15.3236 29.949 15.4224 30.6105 15.6082C30.5854 10.9665 26.9973 7.21289 22.5748 7.21289C18.1522 7.21289 14.5641 10.9673 14.5391 15.6082C15.2005 15.4232 15.8947 15.3244 16.6115 15.3244C18.9775 15.3244 21.1039 16.3989 22.5748 18.1079L22.574 18.1071Z" fill="#5FE1B7"/>
<path d="M11.1413 28.9348C11.1413 26.8185 15.18 24.6503 20.5106 24.192C20.5045 24.0684 20.5015 23.9441 20.5015 23.8189C17.0681 22.8584 14.5382 19.5687 14.5382 15.6588C14.5382 15.6421 14.5382 15.6261 14.5382 15.6094C11.1049 16.5691 8.57422 19.8588 8.57422 23.7695C8.57422 27.288 10.6224 30.3035 13.5346 31.5725C12.0349 30.8439 11.1413 29.9297 11.1413 28.934V28.9348Z" fill="#00D6A2"/>
<path d="M20.5015 23.8193C20.5015 23.8026 20.5015 23.7866 20.5015 23.7699C20.5015 21.5922 21.2867 19.6065 22.5748 18.1087C21.1039 16.3997 18.9775 15.3252 16.6115 15.3252C15.8947 15.3252 15.2005 15.424 14.5391 15.609C14.5391 15.6257 14.5391 15.6417 14.5391 15.6584C14.5391 19.5691 17.0689 22.858 20.5023 23.8185L20.5015 23.8193Z" fill="#00CF91"/>
<path d="M36.575 23.7695C36.575 19.8588 34.0451 16.5699 30.6118 15.6094C30.6118 15.6261 30.6118 15.6421 30.6118 15.6588C30.6118 19.5695 28.0811 22.8592 24.6478 23.8197C24.6478 23.9449 24.644 24.0692 24.6387 24.1928C29.9708 24.6503 34.011 26.8185 34.011 28.9356C34.011 29.9336 33.1068 30.8535 31.5904 31.5845C34.5155 30.3218 36.575 27.2992 36.575 23.7703V23.7695Z" fill="#02BDA5"/>
<path d="M22.5742 18.1066C23.8631 19.6044 24.6474 21.59 24.6474 23.7678C24.6474 23.7845 24.6474 23.8004 24.6474 23.8172C28.0816 22.8567 30.6114 19.5677 30.6114 15.6563C30.6114 15.6395 30.6114 15.6236 30.6114 15.6068C29.95 15.4219 29.2551 15.3223 28.5382 15.3223C26.1722 15.3223 24.0459 16.3968 22.575 18.1058L22.5742 18.1066Z" fill="#00AB8E"/>
<path d="M20.5008 23.817C20.5008 23.9422 20.5046 24.0665 20.5099 24.1901C21.1797 24.1327 21.87 24.1016 22.5747 24.1016C23.2795 24.1016 23.9675 24.1319 24.6366 24.1893C24.6426 24.0657 24.6457 23.9414 24.6457 23.8162C23.9842 24.0012 23.2901 24.1 22.5732 24.1C21.8564 24.1 21.1615 24.0012 20.5 23.8154L20.5008 23.817Z" fill="#00AC8E"/>
<path d="M22.5732 18.1074C21.2844 19.6052 20.5 21.5908 20.5 23.7686C20.5 23.7853 20.5 23.8013 20.5 23.818C21.1615 24.0029 21.8564 24.1026 22.5732 24.1026C23.2901 24.1026 23.9842 24.0037 24.6457 23.8188C24.6457 23.8021 24.6457 23.7861 24.6457 23.7694C24.6457 21.5916 23.8605 19.606 22.5725 18.1082L22.5732 18.1074Z" fill="#00B38E"/>
<path d="M22.5733 29.4291C21.3686 28.0286 20.604 26.2024 20.5099 24.1904C15.1793 24.648 11.1406 26.8161 11.1406 28.9333C11.1406 29.9281 12.0335 30.8432 13.534 31.5718C14.4814 31.9847 15.5207 32.2135 16.61 32.2135C18.9761 32.2135 21.1024 31.1389 22.5733 29.4299V29.4291Z" fill="#00D6A2"/>
<path d="M34.0099 28.9333C34.0099 26.8161 29.9697 24.648 24.6376 24.1904C24.5435 26.2024 23.7789 28.0294 22.5742 29.4291C24.0451 31.1381 26.1714 32.2127 28.5375 32.2127C29.6177 32.2127 30.6486 31.9879 31.5893 31.5821C33.1057 30.8512 34.0099 29.9313 34.0099 28.9333Z" fill="#02BDA5"/>
<path d="M20.5117 24.1902C20.6058 26.2022 21.3704 28.0284 22.5751 29.4289C23.7797 28.0284 24.5444 26.2022 24.6384 24.1902C23.9694 24.1328 23.2806 24.1025 22.5766 24.1025C21.8726 24.1025 21.1815 24.1336 20.5117 24.191V24.1902Z" fill="#00AB8E"/>
<path d="M12.5935 12.8943C14.0644 11.1852 16.1907 10.1107 18.5568 10.1107C19.2736 10.1107 19.9685 10.2096 20.63 10.3953C20.605 5.75364 17.0168 2 12.5943 2C8.17174 2 4.58363 5.75444 4.55859 10.3953C5.22008 10.2103 5.91419 10.1115 6.63105 10.1115C8.99708 10.1115 11.1234 11.186 12.5943 12.8951L12.5935 12.8943Z" fill="#5FE1B7"/>
<path d="M1.15885 23.722C1.15885 21.6056 5.19756 19.4374 10.5281 18.9791C10.5221 18.8555 10.519 18.7312 10.519 18.606C7.08568 17.6455 4.5558 14.3558 4.5558 10.4459C4.5558 10.4292 4.5558 10.4132 4.5558 10.3965C1.12244 11.3562 -1.4082 14.6459 -1.4082 18.5566C-1.4082 22.0751 0.639978 25.0906 3.55219 26.3596C2.05246 25.6311 1.15885 24.7168 1.15885 23.7212V23.722Z" fill="#00D6A2"/>
<path d="M10.5191 18.6064C10.5191 18.5897 10.5191 18.5737 10.5191 18.557C10.5191 16.3793 11.3043 14.3936 12.5923 12.8959C11.1214 11.1868 8.99513 10.1123 6.6291 10.1123C5.91223 10.1123 5.21813 10.2111 4.55664 10.3961C4.55664 10.4128 4.55664 10.4288 4.55664 10.4455C4.55664 14.3562 7.08652 17.6451 10.5199 18.6056L10.5191 18.6064Z" fill="#00CF91"/>
<path d="M26.5926 18.5566C26.5926 14.6459 24.0627 11.357 20.6294 10.3965C20.6294 10.4132 20.6294 10.4292 20.6294 10.4459C20.6294 14.3566 18.0987 17.6463 14.6654 18.6068C14.6654 18.732 14.6616 18.8563 14.6562 18.9799C19.9883 19.4374 24.0286 21.6056 24.0286 23.7228C24.0286 24.7208 23.1243 25.6406 21.6079 26.3716C24.533 25.109 26.5926 22.0863 26.5926 18.5574V18.5566Z" fill="#02BDA5"/>
<path d="M12.5898 12.8947C13.8787 14.3925 14.6631 16.3781 14.6631 18.5559C14.6631 18.5726 14.6631 18.5885 14.6631 18.6053C18.0972 17.6447 20.6271 14.3558 20.6271 10.4443C20.6271 10.4276 20.6271 10.4117 20.6271 10.3949C19.9656 10.21 19.2707 10.1104 18.5538 10.1104C16.1878 10.1104 14.0615 11.1849 12.5906 12.8939L12.5898 12.8947Z" fill="#00AB8E"/>
<path d="M10.5183 18.6041C10.5183 18.7293 10.5221 18.8536 10.5274 18.9772C11.1973 18.9198 11.8876 18.8887 12.5923 18.8887C13.297 18.8887 13.9851 18.919 14.6541 18.9764C14.6602 18.8528 14.6632 18.7285 14.6632 18.6033C14.0018 18.7883 13.3077 18.8871 12.5908 18.8871C11.8739 18.8871 11.1791 18.7883 10.5176 18.6025L10.5183 18.6041Z" fill="#00AC8E"/>
<path d="M12.5927 12.8965C11.3039 14.3943 10.5195 16.3799 10.5195 18.5576C10.5195 18.5744 10.5195 18.5903 10.5195 18.6071C11.181 18.792 11.8759 18.8916 12.5927 18.8916C13.3096 18.8916 14.0037 18.7928 14.6652 18.6079C14.6652 18.5911 14.6652 18.5752 14.6652 18.5584C14.6652 16.3807 13.8801 14.3951 12.592 12.8973L12.5927 12.8965Z" fill="#00B38E"/>
<path d="M12.5909 24.2152C11.3862 22.8147 10.6216 20.9885 10.5275 18.9766C5.19692 19.4341 1.1582 21.6023 1.1582 23.7194C1.1582 24.7142 2.05106 25.6293 3.55154 26.3579C4.49902 26.7708 5.53828 26.9996 6.62761 26.9996C8.99364 26.9996 11.12 25.9251 12.5909 24.216V24.2152Z" fill="#00D6A2"/>
<path d="M24.0255 23.7194C24.0255 21.6023 19.9853 19.4341 14.6532 18.9766C14.5591 20.9885 13.7945 22.8155 12.5898 24.2152C14.0607 25.9243 16.1871 26.9988 18.5531 26.9988C19.6333 26.9988 20.6642 26.774 21.6049 26.3683C23.1213 25.6373 24.0255 24.7174 24.0255 23.7194Z" fill="#02BDA5"/>
<path d="M10.5273 18.9773C10.6214 20.9893 11.3861 22.8155 12.5907 24.216C13.7953 22.8155 14.56 20.9893 14.654 18.9773C13.985 18.9199 13.2962 18.8896 12.5922 18.8896C11.8882 18.8896 11.1972 18.9207 10.5273 18.9781V18.9773Z" fill="#00AB8E"/>
<path d="M-2.5549 18.1062C-1.08401 16.3971 1.04231 15.3226 3.40834 15.3226C4.1252 15.3226 4.82007 15.4215 5.48155 15.6072C5.45652 10.9656 1.86841 7.21191 -2.55414 7.21191C-6.9767 7.21191 -10.5648 10.9664 -10.5898 15.6072C-9.92836 15.4223 -9.23425 15.3234 -8.51739 15.3234C-6.15136 15.3234 -4.02504 16.3979 -2.55414 18.107L-2.5549 18.1062Z" fill="#5FE1B7"/>
<path d="M11.4403 23.7685C11.4403 19.8579 8.91037 16.5689 5.47701 15.6084C5.47701 15.6251 5.47701 15.6411 5.47701 15.6578C5.47701 19.5685 2.94637 22.8582 -0.486991 23.8187C-0.486991 23.9439 -0.490784 24.0682 -0.496094 24.1918C4.83601 24.6493 8.87623 26.8175 8.87623 28.9347C8.87623 29.9327 7.972 30.8525 6.45559 31.5835C9.38069 30.3209 11.4403 27.2982 11.4403 23.7693V23.7685Z" fill="#02BDA5"/>
<path d="M-2.55859 18.1056C-1.26976 19.6034 -0.485378 21.5891 -0.485378 23.7668C-0.485378 23.7835 -0.485378 23.7995 -0.485378 23.8162C2.94874 22.8557 5.47862 19.5668 5.47862 15.6553C5.47862 15.6385 5.47862 15.6226 5.47862 15.6059C4.81714 15.4209 4.12227 15.3213 3.40541 15.3213C1.03938 15.3213 -1.08694 16.3958 -2.55784 18.1048L-2.55859 18.1056Z" fill="#00AB8E"/>
<path d="M8.87709 28.9333C8.87709 26.8161 4.83686 24.648 -0.495241 24.1904C-0.589305 26.2024 -1.35396 28.0294 -2.55859 29.4291C-1.0877 31.1381 1.03862 32.2127 3.40465 32.2127C4.48488 32.2127 5.51579 31.9879 6.45644 31.5821C7.97285 30.8512 8.87709 29.9313 8.87709 28.9333Z" fill="#02BDA5"/>
<g opacity="0.8">
<path d="M22.3299 3.10226C23.8008 1.39324 25.9271 0.318715 28.2931 0.318715C29.01 0.318715 29.7048 0.417559 30.3663 0.603289C30.3413 -4.03835 26.7532 -7.79199 22.3306 -7.79199C17.9081 -7.79199 14.32 -4.03755 14.2949 0.603289C14.9564 0.418356 15.6505 0.319513 16.3674 0.319513C18.7334 0.319513 20.8597 1.39403 22.3306 3.10306L22.3299 3.10226Z" fill="#5FE1B7"/>
<path d="M10.8971 13.928C10.8971 11.8117 14.9358 9.64349 20.2664 9.18514C20.2604 9.06159 20.2573 8.93724 20.2573 8.81209C16.824 7.85156 14.2941 4.56184 14.2941 0.65196C14.2941 0.635221 14.2941 0.619279 14.2941 0.602539C10.8607 1.56227 8.33008 4.85199 8.33008 8.76267C8.33008 12.2812 10.3783 15.2967 13.2905 16.5657C11.7907 15.8371 10.8971 14.9228 10.8971 13.9272V13.928Z" fill="#00D6A2"/>
<path d="M20.2574 8.81248C20.2574 8.79574 20.2574 8.7798 20.2574 8.76306C20.2574 6.58533 21.0425 4.5997 22.3306 3.10191C20.8597 1.39288 18.7334 0.318359 16.3674 0.318359C15.6505 0.318359 14.9564 0.417202 14.2949 0.602134C14.2949 0.618874 14.2949 0.634817 14.2949 0.651557C14.2949 4.56223 16.8248 7.85115 20.2582 8.81168L20.2574 8.81248Z" fill="#00CF91"/>
<path d="M36.3309 8.76267C36.3309 4.85199 33.801 1.56307 30.3676 0.602539C30.3676 0.619279 30.3676 0.635221 30.3676 0.65196C30.3676 4.56264 27.837 7.85236 24.4036 8.81289C24.4036 8.93804 24.3998 9.06239 24.3945 9.18594C29.7266 9.64349 33.7669 11.8117 33.7669 13.9288C33.7669 14.9268 32.8626 15.8467 31.3462 16.5776C34.2713 15.315 36.3309 12.2923 36.3309 8.76347V8.76267Z" fill="#02BDA5"/>
<path d="M22.3301 3.10173C23.6189 4.59952 24.4033 6.58515 24.4033 8.76288C24.4033 8.77962 24.4033 8.79556 24.4033 8.8123C27.8374 7.85177 30.3673 4.56285 30.3673 0.651377C30.3673 0.634637 30.3673 0.618694 30.3673 0.601954C29.7058 0.417022 29.0109 0.317383 28.2941 0.317383C25.9281 0.317383 23.8017 1.3919 22.3308 3.10093L22.3301 3.10173Z" fill="#00AB8E"/>
<path d="M20.2566 8.81214C20.2566 8.93729 20.2604 9.06164 20.2657 9.18519C20.9356 9.1278 21.6259 9.09671 22.3306 9.09671C23.0353 9.09671 23.7234 9.127 24.3924 9.1844C24.3985 9.06084 24.4015 8.93649 24.4015 8.81134C23.74 8.99628 23.0459 9.09512 22.3291 9.09512C21.6122 9.09512 20.9173 8.99628 20.2559 8.81055L20.2566 8.81214Z" fill="#00AC8E"/>
<path d="M22.3291 3.10059C21.0402 4.59838 20.2559 6.58401 20.2559 8.76174C20.2559 8.77848 20.2559 8.79442 20.2559 8.81116C20.9173 8.99609 21.6122 9.09573 22.3291 9.09573C23.0459 9.09573 23.74 8.99689 24.4015 8.81196C24.4015 8.79522 24.4015 8.77928 24.4015 8.76254C24.4015 6.5848 23.6164 4.59917 22.3283 3.10138L22.3291 3.10059Z" fill="#00B38E"/>
<path d="M22.3272 14.4233C21.1225 13.0227 20.3579 11.1965 20.2638 9.18457C14.9332 9.64212 10.8945 11.8103 10.8945 13.9274C10.8945 14.9222 11.7874 15.8373 13.2879 16.5659C14.2353 16.9788 15.2746 17.2076 16.3639 17.2076C18.73 17.2076 20.8563 16.1331 22.3272 14.424V14.4233Z" fill="#00D6A2"/>
<path d="M33.7658 13.9274C33.7658 11.8103 29.7255 9.64212 24.3934 9.18457C24.2994 11.1965 23.5347 13.0235 22.3301 14.4232C23.801 16.1323 25.9273 17.2068 28.2933 17.2068C29.3735 17.2068 30.4045 16.982 31.3451 16.5763C32.8615 15.8453 33.7658 14.9254 33.7658 13.9274Z" fill="#02BDA5"/>
<path d="M20.2656 9.18534C20.3597 11.1973 21.1243 13.0235 22.329 14.424C23.5336 13.0235 24.2983 11.1973 24.3923 9.18534C23.7233 9.12795 23.0345 9.09766 22.3305 9.09766C21.6265 9.09766 20.9355 9.12875 20.2656 9.18614V9.18534Z" fill="#00AB8E"/>
</g>
</g>
<path opacity="0.8" fill-rule="evenodd" clip-rule="evenodd" d="M17.6186 4.61953C18.3223 3.92474 19.1897 3.52243 20.0806 3.56456C20.9729 3.60677 21.7306 4.08739 22.2526 4.84225C21.5489 5.53704 20.6815 5.93936 19.7907 5.89722C18.8984 5.85502 18.1406 5.3744 17.6186 4.61953Z" fill="#DFF3EF"/>
<path opacity="0.8" fill-rule="evenodd" clip-rule="evenodd" d="M18.8464 4.80418C18.1426 5.49968 17.2747 5.90246 16.3833 5.8603C15.4915 5.81811 14.734 5.33796 14.2121 4.58375C14.916 3.88826 15.7839 3.48548 16.6752 3.52764C17.567 3.56982 18.3245 4.04998 18.8464 4.80418Z" fill="#DFF3EF"/>
<path opacity="0.8" fill-rule="evenodd" clip-rule="evenodd" d="M18.3498 4.07829C19.0319 4.79551 19.4268 5.67976 19.3855 6.58786C19.3441 7.49643 18.8733 8.26814 18.1337 8.80006C17.4517 8.08295 17.0568 7.19884 17.098 6.29083C17.1393 5.38215 17.6101 4.6103 18.3498 4.07829Z" fill="#DFF3EF"/>
<path opacity="0.8" fill-rule="evenodd" clip-rule="evenodd" d="M18.1321 5.34757C17.4501 4.63036 17.0551 3.74613 17.0965 2.83806C17.1379 1.92928 17.6089 1.15741 18.3488 0.62549C19.0308 1.34268 19.4257 2.22689 19.3844 3.13496C19.343 4.04375 18.872 4.81563 18.1321 5.34757Z" fill="#DFF3EF"/>
<path opacity="0.8" fill-rule="evenodd" clip-rule="evenodd" d="M17.8593 4.47697C18.8392 4.49261 19.732 4.83324 20.3328 5.50514C20.9339 6.17732 21.1364 7.06216 20.9826 7.97113C20.0027 7.95549 19.1099 7.61487 18.5091 6.94296C17.908 6.27078 17.7055 5.38594 17.8593 4.47697Z" fill="#DFF3EF"/>
<path opacity="0.8" fill-rule="evenodd" clip-rule="evenodd" d="M18.5881 5.50536C17.6079 5.4899 16.7148 5.14926 16.1138 4.47718C15.5125 3.80475 15.3101 2.91952 15.4642 2.0102C16.4444 2.02566 17.3375 2.36629 17.9385 3.03838C18.5398 3.7108 18.7423 4.59604 18.5881 5.50536Z" fill="#DFF3EF"/>
<path opacity="0.8" fill-rule="evenodd" clip-rule="evenodd" d="M18.7302 4.6223C18.7147 5.62068 18.3804 6.5303 17.7212 7.14248C17.0613 7.75539 16.1925 7.9617 15.3 7.80447C15.3155 6.80608 15.6497 5.89647 16.3089 5.28428C16.9689 4.67138 17.8377 4.46506 18.7302 4.6223Z" fill="#DFF3EF"/>
<path opacity="0.8" fill-rule="evenodd" clip-rule="evenodd" d="M17.7191 5.36306C17.7345 4.36467 18.0688 3.45506 18.728 2.84287C19.3879 2.22997 20.2568 2.02365 21.1492 2.18088C21.1337 3.17927 20.7995 4.08888 20.1403 4.70107C19.4803 5.31397 18.6115 5.52029 17.7191 5.36306Z" fill="#DFF3EF"/>
<path opacity="0.8" fill-rule="evenodd" clip-rule="evenodd" d="M6.76684 17.1245C7.47071 16.429 8.33862 16.0263 9.22995 16.0684C10.1218 16.1106 10.8792 16.5908 11.4012 17.345C10.6973 18.0405 9.82941 18.4432 8.93807 18.4011C8.04624 18.3589 7.28879 17.8787 6.76684 17.1245Z" fill="#DFF3EF"/>
<path opacity="0.8" fill-rule="evenodd" clip-rule="evenodd" d="M7.99683 17.3091C7.29296 18.0046 6.42505 18.4073 5.53372 18.3652C4.64188 18.323 3.88443 17.8428 3.36248 17.0886C4.06635 16.3931 4.93427 15.9904 5.8256 16.0325C6.71743 16.0747 7.47489 16.5549 7.99683 17.3091Z" fill="#DFF3EF"/>
<path opacity="0.8" fill-rule="evenodd" clip-rule="evenodd" d="M7.50022 16.5812C8.18227 17.2984 8.57724 18.1827 8.53588 19.0908C8.49451 19.9994 8.02369 20.7711 7.2841 21.303C6.60212 20.5859 6.20716 19.7018 6.24841 18.7938C6.28969 17.8851 6.76054 17.1132 7.50022 16.5812Z" fill="#DFF3EF"/>
<path opacity="0.8" fill-rule="evenodd" clip-rule="evenodd" d="M7.28253 17.8515C6.60048 17.1343 6.20552 16.25 6.24688 15.3419C6.28826 14.4332 6.75927 13.6613 7.49913 13.1294C8.18117 13.8466 8.57612 14.7308 8.53478 15.6389C8.4934 16.5477 8.02239 17.3195 7.28253 17.8515Z" fill="#DFF3EF"/>
<path opacity="0.8" fill-rule="evenodd" clip-rule="evenodd" d="M7.02147 16.981C8.00131 16.9966 8.89404 17.3373 9.49483 18.0091C10.0959 18.6813 10.2984 19.5661 10.1446 20.4751C9.16478 20.4594 8.27205 20.1188 7.67127 19.4469C7.0702 18.7748 6.86766 17.8899 7.02147 16.981Z" fill="#DFF3EF"/>
<path opacity="0.8" fill-rule="evenodd" clip-rule="evenodd" d="M7.74048 18.0093C6.76026 17.9938 5.86715 17.6532 5.26616 16.9811C4.66488 16.3087 4.46241 15.4234 4.61654 14.5141C5.59676 14.5296 6.48987 14.8702 7.09086 15.5423C7.69214 16.2147 7.89461 17.0999 7.74048 18.0093Z" fill="#DFF3EF"/>
<path opacity="0.8" fill-rule="evenodd" clip-rule="evenodd" d="M7.89228 17.1272C7.87679 18.1256 7.54254 19.0352 6.88336 19.6474C6.22341 20.2603 5.35456 20.4666 4.46212 20.3094C4.47761 19.311 4.81186 18.4014 5.47104 17.7892C6.13099 17.1763 6.99983 16.9699 7.89228 17.1272Z" fill="#DFF3EF"/>
<path opacity="0.8" fill-rule="evenodd" clip-rule="evenodd" d="M6.86988 17.8669C6.88513 16.868 7.21938 15.958 7.87881 15.3455C8.53853 14.7329 9.40699 14.5265 10.2991 14.6834C10.2838 15.6822 9.94959 16.5923 9.29016 17.2047C8.63044 17.8174 7.76198 18.0238 6.86988 17.8669Z" fill="#DFF3EF"/>
<path opacity="0.8" fill-rule="evenodd" clip-rule="evenodd" d="M24.6928 19.727C25.3965 19.0322 26.264 18.6298 27.1548 18.672C28.0471 18.7142 28.8049 19.1948 29.3268 19.9497C28.6232 20.6445 27.7557 21.0468 26.8649 21.0046C25.9726 20.9624 25.2148 20.4818 24.6928 19.727Z" fill="#DFF3EF"/>
<path opacity="0.8" fill-rule="evenodd" clip-rule="evenodd" d="M25.9207 19.9128C25.2168 20.6083 24.3489 21.0111 23.4575 20.9689C22.5657 20.9268 21.8083 20.4466 21.2863 19.6924C21.9902 18.9969 22.8581 18.5941 23.7494 18.6363C24.6413 18.6785 25.3987 19.1586 25.9207 19.9128Z" fill="#DFF3EF"/>
<path opacity="0.8" fill-rule="evenodd" clip-rule="evenodd" d="M25.424 19.1847C26.1061 19.902 26.5011 20.7862 26.4597 21.6943C26.4183 22.6029 25.9475 23.3746 25.2079 23.9065C24.5259 23.1894 24.131 22.3053 24.1722 21.3973C24.2135 20.4886 24.6844 19.7167 25.424 19.1847Z" fill="#DFF3EF"/>
<path opacity="0.8" fill-rule="evenodd" clip-rule="evenodd" d="M25.2076 20.4371C24.5253 19.7198 24.1301 18.8354 24.1715 17.9271C24.2129 17.018 24.6842 16.246 25.4244 15.7141C26.1068 16.4313 26.5019 17.3158 26.4605 18.2241C26.4191 19.1331 25.9478 19.9052 25.2076 20.4371Z" fill="#DFF3EF"/>
<path opacity="0.8" fill-rule="evenodd" clip-rule="evenodd" d="M24.9179 19.5856C25.8978 19.6013 26.7906 19.9419 27.3914 20.6138C27.9925 21.286 28.195 22.1708 28.0412 23.0798C27.0613 23.0641 26.1685 22.7235 25.5677 22.0516C24.9666 21.3794 24.7641 20.4946 24.9179 19.5856Z" fill="#DFF3EF"/>
<path opacity="0.8" fill-rule="evenodd" clip-rule="evenodd" d="M25.6624 20.6128C24.6821 20.5973 23.789 20.2567 23.188 19.5846C22.5868 18.9122 22.3843 18.0269 22.5384 17.1176C23.5186 17.1331 24.4117 17.4737 25.0127 18.1458C25.614 18.8182 25.8165 19.7035 25.6624 20.6128Z" fill="#DFF3EF"/>
<path opacity="0.8" fill-rule="evenodd" clip-rule="evenodd" d="M25.8063 19.7307C25.7909 20.7291 25.4566 21.6387 24.7974 22.2509C24.1375 22.8638 23.2686 23.0701 22.3762 22.9129C22.3917 21.9145 22.7259 21.0049 23.3851 20.3927C24.045 19.7798 24.9139 19.5735 25.8063 19.7307Z" fill="#DFF3EF"/>
<path opacity="0.8" fill-rule="evenodd" clip-rule="evenodd" d="M24.7952 20.4695C24.8107 19.4711 25.145 18.5615 25.8042 17.9493C26.4641 17.3364 27.3329 17.1301 28.2254 17.2873C28.2099 18.2857 27.8756 19.1953 27.2165 19.8075C26.5565 20.4204 25.6877 20.6267 24.7952 20.4695Z" fill="#DFF3EF"/>
</g>
<defs>
<clipPath id="clip0_984_54414">
<rect width="32" height="39" fill="white" transform="translate(0.5)"/>
</clipPath>
</defs>
</svg>
