<svg width="24" height="121" viewBox="0 0 24 121" fill="none" xmlns="http://www.w3.org/2000/svg">
<path d="M-27.6464 40.1068C-22.2735 33.9026 -14.5066 30.0019 -5.86408 30.0019C-3.24555 30.0019 -0.707373 30.3607 1.70888 31.0349C1.61744 14.1847 -11.4891 0.558105 -27.6436 0.558105C-43.7981 0.558105 -56.9047 14.1876 -56.9961 31.0349C-54.5798 30.3636 -52.0444 30.0048 -49.4259 30.0048C-40.7834 30.0048 -33.0164 33.9055 -27.6436 40.1097L-27.6464 40.1068Z" fill="#5FE1B7"/>
<path d="M23.4951 60.6564C23.4951 46.4597 14.2541 34.5202 1.71284 31.0332C1.71284 31.094 1.71284 31.1518 1.71284 31.2126C1.71284 45.4093 -7.53098 57.3517 -20.0722 60.8387C-20.0722 61.293 -20.0861 61.7444 -20.1055 62.193C-0.628589 63.854 14.1294 71.7249 14.1294 79.4107C14.1294 83.0336 10.8264 86.373 5.28735 89.0266C15.9721 84.4429 23.4951 73.4698 23.4951 60.6593V60.6564Z" fill="#02BDA5"/>
<path d="M-27.6484 40.1039C-22.9406 45.5412 -20.0755 52.7495 -20.0755 60.6552C-20.0755 60.716 -20.0755 60.7739 -20.0755 60.8346C-7.53146 57.3477 1.7096 45.4081 1.7096 31.2086C1.7096 31.1478 1.7096 31.0899 1.7096 31.0292C-0.706658 30.3578 -3.24483 29.9961 -5.86336 29.9961C-14.5059 29.9961 -22.2728 33.8968 -27.6457 40.101L-27.6484 40.1039Z" fill="#00AB8E"/>
<path d="M14.1234 79.4074C14.1234 71.7217 -0.634619 63.8507 -20.1115 62.1897C-20.4551 69.4935 -23.2482 76.1259 -27.6484 81.2073C-22.2756 87.4115 -14.5087 91.3122 -5.86614 91.3122C-1.92033 91.3122 1.84537 90.4962 5.28133 89.0233C10.8204 86.3697 14.1234 83.0304 14.1234 79.4074Z" fill="#02BDA5"/>
</svg>
