<svg width="113" height="155" viewBox="0 0 113 155" fill="none" xmlns="http://www.w3.org/2000/svg">
<g clip-path="url(#clip0_984_58758)">
<mask id="mask0_984_58758" style="mask-type:alpha" maskUnits="userSpaceOnUse" x="46" y="67" width="22" height="88">
<path d="M54.11 67.7944H61.5338L67.6236 154.696H46.9648L54.11 67.7944Z" fill="#D7953B"/>
</mask>
<g mask="url(#mask0_984_58758)">
<path opacity="0.8" d="M54.1022 67.7944H61.5259L67.6158 154.696H46.957L54.1022 67.7944Z" fill="#D7953B"/>
<rect opacity="0.7" x="53.7773" y="95.6414" width="15.512" height="60.5077" fill="#D7953B"/>
<rect x="60.5703" y="94.1907" width="17.2023" height="60.5077" fill="#C48734"/>
</g>
<mask id="mask1_984_58758" style="mask-type:alpha" maskUnits="userSpaceOnUse" x="1" y="15" width="110" height="95">
<path d="M55.7757 56.7264C61.5226 50.3302 69.8302 46.3088 79.0744 46.3088C81.8752 46.3088 84.59 46.6787 87.1745 47.3738C87.0767 30.0023 73.0578 15.9541 55.7787 15.9541C38.4995 15.9541 24.4806 30.0053 24.3828 47.3738C26.9673 46.6817 29.6792 46.3118 32.48 46.3118C41.7242 46.3118 50.0318 50.3332 55.7787 56.7293L55.7757 56.7264Z" fill="#5FE1B7"/>
<path d="M11.1077 97.2474C11.1077 89.3269 26.8872 81.2124 47.714 79.497C47.6903 79.0346 47.6784 78.5692 47.6784 78.1008C34.2641 74.506 24.3797 62.1941 24.3797 47.5612C24.3797 47.4985 24.3797 47.4389 24.3797 47.3762C10.9655 50.9681 1.07812 63.28 1.07812 77.9159C1.07812 91.084 9.08046 102.37 20.4586 107.119C14.5991 104.392 11.1077 100.971 11.1077 97.2444V97.2474Z" fill="#00D6A2"/>
<path d="M47.6746 78.0956C47.6746 78.0329 47.6746 77.9732 47.6746 77.9106C47.6746 69.7603 50.7422 62.329 55.7747 56.7235C50.0279 50.3273 41.7203 46.3059 32.4761 46.3059C29.6753 46.3059 26.9634 46.6758 24.3789 47.3679C24.3789 47.4306 24.3789 47.4903 24.3789 47.5529C24.3789 62.1888 34.2633 74.4977 47.6776 78.0926L47.6746 78.0956Z" fill="#00CF91"/>
<path d="M110.472 77.9159C110.472 63.28 100.587 50.9711 87.1731 47.3762C87.1731 47.4389 87.1731 47.4985 87.1731 47.5612C87.1731 62.1971 77.2858 74.509 63.8715 78.1038C63.8715 78.5722 63.8567 79.0376 63.8359 79.5C84.6687 81.2124 100.454 89.3269 100.454 97.2504C100.454 100.985 96.9212 104.428 90.9965 107.164C102.425 102.438 110.472 91.1258 110.472 77.9189V77.9159Z" fill="#02BDA5"/>
<path d="M55.7734 56.7238C60.809 62.3293 63.8736 69.7606 63.8736 77.9109C63.8736 77.9735 63.8736 78.0332 63.8736 78.0958C77.2908 74.501 87.1752 62.1921 87.1752 47.5532C87.1752 47.4906 87.1752 47.4309 87.1752 47.3682C84.5908 46.6761 81.8759 46.3032 79.0751 46.3032C69.8309 46.3032 61.5233 50.3247 55.7764 56.7208L55.7734 56.7238Z" fill="#00AB8E"/>
<path d="M47.6748 78.0961C47.6748 78.5644 47.6897 79.0298 47.7104 79.4922C50.3275 79.2774 53.0245 79.1611 55.7779 79.1611C58.5313 79.1611 61.2195 79.2744 63.8336 79.4892C63.8573 79.0268 63.8692 78.5614 63.8692 78.0931C61.2847 78.7852 58.5728 79.1551 55.772 79.1551C52.9712 79.1551 50.2563 78.7852 47.6719 78.0901L47.6748 78.0961Z" fill="#00AC8E"/>
<path d="M55.772 56.7239C50.7365 62.3294 47.6719 69.7607 47.6719 77.911C47.6719 77.9737 47.6719 78.0333 47.6719 78.096C50.2563 78.7881 52.9712 79.161 55.772 79.161C58.5728 79.161 61.2847 78.7911 63.8692 78.099C63.8692 78.0363 63.8692 77.9766 63.8692 77.914C63.8692 69.7637 60.8016 62.3324 55.7691 56.7269L55.772 56.7239Z" fill="#00B38E"/>
<path d="M55.7773 99.0987C51.0707 93.8571 48.0832 87.0224 47.7156 79.4927C26.8888 81.2051 11.1094 89.3195 11.1094 97.2431C11.1094 100.966 14.5978 104.391 20.4603 107.118C24.1621 108.663 28.2225 109.519 32.4786 109.519C41.7228 109.519 50.0304 105.498 55.7773 99.1017V99.0987Z" fill="#00D6A2"/>
<path d="M100.453 97.2431C100.453 89.3195 84.6678 81.2051 63.8351 79.4927C63.4675 87.0224 60.48 93.8601 55.7734 99.0987C61.5203 105.495 69.8279 109.516 79.0721 109.516C83.2926 109.516 87.3204 108.675 90.9956 107.156C96.9203 104.421 100.453 100.978 100.453 97.2431Z" fill="#02BDA5"/>
<path d="M47.7148 79.4922C48.0824 87.022 51.0699 93.8566 55.7765 99.0982C60.483 93.8566 63.4706 87.022 63.8381 79.4922C61.224 79.2774 58.5328 79.1641 55.7824 79.1641C53.032 79.1641 50.3319 79.2804 47.7148 79.4952V79.4922Z" fill="#00AB8E"/>
</mask>
<g mask="url(#mask1_984_58758)">
<path d="M79.0765 76.2332C84.8233 69.8371 93.131 65.8156 102.375 65.8156C105.176 65.8156 107.891 66.1856 110.475 66.8807C110.377 49.5091 96.3586 35.4609 79.0794 35.4609C61.8003 35.4609 47.7814 49.5121 47.6836 66.8807C50.2681 66.1885 52.98 65.8186 55.7808 65.8186C65.025 65.8186 73.3326 69.8401 79.0794 76.2362L79.0765 76.2332Z" fill="#5FE1B7"/>
<path d="M34.4046 116.754C34.4046 108.834 50.184 100.719 71.0109 99.0038C70.9871 98.5414 70.9753 98.076 70.9753 97.6077C57.561 94.0128 47.6766 81.7009 47.6766 67.068C47.6766 67.0054 47.6766 66.9457 47.6766 66.8831C34.2623 70.4749 24.375 82.7868 24.375 97.4227C24.375 110.591 32.3773 121.876 43.7555 126.626C37.896 123.899 34.4046 120.477 34.4046 116.751V116.754Z" fill="#00D6A2"/>
<path d="M70.9754 97.61C70.9754 97.5473 70.9754 97.4877 70.9754 97.425C70.9754 89.2747 74.0429 81.8434 79.0755 76.2379C73.3287 69.8418 65.0211 65.8203 55.7769 65.8203C52.9761 65.8203 50.2641 66.1902 47.6797 66.8824C47.6797 66.945 47.6797 67.0047 47.6797 67.0673C47.6797 81.7032 57.5641 94.0121 70.9783 97.607L70.9754 97.61Z" fill="#00CF91"/>
<path d="M133.769 97.4227C133.769 82.7868 123.884 70.4779 110.47 66.8831C110.47 66.9457 110.47 67.0054 110.47 67.068C110.47 81.7039 100.583 94.0158 87.1684 97.6107C87.1684 98.079 87.1536 98.5444 87.1328 99.0068C107.966 100.719 123.751 108.834 123.751 116.757C123.751 120.492 120.218 123.935 114.293 126.671C125.722 121.945 133.769 110.633 133.769 97.4257V97.4227Z" fill="#02BDA5"/>
<path d="M79.0703 76.2299C84.1059 81.8354 87.1705 89.2667 87.1705 97.417C87.1705 97.4796 87.1705 97.5393 87.1705 97.602C100.588 94.0071 110.472 81.6982 110.472 67.0593C110.472 66.9967 110.472 66.937 110.472 66.8743C107.888 66.1822 105.173 65.8093 102.372 65.8093C93.1278 65.8093 84.8201 69.8308 79.0733 76.2269L79.0703 76.2299Z" fill="#00AB8E"/>
<path d="M70.9717 97.6031C70.9717 98.0715 70.9865 98.5369 71.0073 98.9993C73.6243 98.7845 76.3214 98.6682 79.0748 98.6682C81.8282 98.6682 84.5164 98.7815 87.1305 98.9963C87.1542 98.5339 87.1661 98.0685 87.1661 97.6002C84.5816 98.2923 81.8697 98.6622 79.0689 98.6622C76.2681 98.6622 73.5532 98.2923 70.9688 97.5972L70.9717 97.6031Z" fill="#00AC8E"/>
<path d="M79.0689 76.231C74.0333 81.8365 70.9688 89.2678 70.9688 97.4181C70.9688 97.4807 70.9688 97.5404 70.9688 97.6031C73.5532 98.2952 76.2681 98.6681 79.0689 98.6681C81.8697 98.6681 84.5816 98.2981 87.1661 97.606C87.1661 97.5434 87.1661 97.4837 87.1661 97.4211C87.1661 89.2708 84.0985 81.8395 79.0659 76.2339L79.0689 76.231Z" fill="#00B38E"/>
<path d="M79.0741 118.606C74.3676 113.364 71.38 106.529 71.0125 98.9995C50.1857 100.712 34.4062 108.826 34.4062 116.75C34.4062 120.473 37.8947 123.898 43.7571 126.625C47.459 128.17 51.5194 129.026 55.7755 129.026C65.0197 129.026 73.3273 125.005 79.0741 118.608V118.606Z" fill="#00D6A2"/>
<path d="M123.75 116.75C123.75 108.826 107.965 100.712 87.1319 98.9995C86.7644 106.529 83.7769 113.367 79.0703 118.606C84.8172 125.002 93.1248 129.023 102.369 129.023C106.589 129.023 110.617 128.182 114.292 126.663C120.217 123.928 123.75 120.485 123.75 116.75Z" fill="#02BDA5"/>
<path d="M71.0117 98.9993C71.3792 106.529 74.3668 113.364 79.0733 118.605C83.7799 113.364 86.7674 106.529 87.1349 98.9993C84.5208 98.7845 81.8297 98.6711 79.0793 98.6711C76.3288 98.6711 73.6288 98.7875 71.0117 99.0023V98.9993Z" fill="#00AB8E"/>
<path d="M40.0687 56.7273C45.8155 50.3312 54.1231 46.3098 63.3673 46.3098C66.1681 46.3098 68.883 46.6797 71.4675 47.3748C71.3697 30.0033 57.3508 15.9551 40.0716 15.9551C22.7925 15.9551 8.77359 30.0062 8.67578 47.3748C11.2602 46.6827 13.9721 46.3128 16.773 46.3128C26.0171 46.3128 34.3248 50.3342 40.0716 56.7303L40.0687 56.7273Z" fill="#5FE1B7"/>
<path d="M-4.59931 97.2484C-4.59931 89.3278 11.1801 81.2134 32.0069 79.498C31.9832 79.0356 31.9714 78.5702 31.9714 78.1018C18.5571 74.507 8.67272 62.1951 8.67272 47.5622C8.67272 47.4995 8.67272 47.4398 8.67272 47.3772C-4.74157 50.969 -14.6289 63.281 -14.6289 77.9169C-14.6289 91.085 -6.62657 102.371 4.75157 107.12C-1.10792 104.393 -4.59931 100.972 -4.59931 97.2454V97.2484Z" fill="#00D6A2"/>
<path d="M31.9676 78.1041C31.9676 78.0415 31.9676 77.9818 31.9676 77.9191C31.9676 69.7689 35.0351 62.3376 40.0677 56.732C34.3209 50.3359 26.0132 46.3145 16.7691 46.3145C13.9682 46.3145 11.2563 46.6844 8.67188 47.3765C8.67188 47.4391 8.67188 47.4988 8.67188 47.5615C8.67188 62.1973 18.5562 74.5063 31.9705 78.1011L31.9676 78.1041Z" fill="#00CF91"/>
<path d="M94.7648 77.9169C94.7648 63.281 84.8804 50.972 71.4661 47.3772C71.4661 47.4398 71.4661 47.4995 71.4661 47.5622C71.4661 62.198 61.5788 74.51 48.1645 78.1048C48.1645 78.5732 48.1497 79.0386 48.1289 79.501C68.9617 81.2134 84.747 89.3278 84.747 97.2514C84.747 100.986 81.2141 104.429 75.2894 107.165C86.718 102.439 94.7648 91.1267 94.7648 77.9198V77.9169Z" fill="#02BDA5"/>
<path d="M40.0664 56.7286C45.102 62.3342 48.1666 69.7655 48.1666 77.9158C48.1666 77.9784 48.1666 78.0381 48.1666 78.1007C61.5838 74.5059 71.4682 62.197 71.4682 47.5581C71.4682 47.4954 71.4682 47.4358 71.4682 47.3731C68.8837 46.681 66.1689 46.3081 63.368 46.3081C54.1239 46.3081 45.8162 50.3295 40.0694 56.7257L40.0664 56.7286Z" fill="#00AB8E"/>
<path d="M31.9678 78.0973C31.9678 78.5657 31.9826 79.031 32.0034 79.4934C34.6204 79.2787 37.3175 79.1623 40.0709 79.1623C42.8243 79.1623 45.5125 79.2757 48.1266 79.4905C48.1503 79.0281 48.1622 78.5627 48.1622 78.0943C45.5777 78.7864 42.8658 79.1563 40.065 79.1563C37.2642 79.1563 34.5493 78.7864 31.9648 78.0913L31.9678 78.0973Z" fill="#00AC8E"/>
<path d="M40.0728 56.7324C35.0373 62.338 31.9727 69.7693 31.9727 77.9196C31.9727 77.9822 31.9727 78.0419 31.9727 78.1045C34.5571 78.7966 37.272 79.1695 40.0728 79.1695C42.8736 79.1695 45.5855 78.7996 48.17 78.1075C48.17 78.0448 48.17 77.9852 48.17 77.9225C48.17 69.7723 45.1024 62.341 40.0698 56.7354L40.0728 56.7324Z" fill="#00B38E"/>
<path d="M40.0702 99.0996C35.3637 93.8581 32.3761 87.0234 32.0086 79.4937C11.1818 81.206 -4.59766 89.3205 -4.59766 97.2441C-4.59766 100.967 -1.10923 104.392 4.75323 107.119C8.45505 108.664 12.5155 109.52 16.7716 109.52C26.0157 109.52 34.3234 105.499 40.0702 99.1026V99.0996Z" fill="#00D6A2"/>
<path d="M84.7461 97.2441C84.7461 89.3205 68.9608 81.206 48.128 79.4937C47.7605 87.0234 44.773 93.861 40.0664 99.0996C45.8133 105.496 54.1209 109.517 63.3651 109.517C67.5856 109.517 71.6134 108.676 75.2886 107.157C81.2132 104.422 84.7461 100.979 84.7461 97.2441Z" fill="#02BDA5"/>
<path d="M32.0117 79.4934C32.3792 87.0232 35.3668 93.8578 40.0733 99.0994C44.7799 93.8578 47.7674 87.0232 48.1349 79.4934C45.5209 79.2786 42.8297 79.1653 40.0793 79.1653C37.3288 79.1653 34.6288 79.2816 32.0117 79.4964V79.4934Z" fill="#00AB8E"/>
<path d="M-19.1227 76.2295C-13.3759 69.8334 -5.06826 65.812 4.17592 65.812C6.97674 65.812 9.6916 66.1819 12.2761 66.877C12.1783 49.5055 -1.84065 35.4573 -19.1198 35.4573C-36.3989 35.4573 -50.4178 49.5084 -50.5156 66.877C-47.9312 66.1849 -45.2193 65.815 -42.4184 65.815C-33.1743 65.815 -24.8666 69.8364 -19.1198 76.2325L-19.1227 76.2295Z" fill="#5FE1B7"/>
<path d="M35.5733 97.4191C35.5733 82.7832 25.689 70.4742 12.2747 66.8794C12.2747 66.942 12.2747 67.0017 12.2747 67.0644C12.2747 81.7002 2.38735 94.0122 -11.0269 97.607C-11.0269 98.0754 -11.0418 98.5408 -11.0625 99.0032C9.77025 100.716 25.5556 108.83 25.5556 116.754C25.5556 120.489 22.0227 123.931 16.098 126.667C27.5266 121.941 35.5733 110.629 35.5733 97.422V97.4191Z" fill="#02BDA5"/>
<path d="M-19.1289 76.2262C-14.0934 81.8317 -11.0288 89.2631 -11.0288 97.4133C-11.0288 97.476 -11.0288 97.5356 -11.0288 97.5983C2.3885 94.0035 12.2729 81.6945 12.2729 67.0557C12.2729 66.993 12.2729 66.9333 12.2729 66.8707C9.68841 66.1786 6.97355 65.8057 4.17273 65.8057C-5.07146 65.8057 -13.3791 69.8271 -19.1259 76.2232L-19.1289 76.2262Z" fill="#00AB8E"/>
<path d="M25.5508 116.75C25.5508 108.827 9.76546 100.712 -11.0673 98.9998C-11.4348 106.53 -14.4223 113.367 -19.1289 118.606C-13.382 125.002 -5.07443 129.023 4.16975 129.023C8.39025 129.023 12.4181 128.182 16.0932 126.664C22.0179 123.928 25.5508 120.485 25.5508 116.75Z" fill="#02BDA5"/>
<g opacity="0.8">
<path d="M78.1077 20.0833C83.8546 13.6872 92.1622 9.66573 101.406 9.66573C104.207 9.66573 106.922 10.0357 109.507 10.7308C109.409 -6.64078 95.3898 -20.689 78.1107 -20.689C60.8316 -20.689 46.8127 -6.6378 46.7148 10.7308C49.2993 10.0386 52.0112 9.66872 54.812 9.66872C64.0562 9.66872 72.3638 13.6902 78.1107 20.0863L78.1077 20.0833Z" fill="#5FE1B7"/>
<path d="M33.4437 60.6007C33.4437 52.6801 49.2231 44.5657 70.0499 42.8503C70.0262 42.3879 70.0143 41.9225 70.0143 41.4541C56.6001 37.8593 46.7157 25.5474 46.7157 10.9145C46.7157 10.8518 46.7157 10.7921 46.7157 10.7295C33.3014 14.3213 23.4141 26.6333 23.4141 41.2692C23.4141 54.4373 31.4164 65.7229 42.7945 70.4723C36.935 67.7456 33.4437 64.3238 33.4437 60.5977V60.6007Z" fill="#00D6A2"/>
<path d="M70.0105 41.4527C70.0105 41.3901 70.0105 41.3304 70.0105 41.2678C70.0105 33.1175 73.0781 25.6862 78.1107 20.0806C72.3638 13.6845 64.0562 9.66309 54.812 9.66309C52.0112 9.66309 49.2993 10.033 46.7148 10.7251C46.7148 10.7878 46.7148 10.8474 46.7148 10.9101C46.7148 25.546 56.5992 37.8549 70.0135 41.4497L70.0105 41.4527Z" fill="#00CF91"/>
<path d="M132.808 41.2692C132.808 26.6333 122.923 14.3243 109.509 10.7295C109.509 10.7921 109.509 10.8518 109.509 10.9145C109.509 25.5503 99.6217 37.8623 86.2074 41.4571C86.2074 41.9255 86.1926 42.3909 86.1719 42.8533C107.005 44.5657 122.79 52.6801 122.79 60.6037C122.79 64.3387 119.257 67.7814 113.332 70.5171C124.761 65.7916 132.808 54.479 132.808 41.2721V41.2692Z" fill="#02BDA5"/>
<path d="M78.1094 20.08C83.1449 25.6855 86.2095 33.1168 86.2095 41.2671C86.2095 41.3297 86.2095 41.3894 86.2095 41.4521C99.6268 37.8572 109.511 25.5483 109.511 10.9094C109.511 10.8468 109.511 10.7871 109.511 10.7244C106.927 10.0323 104.212 9.65942 101.411 9.65942C92.1668 9.65942 83.8592 13.6809 78.1123 20.077L78.1094 20.08Z" fill="#00AB8E"/>
<path d="M70.0108 41.4532C70.0108 41.9216 70.0256 42.387 70.0463 42.8494C72.6634 42.6346 75.3605 42.5183 78.1139 42.5183C80.8673 42.5183 83.5555 42.6316 86.1696 42.8464C86.1933 42.384 86.2051 41.9186 86.2051 41.4503C83.6207 42.1424 80.9088 42.5123 78.108 42.5123C75.3071 42.5123 72.5923 42.1424 70.0078 41.4473L70.0108 41.4532Z" fill="#00AC8E"/>
<path d="M78.108 20.0811C73.0724 25.6866 70.0078 33.1179 70.0078 41.2682C70.0078 41.3308 70.0078 41.3905 70.0078 41.4531C72.5923 42.1453 75.3071 42.5182 78.108 42.5182C80.9088 42.5182 83.6207 42.1482 86.2051 41.4561C86.2051 41.3935 86.2051 41.3338 86.2051 41.2712C86.2051 33.1209 83.1376 25.6896 78.105 20.084L78.108 20.0811Z" fill="#00B38E"/>
<path d="M78.1093 62.4556C73.4027 57.214 70.4152 50.3794 70.0477 42.8496C49.2208 44.562 33.4414 52.6765 33.4414 60.6C33.4414 64.3231 36.9298 67.7479 42.7923 70.4746C46.4941 72.0199 50.5546 72.8761 54.8106 72.8761C64.0548 72.8761 72.3624 68.8547 78.1093 62.4586V62.4556Z" fill="#00D6A2"/>
<path d="M122.793 60.6C122.793 52.6765 107.008 44.562 86.1749 42.8496C85.8074 50.3794 82.8198 57.217 78.1133 62.4556C83.8601 68.8517 92.1678 72.8731 101.412 72.8731C105.632 72.8731 109.66 72.0319 113.335 70.5134C119.26 67.7777 122.793 64.3351 122.793 60.6Z" fill="#02BDA5"/>
<path d="M70.0508 42.8494C70.4183 50.3792 73.4058 57.2138 78.1124 62.4554C82.819 57.2138 85.8065 50.3792 86.174 42.8494C83.5599 42.6346 80.8688 42.5212 78.1183 42.5212C75.3679 42.5212 72.6678 42.6376 70.0508 42.8524V42.8494Z" fill="#00AB8E"/>
</g>
</g>
<path opacity="0.8" fill-rule="evenodd" clip-rule="evenodd" d="M57.8137 29.1086C60.38 26.6211 63.5442 25.1806 66.7937 25.3314C70.0456 25.4823 72.8075 27.2002 74.7108 29.8987C72.1445 32.3862 68.9803 33.8267 65.7308 33.6759C62.4789 33.525 59.717 31.8071 57.8137 29.1086Z" fill="#DFF3EF"/>
<path opacity="0.8" fill-rule="evenodd" clip-rule="evenodd" d="M62.3074 29.8462C59.7411 32.3337 56.5769 33.7743 53.3274 33.6234C50.0755 33.4725 47.3136 31.7546 45.4103 29.0562C47.9766 26.5686 51.1408 25.1281 54.3903 25.2789C57.6422 25.4299 60.4041 27.1478 62.3074 29.8462Z" fill="#DFF3EF"/>
<path opacity="0.8" fill-rule="evenodd" clip-rule="evenodd" d="M60.4316 27.2334C62.9189 29.7998 64.3593 32.9639 64.2085 36.2134C64.0576 39.4652 62.3399 42.2272 59.6418 44.1305C57.1544 41.5641 55.714 38.4 55.8648 35.1505C56.0158 31.8986 57.7335 29.1367 60.4316 27.2334Z" fill="#DFF3EF"/>
<path opacity="0.8" fill-rule="evenodd" clip-rule="evenodd" d="M59.69 31.712C57.2023 29.1455 55.7617 25.9812 55.9126 22.7314C56.0635 19.4798 57.7809 16.7181 60.4788 14.8148C62.9664 17.3812 64.407 20.5456 64.2562 23.7953C64.1053 27.0469 62.3878 29.8087 59.69 31.712Z" fill="#DFF3EF"/>
<path opacity="0.8" fill-rule="evenodd" clip-rule="evenodd" d="M58.6974 28.6013C62.2707 28.6573 65.5263 29.8761 67.7172 32.2803C69.9093 34.6858 70.6477 37.8524 70.0864 41.1054C66.5131 41.0495 63.2575 39.8306 61.0666 37.4264C58.8745 35.0209 58.136 31.8543 58.6974 28.6013Z" fill="#DFF3EF"/>
<path opacity="0.8" fill-rule="evenodd" clip-rule="evenodd" d="M61.3527 32.2809C57.7796 32.2248 54.5242 31.006 52.3334 28.6019C50.1407 26.1957 49.4024 23.028 49.9647 19.774C53.5378 19.8301 56.7932 21.0489 58.984 23.453C61.1767 25.8592 61.9149 29.027 61.3527 32.2809Z" fill="#DFF3EF"/>
<path opacity="0.8" fill-rule="evenodd" clip-rule="evenodd" d="M61.8732 29.1212C61.817 32.6942 60.5982 35.9496 58.1941 38.1404C55.7876 40.3335 52.6193 41.0717 49.3649 40.509C49.421 36.936 50.6399 33.6807 53.0439 31.4899C55.4505 29.2968 58.6188 28.5586 61.8732 29.1212Z" fill="#DFF3EF"/>
<path opacity="0.8" fill-rule="evenodd" clip-rule="evenodd" d="M58.1815 31.7696C58.2377 28.1967 59.4565 24.9413 61.8605 22.7505C64.2671 20.5574 67.4354 19.8192 70.6898 20.3819C70.6336 23.9548 69.4148 27.2102 67.0108 29.401C64.6042 31.5941 61.4359 32.3323 58.1815 31.7696Z" fill="#DFF3EF"/>
<path opacity="0.8" fill-rule="evenodd" clip-rule="evenodd" d="M18.2785 73.8486C20.8449 71.3611 24.009 69.9206 27.2585 70.0714C30.5104 70.2223 33.2724 71.9402 35.1756 74.6387C32.6093 77.1262 29.4452 78.5667 26.1957 78.4159C22.9438 78.265 20.1818 76.5471 18.2785 73.8486Z" fill="#DFF3EF"/>
<path opacity="0.8" fill-rule="evenodd" clip-rule="evenodd" d="M22.7722 74.5862C20.2059 77.0737 17.0418 78.5142 13.7923 78.3634C10.5404 78.2125 7.7784 76.4946 5.87514 73.7962C8.44148 71.3086 11.6056 69.8681 14.8551 70.0189C18.107 70.1699 20.869 71.8878 22.7722 74.5862Z" fill="#DFF3EF"/>
<path opacity="0.8" fill-rule="evenodd" clip-rule="evenodd" d="M20.8964 71.9732C23.3838 74.5395 24.8242 77.7037 24.6734 80.9532C24.5224 84.205 22.8047 86.9669 20.1066 88.8702C17.6193 86.3038 16.1789 83.1397 16.3297 79.8902C16.4806 76.6384 18.1983 73.8765 20.8964 71.9732Z" fill="#DFF3EF"/>
<path opacity="0.8" fill-rule="evenodd" clip-rule="evenodd" d="M20.1549 76.453C17.6672 73.8865 16.2266 70.7221 16.3774 67.4724C16.5283 64.2208 18.2458 61.459 20.9436 59.5557C23.4313 62.1222 24.8719 65.2866 24.7211 68.5363C24.5702 71.7879 22.8527 74.5497 20.1549 76.453Z" fill="#DFF3EF"/>
<path opacity="0.8" fill-rule="evenodd" clip-rule="evenodd" d="M19.1623 73.3401C22.7355 73.396 25.9911 74.6148 28.182 77.019C30.3741 79.4245 31.1126 82.5912 30.5512 85.8442C26.978 85.7882 23.7224 84.5694 21.5315 82.1652C19.3394 79.7597 18.6009 76.593 19.1623 73.3401Z" fill="#DFF3EF"/>
<path opacity="0.8" fill-rule="evenodd" clip-rule="evenodd" d="M21.8175 77.0216C18.2445 76.9656 14.9891 75.7467 12.7983 73.3427C10.6055 70.9365 9.86727 67.7687 10.4295 64.5147C14.0026 64.5708 17.258 65.7896 19.4488 68.1937C21.6415 70.5999 22.3798 73.7677 21.8175 77.0216Z" fill="#DFF3EF"/>
<path opacity="0.8" fill-rule="evenodd" clip-rule="evenodd" d="M22.3341 73.861C22.278 77.434 21.0591 80.6893 18.6551 82.8801C16.2485 85.0732 13.0802 85.8114 9.82582 85.2488C9.88198 81.6758 11.1008 78.4204 13.5049 76.2296C15.9114 74.0365 19.0798 73.2983 22.3341 73.861Z" fill="#DFF3EF"/>
<path opacity="0.8" fill-rule="evenodd" clip-rule="evenodd" d="M18.6463 76.5091C18.7025 72.9362 19.9214 69.6808 22.3254 67.49C24.7319 65.2969 27.9003 64.5587 31.1547 65.1214C31.0985 68.6943 29.8796 71.9497 27.4756 74.1405C25.069 76.3336 21.9007 77.0718 18.6463 76.5091Z" fill="#DFF3EF"/>
<path opacity="0.8" fill-rule="evenodd" clip-rule="evenodd" d="M83.6184 83.1618C86.1847 80.6743 89.3489 79.2338 92.5984 79.3846C95.8503 79.5355 98.6122 81.2535 100.515 83.9519C97.9491 86.4394 94.785 87.8799 91.5355 87.7291C88.2836 87.5782 85.5217 85.8603 83.6184 83.1618Z" fill="#DFF3EF"/>
<path opacity="0.8" fill-rule="evenodd" clip-rule="evenodd" d="M88.1121 83.8985C85.5457 86.386 82.3816 87.8265 79.1321 87.6757C75.8802 87.5248 73.1182 85.8068 71.215 83.1084C73.7813 80.6209 76.9455 79.1804 80.195 79.3312C83.4469 79.4821 86.2088 81.2 88.1121 83.8985Z" fill="#DFF3EF"/>
<path opacity="0.8" fill-rule="evenodd" clip-rule="evenodd" d="M86.2363 81.2857C88.7236 83.852 90.164 87.0162 90.0132 90.2657C89.8623 93.5175 88.1446 96.2794 85.4465 98.1827C82.9591 95.6163 81.5187 92.4522 81.6695 89.2027C81.8205 85.9509 83.5382 83.189 86.2363 81.2857Z" fill="#DFF3EF"/>
<path opacity="0.8" fill-rule="evenodd" clip-rule="evenodd" d="M85.4986 85.7652C83.0109 83.1987 81.5703 80.0344 81.7212 76.7847C81.8721 73.5331 83.5895 70.7713 86.2874 68.868C88.775 71.4345 90.2156 74.5988 90.0648 77.8486C89.9139 81.1002 88.1964 83.8619 85.4986 85.7652Z" fill="#DFF3EF"/>
<path opacity="0.8" fill-rule="evenodd" clip-rule="evenodd" d="M84.5021 82.6555C88.0753 82.7115 91.3309 83.9303 93.5218 86.3345C95.714 88.74 96.4524 91.9066 95.891 95.1596C92.3178 95.1037 89.0622 93.8848 86.8713 91.4806C84.6792 89.0751 83.9407 85.9085 84.5021 82.6555Z" fill="#DFF3EF"/>
<path opacity="0.8" fill-rule="evenodd" clip-rule="evenodd" d="M87.1574 86.3363C83.5843 86.2803 80.3289 85.0614 78.1381 82.6574C75.9454 80.2512 75.2071 77.0834 75.7694 73.8294C79.3424 73.8855 82.5978 75.1043 84.7886 77.5084C86.9814 79.9146 87.7196 83.0824 87.1574 86.3363Z" fill="#DFF3EF"/>
<path opacity="0.8" fill-rule="evenodd" clip-rule="evenodd" d="M87.6779 83.1764C87.6217 86.7494 86.4029 90.0047 83.9988 92.1955C81.5923 94.3886 78.4239 95.1269 75.1696 94.5642C75.2257 90.9912 76.4446 87.7359 78.8486 85.5451C81.2552 83.352 84.4235 82.6137 87.6779 83.1764Z" fill="#DFF3EF"/>
<path opacity="0.8" fill-rule="evenodd" clip-rule="evenodd" d="M83.9901 85.8219C84.0463 82.2489 85.2651 78.9936 87.6691 76.8028C90.0757 74.6096 93.244 73.8714 96.4984 74.4341C96.4422 78.0071 95.2234 81.2624 92.8194 83.4532C90.4128 85.6463 87.2445 86.3846 83.9901 85.8219Z" fill="#DFF3EF"/>
</g>
<defs>
<clipPath id="clip0_984_58758">
<rect width="109.586" height="140.08" fill="white" transform="translate(0.953125 14.2939)"/>
</clipPath>
</defs>
</svg>
