<svg width="35" height="120" viewBox="0 0 35 120" fill="none" xmlns="http://www.w3.org/2000/svg">
<g clip-path="url(#clip0_862_1184)">
<path d="M-26.6659 39.5487C-21.2931 33.3445 -13.5261 29.4438 -4.88361 29.4438C-2.26508 29.4438 0.273096 29.8026 2.68935 30.4768C2.59791 13.6266 -10.5086 0 -26.6631 0C-42.8177 0 -55.9242 13.6295 -56.0156 30.4768C-53.5994 29.8055 -51.064 29.4466 -48.4454 29.4466C-39.8029 29.4466 -32.036 33.3474 -26.6631 39.5516L-26.6659 39.5487Z" fill="#5FE1B7"/>
<path d="M24.4678 60.0978C24.4678 45.9011 15.2267 33.9616 2.6855 30.4746C2.6855 30.5354 2.6855 30.5933 2.6855 30.654C2.6855 44.8507 -6.55833 56.7931 -19.0996 60.2801C-19.0996 60.7344 -19.1134 61.1858 -19.1328 61.6344C0.344067 63.2954 15.102 71.1663 15.102 78.8521C15.102 82.475 11.7991 85.8144 6.26001 88.468C16.9447 83.8843 24.4678 72.9112 24.4678 60.1007V60.0978Z" fill="#02BDA5"/>
<path d="M-26.6719 39.5453C-21.9641 44.9826 -19.0989 52.1909 -19.0989 60.0966C-19.0989 60.1574 -19.0989 60.2153 -19.0989 60.276C-6.5549 56.7891 2.68616 44.8495 2.68616 30.65C2.68616 30.5892 2.68616 30.5313 2.68616 30.4706C0.269905 29.7992 -2.26827 29.4375 -4.8868 29.4375C-13.5293 29.4375 -21.2963 33.3383 -26.6691 39.5424L-26.6719 39.5453Z" fill="#00AB8E"/>
<path d="M15.0999 78.8496C15.0999 71.1638 0.341944 63.2928 -19.1349 61.6318C-19.4785 68.9356 -22.2716 75.5681 -26.6719 80.6495C-21.299 86.8536 -13.5321 90.7544 -4.88958 90.7544C-0.943768 90.7544 2.82193 89.9384 6.25789 88.4654C11.797 85.8119 15.0999 82.4725 15.0999 78.8496Z" fill="#02BDA5"/>
</g>
<defs>
<clipPath id="clip0_862_1184">
<rect width="35" height="120" fill="white"/>
</clipPath>
</defs>
</svg>
