<svg width="75" height="104" viewBox="0 0 75 104" fill="none" xmlns="http://www.w3.org/2000/svg">
<mask id="mask0_984_53011" style="mask-type:alpha" maskUnits="userSpaceOnUse" x="7" y="11" width="59" height="82">
<path fill-rule="evenodd" clip-rule="evenodd" d="M39.2465 11.5725C36.5704 13.9272 32.8392 19.0203 32.6207 23.1765C32.2087 31.013 36.7884 31.4262 38.1989 31.4985C39.6094 31.5709 44.2385 31.511 44.6443 23.793C44.8713 19.4758 41.3991 14.2363 39.2465 11.5725ZM34.9937 92.7965C51.0678 93.6207 64.7822 81.2831 65.6257 65.2397C66.4692 49.1964 54.1224 35.5225 38.0483 34.6983C21.9742 33.8741 8.25979 46.2116 7.41629 62.255C6.57278 78.2984 18.9196 91.9723 34.9937 92.7965Z" fill="#FF623D"/>
</mask>
<g mask="url(#mask0_984_53011)">
<ellipse opacity="0.7" cx="14.8104" cy="16.1258" rx="14.8104" ry="16.1258" transform="matrix(0.998632 0.0512054 -0.052507 0.998677 45.5166 57.5554)" fill="#FF3F18"/>
<ellipse opacity="0.6" cx="21.1934" cy="23.0757" rx="21.1934" ry="23.0757" transform="matrix(0.998632 0.0512054 -0.052507 0.998677 15.96 63.5181)" fill="#FF3F18"/>
<ellipse opacity="0.8" cx="30.7467" cy="33.5938" rx="30.7467" ry="33.5938" transform="matrix(0.998632 0.0512054 -0.052507 0.998677 -9.60352 16.1487)" fill="#FF3F18"/>
<ellipse opacity="0.4" cx="21.0173" cy="22.9634" rx="21.0173" ry="22.9634" transform="matrix(0.998632 0.0512054 -0.052507 0.998677 -9.29102 27.4504)" fill="#EB2706"/>
<ellipse opacity="0.3" cx="31.7834" cy="34.6062" rx="31.7834" ry="34.6062" transform="matrix(0.998632 0.0512054 -0.052507 0.998677 15.0107 35.0476)" fill="#FF3F18"/>
<ellipse opacity="0.3" cx="20.4414" cy="22.2569" rx="20.4414" ry="22.2569" transform="matrix(0.998632 0.0512054 -0.052507 0.998677 47.3936 6.94775)" fill="#FF3F18"/>
<path opacity="0.6" fill-rule="evenodd" clip-rule="evenodd" d="M39.2653 8.22652L30.3217 8.22652L30.292 31.0669L38.1894 31.0669L38.1745 31.3512L46.9976 31.8037L48.1968 8.9948L39.3737 8.54239L39.2622 10.6636L39.2653 8.22652Z" fill="#00D6A2"/>
<rect width="8.83519" height="22.8391" transform="matrix(0.999944 3.45832e-10 -0.00129755 1.00006 39.126 9.97095)" fill="#038F7E"/>
<rect width="11.9715" height="6.92476" transform="matrix(0.729143 -0.684279 0.683409 0.730113 35.6104 28.5156)" fill="#0DA98F"/>
<rect width="8.83519" height="22.8391" transform="matrix(0.999944 3.45832e-10 -0.00129755 1.00006 30.3477 9.42993)" fill="#00D6A2"/>
<ellipse opacity="0.5" cx="5.43568" cy="2.62255" rx="5.43568" ry="2.62255" transform="matrix(0.663432 -0.748967 0.749532 0.661142 13.1514 50.2341)" fill="white"/>
<ellipse opacity="0.5" cx="5.43109" cy="2.62476" rx="5.43109" ry="2.62476" transform="matrix(0.09987 -0.995109 0.99504 0.0983894 13.1445 58.8467)" fill="white"/>
</g>
<mask id="mask1_984_53011" style="mask-type:alpha" maskUnits="userSpaceOnUse" x="7" y="11" width="59" height="82">
<path fill-rule="evenodd" clip-rule="evenodd" d="M57.2843 11.8497C54.6082 14.2043 50.877 19.2975 50.6584 23.4536C50.2464 31.2902 54.8262 31.7034 56.2367 31.7757C57.6471 31.848 62.2763 31.7881 62.6821 24.0701C62.9091 19.7529 59.4368 14.5135 57.2843 11.8497ZM34.9939 92.7953C51.068 93.6195 64.7825 81.2819 65.626 65.2385C66.4695 49.1952 54.1226 35.5213 38.0485 34.6971C21.9745 33.8729 8.26004 46.2104 7.41653 62.2538C6.57303 78.2972 18.9199 91.9711 34.9939 92.7953Z" fill="#FF623D"/>
</mask>
<g mask="url(#mask1_984_53011)">
<path opacity="0.5" d="M65.3442 62.1562C64.7234 73.9634 53.5087 79.9344 42.7027 79.3803C31.8967 78.8263 23.64 68.8055 24.2607 56.9984C24.8815 45.1912 34.1448 36.0688 44.9507 36.6229C55.7567 37.177 65.965 50.3491 65.3442 62.1562Z" fill="#FF3F18"/>
<ellipse opacity="0.6" cx="43.185" cy="83.7141" rx="24.958" ry="24.958" transform="rotate(-1.69869 43.185 83.7141)" fill="#EB2706"/>
<circle opacity="0.5" cx="44.4646" cy="86.8135" r="22.5815" transform="rotate(-1.69869 44.4646 86.8135)" fill="#EB2706"/>
<ellipse opacity="0.5" cx="14.8104" cy="16.1258" rx="14.8104" ry="16.1258" transform="matrix(0.998632 0.0512054 -0.052507 0.998677 45.0459 58.2668)" fill="#FF3F18"/>
<ellipse opacity="0.5" cx="11.8382" cy="12.8896" rx="11.8382" ry="12.8896" transform="matrix(0.998632 0.0512054 -0.052507 0.998677 51.1689 61.5713)" fill="#FF3F18"/>
<circle opacity="0.7" cx="44.9302" cy="86.1903" r="16.8483" transform="rotate(-1.69869 44.9302 86.1903)" fill="#EB2706"/>
</g>
</svg>
