<svg width="293" height="51" viewBox="0 0 293 51" fill="none" xmlns="http://www.w3.org/2000/svg">
<rect x="0.575195" y="0.685547" width="292" height="50" rx="8" fill="#0DA98F"/>
<path d="M121.915 28.8055V32.9655H111.995V28.8055H121.915ZM110.491 28.0695V26.5335H115.963V25.8135C113.531 25.6695 112.187 24.9975 112.187 23.8135C112.187 22.4695 113.915 21.7815 116.987 21.7975C120.059 21.7815 121.755 22.4695 121.755 23.8135C121.755 24.9975 120.427 25.6855 117.979 25.8135V26.5335H123.483V28.0695H110.491ZM111.131 21.4135V19.9095H115.963V18.7895H117.979V19.9095H122.779V21.4135H111.131ZM113.979 31.4935H119.963V30.2775H113.979V31.4935ZM114.331 23.8135C114.331 24.2935 115.179 24.5015 116.987 24.5175C118.795 24.5015 119.627 24.2935 119.611 23.8135C119.627 23.3175 118.795 23.1255 116.987 23.1095C115.179 23.1255 114.331 23.3175 114.331 23.8135ZM130.815 19.6215C133.807 19.6375 136.159 21.2535 136.159 23.7175C136.159 26.1975 133.807 27.8135 130.815 27.8135C127.807 27.8135 125.471 26.1975 125.471 23.7175C125.471 21.2535 127.807 19.6375 130.815 19.6215ZM124.319 31.3975V29.7655H137.343V31.3975H124.319ZM127.391 23.7175C127.391 25.2695 128.831 26.1815 130.815 26.1815C132.767 26.1815 134.191 25.2695 134.207 23.7175C134.191 22.1975 132.767 21.2375 130.815 21.2535C128.831 21.2375 127.391 22.1975 127.391 23.7175ZM151.171 29.8935V31.5255H138.147V29.8935H143.651V27.7495H139.651V22.9815H147.683V21.4135H139.619V19.8135H149.667V24.5495H141.635V26.1495H149.987V27.7495H145.603V29.8935H151.171ZM166.895 18.8855V24.3575H168.911V25.9895H166.895V33.0935H164.879V18.8855H166.895ZM155.503 29.1255C158.879 27.4295 160.671 25.1575 161.055 21.9895H156.335V20.3575H163.087C163.071 24.6135 161.423 28.2935 156.655 30.6295L155.503 29.1255ZM181.459 18.8855V33.1255H179.443V18.8855H181.459ZM169.555 29.0935C173.219 27.3495 174.835 25.1095 175.155 21.9575H170.291V20.3895H177.171C177.187 24.6935 175.667 28.2935 170.579 30.6935L169.555 29.0935Z" fill="white"/>
</svg>
