<svg width="45" height="55" viewBox="0 0 45 55" fill="none" xmlns="http://www.w3.org/2000/svg">
<g clip-path="url(#clip0_3211_37251)">
<mask id="mask0_3211_37251" style="mask-type:alpha" maskUnits="userSpaceOnUse" x="3" y="1" width="38" height="52">
<path fill-rule="evenodd" clip-rule="evenodd" d="M23.5698 1.81373C21.8908 3.29101 19.5498 6.48648 19.4127 9.09405C19.1542 14.0107 22.0276 14.27 22.9125 14.3153C23.7975 14.3607 26.7018 14.3231 26.9564 9.48086C27.0988 6.77222 24.9203 3.48498 23.5698 1.81373ZM20.9017 52.7736C30.9866 53.2907 39.591 45.5501 40.1202 35.4844C40.6495 25.4188 32.903 16.8398 22.8181 16.3227C12.7332 15.8056 4.12878 23.5462 3.59956 33.6118C3.07034 43.6775 10.8168 52.2565 20.9017 52.7736Z" fill="#C1C6CC"/>
</mask>
<g mask="url(#mask0_3211_37251)">
<ellipse opacity="0.7" cx="9.2921" cy="10.1174" rx="9.2921" ry="10.1174" transform="matrix(0.998632 0.0512054 -0.052507 0.998677 27.5039 30.6633)" fill="#C1C6CC"/>
<ellipse opacity="0.6" cx="13.2968" cy="14.4777" rx="13.2968" ry="14.4777" transform="matrix(0.998632 0.0512054 -0.052507 0.998677 8.95996 34.4043)" fill="#C1C6CC"/>
<ellipse opacity="0.8" cx="19.2906" cy="21.0768" rx="19.2906" ry="21.0768" transform="matrix(0.998632 0.0512054 -0.052507 0.998677 -7.0791 4.68481)" fill="#C1C6CC"/>
<ellipse opacity="0.4" cx="13.1863" cy="14.4073" rx="13.1863" ry="14.4073" transform="matrix(0.998632 0.0512054 -0.052507 0.998677 -6.88281 11.7754)" fill="#C1C6CC"/>
<ellipse opacity="0.3" cx="19.941" cy="21.712" rx="19.941" ry="21.712" transform="matrix(0.998632 0.0512054 -0.052507 0.998677 8.36426 16.542)" fill="#C1C6CC"/>
<ellipse opacity="0.3" cx="12.825" cy="13.964" rx="12.825" ry="13.964" transform="matrix(0.998632 0.0512054 -0.052507 0.998677 28.6807 -1.08789)" fill="#C1C6CC"/>
<path opacity="0.6" fill-rule="evenodd" clip-rule="evenodd" d="M23.5806 -0.285806L17.9693 -0.285806L17.9507 14.0443L22.906 14.0443L22.8966 14.2228L28.4322 14.5066L29.1846 0.196279L23.649 -0.0875641L23.5786 1.25163L23.5806 -0.285806Z" fill="#C1C6CC"/>
<rect width="5.54321" height="14.3293" transform="matrix(0.999944 3.45832e-10 -0.00129755 1.00006 23.4941 0.808838)" fill="#C1C6CC"/>
<rect width="7.51093" height="4.3446" transform="matrix(0.729143 -0.684279 0.683409 0.730113 21.2881 12.4438)" fill="#C1C6CC"/>
<rect width="5.54321" height="14.3293" transform="matrix(0.999944 3.45832e-10 -0.00129755 1.00006 17.9863 0.469482)" fill="#C1C6CC"/>
<ellipse opacity="0.5" cx="3.41035" cy="1.64539" rx="3.41035" ry="1.64539" transform="matrix(0.663432 -0.748967 0.749532 0.661142 7.19727 26.0701)" fill="#C1C6CC"/>
<ellipse opacity="0.5" cx="3.40747" cy="1.64678" rx="3.40747" ry="1.64678" transform="matrix(0.09987 -0.995109 0.99504 0.0983894 7.19336 31.4736)" fill="#C1C6CC"/>
</g>
<mask id="mask1_3211_37251" style="mask-type:alpha" maskUnits="userSpaceOnUse" x="3" y="1" width="38" height="52">
<path fill-rule="evenodd" clip-rule="evenodd" d="M34.8866 1.98759C33.2076 3.46488 30.8666 6.66035 30.7295 9.26792C30.471 14.1846 33.3444 14.4438 34.2293 14.4892C35.1142 14.5346 38.0186 14.497 38.2732 9.65473C38.4156 6.94609 36.2371 3.65885 34.8866 1.98759ZM20.9009 52.7729C30.9858 53.29 39.5902 45.5494 40.1195 35.4837C40.6487 25.4181 32.9023 16.8391 22.8173 16.322C12.7324 15.8048 4.12799 23.5455 3.59877 33.6111C3.06956 43.6767 10.816 52.2558 20.9009 52.7729Z" fill="#C1C6CC"/>
</mask>
<g mask="url(#mask1_3211_37251)">
<path opacity="0.5" d="M39.9427 33.55C39.5532 40.9578 32.5171 44.7041 25.7374 44.3564C18.9577 44.0088 13.7774 37.7217 14.1669 30.3139C14.5563 22.9061 20.3681 17.1827 27.1478 17.5303C33.9275 17.878 40.3322 26.1421 39.9427 33.55Z" fill="#C1C6CC"/>
<ellipse opacity="0.6" cx="26.0398" cy="47.0753" rx="15.6587" ry="15.6587" transform="rotate(-1.69869 26.0398 47.0753)" fill="#C1C6CC"/>
<ellipse opacity="0.5" cx="26.8431" cy="49.02" rx="14.1677" ry="14.1677" transform="rotate(-1.69869 26.8431 49.02)" fill="#C1C6CC"/>
<ellipse opacity="0.5" cx="9.2921" cy="10.1174" rx="9.2921" ry="10.1174" transform="matrix(0.998632 0.0512054 -0.052507 0.998677 27.207 31.1096)" fill="#C1C6CC"/>
<ellipse opacity="0.5" cx="7.42733" cy="8.08698" rx="7.42733" ry="8.08698" transform="matrix(0.998632 0.0512054 -0.052507 0.998677 31.0488 33.1831)" fill="#C1C6CC"/>
<circle opacity="0.7" cx="27.1352" cy="48.6291" r="10.5707" transform="rotate(-1.69869 27.1352 48.6291)" fill="#C1C6CC"/>
</g>
</g>
<defs>
<clipPath id="clip0_3211_37251">
<rect width="44" height="54" fill="white" transform="translate(0.304688 0.547119)"/>
</clipPath>
</defs>
</svg>
