<svg width="18" height="18" viewBox="0 0 18 18" fill="none" xmlns="http://www.w3.org/2000/svg">
<mask id="mask0_2741_25297" style="mask-type:alpha" maskUnits="userSpaceOnUse" x="1" y="0" width="16" height="18">
<path d="M17 8.45675V16.3157C17 16.6764 16.8595 17.0223 16.6095 17.2774C16.3594 17.5325 16.0203 17.6758 15.6666 17.6758H12.3333C11.9797 17.6758 11.6406 17.5325 11.3905 17.2774C11.1405 17.0223 11 16.6764 11 16.3157V12.9154C11 12.735 10.9298 12.562 10.8047 12.4345C10.6797 12.307 10.5101 12.2353 10.3333 12.2353H7.66666C7.48985 12.2353 7.32028 12.307 7.19525 12.4345C7.07023 12.562 6.99999 12.735 6.99999 12.9154V16.3157C6.99999 16.6764 6.85952 17.0223 6.60947 17.2774C6.35942 17.5325 6.02028 17.6758 5.66666 17.6758H2.33333C1.97971 17.6758 1.64057 17.5325 1.39052 17.2774C1.14048 17.0223 1 16.6764 1 16.3157V8.45675C0.999972 8.26851 1.03825 8.08231 1.11241 7.90994C1.18657 7.73757 1.295 7.58278 1.43083 7.45536L8.09749 1.03902L8.10666 1.02967C8.35211 0.80196 8.67197 0.675781 9.00374 0.675781C9.33552 0.675781 9.65537 0.80196 9.90082 1.02967C9.90367 1.03299 9.90673 1.03612 9.90999 1.03902L16.5766 7.45536C16.7111 7.58345 16.8182 7.73854 16.891 7.91088C16.9639 8.08322 17.001 8.26907 17 8.45675Z" fill="black"/>
</mask>
<g mask="url(#mask0_2741_25297)">
<path d="M17 8.45675V16.3157C17 16.6764 16.8595 17.0223 16.6095 17.2774C16.3594 17.5325 16.0203 17.6758 15.6666 17.6758H12.3333C11.9797 17.6758 11.6406 17.5325 11.3905 17.2774C11.1405 17.0223 11 16.6764 11 16.3157V12.9154C11 12.735 10.9298 12.562 10.8047 12.4345C10.6797 12.307 10.5101 12.2353 10.3333 12.2353H7.66666C7.48985 12.2353 7.32028 12.307 7.19525 12.4345C7.07023 12.562 6.99999 12.735 6.99999 12.9154V16.3157C6.99999 16.6764 6.85952 17.0223 6.60947 17.2774C6.35942 17.5325 6.02028 17.6758 5.66666 17.6758H2.33333C1.97971 17.6758 1.64057 17.5325 1.39052 17.2774C1.14048 17.0223 1 16.6764 1 16.3157V8.45675C0.999972 8.26851 1.03825 8.08231 1.11241 7.90994C1.18657 7.73757 1.295 7.58278 1.43083 7.45536L8.09749 1.03902L8.10666 1.02967C8.35211 0.80196 8.67197 0.675781 9.00374 0.675781C9.33552 0.675781 9.65537 0.80196 9.90082 1.02967C9.90367 1.03299 9.90673 1.03612 9.90999 1.03902L16.5766 7.45536C16.7111 7.58345 16.8182 7.73854 16.891 7.91088C16.9639 8.08322 17.001 8.26907 17 8.45675Z" fill="#00D6A2"/>
<path d="M17 8.45675V16.3157C17 16.6764 16.8595 17.0223 16.6095 17.2774C16.3594 17.5325 16.0203 17.6758 15.6666 17.6758H12.3333C11.9797 17.6758 11.6406 17.5325 11.3905 17.2774C11.1405 17.0223 11 16.6764 11 16.3157V12.9154C11 12.735 10.9298 12.562 10.8047 12.4345C10.6797 12.307 10.5101 12.2353 10.3333 12.2353H7.66666C7.48985 12.2353 7.32028 12.307 7.19526 12.4345C7.07023 12.562 6.99999 12.735 6.99999 12.9154V16.3157C6.99999 16.6764 6.85952 17.0223 6.60947 17.2774C6.35942 17.5325 6.02028 17.6758 5.66666 17.6758H2.33333C1.97971 17.6758 1.64057 17.5325 1.39052 17.2774C1.14048 17.0223 1 16.6764 1 16.3157V8.45675C0.999972 8.26851 1.03825 8.08231 1.11241 7.90994C1.18657 7.73757 1.295 7.58278 1.43083 7.45536L8.09749 1.03902L8.10666 1.02967C8.35211 0.80196 8.67197 0.675781 9.00374 0.675781C9.33552 0.675781 9.65537 0.80196 9.90082 1.02967C9.90367 1.03299 9.90673 1.03612 9.90999 1.03902L16.5766 7.45536C16.7111 7.58345 16.8182 7.73854 16.891 7.91088C16.9639 8.08322 17.001 8.26907 17 8.45675Z" fill="#CED4DA"/>
</g>
</svg>
