<svg width="18" height="18" viewBox="0 0 18 18" fill="none" xmlns="http://www.w3.org/2000/svg">
<mask id="mask0_2741_25188" style="mask-type:alpha" maskUnits="userSpaceOnUse" x="0" y="0" width="17" height="18">
<path d="M16.9414 7.87081V15.7297C16.9414 16.0905 16.8009 16.4364 16.5509 16.6915C16.3008 16.9465 15.9617 17.0898 15.6081 17.0898H12.2747C11.9211 17.0898 11.582 16.9465 11.3319 16.6915C11.0819 16.4364 10.9414 16.0905 10.9414 15.7297V13.0423C10.9414 12.8619 10.8712 12.6889 10.7461 12.5614C10.6211 12.4339 10.4515 12.3622 10.2747 12.3622H8.9414H7.60806C7.43125 12.3622 7.26168 12.4339 7.13666 12.5614C7.01164 12.6889 6.9414 12.8619 6.9414 13.0423V15.7297C6.9414 16.0905 6.80092 16.4364 6.55087 16.6915C6.30083 16.9465 5.96169 17.0898 5.60807 17.0898H2.27474C1.92112 17.0898 1.58198 16.9465 1.33193 16.6915C1.08188 16.4364 0.941406 16.0905 0.941406 15.7297V7.87081C0.941378 7.68257 0.979656 7.49637 1.05382 7.324C1.12798 7.15163 1.2364 6.99684 1.37224 6.86942L8.0389 0.453079L8.04806 0.443728C8.29352 0.216022 8.61337 0.0898438 8.94515 0.0898438C9.27692 0.0898437 9.59678 0.216022 9.84223 0.443728C9.84507 0.447054 9.84813 0.450179 9.8514 0.453079L16.5181 6.86942C16.6525 6.99751 16.7596 7.1526 16.8324 7.32494C16.9053 7.49728 16.9424 7.68313 16.9414 7.87081Z" fill="#5B6166"/>
</mask>
<g mask="url(#mask0_2741_25188)">
<path d="M9.16438 -1.31494L19.5468 9.27221H-1.21805L9.16438 -1.31494Z" fill="#D9D9D9"/>
<path opacity="0.8" d="M9.16438 -1.31494L19.5468 9.27221H-1.21805L9.16438 -1.31494Z" fill="#00CF91"/>
<path opacity="0.8" d="M12.93 -2.48633L23.3124 8.10083H2.54757L12.93 -2.48633Z" fill="#5FE1B7"/>
<path opacity="0.8" d="M3.30109 -2.48633L13.6835 8.10083H-7.08133L3.30109 -2.48633Z" fill="#02BDA5"/>
<rect opacity="0.8" x="0.507812" y="9.20142" width="17.3137" height="9.56461" fill="#5FE1B7"/>
<rect opacity="0.8" x="4.70703" y="9.20142" width="17.3137" height="9.56461" fill="#00D6A2"/>
<rect opacity="0.8" x="-3.63281" y="12.0264" width="17.3137" height="9.56461" fill="#009980"/>
</g>
</svg>
