<svg width="50" height="51" viewBox="0 0 50 51" fill="none" xmlns="http://www.w3.org/2000/svg">
<g clip-path="url(#clip0_550_39960)">
<mask id="mask0_550_39960" style="mask-type:alpha" maskUnits="userSpaceOnUse" x="17" y="10" width="16" height="18">
<path d="M33 18.363V26.2219C33 26.5826 32.8595 26.9286 32.6095 27.1837C32.3594 27.4387 32.0203 27.582 31.6666 27.582H28.3333C27.9797 27.582 27.6406 27.4387 27.3905 27.1837C27.1405 26.9286 27 26.5826 27 26.2219V22.8216C27 22.6413 26.9298 22.4683 26.8047 22.3408C26.6797 22.2132 26.5101 22.1416 26.3333 22.1416H23.6667C23.4898 22.1416 23.3203 22.2132 23.1953 22.3408C23.0702 22.4683 23 22.6413 23 22.8216V26.2219C23 26.5826 22.8595 26.9286 22.6095 27.1837C22.3594 27.4387 22.0203 27.582 21.6667 27.582H18.3333C17.9797 27.582 17.6406 27.4387 17.3905 27.1837C17.1405 26.9286 17 26.5826 17 26.2219V18.363C17 18.1748 17.0382 17.9886 17.1124 17.8162C17.1866 17.6438 17.295 17.489 17.4308 17.3616L24.0975 10.9453L24.1067 10.9359C24.3521 10.7082 24.672 10.582 25.0037 10.582C25.3355 10.582 25.6554 10.7082 25.9008 10.9359C25.9037 10.9392 25.9067 10.9424 25.91 10.9453L32.5766 17.3616C32.7111 17.4897 32.8182 17.6448 32.891 17.8171C32.9639 17.9895 33.001 18.1753 33 18.363Z" fill="black"/>
</mask>
<g mask="url(#mask0_550_39960)">
<path d="M33 18.363V26.2219C33 26.5826 32.8595 26.9286 32.6095 27.1837C32.3594 27.4387 32.0203 27.582 31.6666 27.582H28.3333C27.9797 27.582 27.6406 27.4387 27.3905 27.1837C27.1405 26.9286 27 26.5826 27 26.2219V22.8216C27 22.6413 26.9298 22.4683 26.8047 22.3408C26.6797 22.2132 26.5101 22.1416 26.3333 22.1416H23.6667C23.4898 22.1416 23.3203 22.2132 23.1953 22.3408C23.0702 22.4683 23 22.6413 23 22.8216V26.2219C23 26.5826 22.8595 26.9286 22.6095 27.1837C22.3594 27.4387 22.0203 27.582 21.6667 27.582H18.3333C17.9797 27.582 17.6406 27.4387 17.3905 27.1837C17.1405 26.9286 17 26.5826 17 26.2219V18.363C17 18.1748 17.0382 17.9886 17.1124 17.8162C17.1866 17.6438 17.295 17.489 17.4308 17.3616L24.0975 10.9453L24.1067 10.9359C24.3521 10.7082 24.672 10.582 25.0037 10.582C25.3355 10.582 25.6554 10.7082 25.9008 10.9359C25.9037 10.9392 25.9067 10.9424 25.91 10.9453L32.5766 17.3616C32.7111 17.4897 32.8182 17.6448 32.891 17.8171C32.9639 17.9895 33.001 18.1753 33 18.363Z" fill="#00D6A2"/>
<path d="M33 18.363V26.2219C33 26.5826 32.8595 26.9286 32.6095 27.1837C32.3594 27.4387 32.0203 27.582 31.6666 27.582H28.3333C27.9797 27.582 27.6406 27.4387 27.3905 27.1837C27.1405 26.9286 27 26.5826 27 26.2219V22.8216C27 22.6413 26.9298 22.4683 26.8047 22.3408C26.6797 22.2132 26.5101 22.1416 26.3333 22.1416H23.6667C23.4898 22.1416 23.3203 22.2132 23.1953 22.3408C23.0702 22.4683 23 22.6413 23 22.8216V26.2219C23 26.5826 22.8595 26.9286 22.6095 27.1837C22.3594 27.4387 22.0203 27.582 21.6667 27.582H18.3333C17.9797 27.582 17.6406 27.4387 17.3905 27.1837C17.1405 26.9286 17 26.5826 17 26.2219V18.363C17 18.1748 17.0382 17.9886 17.1124 17.8162C17.1866 17.6438 17.295 17.489 17.4308 17.3616L24.0975 10.9453L24.1067 10.9359C24.3521 10.7082 24.672 10.582 25.0037 10.582C25.3355 10.582 25.6554 10.7082 25.9008 10.9359C25.9037 10.9392 25.9067 10.9424 25.91 10.9453L32.5766 17.3616C32.7111 17.4897 32.8182 17.6448 32.891 17.8171C32.9639 17.9895 33.001 18.1753 33 18.363Z" fill="#CED4DA"/>
</g>
</g>
<path d="M28.0029 38.0996V40.6289H21.958V38.0996H28.0029ZM21.001 37.5039V36.7715H24.5264V36.1758C22.9785 36.1123 22.1094 35.6973 22.1143 34.9453C22.1094 34.1299 23.1494 33.71 24.9854 33.7051C26.8311 33.71 27.8613 34.1299 27.8564 34.9453C27.8613 35.6973 27.0068 36.1123 25.4541 36.1758V36.7715H28.9795V37.5039H21.001ZM21.4111 33.3926V32.6797H24.5264V31.8691H25.4541V32.6797H28.5303V33.3926H21.4111ZM22.876 39.916H27.1045V38.8125H22.876V39.916ZM23.1006 34.9453C23.0957 35.3408 23.7646 35.5508 24.9854 35.5508C26.2158 35.5508 26.8701 35.3408 26.8701 34.9453C26.8701 34.5449 26.2158 34.3496 24.9854 34.3398C23.7646 34.3496 23.0957 34.5449 23.1006 34.9453Z" fill="#CED4DA"/>
<defs>
<clipPath id="clip0_550_39960">
<rect width="18" height="18" fill="white" transform="translate(16 9.90625)"/>
</clipPath>
</defs>
</svg>
