<svg width="50" height="51" viewBox="0 0 50 51" fill="none" xmlns="http://www.w3.org/2000/svg">
<g clip-path="url(#clip0_550_39917)">
<mask id="mask0_550_39917" style="mask-type:alpha" maskUnits="userSpaceOnUse" x="16" y="9" width="17" height="18">
<path d="M32.9414 16.9704V24.8293C32.9414 25.1901 32.8009 25.536 32.5509 25.7911C32.3008 26.0462 31.9617 26.1895 31.6081 26.1895H28.2747C27.9211 26.1895 27.582 26.0462 27.3319 25.7911C27.0819 25.536 26.9414 25.1901 26.9414 24.8293V22.1419C26.9414 21.9615 26.8712 21.7885 26.7461 21.661C26.6211 21.5335 26.4515 21.4618 26.2747 21.4618H24.9414H23.6081C23.4313 21.4618 23.2617 21.5335 23.1367 21.661C23.0116 21.7885 22.9414 21.9615 22.9414 22.1419V24.8293C22.9414 25.1901 22.8009 25.536 22.5509 25.7911C22.3008 26.0462 21.9617 26.1895 21.6081 26.1895H18.2747C17.9211 26.1895 17.582 26.0462 17.3319 25.7911C17.0819 25.536 16.9414 25.1901 16.9414 24.8293V16.9704C16.9414 16.7822 16.9797 16.596 17.0538 16.4236C17.128 16.2512 17.2364 16.0964 17.3722 15.969L24.0389 9.55269L24.0481 9.54334C24.2935 9.31563 24.6134 9.18945 24.9451 9.18945C25.2769 9.18945 25.5968 9.31563 25.8422 9.54334C25.8451 9.54666 25.8481 9.54979 25.8514 9.55269L32.5181 15.969C32.6525 16.0971 32.7596 16.2522 32.8324 16.4246C32.9053 16.5969 32.9424 16.7827 32.9414 16.9704Z" fill="#5B6166"/>
</mask>
<g mask="url(#mask0_550_39917)">
<path d="M25.1644 7.78516L35.5468 18.3723H14.7819L25.1644 7.78516Z" fill="#D9D9D9"/>
<path opacity="0.8" d="M25.1644 7.78516L35.5468 18.3723H14.7819L25.1644 7.78516Z" fill="#00CF91"/>
<path opacity="0.8" d="M28.93 6.61328L39.3124 17.2004H18.5476L28.93 6.61328Z" fill="#5FE1B7"/>
<path opacity="0.8" d="M19.3011 6.61328L29.6835 17.2004H8.91867L19.3011 6.61328Z" fill="#02BDA5"/>
<rect opacity="0.8" x="16.5078" y="18.3008" width="17.3137" height="9.56461" fill="#5FE1B7"/>
<rect opacity="0.8" x="20.707" y="18.3008" width="17.3137" height="9.56461" fill="#00D6A2"/>
<rect opacity="0.8" x="12.3672" y="21.125" width="17.3137" height="9.56461" fill="#009980"/>
</g>
</g>
<path d="M28.0029 37.293V39.8223H21.958V37.293H28.0029ZM21.001 36.6973V35.9648H24.5264V35.3691C22.9785 35.3057 22.1094 34.8906 22.1143 34.1387C22.1094 33.3232 23.1494 32.9033 24.9854 32.8984C26.8311 32.9033 27.8613 33.3232 27.8564 34.1387C27.8613 34.8906 27.0068 35.3057 25.4541 35.3691V35.9648H28.9795V36.6973H21.001ZM21.4111 32.5859V31.873H24.5264V31.0625H25.4541V31.873H28.5303V32.5859H21.4111ZM22.876 39.1094H27.1045V38.0059H22.876V39.1094ZM23.1006 34.1387C23.0957 34.5342 23.7646 34.7441 24.9854 34.7441C26.2158 34.7441 26.8701 34.5342 26.8701 34.1387C26.8701 33.7383 26.2158 33.543 24.9854 33.5332C23.7646 33.543 23.0957 33.7383 23.1006 34.1387Z" fill="#006C52"/>
<defs>
<clipPath id="clip0_550_39917">
<rect width="18" height="18" fill="white" transform="translate(16 9.09961)"/>
</clipPath>
</defs>
</svg>
