<svg width="101" height="100" viewBox="0 0 101 100" fill="none" xmlns="http://www.w3.org/2000/svg">
<g clip-path="url(#clip0_3758_43813)">
<circle cx="50.8281" cy="50" r="49.375" stroke="#B0E0D6" stroke-width="1.25"/>
<path d="M46.2725 53.641C46.4916 55.9233 46.8631 57.6195 47.3744 58.7386C47.892 59.8541 48.8109 60.4105 50.1374 60.4105C50.3854 60.4105 50.6072 60.3717 50.8272 60.3266C51.0527 60.3717 51.2736 60.4105 51.5234 60.4105C52.8463 60.4105 53.7679 59.8541 54.2828 58.7386C54.7968 57.6195 55.162 55.9233 55.3856 53.641L56.5633 36.0188C56.7825 32.584 56.8943 30.1195 56.8943 28.6235C56.8943 26.5873 56.3631 24.9984 55.2973 23.8577C54.2278 22.717 52.8228 22.1479 51.0824 22.1479C50.9896 22.1479 50.9201 22.1687 50.829 22.1723C50.7425 22.1687 50.6712 22.1479 50.5811 22.1479C48.8371 22.1479 47.4348 22.717 46.3671 23.8577C45.3004 25.0002 44.7656 26.59 44.7656 28.6244C44.7656 30.1204 44.8747 32.5849 45.0975 36.0197L46.2725 53.641ZM50.8732 66.8517C49.1833 66.8517 47.7477 67.3847 46.5556 68.4505C45.3644 69.5173 44.7674 70.8123 44.7674 72.3326C44.7674 74.0487 45.3716 75.3995 46.5709 76.3806C47.7757 77.3617 49.1806 77.8523 50.7867 77.8523C52.4216 77.8523 53.8472 77.3689 55.0664 76.3995C56.2838 75.4329 56.8925 74.0748 56.8925 72.3344C56.8925 70.8141 56.3099 69.5191 55.1449 68.4523C53.9798 67.3847 52.5559 66.8517 50.8705 66.8517" fill="#B0E0D6"/>
</g>
<defs>
<clipPath id="clip0_3758_43813">
<rect width="100" height="100" fill="white" transform="translate(0.828125)"/>
</clipPath>
</defs>
</svg>
