<svg width="142" height="64" viewBox="0 0 142 64" fill="none" xmlns="http://www.w3.org/2000/svg">
<rect width="142" height="64" rx="8" fill="#FEE500"/>
<path fill-rule="evenodd" clip-rule="evenodd" d="M71 12.4761C66.0292 12.4761 62 15.6055 62 19.4651C62 21.8655 63.5584 23.9815 65.9315 25.2401L64.933 28.9069C64.8448 29.2309 65.2134 29.4892 65.4965 29.3014L69.8734 26.3974C70.2427 26.4333 70.6181 26.4542 71 26.4542C75.9705 26.4542 79.9999 23.3249 79.9999 19.4651C79.9999 15.6055 75.9705 12.4761 71 12.4761" fill="black"/>
<path d="M25.5356 40.7656C25.5249 43.6069 24.6548 46.126 21.1421 47.8555L20.5835 47.0928C22.3237 46.2388 23.3603 45.2021 23.9297 43.9829L20.7876 44.2783L20.6372 43.3975L24.2466 43.1558C24.3916 42.6616 24.4721 42.1406 24.5097 41.5928H21.1421V40.7656H25.5356ZM27.0073 49.4023V39.7881H28.0278V43.6338H29.521V44.4717H28.0278V49.4023H27.0073ZM35.1525 40.7656C35.1417 43.6069 34.2716 46.126 30.7589 47.8555L30.2003 47.0928C31.9405 46.2388 32.9772 45.2021 33.5465 43.9829L30.4044 44.2783L30.254 43.3975L33.8634 43.1558C34.0084 42.6616 34.089 42.1406 34.1266 41.5928H30.7589V40.7656H35.1525ZM36.6241 49.4023V39.7881H37.6446V43.6338H39.1378V44.4717H37.6446V49.4023H36.6241ZM44.1462 40.3682C46.2034 40.3735 47.7019 41.3887 47.7019 42.9248C47.7019 44.3643 46.4451 45.3257 44.6511 45.4707V47.3613H48.572V48.21H39.7634V47.3613H43.6414V45.4707C41.8582 45.3257 40.596 44.3643 40.6013 42.9248C40.596 41.3887 42.0999 40.3735 44.1462 40.3682ZM41.5896 42.9248C41.5896 44.0044 42.6638 44.6758 44.1462 44.6865C45.6394 44.6758 46.7083 44.0044 46.7136 42.9248C46.7083 41.8828 45.6394 41.1953 44.1462 41.2061C42.6638 41.1953 41.5896 41.8828 41.5896 42.9248ZM58.1566 44.9443V45.7607H49.3588V44.9443H53.2475V44.0312H50.5082V40.0352H57.0824V40.8408H51.5395V41.625H56.8354V42.3984H51.5395V43.2471H57.1469V44.0312H54.268V44.9443H58.1566ZM50.3578 47.3506V46.5342H57.0395V49.4131H55.9975V47.3506H50.3578ZM63.3799 40.3682C65.3995 40.3682 66.9356 41.437 66.9356 43.0537C66.9356 44.6812 65.3995 45.7446 63.3799 45.7393C61.3658 45.7446 59.8296 44.6812 59.835 43.0537C59.8296 41.437 61.3658 40.3682 63.3799 40.3682ZM58.9971 48.167V47.3184H67.8057V48.167H58.9971ZM60.8125 43.0537C60.8072 44.1763 61.9029 44.9014 63.3799 44.9014C64.8516 44.9014 65.9419 44.1763 65.9473 43.0537C65.9419 41.9365 64.8516 41.1899 63.3799 41.1953C61.9029 41.1899 60.8072 41.9365 60.8125 43.0537ZM77.4225 47.4043V48.2637H68.6139V47.4043H72.4919V45.7178H69.6882V42.6562H75.3386V41.3027H69.6667V40.4648H76.3483V43.4727H70.6979V44.8799H76.5739V45.7178H73.5016V47.4043H77.4225ZM89.0078 39.7988V45.6963H87.9873V39.7988H89.0078ZM81.5097 41.2275V40.3896H85.9355V43.1182H82.5302V44.3213C84.2168 44.3105 85.4467 44.2568 86.913 44.0312L87.042 44.8584C85.4682 45.1162 84.1577 45.1592 82.3369 45.1592H81.5312V42.334H84.9257V41.2275H81.5097ZM82.5195 47.6406C82.5195 46.5181 83.7548 45.8735 85.7959 45.8789C87.8315 45.8735 89.0722 46.5181 89.0722 47.6406C89.0722 48.7524 87.8315 49.397 85.7959 49.3916C83.7548 49.397 82.5195 48.7524 82.5195 47.6406ZM83.5293 47.6406C83.5346 48.2476 84.3671 48.5913 85.7959 48.5859C87.2192 48.5913 88.0517 48.2476 88.0517 47.6406C88.0517 47.0283 87.2192 46.6792 85.7959 46.6846C84.3671 46.6792 83.5346 47.0283 83.5293 47.6406ZM98.3883 40.7227V41.8936C98.3883 43.3008 98.3883 44.6221 97.9693 46.6201L96.9596 46.5234C97.1637 45.6372 97.2711 44.8691 97.3248 44.1548L91.5455 44.4609L91.4166 43.623L97.3731 43.3975C97.3946 42.8818 97.3946 42.3877 97.4 41.8936V41.5605H91.6852V40.7227H98.3883ZM90.6432 48.124V47.2861H99.4195V48.124H90.6432ZM107.395 45.8359C109.479 45.8359 110.795 46.4966 110.801 47.6191C110.795 48.7363 109.479 49.397 107.395 49.3916C105.333 49.397 104.012 48.7363 104.012 47.6191C104.012 46.4966 105.333 45.8359 107.395 45.8359ZM103.066 45.041V44.2139H106.579V42.4092H107.578V44.2139H111.821V45.041H103.066ZM104.087 41.0771V40.2607H110.725V41.0664C110.731 41.8345 110.731 42.6294 110.457 43.623L109.458 43.5156C109.716 42.5327 109.716 41.8237 109.716 41.0771H104.087ZM105.032 47.6191C105.021 48.2422 105.94 48.6021 107.395 48.6074C108.867 48.6021 109.78 48.2422 109.791 47.6191C109.78 46.9854 108.867 46.6147 107.395 46.6094C105.94 46.6147 105.021 46.9854 105.032 47.6191ZM121.47 45.2236V46.0615H119.236V49.4131H118.205V46.0615H115.906V49.4131H114.853V46.0615H112.662V45.2236H121.47ZM113.618 42.2803C113.623 40.9805 115.009 40.1533 117.044 40.1533C119.08 40.1533 120.477 40.9805 120.471 42.2803C120.477 43.564 119.08 44.375 117.044 44.3643C115.009 44.375 113.623 43.564 113.618 42.2803ZM114.67 42.2803C114.665 43.0698 115.616 43.5586 117.044 43.5586C118.479 43.5586 119.424 43.0698 119.429 42.2803C119.424 41.4692 118.479 40.9751 117.044 40.9697C115.616 40.9751 114.665 41.4692 114.67 42.2803Z" fill="black"/>
</svg>
