<svg width="20" height="21" viewBox="0 0 20 21" fill="none" xmlns="http://www.w3.org/2000/svg">
<path fill-rule="evenodd" clip-rule="evenodd" d="M11.3535 0.555564C10.9835 0.403564 10.5135 0.403564 9.57453 0.403564C8.63553 0.403564 8.16553 0.403564 7.79553 0.555564C7.30299 0.757775 6.91091 1.14733 6.70553 1.63856C6.61153 1.86156 6.57553 2.12256 6.56053 2.50156C6.55387 2.77617 6.47727 3.04453 6.33798 3.28128C6.1987 3.51803 6.00133 3.71535 5.76453 3.85456C5.52328 3.98867 5.25208 4.05971 4.97606 4.06111C4.70004 4.06251 4.42814 3.99422 4.18553 3.86256C3.84753 3.68456 3.60253 3.58656 3.36053 3.55456C2.83109 3.48505 2.29561 3.62736 1.87053 3.95056C1.55253 4.19256 1.31753 4.59656 0.848534 5.40356C0.378534 6.21056 0.144534 6.61356 0.0915343 7.00856C0.0215343 7.53456 0.165534 8.06656 0.491534 8.48756C0.639534 8.67956 0.848534 8.84056 1.17153 9.04256C1.64853 9.33956 1.95453 9.84556 1.95453 10.4036C1.95453 10.9616 1.64853 11.4676 1.17253 11.7636C0.848534 11.9666 0.639534 12.1276 0.490534 12.3196C0.329617 12.5275 0.211504 12.7653 0.143019 13.0191C0.0745336 13.273 0.0570351 13.5379 0.0915343 13.7986C0.144534 14.1926 0.378534 14.5966 0.848534 15.4036C1.31853 16.2106 1.55253 16.6136 1.87053 16.8566C2.29453 17.1796 2.83053 17.3216 3.36053 17.2526C3.60253 17.2206 3.84753 17.1226 4.18553 16.9446C4.42826 16.8127 4.70035 16.7443 4.97656 16.7457C5.25277 16.7471 5.52416 16.8183 5.76553 16.9526C6.25153 17.2326 6.53953 17.7476 6.56053 18.3056C6.57553 18.6856 6.61153 18.9456 6.70553 19.1686C6.90953 19.6586 7.30153 20.0486 7.79553 20.2516C8.16553 20.4036 8.63553 20.4036 9.57453 20.4036C10.5135 20.4036 10.9835 20.4036 11.3535 20.2516C11.8461 20.0494 12.2382 19.6598 12.4435 19.1686C12.5375 18.9456 12.5735 18.6856 12.5885 18.3056C12.6085 17.7476 12.8975 17.2316 13.3845 16.9526C13.6258 16.8185 13.897 16.7474 14.173 16.746C14.449 16.7446 14.7209 16.8129 14.9635 16.9446C15.3015 17.1226 15.5465 17.2206 15.7885 17.2526C16.3185 17.3226 16.8545 17.1796 17.2785 16.8566C17.5965 16.6146 17.8315 16.2106 18.3005 15.4036C18.7705 14.5966 19.0045 14.1936 19.0575 13.7986C19.0919 13.5378 19.0742 13.2729 19.0056 13.019C18.9369 12.7652 18.8186 12.5274 18.6575 12.3196C18.5095 12.1276 18.3005 11.9666 17.9775 11.7646C17.5005 11.4676 17.1945 10.9616 17.1945 10.4036C17.1945 9.84556 17.5005 9.33957 17.9765 9.04356C18.3005 8.84056 18.5095 8.67956 18.6585 8.48756C18.8195 8.27962 18.9376 8.04185 19.0061 7.788C19.0745 7.53414 19.092 7.26922 19.0575 7.00856C19.0045 6.61456 18.7705 6.21056 18.3005 5.40356C17.8305 4.59656 17.5965 4.19356 17.2785 3.95056C16.8535 3.62736 16.318 3.48505 15.7885 3.55456C15.5465 3.58656 15.3015 3.68456 14.9635 3.86256C14.7208 3.99439 14.4487 4.06278 14.1725 4.06138C13.8963 4.05998 13.6249 3.98884 13.3835 3.85456C13.1469 3.71522 12.9498 3.51786 12.8107 3.28112C12.6715 3.04437 12.5951 2.77607 12.5885 2.50156C12.5735 2.12156 12.5375 1.86156 12.4435 1.63856C12.3419 1.3953 12.1933 1.17445 12.0063 0.988622C11.8193 0.802797 11.5974 0.655642 11.3535 0.555564ZM9.57453 13.4036C11.2445 13.4036 12.5975 12.0606 12.5975 10.4036C12.5975 8.74656 11.2435 7.40356 9.57453 7.40356C7.90453 7.40356 6.55153 8.74656 6.55153 10.4036C6.55153 12.0606 7.90553 13.4036 9.57453 13.4036Z" fill="#C1C6CC"/>
</svg>
