<svg width="55" height="71" viewBox="0 0 55 71" fill="none" xmlns="http://www.w3.org/2000/svg">
<g clip-path="url(#clip0_2255_114687)">
<path d="M23.5049 38.668C23.5061 38.8994 23.5118 39.13 23.5232 39.3588C24.8153 39.2522 26.1464 39.1952 27.5066 39.1952C26.1227 39.1952 24.7817 39.0113 23.5049 38.668Z" fill="#00C78F"/>
<path d="M23.5049 38.668C23.5061 38.8994 23.5118 39.13 23.5232 39.3588C24.8153 39.2522 26.1464 39.1952 27.5066 39.1952C26.1227 39.1952 24.7817 39.0113 23.5049 38.668Z" fill="#15B193"/>
<path d="M31.4788 39.3585C31.4899 39.1306 31.4953 38.9012 31.4971 38.6709C30.2227 39.0131 28.8841 39.1961 27.5029 39.1961C28.8604 39.1961 30.1891 39.2525 31.4788 39.3585Z" fill="#00C78F"/>
<path d="M31.4788 39.3585C31.4899 39.1306 31.4953 38.9012 31.4971 38.6709C30.2227 39.0131 28.8841 39.1961 27.5029 39.1961C28.8604 39.1961 30.1891 39.2525 31.4788 39.3585Z" fill="#15B193"/>
<path d="M27.5039 28.0928C25.0187 30.8667 23.5049 34.5439 23.5049 38.578C23.5049 38.6086 23.5061 38.6385 23.5061 38.6688C24.7826 39.0119 26.1239 39.196 27.5078 39.196C28.8917 39.196 30.2276 39.0124 31.5017 38.6708C31.5017 38.6397 31.5029 38.6092 31.5029 38.578C31.5029 34.5439 29.9891 30.8673 27.5039 28.0928Z" fill="#6CDDAF"/>
<path d="M27.5039 28.0928C25.0187 30.8667 23.5049 34.5439 23.5049 38.578C23.5049 38.6086 23.5061 38.6385 23.5061 38.6688C24.7826 39.0119 26.1239 39.196 27.5078 39.196C28.8917 39.196 30.2276 39.0124 31.5017 38.6708C31.5017 38.6397 31.5029 38.6092 31.5029 38.578C31.5029 34.5439 29.9891 30.8673 27.5039 28.0928Z" fill="#00C78F"/>
<path d="M27.5023 49.064C25.1788 46.4698 23.7043 43.0869 23.5228 39.3604C13.243 40.2083 5.4541 44.2239 5.4541 48.1443C5.4541 49.9904 7.1821 51.6879 10.084 53.0373C11.9074 53.7983 13.9063 54.2192 16.0018 54.2192C20.5645 54.2192 24.6658 52.2295 27.5023 49.064Z" fill="#00C78F"/>
<path d="M49.5586 48.143C49.5586 44.222 41.7661 40.2049 31.4824 39.3584C31.3009 43.0852 29.8264 46.4684 27.5029 49.0626C30.3388 52.2281 34.4407 54.2178 39.0034 54.2178C41.0845 54.2178 43.069 53.8028 44.8819 53.0523C47.8123 51.6982 49.5586 49.9931 49.5586 48.143Z" fill="#0DA98F"/>
<path d="M23.5195 39.3593C23.701 43.0856 25.1755 46.4687 27.499 49.0629C29.8225 46.4687 31.297 43.0856 31.4785 39.3587C30.1891 39.2527 28.8601 39.1963 27.5029 39.1963C26.1457 39.1963 24.8113 39.2527 23.5195 39.3599V39.3593Z" fill="#00C78F"/>
<path d="M23.5195 39.3593C23.701 43.0856 25.1755 46.4687 27.499 49.0629C29.8225 46.4687 31.297 43.0856 31.4785 39.3587C30.1891 39.2527 28.8601 39.1963 27.5029 39.1963C26.1457 39.1963 24.8113 39.2527 23.5195 39.3599V39.3593Z" fill="#00AC8E"/>
<path d="M27.5017 28.7627C30.3376 25.5966 34.4395 23.6074 39.0022 23.6074C40.3861 23.6074 41.7271 23.7913 43.0039 24.1347C42.9553 15.5384 36.0358 8.58496 27.5056 8.58496C18.9754 8.58496 12.0568 15.5375 12.0073 24.1326C13.2817 23.7904 14.6203 23.6074 16.0015 23.6074C20.5639 23.6074 24.6652 25.5972 27.502 28.7627H27.5017Z" fill="#5FE1B7"/>
<path d="M5.45443 48.8114C5.45443 44.891 13.243 40.8755 23.5231 40.0275C23.5117 39.7987 23.5063 39.5681 23.5048 39.3366C16.8844 37.5563 12.007 31.465 12.007 24.2237C12.007 24.1925 12.0082 24.162 12.0082 24.1309C5.38393 25.9091 0.50293 32.0019 0.50293 39.2459C0.50293 45.7687 4.46023 51.3578 10.084 53.7044C7.18213 52.3544 5.45413 50.6575 5.45413 48.8114H5.45473H5.45443Z" fill="#00D6A2"/>
<path d="M23.5054 39.3384C23.5054 39.3084 23.5042 39.2776 23.5042 39.2476C23.5042 35.2135 25.018 31.5369 27.5032 28.7627C24.6673 25.5966 20.5654 23.6074 16.0027 23.6074C14.6215 23.6074 13.2829 23.791 12.0085 24.1326C12.0085 24.1637 12.0073 24.1943 12.0073 24.2254C12.0073 31.4667 16.8847 37.5575 23.5051 39.3384H23.5054Z" fill="#00CF91"/>
<path d="M54.5041 39.247C54.5041 32.0054 49.627 25.9141 43.0063 24.1338C43.0063 24.1637 43.0075 24.1946 43.0075 24.2246C43.0075 31.4688 38.1265 37.5616 31.5022 39.3398C31.501 39.5701 31.4953 39.7995 31.4839 40.0275C41.7676 40.8737 49.5601 44.8904 49.5601 48.8117C49.5601 50.6622 47.8135 52.367 44.8834 53.7214C50.5279 51.3848 54.5041 45.7843 54.5041 39.2464V39.247Z" fill="#02BDA5"/>
<path d="M27.5029 28.7627C29.9881 31.5363 31.5019 35.2135 31.5019 39.2476C31.5019 39.2787 31.5007 39.3093 31.5007 39.3404C38.125 37.5628 43.006 31.47 43.006 24.2254C43.006 24.1949 43.0051 24.1646 43.0051 24.1347C41.7283 23.7913 40.3873 23.6074 39.0034 23.6074C34.4407 23.6074 30.3394 25.5971 27.5029 28.7627Z" fill="#00AB8E"/>
<path d="M27.5039 28.7627C25.0187 31.5367 23.5049 35.2139 23.5049 39.2479C23.5049 39.2785 23.5061 39.3084 23.5061 39.3387C24.7826 39.6818 26.1239 39.8659 27.5078 39.8659C28.8917 39.8659 30.2276 39.6824 31.5017 39.3408C31.5017 39.3096 31.5029 39.2791 31.5029 39.2479C31.5029 35.2139 29.9891 31.5373 27.5039 28.7627Z" fill="#00B38E"/>
<path d="M27.5033 49.7324C24.6674 52.8979 20.5655 54.8877 16.0028 54.8877C13.9067 54.8877 11.9084 54.4667 10.085 53.7057C14.1191 55.582 20.4215 56.7875 27.5069 56.7875C34.5923 56.7875 40.8461 55.5873 44.882 53.7221C43.0694 54.4726 41.0846 54.8877 39.0035 54.8877C34.4411 54.8877 30.3398 52.8979 27.5033 49.7324Z" fill="#009980"/>
<path d="M27.5023 49.7319C25.1788 47.138 23.7043 43.7552 23.5228 40.0283C13.243 40.8763 5.4541 44.8922 5.4541 48.8123C5.4541 50.6584 7.1821 52.3561 10.084 53.7055C11.9074 54.4663 13.9063 54.8872 16.0018 54.8872C20.5645 54.8872 24.6658 52.8975 27.5023 49.7319Z" fill="#00906D"/>
<path d="M49.5586 48.8129C49.5586 44.8922 41.7661 40.8748 31.4824 40.0283C31.3009 43.7552 29.8264 47.1386 27.5029 49.7325C30.3388 52.8981 34.4407 54.8878 39.0034 54.8878C41.0845 54.8878 43.069 54.4727 44.8819 53.7223C47.8123 52.3682 49.5586 50.6634 49.5586 48.8129Z" fill="#008B6E"/>
<path d="M23.5195 40.028C23.701 43.7542 25.1755 47.1377 27.499 49.7316C29.8225 47.1377 31.297 43.7542 31.4785 40.0277C30.1891 39.9216 28.8601 39.8652 27.5029 39.8652C26.1457 39.8652 24.8113 39.9216 23.5195 40.0285V40.028Z" fill="#008A68"/>
<path d="M33.8864 6.58909C33.8864 3.02645 31.0244 0.125 27.4808 0.125C23.9372 0.125 21.0752 3.01265 21.0752 6.58909C25.2071 5.05083 29.7542 5.05083 33.8861 6.58909H33.8864Z" fill="#32E2BD"/>
<path d="M18.7017 61.2595H18.7152C18.7152 66.1583 22.6467 70.1254 27.5013 70.1254C32.3559 70.1254 36.2874 66.1583 36.2874 61.2595C30.6171 59.1544 24.3855 59.1544 18.7023 61.2595H18.7017Z" fill="#008A74"/>
</g>
<defs>
<clipPath id="clip0_2255_114687">
<rect width="54" height="70" fill="white" transform="translate(0.50293 0.125)"/>
</clipPath>
</defs>
</svg>
