<svg width="21" height="21" viewBox="0 0 21 21" fill="none" xmlns="http://www.w3.org/2000/svg">
<path d="M10.873 2.34912C5.84222 2.34912 1.78516 5.59474 1.78516 9.53496C1.78516 12.0925 3.4729 14.332 6.00451 15.6108L5.14765 18.8111C5.1315 18.859 5.12901 18.9105 5.14048 18.9598C5.15194 19.0091 5.1769 19.0542 5.21257 19.0901C5.26457 19.136 5.33148 19.1614 5.40081 19.1615C5.4583 19.1569 5.51285 19.1342 5.5566 19.0966L9.24367 16.6105C9.78792 16.6856 10.3366 16.7246 10.886 16.7273C15.9102 16.7273 19.9738 13.4817 19.9738 9.53496C19.9738 5.58825 15.8973 2.34912 10.873 2.34912Z" fill="#392020"/>
<path d="M4.96532 8.39897H3.97215C3.84905 8.40254 3.72748 8.37102 3.62162 8.30809C3.57462 8.27864 3.53422 8.23978 3.50294 8.19398C3.47166 8.14818 3.45019 8.09641 3.43987 8.04192C3.43671 8.00737 3.43671 7.97266 3.43987 7.93812C3.43678 7.87347 3.44933 7.809 3.47645 7.75024C3.50357 7.69148 3.54446 7.64015 3.59566 7.60056C3.70882 7.5186 3.84542 7.4753 3.98513 7.47718H6.97763C7.1017 7.47282 7.22411 7.50684 7.32816 7.57456C7.37626 7.60271 7.41752 7.64122 7.44895 7.68724C7.48038 7.73327 7.5012 7.78568 7.50991 7.84073C7.51308 7.87311 7.51308 7.90574 7.50991 7.93812C7.51297 8.00369 7.50045 8.06904 7.47337 8.12885C7.44629 8.18865 7.40543 8.24114 7.35412 8.28209C7.24371 8.36396 7.10844 8.40526 6.97113 8.39897H6.01042V11.8134C6.01432 11.8862 6.00307 11.9589 5.97736 12.027C5.95166 12.0952 5.91208 12.1573 5.86112 12.2094C5.81226 12.2591 5.75352 12.2982 5.68867 12.3239C5.62383 12.3496 5.55432 12.3614 5.48462 12.3587C5.36271 12.3621 5.24339 12.3232 5.14708 12.2484C5.05538 12.1753 4.99315 12.0715 4.97181 11.9562C4.9654 11.9088 4.9654 11.8608 4.97181 11.8134L4.96532 8.39897Z" fill="#FEE500"/>
<path d="M7.79577 7.73025C7.82432 7.62343 7.89137 7.53093 7.98402 7.47058C8.08273 7.41463 8.19522 7.38764 8.30858 7.39269H8.55525C8.67553 7.38838 8.79465 7.4176 8.89929 7.47708C9.01017 7.55164 9.08896 7.66518 9.11999 7.79515L10.4183 11.4628C10.4519 11.5584 10.4801 11.656 10.5026 11.7549C10.5049 11.796 10.5049 11.8371 10.5026 11.8782C10.5048 11.9415 10.4932 12.0045 10.4685 12.0628C10.4439 12.1211 10.4068 12.1733 10.3598 12.2158C10.3144 12.2624 10.2598 12.2991 10.1994 12.3237C10.1391 12.3483 10.0744 12.3601 10.0093 12.3586C9.90918 12.3685 9.80863 12.3445 9.72384 12.2903C9.63905 12.2362 9.57497 12.155 9.54193 12.06L9.26929 11.2616H7.56208L7.28945 12.06C7.2572 12.1569 7.19234 12.2396 7.10594 12.2941C7.01953 12.3485 6.91691 12.3713 6.81558 12.3586C6.70581 12.3614 6.59829 12.3271 6.51049 12.2612C6.42494 12.1931 6.36722 12.0962 6.3482 11.9886C6.34476 11.9519 6.34476 11.9149 6.3482 11.8782C6.33706 11.8138 6.33706 11.7479 6.3482 11.6835C6.3482 11.6121 6.39364 11.5342 6.41961 11.4628L7.79577 7.73025ZM8.4449 8.58065L7.82822 10.528H9.05508L8.4449 8.58065Z" fill="#FEE500"/>
<path d="M10.6529 7.9382C10.6463 7.79253 10.6977 7.65017 10.7957 7.54224C10.8456 7.49196 10.9054 7.45266 10.9714 7.42695C11.0373 7.40123 11.108 7.3896 11.1787 7.39287C11.3003 7.39146 11.419 7.43028 11.5162 7.50326C11.6064 7.5794 11.6663 7.68531 11.685 7.80183C11.6914 7.84704 11.6914 7.89299 11.685 7.9382V11.3526H13.4701C13.5939 11.351 13.7155 11.3847 13.8207 11.4499C13.8679 11.4791 13.9085 11.5179 13.9398 11.5637C13.9712 11.6096 13.9925 11.6615 14.0024 11.7161C14.0024 11.7161 14.0024 11.781 14.0024 11.8135C14.0055 11.8781 13.993 11.9425 13.9658 12.0013C13.9387 12.0601 13.8978 12.1115 13.8466 12.1511C13.7335 12.233 13.5969 12.2762 13.4572 12.2744H11.2631C11.1234 12.2833 10.9845 12.247 10.8671 12.1705C10.7622 12.0921 10.6922 11.9755 10.6724 11.846C10.6676 11.7747 10.6676 11.703 10.6724 11.6317L10.6529 7.9382Z" fill="#FEE500"/>
<path d="M14.118 7.93823C14.1141 7.79298 14.1651 7.6516 14.2608 7.54227C14.3581 7.45386 14.4829 7.40166 14.6141 7.39457C14.7454 7.38747 14.8751 7.42588 14.9813 7.50328C15.0735 7.57876 15.1356 7.68462 15.1566 7.80186C15.1598 7.84724 15.1598 7.89285 15.1566 7.93823V9.52857L16.7989 7.63308C16.8622 7.56841 16.9294 7.50777 17.0001 7.45138C17.0668 7.41168 17.1432 7.39138 17.2208 7.3929C17.3343 7.39228 17.4452 7.42626 17.5389 7.49029C17.583 7.52001 17.6207 7.55835 17.6497 7.60297C17.6787 7.64758 17.6984 7.69756 17.7077 7.74996C17.7103 7.76281 17.7103 7.77609 17.7077 7.78894C17.7045 7.80392 17.7045 7.81936 17.7077 7.83435C17.7074 7.90265 17.6896 7.96977 17.6557 8.02912C17.6213 8.09196 17.5799 8.15068 17.5324 8.20432L16.4548 9.38578L17.7531 11.3981V11.463C17.8205 11.556 17.8731 11.659 17.9089 11.7681V11.8005C17.9164 11.8757 17.9056 11.9517 17.8773 12.0218C17.849 12.0919 17.8042 12.154 17.7466 12.203C17.6383 12.2848 17.5058 12.3283 17.3701 12.3264C17.2799 12.3301 17.1904 12.3099 17.1105 12.2679C17.024 12.2099 16.9528 12.132 16.9027 12.0407L15.6954 10.0933L15.1176 10.697V11.781C15.1215 11.9263 15.0705 12.0677 14.9748 12.177C14.9235 12.2271 14.8625 12.2663 14.7955 12.292C14.7285 12.3176 14.657 12.3294 14.5854 12.3264C14.4656 12.3289 14.3486 12.2898 14.2543 12.216C14.1626 12.1429 14.1004 12.0392 14.079 11.9239C14.0726 11.8765 14.0726 11.8284 14.079 11.781L14.118 7.93823Z" fill="#FEE500"/>
</svg>
