<svg width="69" height="24" viewBox="0 0 69 24" fill="none" xmlns="http://www.w3.org/2000/svg">
<path d="M30.4708 8.99395C31.3262 8.99395 32.0197 8.29859 32.0197 7.44083C32.0197 6.58306 31.3262 5.8877 30.4708 5.8877C29.6153 5.8877 28.9219 6.58306 28.9219 7.44083C28.9219 8.29859 29.6153 8.99395 30.4708 8.99395Z" fill="#00D6A2"/>
<path d="M27.7437 8.61356V19.6284H25.0304V8.61356H20.2695V6.06763H27.74V8.61356H27.7437Z" fill="#293A3A"/>
<path d="M38.8128 10.6856V19.6284H36.536V18.5641C35.9032 19.3463 34.983 19.76 33.9646 19.76C31.8879 19.76 30.4258 18.4964 30.4258 15.7361V10.6819H32.8262V15.3526C32.8262 16.8493 33.4409 17.5149 34.5029 17.5149C35.5649 17.5149 36.4124 16.7515 36.4124 15.1044V10.6819H38.8128V10.6856Z" fill="#293A3A"/>
<path d="M46.3173 19.1961C45.8263 19.5797 45.1025 19.7602 44.3642 19.7602C42.4111 19.7602 41.2727 18.6809 41.2727 16.5524V12.8783H39.9961V10.8852H41.2727V8.70776H43.6732V10.8852H45.7354V12.8783H43.6732V16.5185C43.6732 17.2819 44.0587 17.6994 44.7024 17.6994C45.0552 17.6994 45.4117 17.5828 45.6735 17.3684L46.3209 19.1961H46.3173Z" fill="#293A3A"/>
<path d="M50.2191 7.88785C50.2191 8.74526 49.5462 9.44098 48.7169 9.44098C47.8877 9.44098 47.2148 8.74526 47.2148 7.88785C47.2148 7.03043 47.8877 6.33472 48.7169 6.33472C49.5462 6.33472 50.2191 7.03043 50.2191 7.88785ZM47.5167 10.6857H49.9172V19.6284H47.5167V10.6857Z" fill="#293A3A"/>
<path d="M51.3828 15.1574C51.3828 12.4648 53.3068 10.5544 55.9982 10.5544C57.7367 10.5544 59.1079 11.3705 59.708 12.8334L57.8459 13.9127C57.3985 13.0665 56.7366 12.6829 55.9837 12.6829C54.7689 12.6829 53.8124 13.5968 53.8124 15.1612C53.8124 16.7256 54.7653 17.6394 55.9837 17.6394C56.7366 17.6394 57.3985 17.2746 57.8459 16.4097L59.708 17.5078C59.1079 18.9368 57.7367 19.7679 55.9982 19.7679C53.3068 19.7679 51.3828 17.8575 51.3828 15.1649V15.1574Z" fill="#293A3A"/>
<path d="M68.8929 15.8906H62.6298C62.859 17.0038 63.7392 17.6845 65.0012 17.6845C65.8777 17.6845 66.5106 17.4024 67.078 16.8195L68.3546 18.3162C67.5835 19.2639 66.4306 19.7641 64.9394 19.7641C62.077 19.7641 60.2148 17.8198 60.2148 15.1611C60.2148 12.5023 62.1061 10.5581 64.6302 10.5581C67.1543 10.5581 68.9401 12.3218 68.9401 15.1949C68.9401 15.3942 68.911 15.6763 68.8929 15.8944V15.8906ZM62.5971 14.3789H66.6743C66.5069 13.2469 65.7213 12.5174 64.6448 12.5174C63.5682 12.5174 62.7681 13.2319 62.5971 14.3789Z" fill="#293A3A"/>
<g clip-path="url(#clip0_3141_76471)">
<path d="M7.71875 12.8984C7.71913 12.9735 7.72093 13.0482 7.72454 13.1224C8.1336 13.0879 8.55501 13.0694 8.98562 13.0694C8.5475 13.0694 8.12296 13.0098 7.71875 12.8984Z" fill="#00C78F"/>
<path d="M7.71875 12.8984C7.71913 12.9735 7.72093 13.0482 7.72454 13.1224C8.1336 13.0879 8.55501 13.0694 8.98562 13.0694C8.5475 13.0694 8.12296 13.0098 7.71875 12.8984Z" fill="#15B193"/>
<path d="M10.2431 13.1221C10.2466 13.0482 10.2483 12.9738 10.2489 12.8992C9.84542 13.0101 9.42164 13.0694 8.98438 13.0694C9.41414 13.0694 9.83478 13.0877 10.2431 13.1221Z" fill="#00C78F"/>
<path d="M10.2431 13.1221C10.2466 13.0482 10.2483 12.9738 10.2489 12.8992C9.84542 13.0101 9.42164 13.0694 8.98438 13.0694C9.41414 13.0694 9.83478 13.0877 10.2431 13.1221Z" fill="#15B193"/>
<path d="M8.98477 9.46948C8.198 10.3689 7.71875 11.5611 7.71875 12.8691C7.71875 12.879 7.71913 12.8887 7.71913 12.8985C8.12325 13.0097 8.54788 13.0694 8.986 13.0694C9.42412 13.0694 9.84705 13.0099 10.2504 12.8992C10.2504 12.8891 10.2508 12.8792 10.2508 12.8691C10.2508 11.5611 9.77154 10.3691 8.98477 9.46948Z" fill="#6CDDAF"/>
<path d="M8.98477 9.46948C8.198 10.3689 7.71875 11.5611 7.71875 12.8691C7.71875 12.879 7.71913 12.8887 7.71913 12.8985C8.12325 13.0097 8.54788 13.0694 8.986 13.0694C9.42412 13.0694 9.84705 13.0099 10.2504 12.8992C10.2504 12.8891 10.2508 12.8792 10.2508 12.8691C10.2508 11.5611 9.77154 10.3691 8.98477 9.46948Z" fill="#00C78F"/>
<path d="M8.98401 16.2687C8.24843 15.4276 7.78163 14.3308 7.72417 13.1226C4.46975 13.3975 2.00391 14.6994 2.00391 15.9705C2.00391 16.5691 2.55096 17.1195 3.46966 17.557C4.04692 17.8037 4.67974 17.9402 5.34314 17.9402C6.78762 17.9402 8.08602 17.2951 8.98401 16.2687Z" fill="#00C78F"/>
<path d="M15.9669 15.9705C15.9669 14.6992 13.4999 13.3968 10.2442 13.1223C10.1868 14.3306 9.71996 15.4276 8.98438 16.2687C9.88218 17.295 11.1808 17.9401 12.6252 17.9401C13.2841 17.9401 13.9124 17.8056 14.4863 17.5622C15.414 17.1232 15.9669 16.5704 15.9669 15.9705Z" fill="#0DA98F"/>
<path d="M7.72656 13.1224C7.78402 14.3306 8.25083 15.4275 8.98641 16.2686C9.72199 15.4275 10.1888 14.3306 10.2463 13.1222C9.83805 13.0879 9.41731 13.0696 8.98764 13.0696C8.55797 13.0696 8.13553 13.0879 7.72656 13.1226V13.1224Z" fill="#00C78F"/>
<path d="M7.72656 13.1224C7.78402 14.3306 8.25083 15.4275 8.98641 16.2686C9.72199 15.4275 10.1888 14.3306 10.2463 13.1222C9.83805 13.0879 9.41731 13.0696 8.98764 13.0696C8.55797 13.0696 8.13553 13.0879 7.72656 13.1226V13.1224Z" fill="#00AC8E"/>
<path d="M8.98731 9.68666C9.88511 8.66013 11.1837 8.0152 12.6282 8.0152C13.0663 8.0152 13.4908 8.07481 13.8951 8.18614C13.8797 5.39901 11.6891 3.14453 8.98854 3.14453C6.28802 3.14453 4.0977 5.39873 4.08203 8.18548C4.48549 8.07453 4.90927 8.0152 5.34653 8.0152C6.79091 8.0152 8.08932 8.66032 8.9874 9.68666H8.98731Z" fill="#5FE1B7"/>
<path d="M2.00507 16.1871C2.00507 14.916 4.47081 13.6141 7.72533 13.3391C7.72172 13.265 7.72001 13.1902 7.71953 13.1152C5.62362 12.5379 4.07951 10.563 4.07951 8.21515C4.07951 8.20506 4.07989 8.19515 4.07989 8.18506C1.98275 8.76161 0.4375 10.7371 0.4375 13.0857C0.4375 15.2006 1.69032 17.0127 3.47072 17.7735C2.55203 17.3358 2.00497 16.7857 2.00497 16.1871H2.00516H2.00507Z" fill="#00D6A2"/>
<path d="M7.71824 13.1153C7.71824 13.1056 7.71786 13.0956 7.71786 13.0858C7.71786 11.7779 8.1971 10.5858 8.98388 9.68635C8.08608 8.65982 6.78748 8.01489 5.343 8.01489C4.90574 8.01489 4.48196 8.07441 4.0785 8.18517C4.0785 8.19527 4.07812 8.20517 4.07812 8.21527C4.07812 10.5631 5.62223 12.5379 7.71814 13.1153H7.71824Z" fill="#00CF91"/>
<path d="M17.5339 13.0859C17.5339 10.738 15.9899 8.76301 13.8939 8.18579C13.8939 8.1955 13.8943 8.2055 13.8943 8.21522C13.8943 10.564 12.349 12.5394 10.2519 13.116C10.2515 13.1906 10.2497 13.265 10.2461 13.3389C13.5017 13.6133 15.9687 14.9156 15.9687 16.187C15.9687 16.787 15.4158 17.3397 14.4882 17.7788C16.2751 17.0213 17.5339 15.2054 17.5339 13.0857V13.0859Z" fill="#02BDA5"/>
<path d="M8.98438 9.68635C9.77115 10.5856 10.2504 11.7779 10.2504 13.0858C10.2504 13.0959 10.25 13.1058 10.25 13.1159C12.3472 12.5396 13.8924 10.5641 13.8924 8.21527C13.8924 8.20536 13.8921 8.19555 13.8921 8.18584C13.4879 8.07451 13.0634 8.01489 12.6252 8.01489C11.1808 8.01489 9.88237 8.66001 8.98438 9.68635Z" fill="#00AB8E"/>
<path d="M8.98477 9.68677C8.198 10.5862 7.71875 11.7784 7.71875 13.0863C7.71875 13.0963 7.71913 13.106 7.71913 13.1158C8.12325 13.227 8.54788 13.2867 8.986 13.2867C9.42412 13.2867 9.84705 13.2272 10.2504 13.1164C10.2504 13.1063 10.2508 13.0964 10.2508 13.0863C10.2508 11.7784 9.77154 10.5864 8.98477 9.68677Z" fill="#00B38E"/>
<path d="M8.98701 16.4856C8.08921 17.5119 6.79061 18.1571 5.34614 18.1571C4.68255 18.1571 4.04992 18.0206 3.47266 17.7738C4.74979 18.3822 6.74503 18.773 8.98815 18.773C11.2313 18.773 13.2111 18.3839 14.4888 17.7792C13.915 18.0225 13.2866 18.1571 12.6278 18.1571C11.1834 18.1571 9.885 17.5119 8.98701 16.4856Z" fill="#009980"/>
<path d="M8.98401 16.4853C8.24843 15.6443 7.78163 14.5474 7.72417 13.3391C4.46975 13.6141 2.00391 14.9161 2.00391 16.1871C2.00391 16.7856 2.55096 17.3361 3.46966 17.7736C4.04692 18.0203 4.67974 18.1567 5.34314 18.1567C6.78762 18.1567 8.08602 17.5116 8.98401 16.4853Z" fill="#00906D"/>
<path d="M15.9669 16.1873C15.9669 14.9161 13.4999 13.6136 10.2442 13.3391C10.1868 14.5474 9.71996 15.6445 8.98438 16.4855C9.88218 17.5118 11.1808 18.1569 12.6252 18.1569C13.2841 18.1569 13.9124 18.0224 14.4863 17.779C15.414 17.34 15.9669 16.7873 15.9669 16.1873Z" fill="#008B6E"/>
<path d="M7.72656 13.3394C7.78402 14.5475 8.25083 15.6445 8.98641 16.4855C9.72199 15.6445 10.1888 14.5475 10.2463 13.3393C9.83805 13.3049 9.41731 13.2866 8.98764 13.2866C8.55797 13.2866 8.13553 13.3049 7.72656 13.3396V13.3394Z" fill="#008A68"/>
<path d="M11.005 2.49743C11.005 1.34234 10.099 0.401611 8.97713 0.401611C7.85528 0.401611 6.94922 1.33786 6.94922 2.49743C8.25731 1.99869 9.69685 1.99869 11.0049 2.49743H11.005Z" fill="#32E2BD"/>
<path d="M6.19922 20.2228H6.20349C6.20349 21.8112 7.44814 23.0974 8.98503 23.0974C10.5219 23.0974 11.7666 21.8112 11.7666 20.2228C9.97144 19.5403 7.99862 19.5403 6.19941 20.2228H6.19922Z" fill="#008A74"/>
</g>
<defs>
<clipPath id="clip0_3141_76471">
<rect width="17.0955" height="22.6958" fill="white" transform="translate(0.4375 0.401611)"/>
</clipPath>
</defs>
</svg>
