<svg width="42" height="56" viewBox="0 0 42 56" fill="none" xmlns="http://www.w3.org/2000/svg">
<g clip-path="url(#clip0_1057_1815)">
<path d="M17.6484 30.3652C17.6494 30.5471 17.6537 30.7283 17.6625 30.908C18.6538 30.8243 19.675 30.7795 20.7185 30.7795C19.6568 30.7795 18.628 30.635 17.6484 30.3652Z" fill="#00C78F"/>
<path d="M17.6484 30.3652C17.6494 30.5471 17.6537 30.7283 17.6625 30.908C18.6538 30.8243 19.675 30.7795 20.7185 30.7795C19.6568 30.7795 18.628 30.635 17.6484 30.3652Z" fill="#15B193"/>
<path d="M23.7651 30.9072C23.7737 30.7281 23.7778 30.5479 23.7792 30.3669C22.8015 30.6358 21.7745 30.7796 20.7148 30.7796C21.7563 30.7796 22.7757 30.8239 23.7651 30.9072Z" fill="#00C78F"/>
<path d="M23.7651 30.9072C23.7737 30.7281 23.7778 30.5479 23.7792 30.3669C22.8015 30.6358 21.7745 30.7796 20.7148 30.7796C21.7563 30.7796 22.7757 30.8239 23.7651 30.9072Z" fill="#15B193"/>
<path d="M20.7165 22.0559C18.8098 24.2355 17.6484 27.1247 17.6484 30.2943C17.6484 30.3183 17.6494 30.3419 17.6494 30.3656C18.6287 30.6352 19.6577 30.7799 20.7194 30.7799C21.7812 30.7799 22.8061 30.6356 23.7836 30.3672C23.7836 30.3428 23.7845 30.3188 23.7845 30.2943C23.7845 27.1247 22.6231 24.2359 20.7165 22.0559Z" fill="#6CDDAF"/>
<path d="M20.7165 22.0559C18.8098 24.2355 17.6484 27.1247 17.6484 30.2943C17.6484 30.3183 17.6494 30.3419 17.6494 30.3656C18.6287 30.6352 19.6577 30.7799 20.7194 30.7799C21.7812 30.7799 22.8061 30.6356 23.7836 30.3672C23.7836 30.3428 23.7845 30.3188 23.7845 30.2943C23.7845 27.1247 22.6231 24.2359 20.7165 22.0559Z" fill="#00C78F"/>
<path d="M20.7122 38.533C18.9296 36.4947 17.7984 33.8367 17.6591 30.9087C9.77249 31.575 3.79688 34.7301 3.79688 37.8104C3.79688 39.2609 5.12259 40.5946 7.34892 41.6548C8.74782 42.2528 10.2814 42.5835 11.889 42.5835C15.3895 42.5835 18.536 41.0202 20.7122 38.533Z" fill="#00C78F"/>
<path d="M37.6359 37.8099C37.6359 34.7291 31.6575 31.5728 23.7679 30.9077C23.6287 33.8359 22.4974 36.4941 20.7148 38.5325C22.8905 41.0196 26.0375 42.583 29.538 42.583C31.1346 42.583 32.6571 42.2569 34.0479 41.6672C36.2961 40.6033 37.6359 39.2636 37.6359 37.8099Z" fill="#0DA98F"/>
<path d="M17.6602 30.9081C17.7994 33.8359 18.9306 36.4941 20.7132 38.5324C22.4958 36.4941 23.627 33.8359 23.7663 30.9077C22.777 30.8243 21.7574 30.78 20.7162 30.78C19.675 30.78 18.6512 30.8243 17.6602 30.9086V30.9081Z" fill="#00C78F"/>
<path d="M17.6602 30.9081C17.7994 33.8359 18.9306 36.4941 20.7132 38.5324C22.4958 36.4941 23.627 33.8359 23.7663 30.9077C22.777 30.8243 21.7574 30.78 20.7162 30.78C19.675 30.78 18.6512 30.8243 17.6602 30.9086V30.9081Z" fill="#00AC8E"/>
<path d="M20.7154 22.5819C22.8911 20.0943 26.038 18.5314 29.5385 18.5314C30.6002 18.5314 31.629 18.6759 32.6086 18.9457C32.5713 12.1914 27.2627 6.72803 20.7184 6.72803C14.174 6.72803 8.8661 12.1908 8.82812 18.944C9.80584 18.6752 10.8328 18.5314 11.8925 18.5314C15.3927 18.5314 18.5392 20.0947 20.7156 22.5819H20.7154Z" fill="#5FE1B7"/>
<path d="M3.79877 38.3352C3.79877 35.2549 9.77416 32.0998 17.661 31.4336C17.6523 31.2538 17.6481 31.0726 17.647 30.8907C12.5678 29.4919 8.8259 24.7059 8.8259 19.0163C8.8259 18.9918 8.82682 18.9678 8.82682 18.9434C3.74468 20.3405 0 25.1278 0 30.8194C0 35.9445 3.03602 40.3359 7.35058 42.1797C5.12426 41.119 3.79854 39.7857 3.79854 38.3352H3.799H3.79877Z" fill="#00D6A2"/>
<path d="M17.6455 30.891C17.6455 30.8675 17.6446 30.8433 17.6446 30.8197C17.6446 27.6501 18.806 24.7613 20.7126 22.5815C18.5369 20.0939 15.39 18.531 11.8895 18.531C10.8298 18.531 9.80285 18.6752 8.82514 18.9437C8.82514 18.9681 8.82422 18.9921 8.82422 19.0166C8.82422 24.7062 12.5661 29.4918 17.6453 30.891H17.6455Z" fill="#00CF91"/>
<path d="M41.4305 30.8195C41.4305 25.1297 37.6888 20.3436 32.6095 18.9448C32.6095 18.9684 32.6104 18.9926 32.6104 19.0161C32.6104 24.708 28.8657 29.4953 23.7836 30.8924C23.7826 31.0734 23.7783 31.2536 23.7695 31.4327C31.6591 32.0976 37.6375 35.2536 37.6375 38.3346C37.6375 39.7886 36.2975 41.1281 34.0496 42.1922C38.38 40.3563 41.4305 35.9559 41.4305 30.819V30.8195Z" fill="#02BDA5"/>
<path d="M20.7148 22.5815C22.6215 24.7609 23.7829 27.6501 23.7829 30.8197C23.7829 30.8442 23.7819 30.8682 23.7819 30.8926C28.8641 29.4959 32.6088 24.7087 32.6088 19.0166C32.6088 18.9926 32.6081 18.9688 32.6081 18.9453C31.6285 18.6755 30.5997 18.531 29.538 18.531C26.0375 18.531 22.891 20.0944 20.7148 22.5815Z" fill="#00AB8E"/>
<path d="M20.7165 22.5823C18.8098 24.7618 17.6484 27.651 17.6484 30.8207C17.6484 30.8447 17.6494 30.8682 17.6494 30.892C18.6287 31.1616 19.6577 31.3063 20.7194 31.3063C21.7812 31.3063 22.8061 31.162 23.7836 30.8936C23.7836 30.8691 23.7845 30.8451 23.7845 30.8207C23.7845 27.651 22.6231 24.7623 20.7165 22.5823Z" fill="#00B38E"/>
<path d="M20.7148 39.0583C18.5391 41.5455 15.3922 43.1089 11.8917 43.1089C10.2836 43.1089 8.75047 42.7782 7.35156 42.1802C10.4465 43.6545 15.2817 44.6016 20.7176 44.6016C26.1535 44.6016 30.9514 43.6586 34.0477 42.1931C32.6571 42.7828 31.1343 43.1089 29.5377 43.1089C26.0375 43.1089 22.891 41.5455 20.7148 39.0583Z" fill="#009980"/>
<path d="M20.7122 39.0576C18.9296 37.0195 17.7984 34.3616 17.6591 31.4333C9.77249 32.0996 3.79688 35.255 3.79688 38.335C3.79688 39.7855 5.12259 41.1195 7.34892 42.1797C8.74782 42.7775 10.2814 43.1082 11.889 43.1082C15.3895 43.1082 18.536 41.5448 20.7122 39.0576Z" fill="#00906D"/>
<path d="M37.6359 38.3355C37.6359 35.255 31.6575 32.0985 23.7679 31.4333C23.6287 34.3616 22.4974 37.02 20.7148 39.0581C22.8905 41.5453 26.0375 43.1086 29.538 43.1086C31.1346 43.1086 32.6571 42.7825 34.0479 42.1929C36.2961 41.1289 37.6359 39.7895 37.6359 38.3355Z" fill="#008B6E"/>
<path d="M17.6602 31.4338C17.7994 34.3615 18.9306 37.02 20.7132 39.058C22.4958 37.02 23.627 34.3615 23.7663 31.4335C22.777 31.3502 21.7574 31.3059 20.7162 31.3059C19.675 31.3059 18.6512 31.3502 17.6602 31.4342V31.4338Z" fill="#008A68"/>
<path d="M25.61 5.15998C25.61 2.36077 23.4142 0.0810547 20.6956 0.0810547C17.977 0.0810547 15.7812 2.34992 15.7812 5.15998C18.9512 3.95135 22.4397 3.95135 25.6097 5.15998H25.61Z" fill="#32E2BD"/>
<path d="M13.9609 48.115H13.9713C13.9713 51.9641 16.9875 55.0811 20.712 55.0811C24.4364 55.0811 27.4526 51.9641 27.4526 48.115C23.1024 46.461 18.3215 46.461 13.9614 48.115H13.9609Z" fill="#008A74"/>
</g>
<defs>
<clipPath id="clip0_1057_1815">
<rect width="41.4286" height="55" fill="white" transform="translate(0 0.0810547)"/>
</clipPath>
</defs>
</svg>
