<svg width="218" height="217" viewBox="0 0 218 217" fill="none" xmlns="http://www.w3.org/2000/svg">
<circle opacity="0.08" cx="108.998" cy="108.743" r="108.237" fill="#00D6A2"/>
<circle opacity="0.08" cx="108.998" cy="108.743" r="82.0804" fill="#00D6A2"/>
<circle opacity="0.08" cx="108.998" cy="108.743" r="56.564" fill="#00D6A2"/>
<g clip-path="url(#clip0_1057_59598)">
<path d="M105.355 116.925C105.357 117.302 105.367 117.677 105.385 118.05C107.467 117.876 109.611 117.783 111.803 117.783C109.573 117.783 107.413 117.484 105.355 116.925Z" fill="#00C78F"/>
<path d="M105.355 116.925C105.357 117.302 105.367 117.677 105.385 118.05C107.467 117.876 109.611 117.783 111.803 117.783C109.573 117.783 107.413 117.484 105.355 116.925Z" fill="#15B193"/>
<path d="M118.202 118.049C118.22 117.677 118.229 117.304 118.232 116.929C116.179 117.486 114.022 117.784 111.797 117.784C113.984 117.784 116.125 117.876 118.202 118.049Z" fill="#00C78F"/>
<path d="M118.202 118.049C118.22 117.677 118.229 117.304 118.232 116.929C116.179 117.486 114.022 117.784 111.797 117.784C113.984 117.784 116.125 117.876 118.202 118.049Z" fill="#15B193"/>
<path d="M111.798 99.7024C107.794 104.22 105.355 110.209 105.355 116.778C105.355 116.828 105.357 116.877 105.357 116.926C107.414 117.485 109.575 117.785 111.805 117.785C114.034 117.785 116.186 117.486 118.239 116.93C118.239 116.879 118.241 116.829 118.241 116.778C118.241 110.209 115.802 104.221 111.798 99.7024Z" fill="#6CDDAF"/>
<path d="M111.798 99.7024C107.794 104.22 105.355 110.209 105.355 116.778C105.355 116.828 105.357 116.877 105.357 116.926C107.414 117.485 109.575 117.785 111.805 117.785C114.034 117.785 116.186 117.486 118.239 116.93C118.239 116.879 118.241 116.829 118.241 116.778C118.241 110.209 115.802 104.221 111.798 99.7024Z" fill="#00C78F"/>
<path d="M111.796 133.854C108.052 129.629 105.677 124.12 105.384 118.051C88.8222 119.432 76.2734 125.972 76.2734 132.357C76.2734 135.363 79.0574 138.127 83.7327 140.325C86.6704 141.565 89.8909 142.25 93.267 142.25C100.618 142.25 107.226 139.01 111.796 133.854Z" fill="#00C78F"/>
<path d="M147.331 132.356C147.331 125.97 134.776 119.428 118.208 118.049C117.916 124.119 115.54 129.628 111.797 133.853C116.366 139.009 122.974 142.249 130.325 142.249C133.678 142.249 136.876 141.573 139.796 140.351C144.518 138.146 147.331 135.369 147.331 132.356Z" fill="#0DA98F"/>
<path d="M105.379 118.051C105.671 124.119 108.047 129.629 111.79 133.854C115.534 129.629 117.909 124.119 118.202 118.05C116.124 117.877 113.983 117.785 111.797 117.785C109.61 117.785 107.46 117.877 105.379 118.052V118.051Z" fill="#00C78F"/>
<path d="M105.379 118.051C105.671 124.119 108.047 129.629 111.79 133.854C115.534 129.629 117.909 124.119 118.202 118.05C116.124 117.877 113.983 117.785 111.797 117.785C109.61 117.785 107.46 117.877 105.379 118.052V118.051Z" fill="#00AC8E"/>
<path d="M111.795 100.792C116.364 95.6363 122.973 92.3968 130.324 92.3968C132.553 92.3968 134.714 92.6963 136.771 93.2555C136.693 79.2558 125.545 67.9316 111.802 67.9316C98.0584 67.9316 86.9118 79.2544 86.832 93.2521C88.8852 92.6948 91.0419 92.3968 93.2671 92.3968C100.618 92.3968 107.225 95.6372 111.796 100.792H111.795Z" fill="#5FE1B7"/>
<path d="M76.2743 133.444C76.2743 127.059 88.8226 120.52 105.385 119.139C105.367 118.766 105.358 118.391 105.355 118.014C94.6893 115.114 86.8313 105.194 86.8313 93.4012C86.8313 93.3505 86.8332 93.3007 86.8332 93.25C76.1607 96.146 68.2969 106.069 68.2969 117.866C68.2969 128.489 74.6725 137.591 83.7331 141.413C79.0578 139.214 76.2738 136.451 76.2738 133.444H76.2748H76.2743Z" fill="#00D6A2"/>
<path d="M105.357 118.015C105.357 117.967 105.355 117.916 105.355 117.868C105.355 111.298 107.794 105.31 111.798 100.792C107.229 95.6359 100.62 92.3965 93.2691 92.3965C91.0438 92.3965 88.8872 92.6955 86.834 93.2518C86.834 93.3025 86.832 93.3522 86.832 93.4029C86.832 105.196 94.6901 115.115 105.356 118.015H105.357Z" fill="#00CF91"/>
<path d="M155.299 117.867C155.299 106.073 147.441 96.1532 136.775 93.2539C136.775 93.3027 136.777 93.3529 136.777 93.4017C136.777 105.199 128.913 115.122 118.24 118.018C118.238 118.393 118.229 118.767 118.211 119.138C134.779 120.516 147.334 127.058 147.334 133.444C147.334 136.457 144.52 139.234 139.799 141.439C148.893 137.634 155.299 128.513 155.299 117.866V117.867Z" fill="#02BDA5"/>
<path d="M111.797 100.792C115.801 105.309 118.24 111.298 118.24 117.868C118.24 117.918 118.238 117.968 118.238 118.019C128.91 115.124 136.774 105.201 136.774 93.4029C136.774 93.3532 136.773 93.3039 136.773 93.2551C134.716 92.6959 132.555 92.3965 130.325 92.3965C122.974 92.3965 116.367 95.6369 111.797 100.792Z" fill="#00AB8E"/>
<path d="M111.798 100.793C107.794 105.31 105.355 111.299 105.355 117.869C105.355 117.918 105.357 117.967 105.357 118.017C107.414 118.575 109.575 118.875 111.805 118.875C114.034 118.875 116.186 118.576 118.239 118.02C118.239 117.969 118.241 117.919 118.241 117.869C118.241 111.299 115.802 105.311 111.798 100.793Z" fill="#00B38E"/>
<path d="M111.797 134.944C107.228 140.099 100.62 143.34 93.2686 143.34C89.8916 143.34 86.6721 142.654 83.7344 141.415C90.2338 144.47 100.388 146.434 111.803 146.434C123.218 146.434 133.294 144.479 139.796 141.441C136.876 142.664 133.678 143.34 130.325 143.34C122.975 143.34 116.367 140.099 111.797 134.944Z" fill="#009980"/>
<path d="M111.796 134.942C108.052 130.718 105.677 125.208 105.384 119.139C88.8222 120.52 76.2734 127.06 76.2734 133.444C76.2734 136.451 79.0574 139.216 83.7327 141.413C86.6704 142.652 89.8909 143.338 93.267 143.338C100.618 143.338 107.226 140.097 111.796 134.942Z" fill="#00906D"/>
<path d="M147.331 133.445C147.331 127.06 134.776 120.518 118.208 119.139C117.916 125.208 115.54 130.719 111.797 134.943C116.366 140.098 122.974 143.339 130.325 143.339C133.678 143.339 136.876 142.663 139.796 141.44C144.518 139.235 147.331 136.459 147.331 133.445Z" fill="#008B6E"/>
<path d="M105.379 119.14C105.671 125.208 108.047 130.718 111.79 134.943C115.534 130.718 117.909 125.208 118.202 119.139C116.124 118.967 113.983 118.875 111.797 118.875C109.61 118.875 107.46 118.967 105.379 119.141V119.14Z" fill="#008A68"/>
<path d="M122.082 64.6815C122.082 58.8795 117.471 54.1543 111.762 54.1543C106.052 54.1543 101.441 58.857 101.441 64.6815C108.098 62.1764 115.424 62.1764 122.081 64.6815H122.082Z" fill="#32E2BD"/>
<path d="M97.6172 153.716H97.6389C97.6389 161.694 103.973 168.154 111.794 168.154C119.616 168.154 125.95 161.694 125.95 153.716C116.814 150.287 106.774 150.287 97.6182 153.716H97.6172Z" fill="#008A74"/>
</g>
<defs>
<clipPath id="clip0_1057_59598">
<rect width="87" height="114" fill="white" transform="translate(68.2969 54.1543)"/>
</clipPath>
</defs>
</svg>
