<svg width="293" height="41" viewBox="0 0 293 41" fill="none" xmlns="http://www.w3.org/2000/svg">
<path d="M0.525391 8.51954C0.525391 4.10126 4.10711 0.519531 8.52539 0.519531H284.525C288.944 0.519531 292.525 4.10125 292.525 8.51953V32.5194C292.525 36.9377 288.944 40.5195 284.525 40.5195H8.52539C4.10712 40.5195 0.525391 36.9377 0.525391 32.5195V8.51954Z" fill="#F1F3F5"/>
<path d="M4.49829 12.5195C4.49829 8.10125 8.08001 4.51953 12.4983 4.51953H131.573C135.991 4.51953 139.573 8.10125 139.573 12.5195V28.5195C139.573 32.9378 135.991 36.5195 131.573 36.5195H12.4983C8.08002 36.5195 4.49829 32.9378 4.49829 28.5195V12.5195Z" fill="white"/>
<path d="M54.563 15.5117C54.5562 17.1387 56.5454 18.6631 58.9517 18.9844L58.4458 20.0508C56.4429 19.7295 54.686 18.6904 53.8862 17.248C53.0864 18.6904 51.3296 19.7295 49.3403 20.0508L48.8208 18.9844C51.2202 18.6631 53.2026 17.1592 53.2095 15.5117V14.8418H54.563V15.5117ZM48.2876 22.3203V21.2539H59.4575V22.3203H54.481V26.6816H53.2095V22.3203H48.2876ZM63.7778 14.9922C65.3911 14.9785 66.6421 15.915 66.9087 17.2891H69.3013V14.4316H70.6001V21.0078H69.3013V18.3555H66.9155C66.6626 19.7637 65.4048 20.707 63.7778 20.707C61.9048 20.707 60.5581 19.5244 60.5649 17.8359C60.5581 16.168 61.9048 14.9785 63.7778 14.9922ZM61.8091 17.8359C61.8022 18.8818 62.6226 19.6133 63.7778 19.6133C64.9126 19.6133 65.7192 18.8818 65.7192 17.8359C65.7192 16.7832 64.9126 16.0654 63.7778 16.0723C62.6226 16.0654 61.8022 16.7832 61.8091 17.8359ZM62.6157 26.5312V21.5957H63.9009V23.0176H69.3013V21.5957H70.6001V26.5312H62.6157ZM63.9009 25.4648H69.3013V24.043H63.9009V25.4648ZM82.9731 14.4316V26.6816H81.729V20.4062H80.1567V26.0527H78.9399V14.6777H80.1567V19.3398H81.729V14.4316H82.9731ZM73.061 23.5645V15.8809H74.3599V22.4229C75.4878 22.4092 76.7251 22.3203 78.1196 22.0469L78.2563 23.1816C76.5747 23.4824 75.1733 23.5713 73.854 23.5645H73.061ZM94.7993 22.293V26.6816H93.5005V23.3184H86.5005V22.293H94.7993ZM84.7642 18.0684C84.7573 16.3389 86.1313 15.1084 87.9771 15.1152C89.0161 15.1084 89.9116 15.5117 90.479 16.1816H93.5005V14.4316H94.7993V21.6504H93.5005V19.9688H90.479C89.9048 20.6387 89.0161 21.042 87.9771 21.0352C86.1313 21.042 84.7573 19.8115 84.7642 18.0684ZM86.0083 18.0684C86.0015 19.1895 86.8286 19.9346 87.9771 19.9414C89.0776 19.9346 89.9185 19.1895 89.9185 18.0684C89.9185 16.9746 89.0776 16.2158 87.9771 16.209C86.8286 16.2158 86.0015 16.9746 86.0083 18.0684ZM91.0464 18.9023H93.5005V17.248H91.0532C91.1216 17.5078 91.1626 17.7812 91.1626 18.0684C91.1626 18.3623 91.1216 18.6426 91.0464 18.9023Z" fill="black"/>
<path d="M207.425 14.4316V21.0078H206.126V14.4316H207.425ZM197.513 17.8359C197.52 16.1543 198.901 14.9854 200.781 14.9922C202.654 14.9854 204.035 16.1543 204.035 17.8359C204.035 19.5107 202.654 20.6797 200.781 20.666C198.901 20.6797 197.52 19.5107 197.513 17.8359ZM198.785 17.8359C198.778 18.8955 199.619 19.5996 200.781 19.5996C201.929 19.5996 202.763 18.8955 202.763 17.8359C202.763 16.79 201.929 16.0791 200.781 16.0859C199.619 16.0791 198.778 16.79 198.785 17.8359ZM199.414 26.5312V21.5957H200.685V22.9766H206.14V21.5957H207.425V26.5312H199.414ZM200.685 25.4648H206.14V24.002H200.685V25.4648ZM219.156 15.0469V15.9766C219.163 16.9336 219.163 18.041 218.841 19.5176H220.578V20.584H209.367V19.5176H217.529C217.857 18.0889 217.871 17.043 217.871 16.1133H210.775V15.0469H219.156ZM210.734 26.5312V22.1426H219.169V26.5312H210.734ZM212.005 25.4785H217.884V23.168H212.005V25.4785ZM231.953 14.4316V26.6816H230.708V20.4062H229.136V26.0527H227.919V14.6777H229.136V19.3398H230.708V14.4316H231.953ZM222.041 23.5645V15.8809H223.339V22.4229C224.467 22.4092 225.705 22.3203 227.099 22.0469L227.236 23.1816C225.554 23.4824 224.153 23.5713 222.833 23.5645H222.041ZM243.779 22.293V26.6816H242.48V23.3184H235.48V22.293H243.779ZM233.744 18.0684C233.737 16.3389 235.111 15.1084 236.957 15.1152C237.996 15.1084 238.891 15.5117 239.458 16.1816H242.48V14.4316H243.779V21.6504H242.48V19.9688H239.458C238.884 20.6387 237.996 21.042 236.957 21.0352C235.111 21.042 233.737 19.8115 233.744 18.0684ZM234.988 18.0684C234.981 19.1895 235.808 19.9346 236.957 19.9414C238.057 19.9346 238.898 19.1895 238.898 18.0684C238.898 16.9746 238.057 16.2158 236.957 16.209C235.808 16.2158 234.981 16.9746 234.988 18.0684ZM240.026 18.9023H242.48V17.248H240.033C240.101 17.5078 240.142 17.7812 240.142 18.0684C240.142 18.3623 240.101 18.6426 240.026 18.9023Z" fill="#899199"/>
</svg>
