<svg width="293" height="40" viewBox="0 0 293 40" fill="none" xmlns="http://www.w3.org/2000/svg">
<path d="M0.101562 8.00001C0.101562 3.58173 3.68328 0 8.10156 0H284.102C288.52 0 292.102 3.58172 292.102 8V31.9999C292.102 36.4182 288.52 39.9999 284.102 39.9999H8.10157C3.68329 39.9999 0.101562 36.4182 0.101562 31.9999V8.00001Z" fill="#F1F3F5"/>
<path d="M153.054 12C153.054 7.58172 156.635 4 161.054 4H280.129C284.547 4 288.129 7.58172 288.129 12V28C288.129 32.4183 284.547 36 280.129 36H161.054C156.635 36 153.054 32.4183 153.054 28V12Z" fill="white"/>
<path d="M207.004 13.912V20.492H205.716V13.912H207.004ZM197.092 17.328C197.092 15.634 198.478 14.472 200.368 14.472C202.23 14.472 203.616 15.634 203.616 17.328C203.616 18.994 202.23 20.156 200.368 20.156C198.478 20.156 197.092 18.994 197.092 17.328ZM198.352 17.328C198.352 18.378 199.192 19.078 200.368 19.092C201.502 19.078 202.342 18.378 202.328 17.328C202.342 16.264 201.502 15.564 200.368 15.564C199.192 15.564 198.352 16.264 198.352 17.328ZM198.996 26.008V21.08H200.256V22.452H205.716V21.08H207.004V26.008H198.996ZM200.256 24.944H205.716V23.488H200.256V24.944ZM218.739 14.528V15.452C218.739 16.418 218.739 17.51 218.431 19.008H220.167V20.072H208.939V19.008H217.101C217.437 17.58 217.451 16.53 217.451 15.592H210.339V14.528H218.739ZM210.311 26.008V21.612H218.739V26.008H210.311ZM211.571 24.944H217.451V22.648H211.571V24.944ZM231.539 13.912V26.148H230.279V19.904H228.711V25.532H227.507V14.164H228.711V18.812H230.279V13.912H231.539ZM221.627 23.04V15.368H222.915V21.892C224.049 21.892 225.281 21.794 226.667 21.528L226.807 22.648C225.127 22.97 223.727 23.054 222.411 23.04H221.627ZM243.358 21.78V26.148H242.07V22.788H235.042V21.78H243.358ZM233.334 17.552C233.32 15.816 234.692 14.584 236.526 14.584C237.562 14.584 238.444 14.99 239.018 15.648H242.07V13.912H243.358V21.136H242.07V19.456H239.018C238.444 20.114 237.562 20.52 236.526 20.52C234.692 20.52 233.32 19.288 233.334 17.552ZM234.566 17.552C234.552 18.672 235.378 19.414 236.526 19.428C237.632 19.414 238.472 18.672 238.486 17.552C238.472 16.46 237.632 15.69 236.526 15.704C235.378 15.69 234.552 16.46 234.566 17.552ZM239.592 18.392H242.07V16.712H239.592C239.676 16.978 239.718 17.258 239.718 17.552C239.718 17.846 239.676 18.126 239.592 18.392Z" fill="black"/>
<path d="M59.0979 14.976C59.0979 16.614 61.0859 18.14 63.4939 18.476L62.9899 19.54C60.9739 19.218 59.2239 18.168 58.4259 16.712C57.6279 18.168 55.8779 19.218 53.8899 19.54L53.3579 18.476C55.7659 18.14 57.7399 16.642 57.7539 14.976V14.332H59.0979V14.976ZM52.8259 21.808V20.716H63.9979V21.808H59.0139V26.148H57.7539V21.808H52.8259ZM68.3135 14.472C69.9235 14.458 71.1695 15.396 71.4495 16.768H73.8575V13.912H75.1455V20.492H73.8575V17.832H71.4635C71.2115 19.232 69.9515 20.184 68.3135 20.184C66.4515 20.184 65.1075 19.008 65.1215 17.328C65.1075 15.648 66.4515 14.458 68.3135 14.472ZM66.3535 17.328C66.3395 18.364 67.1655 19.092 68.3135 19.092C69.4475 19.092 70.2595 18.364 70.2735 17.328C70.2595 16.264 69.4475 15.55 68.3135 15.564C67.1655 15.55 66.3395 16.264 66.3535 17.328ZM67.1655 26.008V21.08H68.4535V22.508H73.8575V21.08H75.1455V26.008H67.1655ZM68.4535 24.944H73.8575V23.516H68.4535V24.944ZM87.5251 13.912V26.148H86.2651V19.904H84.6971V25.532H83.4931V14.164H84.6971V18.812H86.2651V13.912H87.5251ZM77.6131 23.04V15.368H78.9011V21.892C80.0351 21.892 81.2671 21.794 82.6531 21.528L82.7931 22.648C81.1131 22.97 79.7131 23.054 78.3971 23.04H77.6131ZM99.3448 21.78V26.148H98.0568V22.788H91.0288V21.78H99.3448ZM89.3208 17.552C89.3068 15.816 90.6788 14.584 92.5128 14.584C93.5488 14.584 94.4308 14.99 95.0048 15.648H98.0568V13.912H99.3448V21.136H98.0568V19.456H95.0048C94.4308 20.114 93.5488 20.52 92.5128 20.52C90.6788 20.52 89.3068 19.288 89.3208 17.552ZM90.5528 17.552C90.5388 18.672 91.3648 19.414 92.5128 19.428C93.6188 19.414 94.4588 18.672 94.4728 17.552C94.4588 16.46 93.6188 15.69 92.5128 15.704C91.3648 15.69 90.5388 16.46 90.5528 17.552ZM95.5788 18.392H98.0568V16.712H95.5788C95.6628 16.978 95.7048 17.258 95.7048 17.552C95.7048 17.846 95.6628 18.126 95.5788 18.392Z" fill="#899199"/>
</svg>
