<svg width="20" height="20" viewBox="0 0 20 20" fill="none" xmlns="http://www.w3.org/2000/svg">
<circle cx="10" cy="10" r="9" fill="#A9AEB3"/>
<path d="M6.21547 6.21596C6.28491 6.14641 6.36738 6.09124 6.45817 6.0536C6.54895 6.01596 6.64627 5.99658 6.74455 5.99658C6.84283 5.99658 6.94014 6.01596 7.03093 6.0536C7.12171 6.09124 7.20418 6.14641 7.27363 6.21596L9.98891 8.93024L12.7042 6.21596C12.7737 6.14648 12.8562 6.09136 12.9469 6.05376C13.0377 6.01616 13.135 5.9968 13.2333 5.9968C13.3315 5.9968 13.4288 6.01616 13.5196 6.05376C13.6104 6.09136 13.6929 6.14648 13.7624 6.21596C13.8318 6.28544 13.887 6.36792 13.9246 6.4587C13.9622 6.54948 13.9815 6.64678 13.9815 6.74504C13.9815 6.8433 13.9622 6.94059 13.9246 7.03137C13.887 7.12215 13.8318 7.20464 13.7624 7.27412L11.0481 9.9894L13.7624 12.7047C13.9027 12.845 13.9815 13.0353 13.9815 13.2338C13.9815 13.4322 13.9027 13.6225 13.7624 13.7628C13.622 13.9032 13.4317 13.982 13.2333 13.982C13.0348 13.982 12.8445 13.9032 12.7042 13.7628L9.98891 11.0486L7.27363 13.7628C7.13331 13.9032 6.94299 13.982 6.74455 13.982C6.5461 13.982 6.35579 13.9032 6.21547 13.7628C6.07515 13.6225 5.99631 13.4322 5.99631 13.2338C5.99631 13.0353 6.07515 12.845 6.21547 12.7047L8.92975 9.9894L6.21547 7.27412C6.14592 7.20467 6.09075 7.1222 6.05311 7.03142C6.01547 6.94063 5.99609 6.84332 5.99609 6.74504C5.99609 6.64676 6.01547 6.54944 6.05311 6.45866C6.09075 6.36787 6.14592 6.2854 6.21547 6.21596Z" fill="#F1F3F5"/>
</svg>
