<svg width="81" height="29" viewBox="0 0 81 29" fill="none" xmlns="http://www.w3.org/2000/svg">
<rect x="0.5" y="0.5" width="80" height="28" rx="7.5" fill="#0DA98E"/>
<path d="M16.8186 9.22363V16.3672H15.4544V14.0469H13.22C12.7473 14.5464 12.0706 14.8525 11.3079 14.8525C9.82547 14.8525 8.69754 13.7783 8.70828 12.3281C8.69754 10.8564 9.82547 9.7876 11.3079 9.78223C12.0652 9.7876 12.742 10.0884 13.2146 10.5879H15.4544V9.22363H16.8186ZM10.0081 12.3281C10.0027 13.1445 10.5452 13.6387 11.3079 13.6387C12.0276 13.6387 12.5808 13.1445 12.5862 12.3281C12.5808 11.501 12.0276 11.0068 11.3079 11.0068C10.5452 11.0068 10.0027 11.501 10.0081 12.3281ZM10.3304 18.8164V15.6475H11.7054V17.7207H17.055V18.8164H10.3304ZM13.8055 11.6836C13.8592 11.8877 13.886 12.1025 13.886 12.3281C13.886 12.543 13.8592 12.7524 13.8108 12.9512H15.4544V11.6836H13.8055ZM23.9699 9.86816V10.9639H22.0256C22.031 12.1025 22.7238 13.2036 24.2814 13.6602L23.6262 14.7344C22.5466 14.4067 21.7946 13.7461 21.3649 12.9136C20.9299 13.8965 20.135 14.6807 18.9641 15.0674L18.2658 13.9824C19.8879 13.4722 20.6237 12.2046 20.6398 10.9639H18.6418V9.86816H23.9699ZM19.6193 17.0869C19.614 15.8945 20.903 15.2017 22.9709 15.207C25.0065 15.2017 26.2634 15.8945 26.2688 17.0869C26.2634 18.2847 25.0065 18.9937 22.9709 18.9883C20.903 18.9937 19.614 18.2847 19.6193 17.0869ZM20.9943 17.0869C20.9836 17.6455 21.6872 17.9248 22.9709 17.9248C24.2385 17.9248 24.9152 17.6455 24.9152 17.0869C24.9152 16.5391 24.2385 16.2651 22.9709 16.2705C21.6872 16.2651 20.9836 16.5391 20.9943 17.0869ZM24.7971 15.0137V9.21289H26.1721V11.4795H27.4934V12.5967H26.1721V15.0137H24.7971ZM33.8145 9.90039C34.6954 9.90039 35.4258 10.3784 35.8716 11.2217H38.0147V9.21289H39.3682V19.0098H38.0147V15.3467H35.9737C35.5386 16.3135 34.7598 16.8721 33.8145 16.8721C32.3321 16.8721 31.2686 15.5293 31.2793 13.3809C31.2686 11.2485 32.3321 9.90039 33.8145 9.90039ZM32.5899 13.3809C32.5845 14.8364 33.084 15.6313 33.8145 15.626C34.5503 15.6313 35.0391 14.8364 35.0391 13.3809C35.0391 11.9307 34.5503 11.1357 33.8145 11.1357C33.084 11.1357 32.5845 11.9307 32.5899 13.3809ZM36.253 12.3281C36.3174 12.6504 36.3496 13.0049 36.3496 13.3809C36.3496 13.687 36.3282 13.9771 36.2852 14.251H38.0147V12.3281H36.253ZM49.8925 14.8525V15.9268H46.0683V18.9883H44.7148V15.9268H40.9443V14.8525H49.8925ZM41.997 13.9072V9.58887H43.3505V10.7168H47.4541V9.58887H48.8291V13.9072H41.997ZM43.3505 12.8115H47.4541V11.791H43.3505V12.8115ZM62.5945 13.6816V14.7988H53.657V13.6816H62.5945ZM54.6775 17.1836C54.6775 16.0342 55.9666 15.3843 58.1043 15.3896C60.2259 15.3843 61.4988 16.0342 61.5096 17.1836C61.4988 18.3384 60.2259 18.9937 58.1043 18.9883C55.9666 18.9937 54.6775 18.3384 54.6775 17.1836ZM54.742 12.9941V9.4707H61.5203V10.5771H56.1063V11.9092H61.574V12.9941H54.742ZM56.074 17.1836C56.0687 17.6992 56.7508 17.9463 58.1043 17.9463C59.431 17.9463 60.1292 17.6992 60.1346 17.1836C60.1292 16.6895 59.431 16.4316 58.1043 16.4316C56.7508 16.4316 56.0687 16.6895 56.074 17.1836ZM72.4314 14.4551V15.5508H63.4831V14.4551H67.2751V13.7461H64.6003V11.0605H69.9714V10.459H64.5788V9.39551H71.3464V12.0488H65.9646V12.6934H71.529V13.7461H68.6394V14.4551H72.4314ZM64.4822 17.1836V16.1094H71.4001V18.9453H70.0144V17.1836H64.4822Z" fill="white"/>
<rect x="0.5" y="0.5" width="80" height="28" rx="7.5" stroke="#45B9A2"/>
</svg>
