<svg width="293" height="28" viewBox="0 0 293 28" fill="none" xmlns="http://www.w3.org/2000/svg">
<rect x="0.599609" width="292" height="28" rx="8" fill="#DFF3EF"/>
<circle opacity="0.6" cx="27.0518" cy="7.79785" r="2.10059" fill="#FF623D"/>
<circle cx="27.0518" cy="7.79785" r="1.25098" fill="#FF623D"/>
<path d="M17.9979 7.79785C17.5277 7.79785 17.1477 8.16942 17.1477 8.62933V9.12822C15.2081 9.51278 13.7468 11.1913 13.7468 13.2025V13.691C13.7468 14.9122 13.2872 16.0919 12.4582 17.0065L12.2616 17.2222C12.0384 17.4664 11.9853 17.8172 12.1208 18.116C12.2563 18.4148 12.5618 18.6071 12.8966 18.6071H23.0993C23.4341 18.6071 23.737 18.4148 23.8751 18.116C24.0133 17.8172 23.9575 17.4664 23.7343 17.2222L23.5377 17.0065C22.7087 16.0919 22.2491 14.9148 22.2491 13.691V13.2025C22.2491 11.1913 20.7878 9.51278 18.8482 9.12822V8.62933C18.8482 8.16942 18.4682 7.79785 17.9979 7.79785ZM19.2016 20.6157C19.5204 20.3039 19.6984 19.8803 19.6984 19.4386H16.2975C16.2975 19.8803 16.4755 20.3039 16.7943 20.6157C17.1132 20.9275 17.5463 21.1016 17.9979 21.1016C18.4496 21.1016 18.8827 20.9275 19.2016 20.6157Z" fill="#7DCDBD"/>
<path d="M41.3996 10.84C41.3996 12.01 42.8196 13.1 44.5396 13.34L44.1796 14.1C42.7396 13.87 41.4896 13.12 40.9196 12.08C40.3496 13.12 39.0996 13.87 37.6796 14.1L37.2996 13.34C39.0196 13.1 40.4296 12.03 40.4396 10.84V10.38H41.3996V10.84ZM36.9196 15.72V14.94H44.8996V15.72H41.3396V18.82H40.4396V15.72H36.9196ZM47.9822 10.48C49.1322 10.47 50.0222 11.14 50.2222 12.12H51.9422V10.08H52.8622V14.78H51.9422V12.88H50.2322C50.0522 13.88 49.1522 14.56 47.9822 14.56C46.6522 14.56 45.6922 13.72 45.7022 12.52C45.6922 11.32 46.6522 10.47 47.9822 10.48ZM46.5822 12.52C46.5722 13.26 47.1622 13.78 47.9822 13.78C48.7922 13.78 49.3722 13.26 49.3822 12.52C49.3722 11.76 48.7922 11.25 47.9822 11.26C47.1622 11.25 46.5722 11.76 46.5822 12.52ZM47.1622 18.72V15.2H48.0822V16.22H51.9422V15.2H52.8622V18.72H47.1622ZM48.0822 17.96H51.9422V16.94H48.0822V17.96ZM61.5048 10.08V16.54H60.5848V14.26H58.3948C57.9848 14.75 57.3548 15.05 56.6248 15.06C55.3148 15.05 54.3348 14.13 54.3448 12.84C54.3348 11.55 55.3148 10.63 56.6248 10.62C57.3448 10.63 57.9648 10.92 58.3848 11.4H60.5848V10.08H61.5048ZM55.2248 12.84C55.2148 13.67 55.8048 14.23 56.6248 14.24C57.4148 14.23 58.0148 13.67 58.0248 12.84C58.0148 12.02 57.4148 11.45 56.6248 11.44C55.8048 11.45 55.2148 12.02 55.2248 12.84ZM55.8248 18.64V15.86H56.7448V17.9H61.7248V18.64H55.8248ZM58.8048 12.16C58.8648 12.37 58.9048 12.6 58.9048 12.84C58.9048 13.07 58.8648 13.29 58.8048 13.5H60.5848V12.16H58.8048ZM65.9073 11.7C65.9073 12.8 66.6773 13.82 68.0073 14.24L67.5673 14.96C66.5673 14.65 65.8373 13.99 65.4573 13.15C65.0773 14.11 64.3073 14.87 63.2473 15.24L62.7873 14.5C64.1473 14.05 64.9673 12.91 64.9873 11.7V11.46H63.0473V10.7H67.7873V11.46H65.9073V11.7ZM63.9673 17.18C63.9673 16.14 65.0773 15.54 66.9073 15.54C68.7073 15.54 69.8073 16.14 69.8073 17.18C69.8073 18.21 68.7073 18.82 66.9073 18.82C65.0773 18.82 63.9673 18.21 63.9673 17.18ZM64.8873 17.18C64.8873 17.76 65.6373 18.08 66.9073 18.08C68.1573 18.08 68.8973 17.76 68.9073 17.18C68.8973 16.6 68.1573 16.28 66.9073 16.28C65.6373 16.28 64.8873 16.6 64.8873 17.18ZM68.8073 15.34V10.08H69.7273V12.24H70.9873V13.02H69.7273V15.34H68.8073Z" fill="#212529"/>
<path d="M76.3113 10.74C77.1113 10.74 77.7613 11.19 78.1413 11.98H80.3113V10.08H81.2313V18.84H80.3113V15.48H78.2113C77.8413 16.37 77.1613 16.88 76.3113 16.88C75.0013 16.88 74.0813 15.69 74.0913 13.8C74.0813 11.93 75.0013 10.74 76.3113 10.74ZM74.9713 13.8C74.9713 15.19 75.5113 16.05 76.3113 16.04C77.1013 16.05 77.6413 15.19 77.6513 13.8C77.6413 12.43 77.1013 11.57 76.3113 11.56C75.5113 11.57 74.9713 12.43 74.9713 13.8ZM78.4013 12.74C78.4713 13.06 78.5113 13.42 78.5113 13.8C78.5113 14.14 78.4813 14.45 78.4313 14.74H80.3113V12.74H78.4013ZM90.5739 15.22V15.96H86.9939V18.82H86.0939V15.96H82.5739V15.22H90.5739ZM83.5539 14.24V10.44H84.4739V11.58H88.6539V10.44H89.5739V14.24H83.5539ZM84.4739 13.48H88.6539V12.32H84.4739V13.48ZM99.2165 14.1V14.8H91.2165V14.1H99.2165ZM92.1565 16.08V15.42H98.2365V17.34H93.0965V18.06H98.4965V18.72H92.1765V16.72H97.3165V16.08H92.1565ZM92.2165 10.96V10.3H98.2165V12.2H93.1565V12.86H98.3565V13.52H92.2365V11.58H97.2765V10.96H92.2165ZM104.92 12.76C104.92 14.14 105.56 15.55 106.76 16.2L106.24 16.88C105.4 16.43 104.81 15.59 104.49 14.6C104.18 15.66 103.59 16.58 102.74 17.08L102.2 16.38C103.42 15.67 104.04 14.18 104.04 12.76V12.4H102.46V11.66H104.04V10.4H104.92V11.66H106.48V12.4H104.92V12.76ZM105.9 14.26V13.48H107.16V10.26H108.04V18.38H107.16V14.26H105.9ZM108.92 18.82V10.08H109.8V18.82H108.92ZM117.983 10.92V12C117.983 13.28 117.983 14.47 117.603 16.28L116.683 16.2C116.863 15.4 116.963 14.7 117.013 14.05L111.763 14.32L111.643 13.58L117.063 13.35C117.073 12.89 117.083 12.44 117.083 12V11.7H111.883V10.92H117.983ZM110.943 17.66V16.9H118.923V17.66H110.943ZM126.406 10.08V13.62H127.806V14.4H126.406V18.82H125.486V10.08H126.406ZM119.546 12.2V11.46H121.706V10.2H122.626V11.46H124.726V12.2H119.546ZM119.986 14.88C119.986 13.69 120.906 12.85 122.166 12.86C123.416 12.85 124.336 13.69 124.346 14.88C124.336 16.09 123.416 16.92 122.166 16.92C120.906 16.92 119.986 16.09 119.986 14.88ZM120.886 14.88C120.876 15.64 121.416 16.15 122.166 16.14C122.906 16.15 123.456 15.64 123.466 14.88C123.456 14.14 122.906 13.62 122.166 13.62C121.416 13.62 120.876 14.14 120.886 14.88ZM131.448 12.66C131.448 14.12 132.408 15.63 133.768 16.2L133.248 16.94C132.218 16.48 131.408 15.52 130.998 14.36C130.588 15.6 129.768 16.67 128.748 17.16L128.208 16.42C129.528 15.81 130.508 14.16 130.508 12.66V11.72H128.508V10.96H133.448V11.72H131.448V12.66ZM134.548 18.82V10.08H135.488V18.82H134.548ZM141.752 10.56C143.072 10.55 144.042 11.39 144.052 12.58C144.042 13.77 143.072 14.61 141.752 14.62C140.432 14.61 139.442 13.77 139.452 12.58C139.442 11.39 140.432 10.55 141.752 10.56ZM140.192 18.6V15.34H141.092V17.83C141.612 17.8 142.202 17.73 142.752 17.54L142.912 18.28C142.082 18.56 141.302 18.59 140.632 18.6H140.192ZM140.352 12.58C140.342 13.33 140.952 13.85 141.752 13.86C142.542 13.85 143.142 13.33 143.152 12.58C143.142 11.84 142.542 11.32 141.752 11.32C140.952 11.32 140.342 11.84 140.352 12.58ZM142.592 16.08V15.38H144.352V14.66H145.272V15.38H147.012V16.08H142.592ZM143.152 17.58C143.142 16.83 143.822 16.34 144.792 16.34C145.772 16.34 146.452 16.83 146.452 17.58C146.452 18.34 145.772 18.82 144.792 18.82C143.822 18.82 143.142 18.34 143.152 17.58ZM143.972 17.58C143.972 17.94 144.322 18.16 144.792 18.16C145.272 18.16 145.622 17.94 145.612 17.58C145.622 17.23 145.272 17.01 144.792 17C144.322 17.01 143.972 17.23 143.972 17.58ZM145.272 14.44V10.08H146.192V12H147.452V12.76H146.192V14.44H145.272ZM155.935 14.64V15.4H147.955V14.64H155.935ZM148.815 12.12C148.815 11.02 150.035 10.37 151.935 10.38C153.835 10.37 155.065 11.02 155.055 12.12C155.065 13.23 153.835 13.89 151.935 13.9C150.035 13.89 148.815 13.23 148.815 12.12ZM148.975 18.64V16.1H149.895V17.9H155.035V18.64H148.975ZM149.775 12.12C149.765 12.77 150.605 13.14 151.935 13.14C153.285 13.14 154.115 12.77 154.115 12.12C154.115 11.49 153.285 11.12 151.935 11.12C150.605 11.12 149.765 11.49 149.775 12.12ZM167.219 13.52V14.28H165.859V18.82H164.939V10.08H165.859V13.52H167.219ZM159.379 16.62V10.94H160.299V15.86C161.519 15.85 162.799 15.74 164.179 15.46L164.279 16.24C162.789 16.54 161.409 16.63 160.099 16.62H159.379ZM175.681 15.1V15.86H172.101V18.82H171.201V15.86H167.681V15.1H175.681ZM168.681 14V10.54H174.681V14H168.681ZM169.581 13.26H173.761V11.3H169.581V13.26ZM183.144 10.08V13.56H184.504V14.34H183.144V18.82H182.224V10.08H183.144ZM176.324 16.48C178.524 15.39 179.714 13.82 179.914 11.78H176.764V11H180.864C180.854 13.53 179.734 15.79 176.844 17.2L176.324 16.48ZM190.448 15.86C190.448 16.61 190.828 17.4 191.608 17.88C192.408 17.37 192.808 16.53 192.808 15.86V15.44H193.728V15.86C193.718 16.77 194.318 17.65 195.448 18.02L194.988 18.7C194.128 18.41 193.538 17.82 193.238 17.1C192.968 17.81 192.448 18.45 191.648 18.78C190.798 18.47 190.268 17.85 189.998 17.13C189.678 17.82 189.098 18.4 188.268 18.7L187.808 18.02C188.938 17.62 189.538 16.71 189.548 15.86V15.44H190.448V15.86ZM187.588 12.64C187.588 11.41 188.578 10.57 189.928 10.58C191.258 10.57 192.248 11.41 192.248 12.64C192.248 13.85 191.258 14.69 189.928 14.7C188.578 14.69 187.588 13.85 187.588 12.64ZM188.488 12.64C188.488 13.4 189.088 13.92 189.928 13.92C190.738 13.92 191.338 13.4 191.328 12.64C191.338 11.87 190.738 11.35 189.928 11.36C189.088 11.35 188.488 11.87 188.488 12.64ZM193.748 15.06V10.08H194.668V15.06H193.748ZM198.43 10.74C199.62 10.74 200.48 11.75 200.61 13.36H202.43V10.08H203.35V18.84H202.43V14.12H200.62C200.52 15.82 199.65 16.88 198.43 16.88C197.12 16.88 196.2 15.69 196.21 13.8C196.2 11.93 197.12 10.74 198.43 10.74ZM197.09 13.8C197.09 15.19 197.63 16.05 198.43 16.04C199.22 16.05 199.76 15.19 199.77 13.8C199.76 12.43 199.22 11.57 198.43 11.56C197.63 11.57 197.09 12.43 197.09 13.8ZM212.713 16.96V17.74H204.693V16.96H206.613V14.68C205.893 14.29 205.453 13.66 205.453 12.88C205.453 11.5 206.803 10.59 208.673 10.58C210.563 10.59 211.913 11.5 211.913 12.88C211.913 13.64 211.493 14.26 210.793 14.66V16.96H212.713ZM206.353 12.88C206.353 13.81 207.303 14.42 208.673 14.42C210.043 14.42 211.013 13.81 211.013 12.88C211.013 11.93 210.043 11.33 208.673 11.34C207.303 11.33 206.353 11.93 206.353 12.88ZM207.533 16.96H209.853V15.01C209.493 15.1 209.093 15.14 208.673 15.14C208.263 15.14 207.883 15.1 207.533 15.02V16.96ZM214.956 10.92L214.856 15.96H213.896L213.816 10.92H214.956ZM213.696 17.38C213.696 16.99 214.016 16.68 214.396 16.68C214.766 16.68 215.086 16.99 215.076 17.38C215.086 17.76 214.766 18.07 214.396 18.06C214.016 18.07 213.696 17.76 213.696 17.38Z" fill="#5B6166"/>
<path d="M270.291 9.6981C270.168 9.82499 270.1 9.99706 270.1 10.1765C270.1 10.3559 270.168 10.528 270.291 10.6548L273.523 14.0041L270.291 17.3533C270.172 17.4809 270.106 17.6519 270.108 17.8293C270.109 18.0067 270.178 18.1764 270.299 18.3018C270.42 18.4273 270.584 18.4984 270.755 18.5C270.926 18.5015 271.091 18.4333 271.214 18.3101L274.908 14.4825C275.031 14.3556 275.1 14.1835 275.1 14.0041C275.1 13.8247 275.031 13.6526 274.908 13.5257L271.214 9.6981C271.092 9.57126 270.926 9.5 270.753 9.5C270.579 9.5 270.413 9.57126 270.291 9.6981Z" fill="#7DCDBD"/>
</svg>
