<svg width="293" height="28" viewBox="0 0 293 28" fill="none" xmlns="http://www.w3.org/2000/svg">
<rect x="0.599609" width="292" height="28" rx="8" fill="#DFF3EF"/>
<circle opacity="0.6" cx="27.0518" cy="7.79785" r="2.10059" fill="#FF623D"/>
<circle cx="27.0518" cy="7.79785" r="1.25098" fill="#FF623D"/>
<path d="M17.9979 7.79785C17.5277 7.79785 17.1477 8.16942 17.1477 8.62933V9.12822C15.2081 9.51278 13.7468 11.1913 13.7468 13.2025V13.691C13.7468 14.9122 13.2872 16.0919 12.4582 17.0065L12.2616 17.2222C12.0384 17.4664 11.9853 17.8172 12.1208 18.116C12.2563 18.4148 12.5618 18.6071 12.8966 18.6071H23.0993C23.4341 18.6071 23.737 18.4148 23.8751 18.116C24.0133 17.8172 23.9575 17.4664 23.7343 17.2222L23.5377 17.0065C22.7087 16.0919 22.2491 14.9148 22.2491 13.691V13.2025C22.2491 11.1913 20.7878 9.51278 18.8482 9.12822V8.62933C18.8482 8.16942 18.4682 7.79785 17.9979 7.79785ZM19.2016 20.6157C19.5204 20.3039 19.6984 19.8803 19.6984 19.4386H16.2975C16.2975 19.8803 16.4755 20.3039 16.7943 20.6157C17.1132 20.9275 17.5463 21.1016 17.9979 21.1016C18.4496 21.1016 18.8827 20.9275 19.2016 20.6157Z" fill="#7DCDBD"/>
<path d="M39.2596 10.74C40.5796 10.74 41.5096 11.93 41.5196 13.8C41.5096 15.69 40.5796 16.88 39.2596 16.88C37.9596 16.88 37.0196 15.69 37.0396 13.8C37.0196 11.93 37.9596 10.74 39.2596 10.74ZM37.9196 13.8C37.9096 15.19 38.4696 16.05 39.2596 16.04C40.0796 16.05 40.6196 15.19 40.6196 13.8C40.6196 12.43 40.0796 11.57 39.2596 11.56C38.4696 11.57 37.9096 12.43 37.9196 13.8ZM42.8196 18.82V10.08H43.7396V13.5H45.1396V14.3H43.7396V18.82H42.8196ZM48.8022 11.64C48.8022 12.78 49.6422 13.85 51.0022 14.28L50.5222 15C49.5122 14.67 48.7522 13.97 48.3522 13.1C47.9622 14.05 47.1822 14.8 46.1422 15.16L45.6622 14.46C47.0222 13.98 47.8622 12.84 47.8622 11.64V11.4H45.9022V10.66H50.7222V11.4H48.8022V11.64ZM46.9022 16.56V15.8H52.8222V18.82H51.9022V16.56H46.9022ZM51.9022 15.36V10.08H52.8222V15.36H51.9022ZM77.9113 10.22C79.8913 10.22 81.0413 10.76 81.0313 11.72C81.0413 12.71 79.8913 13.24 77.9113 13.24C75.9413 13.24 74.7913 12.71 74.7913 11.72C74.7913 10.76 75.9413 10.22 77.9113 10.22ZM73.9313 14.52V13.78H81.9113V14.52H73.9313ZM74.8913 15.9V15.2H80.9113V17.24H75.8113V18.02H81.1513V18.74H74.9113V16.58H79.9913V15.9H74.8913ZM75.7513 11.72C75.7513 12.27 76.5213 12.55 77.9113 12.56C79.3213 12.55 80.0913 12.27 80.0913 11.72C80.0913 11.21 79.3213 10.91 77.9113 10.92C76.5213 10.91 75.7513 11.21 75.7513 11.72ZM87.6353 12.76C87.6353 14.14 88.2753 15.55 89.4753 16.2L88.9553 16.88C88.1153 16.43 87.5253 15.59 87.2053 14.6C86.8953 15.66 86.3053 16.58 85.4553 17.08L84.9153 16.38C86.1353 15.67 86.7553 14.18 86.7553 12.76V12.4H85.1753V11.66H86.7553V10.4H87.6353V11.66H89.1953V12.4H87.6353V12.76ZM88.6153 14.26V13.48H89.8753V10.26H90.7553V18.38H89.8753V14.26H88.6153ZM91.6353 18.82V10.08H92.5153V18.82H91.6353ZM100.698 10.92V12C100.698 13.28 100.698 14.47 100.318 16.28L99.3979 16.2C99.5779 15.4 99.6779 14.7 99.7279 14.05L94.4779 14.32L94.3579 13.58L99.7779 13.35C99.7879 12.89 99.7979 12.44 99.7979 12V11.7H94.5979V10.92H100.698ZM93.6579 17.66V16.9H101.638V17.66H93.6579ZM109.12 10.08V13.62H110.52V14.4H109.12V18.82H108.2V10.08H109.12ZM102.26 12.2V11.46H104.42V10.2H105.34V11.46H107.44V12.2H102.26ZM102.7 14.88C102.7 13.69 103.62 12.85 104.88 12.86C106.13 12.85 107.05 13.69 107.06 14.88C107.05 16.09 106.13 16.92 104.88 16.92C103.62 16.92 102.7 16.09 102.7 14.88ZM103.6 14.88C103.59 15.64 104.13 16.15 104.88 16.14C105.62 16.15 106.17 15.64 106.18 14.88C106.17 14.14 105.62 13.62 104.88 13.62C104.13 13.62 103.59 14.14 103.6 14.88ZM114.163 12.66C114.163 14.12 115.123 15.63 116.483 16.2L115.963 16.94C114.933 16.48 114.123 15.52 113.713 14.36C113.303 15.6 112.483 16.67 111.463 17.16L110.923 16.42C112.243 15.81 113.223 14.16 113.223 12.66V11.72H111.223V10.96H116.163V11.72H114.163V12.66ZM117.263 18.82V10.08H118.203V18.82H117.263ZM124.467 10.56C125.787 10.55 126.757 11.39 126.767 12.58C126.757 13.77 125.787 14.61 124.467 14.62C123.147 14.61 122.157 13.77 122.167 12.58C122.157 11.39 123.147 10.55 124.467 10.56ZM122.907 18.6V15.34H123.807V17.83C124.327 17.8 124.917 17.73 125.467 17.54L125.627 18.28C124.797 18.56 124.017 18.59 123.347 18.6H122.907ZM123.067 12.58C123.057 13.33 123.667 13.85 124.467 13.86C125.257 13.85 125.857 13.33 125.867 12.58C125.857 11.84 125.257 11.32 124.467 11.32C123.667 11.32 123.057 11.84 123.067 12.58ZM125.307 16.08V15.38H127.067V14.66H127.987V15.38H129.727V16.08H125.307ZM125.867 17.58C125.857 16.83 126.537 16.34 127.507 16.34C128.487 16.34 129.167 16.83 129.167 17.58C129.167 18.34 128.487 18.82 127.507 18.82C126.537 18.82 125.857 18.34 125.867 17.58ZM126.687 17.58C126.687 17.94 127.037 18.16 127.507 18.16C127.987 18.16 128.337 17.94 128.327 17.58C128.337 17.23 127.987 17.01 127.507 17C127.037 17.01 126.687 17.23 126.687 17.58ZM127.987 14.44V10.08H128.907V12H130.167V12.76H128.907V14.44H127.987ZM138.65 14.64V15.4H130.67V14.64H138.65ZM131.53 12.12C131.53 11.02 132.75 10.37 134.65 10.38C136.55 10.37 137.78 11.02 137.77 12.12C137.78 13.23 136.55 13.89 134.65 13.9C132.75 13.89 131.53 13.23 131.53 12.12ZM131.69 18.64V16.1H132.61V17.9H137.75V18.64H131.69ZM132.49 12.12C132.48 12.77 133.32 13.14 134.65 13.14C136 13.14 136.83 12.77 136.83 12.12C136.83 11.49 136 11.12 134.65 11.12C133.32 11.12 132.48 11.49 132.49 12.12ZM146.234 10.84C146.234 12.01 147.654 13.1 149.374 13.34L149.014 14.1C147.574 13.87 146.324 13.12 145.754 12.08C145.184 13.12 143.934 13.87 142.514 14.1L142.134 13.34C143.854 13.1 145.264 12.03 145.274 10.84V10.38H146.234V10.84ZM141.754 15.72V14.94H149.734V15.72H146.174V18.82H145.274V15.72H141.754ZM152.816 10.48C153.966 10.47 154.856 11.14 155.056 12.12H156.776V10.08H157.696V14.78H156.776V12.88H155.066C154.886 13.88 153.986 14.56 152.816 14.56C151.486 14.56 150.526 13.72 150.536 12.52C150.526 11.32 151.486 10.47 152.816 10.48ZM151.416 12.52C151.406 13.26 151.996 13.78 152.816 13.78C153.626 13.78 154.206 13.26 154.216 12.52C154.206 11.76 153.626 11.25 152.816 11.26C151.996 11.25 151.406 11.76 151.416 12.52ZM151.996 18.72V15.2H152.916V16.22H156.776V15.2H157.696V18.72H151.996ZM152.916 17.96H156.776V16.94H152.916V17.96ZM166.299 10.08V18.84H165.359V10.08H166.299ZM159.339 13.8C159.339 11.93 160.289 10.74 161.599 10.74C162.909 10.74 163.869 11.93 163.859 13.8C163.869 15.69 162.909 16.88 161.599 16.88C160.289 16.88 159.339 15.69 159.339 13.8ZM160.239 13.8C160.239 15.19 160.799 16.05 161.599 16.04C162.409 16.05 162.969 15.19 162.959 13.8C162.969 12.43 162.409 11.57 161.599 11.56C160.799 11.57 160.239 12.43 160.239 13.8ZM173.163 15.86C173.163 16.61 173.543 17.4 174.323 17.88C175.123 17.37 175.523 16.53 175.523 15.86V15.44H176.443V15.86C176.433 16.77 177.033 17.65 178.163 18.02L177.703 18.7C176.843 18.41 176.253 17.82 175.953 17.1C175.683 17.81 175.163 18.45 174.363 18.78C173.513 18.47 172.983 17.85 172.713 17.13C172.393 17.82 171.813 18.4 170.983 18.7L170.523 18.02C171.653 17.62 172.253 16.71 172.263 15.86V15.44H173.163V15.86ZM170.303 12.64C170.303 11.41 171.293 10.57 172.643 10.58C173.973 10.57 174.963 11.41 174.963 12.64C174.963 13.85 173.973 14.69 172.643 14.7C171.293 14.69 170.303 13.85 170.303 12.64ZM171.203 12.64C171.203 13.4 171.803 13.92 172.643 13.92C173.453 13.92 174.053 13.4 174.043 12.64C174.053 11.87 173.453 11.35 172.643 11.36C171.803 11.35 171.203 11.87 171.203 12.64ZM176.463 15.06V10.08H177.383V15.06H176.463ZM181.145 10.74C182.335 10.74 183.195 11.75 183.325 13.36H185.145V10.08H186.065V18.84H185.145V14.12H183.335C183.235 15.82 182.365 16.88 181.145 16.88C179.835 16.88 178.915 15.69 178.925 13.8C178.915 11.93 179.835 10.74 181.145 10.74ZM179.805 13.8C179.805 15.19 180.345 16.05 181.145 16.04C181.935 16.05 182.475 15.19 182.485 13.8C182.475 12.43 181.935 11.57 181.145 11.56C180.345 11.57 179.805 12.43 179.805 13.8ZM195.428 16.96V17.74H187.408V16.96H189.328V14.68C188.608 14.29 188.168 13.66 188.168 12.88C188.168 11.5 189.518 10.59 191.388 10.58C193.278 10.59 194.628 11.5 194.628 12.88C194.628 13.64 194.208 14.26 193.508 14.66V16.96H195.428ZM189.068 12.88C189.068 13.81 190.018 14.42 191.388 14.42C192.758 14.42 193.728 13.81 193.728 12.88C193.728 11.93 192.758 11.33 191.388 11.34C190.018 11.33 189.068 11.93 189.068 12.88ZM190.248 16.96H192.568V15.01C192.208 15.1 191.808 15.14 191.388 15.14C190.978 15.14 190.598 15.1 190.248 15.02V16.96ZM197.67 10.92L197.57 15.96H196.61L196.53 10.92H197.67ZM196.41 17.38C196.41 16.99 196.73 16.68 197.11 16.68C197.48 16.68 197.8 16.99 197.79 17.38C197.8 17.76 197.48 18.07 197.11 18.06C196.73 18.07 196.41 17.76 196.41 17.38Z" fill="#5B6166"/>
<path d="M64.6262 13.92V14.62H61.0862V15.34H63.6262V17.32H58.5262V18.04H63.8662V18.74H57.6262V16.68H62.7062V16.02H57.6062V15.34H60.1662V14.62H56.6662V13.92H64.6262ZM57.0462 12.88C58.7362 12.78 59.9162 12.26 60.0962 11.52H57.4462V10.82H60.1662V10.04H61.0862V10.82H63.8262V11.52H61.1662C61.3362 12.26 62.5262 12.78 64.2262 12.88L63.9462 13.58C62.4162 13.47 61.1762 13.02 60.6362 12.26C60.0862 13.02 58.8362 13.47 57.3062 13.58L57.0462 12.88ZM72.5888 10.08V14.54H71.6688V13.7H69.4288V12.98H71.6688V12.02H69.5488C69.0088 13.38 67.6888 14.28 65.7488 14.72L65.4288 13.96C67.5188 13.5 68.6588 12.53 68.8088 11.24H65.8888V10.48H69.8288C69.8288 10.77 69.8088 11.04 69.7588 11.3H71.6688V10.08H72.5888ZM66.8688 15.64V14.9H72.5888V17.12H67.8088V18H72.8488V18.74H66.8888V16.42H71.6488V15.64H66.8688Z" fill="#212529"/>
<path d="M270.291 9.6981C270.168 9.82499 270.1 9.99706 270.1 10.1765C270.1 10.3559 270.168 10.528 270.291 10.6548L273.523 14.0041L270.291 17.3533C270.172 17.4809 270.106 17.6519 270.108 17.8293C270.109 18.0067 270.178 18.1764 270.299 18.3018C270.42 18.4273 270.584 18.4984 270.755 18.5C270.926 18.5015 271.091 18.4333 271.214 18.3101L274.908 14.4825C275.031 14.3556 275.1 14.1835 275.1 14.0041C275.1 13.8247 275.031 13.6526 274.908 13.5257L271.214 9.6981C271.092 9.57126 270.926 9.5 270.753 9.5C270.579 9.5 270.413 9.57126 270.291 9.6981Z" fill="#7DCDBD"/>
</svg>
