<svg width="292" height="28" viewBox="0 0 292 28" fill="none" xmlns="http://www.w3.org/2000/svg">
<rect width="292" height="28" rx="8" fill="#DFF3EF"/>
<circle opacity="0.6" cx="26.4521" cy="7.79785" r="2.10059" fill="#FF623D"/>
<circle cx="26.4521" cy="7.79785" r="1.25098" fill="#FF623D"/>
<path d="M17.3983 7.79785C16.9281 7.79785 16.5481 8.16942 16.5481 8.62933V9.12822C14.6085 9.51278 13.1472 11.1913 13.1472 13.2025V13.691C13.1472 14.9122 12.6876 16.0919 11.8586 17.0065L11.662 17.2222C11.4388 17.4664 11.3856 17.8172 11.5212 18.116C11.6567 18.4148 11.9622 18.6071 12.297 18.6071H22.4997C22.8345 18.6071 23.1374 18.4148 23.2755 18.116C23.4137 17.8172 23.3579 17.4664 23.1347 17.2222L22.9381 17.0065C22.1091 16.0919 21.6495 14.9148 21.6495 13.691V13.2025C21.6495 11.1913 20.1881 9.51278 18.2486 9.12822V8.62933C18.2486 8.16942 17.8686 7.79785 17.3983 7.79785ZM18.6019 20.6157C18.9208 20.3039 19.0988 19.8803 19.0988 19.4386H15.6979C15.6979 19.8803 15.8759 20.3039 16.1947 20.6157C16.5136 20.9275 16.9467 21.1016 17.3983 21.1016C17.85 21.1016 18.2831 20.9275 18.6019 20.6157Z" fill="#7DCDBD"/>
<path d="M43.62 10.08V16.54H42.7V14.26H40.51C40.1 14.75 39.47 15.05 38.74 15.06C37.43 15.05 36.45 14.13 36.46 12.84C36.45 11.55 37.43 10.63 38.74 10.62C39.46 10.63 40.08 10.92 40.5 11.4H42.7V10.08H43.62ZM37.34 12.84C37.33 13.67 37.92 14.23 38.74 14.24C39.53 14.23 40.13 13.67 40.14 12.84C40.13 12.02 39.53 11.45 38.74 11.44C37.92 11.45 37.33 12.02 37.34 12.84ZM37.94 18.64V15.86H38.86V17.9H43.84V18.64H37.94ZM40.92 12.16C40.98 12.37 41.02 12.6 41.02 12.84C41.02 13.07 40.98 13.29 40.92 13.5H42.7V12.16H40.92ZM48.0226 11.7C48.0226 12.8 48.7926 13.82 50.1226 14.24L49.6826 14.96C48.6826 14.65 47.9526 13.99 47.5726 13.15C47.1926 14.11 46.4226 14.87 45.3626 15.24L44.9026 14.5C46.2626 14.05 47.0826 12.91 47.1026 11.7V11.46H45.1626V10.7H49.9026V11.46H48.0226V11.7ZM46.0826 17.18C46.0826 16.14 47.1926 15.54 49.0226 15.54C50.8226 15.54 51.9226 16.14 51.9226 17.18C51.9226 18.21 50.8226 18.82 49.0226 18.82C47.1926 18.82 46.0826 18.21 46.0826 17.18ZM47.0026 17.18C47.0026 17.76 47.7526 18.08 49.0226 18.08C50.2726 18.08 51.0126 17.76 51.0226 17.18C51.0126 16.6 50.2726 16.28 49.0226 16.28C47.7526 16.28 47.0026 16.6 47.0026 17.18ZM50.9226 15.34V10.08H51.8426V12.24H53.1026V13.02H51.8426V15.34H50.9226Z" fill="#212529"/>
<path d="M58.4266 10.74C59.2266 10.74 59.8766 11.19 60.2566 11.98H62.4266V10.08H63.3466V18.84H62.4266V15.48H60.3266C59.9566 16.37 59.2766 16.88 58.4266 16.88C57.1166 16.88 56.1966 15.69 56.2066 13.8C56.1966 11.93 57.1166 10.74 58.4266 10.74ZM57.0866 13.8C57.0866 15.19 57.6266 16.05 58.4266 16.04C59.2166 16.05 59.7566 15.19 59.7666 13.8C59.7566 12.43 59.2166 11.57 58.4266 11.56C57.6266 11.57 57.0866 12.43 57.0866 13.8ZM60.5166 12.74C60.5866 13.06 60.6266 13.42 60.6266 13.8C60.6266 14.14 60.5966 14.45 60.5466 14.74H62.4266V12.74H60.5166ZM72.6891 15.22V15.96H69.1091V18.82H68.2091V15.96H64.6891V15.22H72.6891ZM65.6691 14.24V10.44H66.5891V11.58H70.7691V10.44H71.6891V14.24H65.6691ZM66.5891 13.48H70.7691V12.32H66.5891V13.48ZM81.3317 14.1V14.8H73.3317V14.1H81.3317ZM74.2717 16.08V15.42H80.3517V17.34H75.2117V18.06H80.6117V18.72H74.2917V16.72H79.4317V16.08H74.2717ZM74.3317 10.96V10.3H80.3317V12.2H75.2717V12.86H80.4717V13.52H74.3517V11.58H79.3917V10.96H74.3317ZM87.0357 12.76C87.0357 14.14 87.6757 15.55 88.8757 16.2L88.3557 16.88C87.5157 16.43 86.9257 15.59 86.6057 14.6C86.2957 15.66 85.7057 16.58 84.8557 17.08L84.3157 16.38C85.5357 15.67 86.1557 14.18 86.1557 12.76V12.4H84.5757V11.66H86.1557V10.4H87.0357V11.66H88.5957V12.4H87.0357V12.76ZM88.0157 14.26V13.48H89.2757V10.26H90.1557V18.38H89.2757V14.26H88.0157ZM91.0357 18.82V10.08H91.9157V18.82H91.0357ZM100.098 10.92V12C100.098 13.28 100.098 14.47 99.7183 16.28L98.7983 16.2C98.9783 15.4 99.0783 14.7 99.1283 14.05L93.8783 14.32L93.7583 13.58L99.1783 13.35C99.1883 12.89 99.1983 12.44 99.1983 12V11.7H93.9983V10.92H100.098ZM93.0583 17.66V16.9H101.038V17.66H93.0583ZM108.521 10.08V13.62H109.921V14.4H108.521V18.82H107.601V10.08H108.521ZM101.661 12.2V11.46H103.821V10.2H104.741V11.46H106.841V12.2H101.661ZM102.101 14.88C102.101 13.69 103.021 12.85 104.281 12.86C105.531 12.85 106.451 13.69 106.461 14.88C106.451 16.09 105.531 16.92 104.281 16.92C103.021 16.92 102.101 16.09 102.101 14.88ZM103.001 14.88C102.991 15.64 103.531 16.15 104.281 16.14C105.021 16.15 105.571 15.64 105.581 14.88C105.571 14.14 105.021 13.62 104.281 13.62C103.531 13.62 102.991 14.14 103.001 14.88ZM113.563 12.66C113.563 14.12 114.523 15.63 115.883 16.2L115.363 16.94C114.333 16.48 113.523 15.52 113.113 14.36C112.703 15.6 111.883 16.67 110.863 17.16L110.323 16.42C111.643 15.81 112.623 14.16 112.623 12.66V11.72H110.623V10.96H115.563V11.72H113.563V12.66ZM116.663 18.82V10.08H117.603V18.82H116.663ZM123.867 10.56C125.187 10.55 126.157 11.39 126.167 12.58C126.157 13.77 125.187 14.61 123.867 14.62C122.547 14.61 121.557 13.77 121.567 12.58C121.557 11.39 122.547 10.55 123.867 10.56ZM122.307 18.6V15.34H123.207V17.83C123.727 17.8 124.317 17.73 124.867 17.54L125.027 18.28C124.197 18.56 123.417 18.59 122.747 18.6H122.307ZM122.467 12.58C122.457 13.33 123.067 13.85 123.867 13.86C124.657 13.85 125.257 13.33 125.267 12.58C125.257 11.84 124.657 11.32 123.867 11.32C123.067 11.32 122.457 11.84 122.467 12.58ZM124.707 16.08V15.38H126.467V14.66H127.387V15.38H129.127V16.08H124.707ZM125.267 17.58C125.257 16.83 125.937 16.34 126.907 16.34C127.887 16.34 128.567 16.83 128.567 17.58C128.567 18.34 127.887 18.82 126.907 18.82C125.937 18.82 125.257 18.34 125.267 17.58ZM126.087 17.58C126.087 17.94 126.437 18.16 126.907 18.16C127.387 18.16 127.737 17.94 127.727 17.58C127.737 17.23 127.387 17.01 126.907 17C126.437 17.01 126.087 17.23 126.087 17.58ZM127.387 14.44V10.08H128.307V12H129.567V12.76H128.307V14.44H127.387ZM138.05 14.64V15.4H130.07V14.64H138.05ZM130.93 12.12C130.93 11.02 132.15 10.37 134.05 10.38C135.95 10.37 137.18 11.02 137.17 12.12C137.18 13.23 135.95 13.89 134.05 13.9C132.15 13.89 130.93 13.23 130.93 12.12ZM131.09 18.64V16.1H132.01V17.9H137.15V18.64H131.09ZM131.89 12.12C131.88 12.77 132.72 13.14 134.05 13.14C135.4 13.14 136.23 12.77 136.23 12.12C136.23 11.49 135.4 11.12 134.05 11.12C132.72 11.12 131.88 11.49 131.89 12.12ZM145.634 10.84C145.634 12.01 147.054 13.1 148.774 13.34L148.414 14.1C146.974 13.87 145.724 13.12 145.154 12.08C144.584 13.12 143.334 13.87 141.914 14.1L141.534 13.34C143.254 13.1 144.664 12.03 144.674 10.84V10.38H145.634V10.84ZM141.154 15.72V14.94H149.134V15.72H145.574V18.82H144.674V15.72H141.154ZM152.217 10.48C153.367 10.47 154.257 11.14 154.457 12.12H156.177V10.08H157.097V14.78H156.177V12.88H154.467C154.287 13.88 153.387 14.56 152.217 14.56C150.887 14.56 149.927 13.72 149.937 12.52C149.927 11.32 150.887 10.47 152.217 10.48ZM150.817 12.52C150.807 13.26 151.397 13.78 152.217 13.78C153.027 13.78 153.607 13.26 153.617 12.52C153.607 11.76 153.027 11.25 152.217 11.26C151.397 11.25 150.807 11.76 150.817 12.52ZM151.397 18.72V15.2H152.317V16.22H156.177V15.2H157.097V18.72H151.397ZM152.317 17.96H156.177V16.94H152.317V17.96ZM165.699 10.08V18.84H164.759V10.08H165.699ZM158.739 13.8C158.739 11.93 159.689 10.74 160.999 10.74C162.309 10.74 163.269 11.93 163.259 13.8C163.269 15.69 162.309 16.88 160.999 16.88C159.689 16.88 158.739 15.69 158.739 13.8ZM159.639 13.8C159.639 15.19 160.199 16.05 160.999 16.04C161.809 16.05 162.369 15.19 162.359 13.8C162.369 12.43 161.809 11.57 160.999 11.56C160.199 11.57 159.639 12.43 159.639 13.8ZM172.563 15.86C172.563 16.61 172.943 17.4 173.723 17.88C174.523 17.37 174.923 16.53 174.923 15.86V15.44H175.843V15.86C175.833 16.77 176.433 17.65 177.563 18.02L177.103 18.7C176.243 18.41 175.653 17.82 175.353 17.1C175.083 17.81 174.563 18.45 173.763 18.78C172.913 18.47 172.383 17.85 172.113 17.13C171.793 17.82 171.213 18.4 170.383 18.7L169.923 18.02C171.053 17.62 171.653 16.71 171.663 15.86V15.44H172.563V15.86ZM169.703 12.64C169.703 11.41 170.693 10.57 172.043 10.58C173.373 10.57 174.363 11.41 174.363 12.64C174.363 13.85 173.373 14.69 172.043 14.7C170.693 14.69 169.703 13.85 169.703 12.64ZM170.603 12.64C170.603 13.4 171.203 13.92 172.043 13.92C172.853 13.92 173.453 13.4 173.443 12.64C173.453 11.87 172.853 11.35 172.043 11.36C171.203 11.35 170.603 11.87 170.603 12.64ZM175.863 15.06V10.08H176.783V15.06H175.863ZM180.546 10.74C181.736 10.74 182.596 11.75 182.726 13.36H184.546V10.08H185.466V18.84H184.546V14.12H182.736C182.636 15.82 181.766 16.88 180.546 16.88C179.236 16.88 178.316 15.69 178.326 13.8C178.316 11.93 179.236 10.74 180.546 10.74ZM179.206 13.8C179.206 15.19 179.746 16.05 180.546 16.04C181.336 16.05 181.876 15.19 181.886 13.8C181.876 12.43 181.336 11.57 180.546 11.56C179.746 11.57 179.206 12.43 179.206 13.8ZM194.828 16.96V17.74H186.808V16.96H188.728V14.68C188.008 14.29 187.568 13.66 187.568 12.88C187.568 11.5 188.918 10.59 190.788 10.58C192.678 10.59 194.028 11.5 194.028 12.88C194.028 13.64 193.608 14.26 192.908 14.66V16.96H194.828ZM188.468 12.88C188.468 13.81 189.418 14.42 190.788 14.42C192.158 14.42 193.128 13.81 193.128 12.88C193.128 11.93 192.158 11.33 190.788 11.34C189.418 11.33 188.468 11.93 188.468 12.88ZM189.648 16.96H191.968V15.01C191.608 15.1 191.208 15.14 190.788 15.14C190.378 15.14 189.998 15.1 189.648 15.02V16.96ZM197.071 10.92L196.971 15.96H196.011L195.931 10.92H197.071ZM195.811 17.38C195.811 16.99 196.131 16.68 196.511 16.68C196.881 16.68 197.201 16.99 197.191 17.38C197.201 17.76 196.881 18.07 196.511 18.06C196.131 18.07 195.811 17.76 195.811 17.38Z" fill="#5B6166"/>
<path d="M269.691 9.6981C269.569 9.82499 269.5 9.99706 269.5 10.1765C269.5 10.3559 269.569 10.528 269.691 10.6548L272.924 14.0041L269.691 17.3533C269.572 17.4809 269.506 17.6519 269.508 17.8293C269.509 18.0067 269.578 18.1764 269.699 18.3018C269.82 18.4273 269.984 18.4984 270.155 18.5C270.326 18.5015 270.491 18.4333 270.615 18.3101L274.309 14.4825C274.431 14.3556 274.5 14.1835 274.5 14.0041C274.5 13.8247 274.431 13.6526 274.309 13.5257L270.615 9.6981C270.492 9.57126 270.326 9.5 270.153 9.5C269.98 9.5 269.814 9.57126 269.691 9.6981Z" fill="#7DCDBD"/>
</svg>
