<svg width="50" height="51" viewBox="0 0 50 51" fill="none" xmlns="http://www.w3.org/2000/svg">
<g clip-path="url(#clip0_986_65829)">
<mask id="mask0_986_65829" style="mask-type:alpha" maskUnits="userSpaceOnUse" x="20" y="11" width="10" height="10">
<ellipse cx="24.8226" cy="16.0589" rx="4.67029" ry="4.67024" fill="#757A80"/>
</mask>
<g mask="url(#mask0_986_65829)">
<ellipse cx="24.8226" cy="16.0589" rx="4.67029" ry="4.67024" fill="#757A80"/>
<ellipse cx="25.3429" cy="14.5441" rx="4.46011" ry="4.46007" fill="#5FE1B7"/>
<ellipse opacity="0.8" cx="22.8898" cy="12.9523" rx="4.46011" ry="4.46007" fill="#5FE1B7"/>
<ellipse opacity="0.8" cx="29.2804" cy="14.797" rx="4.46011" ry="4.46007" fill="#008B6E"/>
<ellipse opacity="0.7" cx="24.6129" cy="16.2691" rx="4.88242" ry="4.88237" fill="#02BDA5"/>
<ellipse opacity="0.8" cx="22.6325" cy="17.7877" rx="2.94107" ry="2.94104" fill="#00CF91"/>
<ellipse opacity="0.7" cx="26.2581" cy="19.6507" rx="3.23471" ry="3.23468" fill="#5FE1B7"/>
<ellipse opacity="0.8" cx="26.9289" cy="11.5987" rx="4.46011" ry="4.46007" fill="#55DEB2"/>
<ellipse opacity="0.7" cx="4.46011" cy="4.46007" rx="4.46011" ry="4.46007" transform="matrix(0.997366 -0.072539 0.0725405 0.997365 16.8242 8.30273)" fill="#008B6E"/>
<ellipse opacity="0.7" cx="4.46011" cy="4.46007" rx="4.46011" ry="4.46007" transform="matrix(0.997366 -0.072539 0.0725405 0.997365 24.8711 9.04883)" fill="#008B6E"/>
<ellipse opacity="0.7" cx="4.46011" cy="4.46007" rx="4.46011" ry="4.46007" transform="matrix(0.997366 -0.072539 0.0725405 0.997365 26.0195 8.50098)" fill="#008B6E"/>
<ellipse opacity="0.7" cx="4.46011" cy="4.46007" rx="4.46011" ry="4.46007" transform="matrix(0.997366 -0.072539 0.0725405 0.997365 27.6094 7.5918)" fill="#008B6E"/>
</g>
<mask id="mask1_986_65829" style="mask-type:alpha" maskUnits="userSpaceOnUse" x="16" y="22" width="18" height="7">
<path d="M24.8203 22.0137C21.9834 22.0137 16.3203 23.4374 16.3203 26.2636V27.3261C16.3203 27.9105 16.7984 28.3886 17.3828 28.3886H32.2578C32.8422 28.3886 33.3203 27.9105 33.3203 27.3261V26.2636C33.3203 23.4374 27.6572 22.0137 24.8203 22.0137Z" fill="#757A80"/>
</mask>
<g mask="url(#mask1_986_65829)">
<rect x="16.5391" y="20.8867" width="18.3958" height="9.99926" fill="#009980"/>
<rect opacity="0.5" x="10.5625" y="23.3887" width="18.3958" height="9.99926" fill="#00D6A2"/>
<rect opacity="0.8" x="6.42578" y="25.8867" width="18.3958" height="9.99926" rx="4.70558" fill="#5FE1B7"/>
<rect opacity="0.8" x="25.7383" y="19.0811" width="18.3958" height="9.99926" rx="4.70558" fill="#00CF91"/>
</g>
</g>
<path d="M10.5344 34.9138H11.9364V35.6977H10.5344V40.235H9.60557V31.485H10.5344V34.9138ZM8.14494 38.0388H4.04963V32.3517H8.14494V38.0388ZM7.21952 33.0872H4.95778V37.2895H7.21952V33.0872ZM18.6763 31.485H19.6086V40.2522H18.6763V31.485ZM14.9229 32.1411C16.2281 32.1445 17.1812 33.3358 17.1812 35.2108C17.1812 37.0962 16.2281 38.2875 14.9229 38.2875C13.6038 38.2875 12.6611 37.0962 12.6611 35.2108C12.6611 33.3358 13.6038 32.1445 14.9229 32.1411ZM14.9229 32.9698C14.1149 32.9767 13.5555 33.833 13.5555 35.2108C13.5555 36.5989 14.1149 37.4553 14.9229 37.4553C15.7309 37.4553 16.2834 36.5989 16.2834 35.2108C16.2834 33.833 15.7309 32.9767 14.9229 32.9698ZM27.678 40.235V31.485H28.5689V40.235H27.678ZM24.8638 34.7654H25.9584V31.6853H26.8355V39.7861H25.9584V35.5975H24.8638V34.7654ZM24.4253 33.3185V37.2308C24.7257 37.2067 25.0123 37.179 25.2816 37.1411L25.3438 37.8179C23.9626 38.0872 22.1428 38.1252 21.0137 38.1252L20.9066 37.3482C21.1587 37.3482 21.4487 37.3482 21.763 37.3448V33.3185H21.0862V32.5623H25.1021V33.3185H24.4253ZM23.5724 33.3185H22.5986V37.3275C22.9163 37.3172 23.2443 37.3068 23.5724 37.2895V33.3185ZM35.9615 31.485H36.8938V40.2522H35.9615V31.485ZM32.208 32.1411C33.5133 32.1445 34.4663 33.3358 34.4663 35.2108C34.4663 37.0962 33.5133 38.2875 32.208 38.2875C30.889 38.2875 29.9463 37.0962 29.9463 35.2108C29.9463 33.3358 30.889 32.1445 32.208 32.1411ZM32.208 32.9698C31.4 32.9767 30.8406 33.833 30.8406 35.2108C30.8406 36.5989 31.4 37.4553 32.208 37.4553C33.016 37.4553 33.5685 36.5989 33.5685 35.2108C33.5685 33.833 33.016 32.9767 32.208 32.9698ZM44.6041 40.235V31.485H45.5364V40.235H44.6041ZM41.5067 33.1321V34.0679C41.5067 35.5285 42.4666 37.0409 43.8133 37.6141L43.3057 38.3462C42.2733 37.8904 41.4583 36.9235 41.0509 35.7633C40.6434 37.0064 39.8216 38.0699 38.8064 38.5637L38.2643 37.8317C39.5833 37.217 40.5606 35.5699 40.5675 34.0679V33.1321H38.5716V32.3655H43.5025V33.1321H41.5067Z" fill="#006654"/>
<defs>
<clipPath id="clip0_986_65829">
<rect width="18" height="18" fill="white" transform="translate(16 10.4062)"/>
</clipPath>
</defs>
</svg>
