<svg width="50" height="51" viewBox="0 0 50 51" fill="none" xmlns="http://www.w3.org/2000/svg">
<g clip-path="url(#clip0_550_39969)">
<mask id="mask0_550_39969" style="mask-type:alpha" maskUnits="userSpaceOnUse" x="20" y="11" width="10" height="10">
<ellipse cx="24.8226" cy="16.0589" rx="4.67029" ry="4.67024" fill="#757A80"/>
</mask>
<g mask="url(#mask0_550_39969)">
<ellipse cx="24.8226" cy="16.0589" rx="4.67029" ry="4.67024" fill="#757A80"/>
<ellipse cx="25.3429" cy="14.5441" rx="4.46011" ry="4.46007" fill="#5FE1B7"/>
<ellipse opacity="0.8" cx="22.8898" cy="12.9523" rx="4.46011" ry="4.46007" fill="#5FE1B7"/>
<ellipse opacity="0.8" cx="29.2804" cy="14.798" rx="4.46011" ry="4.46007" fill="#008B6E"/>
<ellipse opacity="0.7" cx="24.6129" cy="16.2691" rx="4.88242" ry="4.88237" fill="#02BDA5"/>
<ellipse opacity="0.8" cx="22.6325" cy="17.7887" rx="2.94107" ry="2.94104" fill="#00CF91"/>
<ellipse opacity="0.7" cx="26.2581" cy="19.6507" rx="3.23471" ry="3.23468" fill="#5FE1B7"/>
<ellipse opacity="0.8" cx="26.9289" cy="11.5987" rx="4.46011" ry="4.46007" fill="#55DEB2"/>
<ellipse opacity="0.7" cx="4.46011" cy="4.46007" rx="4.46011" ry="4.46007" transform="matrix(0.997366 -0.072539 0.0725405 0.997365 16.8242 8.30273)" fill="#008B6E"/>
<ellipse opacity="0.7" cx="4.46011" cy="4.46007" rx="4.46011" ry="4.46007" transform="matrix(0.997366 -0.072539 0.0725405 0.997365 24.8711 9.04883)" fill="#008B6E"/>
<ellipse opacity="0.7" cx="4.46011" cy="4.46007" rx="4.46011" ry="4.46007" transform="matrix(0.997366 -0.072539 0.0725405 0.997365 26.0195 8.50195)" fill="#008B6E"/>
<ellipse opacity="0.7" cx="4.46011" cy="4.46007" rx="4.46011" ry="4.46007" transform="matrix(0.997366 -0.072539 0.0725405 0.997365 27.6094 7.5918)" fill="#008B6E"/>
</g>
<mask id="mask1_550_39969" style="mask-type:alpha" maskUnits="userSpaceOnUse" x="16" y="22" width="18" height="7">
<path d="M24.8203 22.0137C21.9834 22.0137 16.3203 23.4374 16.3203 26.2636V27.3261C16.3203 27.9105 16.7984 28.3886 17.3828 28.3886H32.2578C32.8422 28.3886 33.3203 27.9105 33.3203 27.3261V26.2636C33.3203 23.4374 27.6572 22.0137 24.8203 22.0137Z" fill="#757A80"/>
</mask>
<g mask="url(#mask1_550_39969)">
<rect x="16.5391" y="20.8867" width="18.3958" height="9.99926" fill="#009980"/>
<rect opacity="0.5" x="10.5625" y="23.3887" width="18.3958" height="9.99926" fill="#00D6A2"/>
<rect opacity="0.8" x="6.42578" y="25.8867" width="18.3958" height="9.99926" rx="4.70558" fill="#5FE1B7"/>
<rect opacity="0.8" x="25.7383" y="19.082" width="18.3958" height="9.99926" rx="4.70558" fill="#00CF91"/>
</g>
</g>
<path d="M18.7891 39.4062V34.1035H19.7949V34.9727H19.8535C20.0781 34.3818 20.6006 34.0352 21.2988 34.0352C22.0068 34.0352 22.5 34.3818 22.7246 34.9727H22.7832C23.0322 34.4014 23.6084 34.0352 24.375 34.0352C25.332 34.0352 26.0107 34.6357 26.0156 35.8516V39.4062H24.9707V35.9492C24.9707 35.2314 24.5215 34.9336 23.9746 34.9336C23.3057 34.9336 22.9199 35.3926 22.9199 36.0273V39.4062H21.8848V35.8906C21.8848 35.3096 21.4893 34.9336 20.918 34.9336C20.332 34.9336 19.834 35.4219 19.834 36.1348V39.4062H18.7891ZM27.7246 41.3984C27.5098 41.3936 27.2998 41.3887 27.168 41.3691V40.5C27.2852 40.5098 27.4902 40.5146 27.6367 40.5195C27.959 40.5146 28.2275 40.4951 28.4766 39.8262L28.6035 39.4746L26.6602 34.1035H27.7734L29.1113 38.2148H29.1699L30.5078 34.1035H31.6309L29.4434 40.1094C29.1357 40.9492 28.5986 41.3936 27.7246 41.3984Z" fill="#006C52"/>
<defs>
<clipPath id="clip0_550_39969">
<rect width="18" height="18" fill="white" transform="translate(16 10.4062)"/>
</clipPath>
</defs>
</svg>
