<svg width="18" height="19" viewBox="0 0 18 19" fill="none" xmlns="http://www.w3.org/2000/svg">
<g clip-path="url(#clip0_2741_25205)">
<path d="M9.08594 9.2334C11.4341 9.2334 13.3359 7.33152 13.3359 4.9834C13.3359 2.63527 11.4341 0.733398 9.08594 0.733398C6.73781 0.733398 4.83594 2.63527 4.83594 4.9834C4.83594 7.33152 6.73781 9.2334 9.08594 9.2334ZM9.08594 11.3584C6.24906 11.3584 0.585938 12.7821 0.585938 15.6084V16.6709C0.585938 17.2553 1.06406 17.7334 1.64844 17.7334H16.5234C17.1078 17.7334 17.5859 17.2553 17.5859 16.6709V15.6084C17.5859 12.7821 11.9228 11.3584 9.08594 11.3584Z" fill="#CED4DA"/>
</g>
<defs>
<clipPath id="clip0_2741_25205">
<rect width="18" height="18" fill="white" transform="translate(0 0.5)"/>
</clipPath>
</defs>
</svg>
