<svg width="50" height="51" viewBox="0 0 50 51" fill="none" xmlns="http://www.w3.org/2000/svg">
<g clip-path="url(#clip0_986_65814)">
<path d="M25.0859 18.6396C27.4341 18.6396 29.3359 16.7378 29.3359 14.3896C29.3359 12.0415 27.4341 10.1396 25.0859 10.1396C22.7378 10.1396 20.8359 12.0415 20.8359 14.3896C20.8359 16.7378 22.7378 18.6396 25.0859 18.6396ZM25.0859 20.7646C22.2491 20.7646 16.5859 22.1884 16.5859 25.0146V26.0771C16.5859 26.6615 17.0641 27.1396 17.6484 27.1396H32.5234C33.1078 27.1396 33.5859 26.6615 33.5859 26.0771V25.0146C33.5859 22.1884 27.9228 20.7646 25.0859 20.7646Z" fill="#CED4DA"/>
</g>
<path d="M10.5344 34.4138H11.9364V35.1977H10.5344V39.735H9.60557V30.985H10.5344V34.4138ZM8.14494 37.5388H4.04963V31.8517H8.14494V37.5388ZM7.21952 32.5872H4.95778V36.7895H7.21952V32.5872ZM18.6763 30.985H19.6086V39.7522H18.6763V30.985ZM14.9229 31.6411C16.2281 31.6445 17.1812 32.8358 17.1812 34.7108C17.1812 36.5962 16.2281 37.7875 14.9229 37.7875C13.6038 37.7875 12.6611 36.5962 12.6611 34.7108C12.6611 32.8358 13.6038 31.6445 14.9229 31.6411ZM14.9229 32.4698C14.1149 32.4767 13.5555 33.333 13.5555 34.7108C13.5555 36.0989 14.1149 36.9553 14.9229 36.9553C15.7309 36.9553 16.2834 36.0989 16.2834 34.7108C16.2834 33.333 15.7309 32.4767 14.9229 32.4698ZM27.678 39.735V30.985H28.5689V39.735H27.678ZM24.8638 34.2654H25.9584V31.1853H26.8355V39.2861H25.9584V35.0975H24.8638V34.2654ZM24.4253 32.8185V36.7308C24.7257 36.7067 25.0123 36.679 25.2816 36.6411L25.3438 37.3179C23.9626 37.5872 22.1428 37.6252 21.0137 37.6252L20.9066 36.8482C21.1587 36.8482 21.4487 36.8482 21.763 36.8448V32.8185H21.0862V32.0623H25.1021V32.8185H24.4253ZM23.5724 32.8185H22.5986V36.8275C22.9163 36.8172 23.2443 36.8068 23.5724 36.7895V32.8185ZM35.9615 30.985H36.8938V39.7522H35.9615V30.985ZM32.208 31.6411C33.5133 31.6445 34.4663 32.8358 34.4663 34.7108C34.4663 36.5962 33.5133 37.7875 32.208 37.7875C30.889 37.7875 29.9463 36.5962 29.9463 34.7108C29.9463 32.8358 30.889 31.6445 32.208 31.6411ZM32.208 32.4698C31.4 32.4767 30.8406 33.333 30.8406 34.7108C30.8406 36.0989 31.4 36.9553 32.208 36.9553C33.016 36.9553 33.5685 36.0989 33.5685 34.7108C33.5685 33.333 33.016 32.4767 32.208 32.4698ZM44.6041 39.735V30.985H45.5364V39.735H44.6041ZM41.5067 32.6321V33.5679C41.5067 35.0285 42.4666 36.5409 43.8133 37.1141L43.3057 37.8462C42.2733 37.3904 41.4583 36.4235 41.0509 35.2633C40.6434 36.5064 39.8216 37.5699 38.8064 38.0637L38.2643 37.3317C39.5833 36.717 40.5606 35.0699 40.5675 33.5679V32.6321H38.5716V31.8655H43.5025V32.6321H41.5067Z" fill="#CED4DA"/>
<defs>
<clipPath id="clip0_986_65814">
<rect width="18" height="18" fill="white" transform="translate(16 9.90625)"/>
</clipPath>
</defs>
</svg>
