<svg width="50" height="51" viewBox="0 0 50 51" fill="none" xmlns="http://www.w3.org/2000/svg">
<g clip-path="url(#clip0_550_39954)">
<path d="M25.0859 18.6406C27.4341 18.6406 29.3359 16.7387 29.3359 14.3906C29.3359 12.0425 27.4341 10.1406 25.0859 10.1406C22.7378 10.1406 20.8359 12.0425 20.8359 14.3906C20.8359 16.7387 22.7378 18.6406 25.0859 18.6406ZM25.0859 20.7656C22.2491 20.7656 16.5859 22.1894 16.5859 25.0156V26.0781C16.5859 26.6625 17.0641 27.1406 17.6484 27.1406H32.5234C33.1078 27.1406 33.5859 26.6625 33.5859 26.0781V25.0156C33.5859 22.1894 27.9228 20.7656 25.0859 20.7656Z" fill="#CED4DA"/>
</g>
<path d="M18.7891 38.9062V33.6035H19.7949V34.4727H19.8535C20.0781 33.8818 20.6006 33.5352 21.2988 33.5352C22.0068 33.5352 22.5 33.8818 22.7246 34.4727H22.7832C23.0322 33.9014 23.6084 33.5352 24.375 33.5352C25.332 33.5352 26.0107 34.1357 26.0156 35.3516V38.9062H24.9707V35.4492C24.9707 34.7314 24.5215 34.4336 23.9746 34.4336C23.3057 34.4336 22.9199 34.8926 22.9199 35.5273V38.9062H21.8848V35.3906C21.8848 34.8096 21.4893 34.4336 20.918 34.4336C20.332 34.4336 19.834 34.9219 19.834 35.6348V38.9062H18.7891ZM27.7246 40.8984C27.5098 40.8936 27.2998 40.8887 27.168 40.8691V40C27.2852 40.0098 27.4902 40.0146 27.6367 40.0195C27.959 40.0146 28.2275 39.9951 28.4766 39.3262L28.6035 38.9746L26.6602 33.6035H27.7734L29.1113 37.7148H29.1699L30.5078 33.6035H31.6309L29.4434 39.6094C29.1357 40.4492 28.5986 40.8936 27.7246 40.8984Z" fill="#CED4DA"/>
<defs>
<clipPath id="clip0_550_39954">
<rect width="18" height="18" fill="white" transform="translate(16 9.90625)"/>
</clipPath>
</defs>
</svg>
