<svg width="20" height="20" viewBox="0 0 20 20" fill="none" xmlns="http://www.w3.org/2000/svg">
<path d="M7.6912 5.6981C7.56877 5.82499 7.5 5.99706 7.5 6.17647C7.5 6.35589 7.56877 6.52795 7.6912 6.65484L10.9237 10.0041L7.6912 13.3533C7.57224 13.4809 7.50642 13.6519 7.50791 13.8293C7.5094 14.0067 7.57808 14.1764 7.69915 14.3018C7.82023 14.4273 7.98402 14.4984 8.15524 14.5C8.32647 14.5015 8.49143 14.4333 8.61459 14.3101L12.3088 10.4825C12.4312 10.3556 12.5 10.1835 12.5 10.0041C12.5 9.82467 12.4312 9.6526 12.3088 9.52572L8.61459 5.6981C8.49213 5.57126 8.32606 5.5 8.15289 5.5C7.97973 5.5 7.81366 5.57126 7.6912 5.6981Z" fill="#757A80"/>
</svg>
