<svg width="11" height="11" viewBox="0 0 11 11" fill="none" xmlns="http://www.w3.org/2000/svg">
<g id="ep:arrow-right-bold">
<path id="Vector" d="M3.63879 1.12463C3.5099 1.25356 3.4375 1.42839 3.4375 1.61069C3.4375 1.79299 3.5099 1.96783 3.63879 2.09676L7.04192 5.49988L3.63879 8.90301C3.51356 9.03267 3.44426 9.20633 3.44583 9.38659C3.44739 9.56685 3.5197 9.73929 3.64717 9.86676C3.77463 9.99422 3.94707 10.0665 4.12733 10.0681C4.30759 10.0697 4.48125 10.0004 4.61092 9.87513L8.5001 5.98594C8.62899 5.85702 8.70139 5.68218 8.70139 5.49988C8.70139 5.31758 8.62899 5.14274 8.5001 5.01382L4.61092 1.12463C4.48199 0.995744 4.30715 0.92334 4.12485 0.92334C3.94255 0.92334 3.76772 0.995744 3.63879 1.12463Z" fill="#798583"/>
</g>
</svg>
