<svg width="85" height="113" viewBox="0 0 85 113" fill="none" xmlns="http://www.w3.org/2000/svg">
<g opacity="0.5">
<g opacity="0.8">
<path d="M42.4025 58.8138C54.2473 58.8138 63.849 48.9203 63.849 36.7155C63.849 24.5107 54.2473 14.6172 42.4025 14.6172C30.5578 14.6172 20.9561 24.5107 20.9561 36.7155C20.9561 48.9203 30.5578 58.8138 42.4025 58.8138Z" fill="#6CDDAF"/>
</g>
<path opacity="0.8" d="M26.4855 80.0382C38.3303 80.0382 47.932 70.1446 47.932 57.9399C47.932 45.7351 38.3303 35.8416 26.4855 35.8416C14.6408 35.8416 5.03906 45.7351 5.03906 57.9399C5.03906 70.1446 14.6408 80.0382 26.4855 80.0382Z" fill="#00C78F"/>
<path d="M58.3117 80.0384C70.1565 80.0384 79.7582 70.1449 79.7582 57.9401C79.7582 45.7354 70.1565 35.8418 58.3117 35.8418C46.467 35.8418 36.8652 45.7354 36.8652 57.9401C36.8652 70.1449 46.467 80.0384 58.3117 80.0384Z" fill="#00AB8E"/>
<path opacity="0.8" d="M72.9181 71.4552C72.9181 77.6712 59.2615 82.7234 42.4044 82.7234C25.5472 82.7234 11.8906 77.69 11.8906 71.4552C11.8906 65.2203 25.5472 58.8145 42.4044 58.8145C59.2615 58.8145 72.9181 65.2203 72.9181 71.4552Z" fill="#008855"/>
<path d="M42.4004 43.1256C46.3257 38.6533 52.0001 35.8415 58.3142 35.8415C60.2273 35.8415 62.0816 36.1002 63.8469 36.5862C63.7801 24.4398 54.2047 14.6172 42.4025 14.6172C30.6002 14.6172 21.0248 24.4419 20.958 36.5862C22.7233 36.1022 24.5756 35.8436 26.4887 35.8436C32.8028 35.8436 38.4771 38.6554 42.4025 43.1277L42.4004 43.1256Z" fill="#E9ECEF"/>
<path d="M11.8896 71.4561C11.8896 65.918 22.6675 60.2443 36.893 59.0449C36.8768 58.7216 36.8687 58.3962 36.8687 58.0687C27.7062 55.5551 20.9549 46.9465 20.9549 36.715C20.9549 36.6712 20.9549 36.6295 20.9549 36.5857C11.7925 39.0972 5.03906 47.7058 5.03906 57.9393C5.03906 67.1466 10.5049 75.0377 18.2766 78.3585C14.2744 76.4519 11.8896 74.0594 11.8896 71.4541V71.4561Z" fill="#DEE2E6"/>
<path d="M36.8659 58.0694C36.8659 58.0256 36.8659 57.9839 36.8659 57.9401C36.8659 52.2414 38.9611 47.0453 42.3986 43.1259C38.4732 38.6536 32.7989 35.8418 26.4848 35.8418C24.5717 35.8418 22.7194 36.1005 20.9541 36.5844C20.9541 36.6282 20.9541 36.6699 20.9541 36.7137C20.9541 46.9473 27.7055 55.5538 36.8679 58.0674L36.8659 58.0694Z" fill="#CED4DA"/>
<path d="M79.7602 57.9396C79.7602 47.706 73.0088 39.0995 63.8464 36.5859C63.8464 36.6297 63.8464 36.6715 63.8464 36.7153C63.8464 46.9488 57.093 55.5575 47.9305 58.071C47.9305 58.3985 47.9204 58.7239 47.9062 59.0472C62.1357 60.2445 72.9177 65.9183 72.9177 71.4585C72.9177 74.0701 70.5046 76.4772 66.4578 78.39C74.2639 75.0859 79.7602 67.1761 79.7602 57.9417V57.9396Z" fill="#C1C6CC"/>
<path d="M42.3984 43.126C45.8379 47.0454 47.9311 52.2415 47.9311 57.9403C47.9311 57.9841 47.9311 58.0258 47.9311 58.0696C57.0956 55.556 63.8469 46.9495 63.8469 36.7138C63.8469 36.67 63.8469 36.6283 63.8469 36.5845C62.0817 36.1006 60.2273 35.8398 58.3143 35.8398C52.0002 35.8398 46.3258 38.6517 42.4005 43.1239L42.3984 43.126Z" fill="#AEB6BF"/>
<path d="M36.8673 58.0696C36.8673 58.3971 36.8774 58.7225 36.8915 59.0458C38.6791 58.8956 40.5213 58.8143 42.402 58.8143C44.2826 58.8143 46.1188 58.8935 47.9043 59.0437C47.9205 58.7204 47.9286 58.395 47.9286 58.0675C46.1633 58.5515 44.311 58.8101 42.3979 58.8101C40.4849 58.8101 38.6305 58.5515 36.8652 58.0654L36.8673 58.0696Z" fill="#ACACAC"/>
<path d="M42.3989 43.127C38.9594 47.0464 36.8662 52.2425 36.8662 57.9412C36.8662 57.985 36.8662 58.0267 36.8662 58.0705C38.6315 58.5545 40.4858 58.8152 42.3989 58.8152C44.3119 58.8152 46.1643 58.5566 47.9295 58.0726C47.9295 58.0288 47.9295 57.9871 47.9295 57.9433C47.9295 52.2445 45.8343 47.0485 42.3969 43.129L42.3989 43.127Z" fill="#A9AEB3"/>
<path d="M42.4001 72.7533C38.4748 77.2255 32.8004 80.0374 26.4863 80.0374C23.5772 80.0374 20.8058 79.4387 18.2773 78.3582C23.8586 81.0157 32.5878 82.722 42.4041 82.722C52.2204 82.722 60.8747 81.024 66.458 78.3853C63.9457 79.4491 61.1966 80.0353 58.3139 80.0353C51.9998 80.0353 46.3254 77.2235 42.4001 72.7512V72.7533Z" fill="#A9AEB3"/>
<path d="M42.4003 72.7556C39.1856 69.0906 37.145 64.3118 36.894 59.0469C22.6685 60.2442 11.8906 65.9179 11.8906 71.4581C11.8906 74.0614 14.2733 76.456 18.2776 78.3626C20.8061 79.4431 23.5795 80.0417 26.4865 80.0417C32.8006 80.0417 38.475 77.2299 42.4003 72.7577V72.7556Z" fill="#899199"/>
<path d="M72.9162 71.4581C72.9162 65.9179 62.1343 60.2442 47.9048 59.0469C47.6538 64.3118 45.6132 69.0927 42.3984 72.7556C46.3237 77.2278 51.9981 80.0396 58.3122 80.0396C61.195 80.0396 63.9461 79.4514 66.4564 78.3897C70.5032 76.4769 72.9162 74.0697 72.9162 71.4581Z" fill="#757A80"/>
<path d="M36.8936 59.0439C37.1446 64.3088 39.1852 69.0876 42.3999 72.7526C45.6147 69.0876 47.6553 64.3088 47.9063 59.0439C46.1208 58.8937 44.2826 58.8145 42.404 58.8145C40.5253 58.8145 38.6811 58.8958 36.8936 59.046V59.0439Z" fill="#72777D"/>
<path d="M51.2353 11.7676C51.2353 6.7481 47.2872 2.66016 42.3989 2.66016C37.5106 2.66016 33.5625 6.72865 33.5625 11.7676C39.2624 9.6003 45.535 9.6003 51.2348 11.7676H51.2353Z" fill="#F1F3F5"/>
<path d="M30.2451 89.0868H30.2638C30.2638 96.0101 35.7039 101.617 42.4213 101.617C49.1387 101.617 54.5788 96.0101 54.5788 89.0868C46.7327 86.1117 38.1099 86.1117 30.2459 89.0868H30.2451Z" fill="#879098"/>
</g>
</svg>
