<svg width="85" height="113" viewBox="0 0 85 113" fill="none" xmlns="http://www.w3.org/2000/svg">
<g opacity="0.5">
<g opacity="0.8">
<path d="M42.4035 58.8172C54.2483 58.8172 63.85 48.9237 63.85 36.7189C63.85 24.5142 54.2483 14.6206 42.4035 14.6206C30.5588 14.6206 20.957 24.5142 20.957 36.7189C20.957 48.9237 30.5588 58.8172 42.4035 58.8172Z" fill="#6CDDAF"/>
</g>
<path opacity="0.8" d="M26.4875 80.0421C38.3322 80.0421 47.934 70.1485 47.934 57.9438C47.934 45.739 38.3322 35.8455 26.4875 35.8455C14.6427 35.8455 5.04102 45.739 5.04102 57.9438C5.04102 70.1485 14.6427 80.0421 26.4875 80.0421Z" fill="#00C78F"/>
<path d="M58.3137 80.0418C70.1584 80.0418 79.7601 70.1483 79.7601 57.9435C79.7601 45.7388 70.1584 35.8452 58.3137 35.8452C46.4689 35.8452 36.8672 45.7388 36.8672 57.9435C36.8672 70.1483 46.4689 80.0418 58.3137 80.0418Z" fill="#00AB8E"/>
<path opacity="0.8" d="M72.9201 71.4591C72.9201 77.6751 59.2635 82.7273 42.4063 82.7273C25.5492 82.7273 11.8926 77.6939 11.8926 71.4591C11.8926 65.2242 25.5492 58.8184 42.4063 58.8184C59.2635 58.8184 72.9201 65.2242 72.9201 71.4591Z" fill="#008855"/>
<path d="M42.4014 43.1292C46.3267 38.657 52.0011 35.8452 58.3152 35.8452C60.2283 35.8452 62.0826 36.1038 63.8479 36.5898C63.7811 24.4435 54.2057 14.6208 42.4034 14.6208C30.6012 14.6208 21.0258 24.4456 20.959 36.5898C22.7243 36.1059 24.5766 35.8473 26.4896 35.8473C32.8037 35.8473 38.4781 38.6591 42.4034 43.1313L42.4014 43.1292Z" fill="#E9ECEF"/>
<path d="M11.8916 71.46C11.8916 65.9219 22.6695 60.2482 36.8949 59.0488C36.8787 58.7255 36.8706 58.4001 36.8706 58.0726C27.7082 55.559 20.9568 46.9504 20.9568 36.7189C20.9568 36.6751 20.9568 36.6334 20.9568 36.5896C11.7944 39.1011 5.04102 47.7097 5.04102 57.9432C5.04102 67.1505 10.5069 75.0416 18.2786 78.3624C14.2763 76.4558 11.8916 74.0633 11.8916 71.458V71.46Z" fill="#DEE2E6"/>
<path d="M36.8688 58.0729C36.8688 58.0291 36.8688 57.9873 36.8688 57.9435C36.8688 52.2448 38.9641 47.0487 42.4015 43.1293C38.4762 38.657 32.8018 35.8452 26.4877 35.8452C24.5746 35.8452 22.7223 36.1039 20.957 36.5878C20.957 36.6316 20.957 36.6733 20.957 36.7171C20.957 46.9507 27.7084 55.5572 36.8708 58.0708L36.8688 58.0729Z" fill="#CED4DA"/>
<path d="M79.7621 57.943C79.7621 47.7094 73.0107 39.1029 63.8483 36.5894C63.8483 36.6332 63.8483 36.6749 63.8483 36.7187C63.8483 46.9522 57.0949 55.5609 47.9325 58.0744C47.9325 58.4019 47.9224 58.7273 47.9082 59.0506C62.1377 60.248 72.9196 65.9217 72.9196 71.4619C72.9196 74.0735 70.5066 76.4806 66.4598 78.3934C74.2659 75.0893 79.7621 67.1795 79.7621 57.9451V57.943Z" fill="#C1C6CC"/>
<path d="M42.4004 43.1294C45.8398 47.0489 47.9331 52.2449 47.9331 57.9437C47.9331 57.9875 47.9331 58.0292 47.9331 58.073C57.0975 55.5595 63.8489 46.9529 63.8489 36.7173C63.8489 36.6735 63.8489 36.6317 63.8489 36.5879C62.0836 36.104 60.2293 35.8433 58.3162 35.8433C52.0021 35.8433 46.3277 38.6551 42.4024 43.1273L42.4004 43.1294Z" fill="#AEB6BF"/>
<path d="M36.8692 58.073C36.8692 58.4005 36.8793 58.7259 36.8935 59.0492C38.681 58.899 40.5232 58.8177 42.4039 58.8177C44.2846 58.8177 46.1207 58.897 47.9062 59.0471C47.9224 58.7238 47.9305 58.3984 47.9305 58.0709C46.1652 58.5549 44.3129 58.8135 42.3999 58.8135C40.4868 58.8135 38.6325 58.5549 36.8672 58.0688L36.8692 58.073Z" fill="#ACACAC"/>
<path d="M42.4018 43.1304C38.9624 47.0498 36.8691 52.2459 36.8691 57.9446C36.8691 57.9884 36.8691 58.0302 36.8691 58.074C38.6344 58.5579 40.4888 58.8186 42.4018 58.8186C44.3149 58.8186 46.1672 58.56 47.9325 58.076C47.9325 58.0322 47.9325 57.9905 47.9325 57.9467C47.9325 52.248 45.8372 47.0519 42.3998 43.1325L42.4018 43.1304Z" fill="#A9AEB3"/>
<path d="M42.402 72.7572C38.4767 77.2294 32.8023 80.0413 26.4882 80.0413C23.5792 80.0413 20.8078 79.4426 18.2793 78.3621C23.8606 81.0196 32.5898 82.7259 42.4061 82.7259C52.2224 82.7259 60.8767 81.0279 66.46 78.3892C63.9477 79.453 61.1986 80.0392 58.3158 80.0392C52.0017 80.0392 46.3273 77.2274 42.402 72.7551V72.7572Z" fill="#A9AEB3"/>
<path d="M42.4023 72.759C39.1875 69.094 37.147 64.3152 36.8959 59.0503C22.6705 60.2476 11.8926 65.9213 11.8926 71.4616C11.8926 74.0648 14.2753 76.4594 18.2796 78.366C20.808 79.4465 23.5815 80.0452 26.4885 80.0452C32.8026 80.0452 38.477 77.2333 42.4023 72.7611V72.759Z" fill="#899199"/>
<path d="M72.9182 71.4616C72.9182 65.9213 62.1362 60.2476 47.9068 59.0503C47.6557 64.3152 45.6151 69.0961 42.4004 72.759C46.3257 77.2312 52.0001 80.0431 58.3142 80.0431C61.1969 80.0431 63.9481 79.4548 66.4583 78.3931C70.5051 76.4803 72.9182 74.0731 72.9182 71.4616Z" fill="#757A80"/>
<path d="M36.8945 59.0478C37.1456 64.3127 39.1861 69.0916 42.4009 72.7565C45.6156 69.0916 47.6562 64.3127 47.9073 59.0478C46.1217 58.8976 44.2836 58.8184 42.4049 58.8184C40.5263 58.8184 38.6821 58.8997 36.8945 59.0499V59.0478Z" fill="#72777D"/>
<path d="M51.2372 11.7715C51.2372 6.752 47.2891 2.66406 42.4008 2.66406C37.5125 2.66406 33.5645 6.73255 33.5645 11.7715C39.2643 9.60421 45.5369 9.60421 51.2368 11.7715H51.2372Z" fill="#F1F3F5"/>
<path d="M30.248 89.0902H30.2667C30.2667 96.0135 35.7068 101.62 42.4242 101.62C49.1416 101.62 54.5817 96.0135 54.5817 89.0902C46.7356 86.1151 38.1128 86.1151 30.2489 89.0902H30.248Z" fill="#879098"/>
</g>
</svg>
