<svg width="292" height="202" viewBox="0 0 292 202" fill="none" xmlns="http://www.w3.org/2000/svg">
<g opacity="0.5">
<g opacity="0.8">
<path d="M145.499 86.8561C156.357 86.8561 165.158 77.7575 165.158 66.5335C165.158 55.3095 156.357 46.2109 145.499 46.2109C134.641 46.2109 125.84 55.3095 125.84 66.5335C125.84 77.7575 134.641 86.8561 145.499 86.8561Z" fill="#6CDDAF"/>
</g>
<path opacity="0.8" d="M130.909 106.372C141.767 106.372 150.569 97.2731 150.569 86.0491C150.569 74.8251 141.767 65.7266 130.909 65.7266C120.052 65.7266 111.25 74.8251 111.25 86.0491C111.25 97.2731 120.052 106.372 130.909 106.372Z" fill="#00C78F"/>
<path d="M160.085 106.372C170.943 106.372 179.744 97.2731 179.744 86.0491C179.744 74.8251 170.943 65.7266 160.085 65.7266C149.227 65.7266 140.426 74.8251 140.426 86.0491C140.426 97.2731 149.227 106.372 160.085 106.372Z" fill="#00AB8E"/>
<path opacity="0.8" d="M173.473 98.4765C173.473 104.193 160.955 108.839 145.502 108.839C130.05 108.839 117.531 104.21 117.531 98.4765C117.531 92.7427 130.05 86.8516 145.502 86.8516C160.955 86.8516 173.473 92.7427 173.473 98.4765Z" fill="#008855"/>
<path d="M145.499 72.4285C149.098 68.3156 154.299 65.7297 160.087 65.7297C161.841 65.7297 163.54 65.9676 165.159 66.4146C165.097 55.2443 156.32 46.2109 145.501 46.2109C134.682 46.2109 125.905 55.2462 125.844 66.4146C127.462 65.9695 129.16 65.7317 130.914 65.7317C136.701 65.7317 141.903 68.3175 145.501 72.4304L145.499 72.4285Z" fill="#E9ECEF"/>
<path d="M117.53 98.4824C117.53 93.3893 127.409 88.1715 140.449 87.0685C140.435 86.7711 140.427 86.4719 140.427 86.1707C132.028 83.8592 125.84 75.9423 125.84 66.533C125.84 66.4927 125.84 66.4543 125.84 66.4141C117.441 68.7237 111.25 76.6406 111.25 86.0518C111.25 94.5192 116.26 101.776 123.384 104.83C119.716 103.077 117.53 100.876 117.53 98.4805V98.4824Z" fill="#DEE2E6"/>
<path d="M140.426 86.1681C140.426 86.1278 140.426 86.0894 140.426 86.0491C140.426 80.8083 142.346 76.0298 145.497 72.4253C141.899 68.3124 136.698 65.7266 130.91 65.7266C129.156 65.7266 127.458 65.9644 125.84 66.4095C125.84 66.4498 125.84 66.4881 125.84 66.5284C125.84 75.9396 132.029 83.8546 140.427 86.1661L140.426 86.1681Z" fill="#CED4DA"/>
<path d="M179.742 86.0518C179.742 76.6406 173.554 68.7256 165.155 66.4141C165.155 66.4543 165.155 66.4927 165.155 66.533C165.155 75.9442 158.964 83.8611 150.565 86.1726C150.565 86.4738 150.556 86.7731 150.543 87.0704C163.587 88.1715 173.47 93.3893 173.47 98.4844C173.47 100.886 171.258 103.1 167.549 104.859C174.704 101.82 179.742 94.5461 179.742 86.0537V86.0518Z" fill="#C1C6CC"/>
<path d="M145.496 72.4272C148.649 76.0317 150.568 80.8102 150.568 86.051C150.568 86.0913 150.568 86.1297 150.568 86.17C158.968 83.8584 165.157 75.9435 165.157 66.5303C165.157 66.49 165.157 66.4517 165.157 66.4114C163.539 65.9663 161.839 65.7266 160.086 65.7266C154.298 65.7266 149.096 68.3124 145.498 72.4253L145.496 72.4272Z" fill="#AEB6BF"/>
<path d="M140.428 86.1679C140.428 86.4691 140.437 86.7683 140.45 87.0657C142.088 86.9276 143.777 86.8527 145.501 86.8527C147.225 86.8527 148.908 86.9256 150.545 87.0637C150.56 86.7664 150.567 86.4672 150.567 86.166C148.949 86.611 147.251 86.8489 145.497 86.8489C143.744 86.8489 142.044 86.611 140.426 86.1641L140.428 86.1679Z" fill="#ACACAC"/>
<path d="M145.497 72.4297C142.345 76.0342 140.426 80.8127 140.426 86.0535C140.426 86.0938 140.426 86.1322 140.426 86.1725C142.044 86.6175 143.744 86.8573 145.497 86.8573C147.251 86.8573 148.949 86.6194 150.567 86.1744C150.567 86.1341 150.567 86.0957 150.567 86.0554C150.567 80.8146 148.647 76.0361 145.496 72.4316L145.497 72.4297Z" fill="#A9AEB3"/>
<path d="M145.499 99.6738C141.901 103.787 136.699 106.373 130.912 106.373C128.245 106.373 125.704 105.822 123.387 104.828C128.503 107.272 136.505 108.841 145.503 108.841C154.501 108.841 162.434 107.28 167.552 104.853C165.249 105.832 162.729 106.371 160.087 106.371C154.299 106.371 149.097 103.785 145.499 99.6719V99.6738Z" fill="#A9AEB3"/>
<path d="M145.498 99.6774C142.552 96.307 140.681 91.9121 140.451 87.0703C127.411 88.1714 117.531 93.3892 117.531 98.4842C117.531 100.878 119.715 103.081 123.386 104.834C125.704 105.828 128.246 106.378 130.911 106.378C136.699 106.378 141.9 103.792 145.498 99.6794V99.6774Z" fill="#899199"/>
<path d="M173.471 98.4842C173.471 93.3892 163.587 88.1714 150.544 87.0703C150.313 91.9121 148.443 96.3089 145.496 99.6774C149.094 103.79 154.296 106.376 160.084 106.376C162.726 106.376 165.248 105.835 167.549 104.859C171.259 103.1 173.471 100.886 173.471 98.4842Z" fill="#757A80"/>
<path d="M140.449 87.0626C140.679 91.9044 142.55 96.2992 145.497 99.6697C148.444 96.2992 150.314 91.9044 150.544 87.0626C148.907 86.9245 147.223 86.8516 145.5 86.8516C143.778 86.8516 142.088 86.9264 140.449 87.0645V87.0626Z" fill="#72777D"/>
<path d="M153.595 43.5865C153.595 38.9704 149.975 35.2109 145.495 35.2109C141.014 35.2109 137.395 38.9525 137.395 43.5865C142.619 41.5934 148.369 41.5934 153.594 43.5865H153.595Z" fill="#F1F3F5"/>
<path d="M134.355 114.693H134.373C134.373 121.06 139.359 126.216 145.517 126.216C151.675 126.216 156.661 121.06 156.661 114.693C149.469 111.957 141.565 111.957 134.356 114.693H134.355Z" fill="#879098"/>
</g>
<path d="M85.144 152.175V164.635H83.492V152.175H85.144ZM74.476 157.579C74.476 154.793 75.54 153.071 77.192 153.071C78.228 153.071 79.04 153.757 79.502 154.947H80.972V152.371H82.596V164.047H80.972V160.211H79.502C79.04 161.415 78.228 162.101 77.192 162.087C75.54 162.101 74.476 160.379 74.476 157.579ZM76.072 157.579C76.058 159.497 76.45 160.435 77.192 160.435C77.906 160.435 78.34 159.497 78.34 157.579C78.34 155.675 77.906 154.723 77.192 154.723C76.45 154.723 76.058 155.675 76.072 157.579ZM79.852 156.347C79.908 156.725 79.936 157.145 79.936 157.579C79.936 158.013 79.908 158.405 79.852 158.783H80.972V156.347H79.852ZM96.9636 152.175V159.567H95.2276V156.627H93.2676V155.227H95.2276V152.175H96.9636ZM86.3796 158.195C88.4236 157.523 89.3616 155.899 89.4036 154.331H86.8836V152.931H93.6316V154.331H91.1676C91.1956 155.773 92.0916 157.243 94.0236 157.887L93.1556 159.259C91.7976 158.811 90.8456 157.915 90.2996 156.795C89.7536 158.069 88.7736 159.077 87.3036 159.595L86.3796 158.195ZM88.4236 162.255C88.4236 160.743 90.0476 159.861 92.7076 159.847C95.3676 159.861 96.9916 160.743 96.9916 162.255C96.9916 163.767 95.3676 164.649 92.7076 164.663C90.0476 164.649 88.4236 163.767 88.4236 162.255ZM90.1596 162.255C90.1596 162.969 91.0556 163.319 92.7076 163.319C94.3596 163.319 95.2556 162.969 95.2556 162.255C95.2556 161.541 94.3596 161.177 92.7076 161.191C91.0556 161.177 90.1596 161.541 90.1596 162.255ZM105.815 156.011V157.411H103.603V158.657C104.583 158.615 105.563 158.545 106.487 158.447L106.599 159.707C103.967 160.071 101.153 160.127 98.8432 160.127L98.6192 158.755C99.6272 158.755 100.733 158.741 101.867 158.713V157.411H99.6832V152.931H105.731V154.331H101.419V156.011H105.815ZM100.551 164.411V160.855H102.315V163.011H109.371V164.411H100.551ZM107.243 161.555V152.175H109.007V161.555H107.243ZM120.497 153.155C120.497 154.625 121.995 156.249 124.837 156.599L124.165 158.027C121.981 157.705 120.385 156.697 119.587 155.339C118.775 156.697 117.179 157.705 115.009 158.027L114.337 156.599C117.165 156.249 118.663 154.625 118.649 153.155V152.567H120.497V153.155ZM113.889 160.379V158.951H125.257V160.379H120.413V164.635H118.677V160.379H113.889ZM129.461 152.707C131.043 152.707 132.317 153.617 132.667 154.947H134.753V152.175H136.489V158.867H134.753V156.347H132.681C132.345 157.705 131.071 158.643 129.461 158.643C127.557 158.643 126.143 157.397 126.157 155.675C126.143 153.953 127.557 152.707 129.461 152.707ZM127.809 155.675C127.809 156.599 128.495 157.187 129.461 157.187C130.413 157.187 131.085 156.599 131.085 155.675C131.085 154.737 130.413 154.163 129.461 154.163C128.495 154.163 127.809 154.737 127.809 155.675ZM128.173 164.495V159.427H129.909V160.631H134.753V159.427H136.489V164.495H128.173ZM129.909 163.095H134.753V161.975H129.909V163.095ZM144.871 152.567C146.747 152.553 148.175 153.743 148.175 155.395C148.175 157.047 146.747 158.223 144.871 158.223C142.939 158.223 141.511 157.047 141.511 155.395C141.511 153.743 142.939 152.553 144.871 152.567ZM143.219 155.395C143.191 156.291 143.905 156.823 144.871 156.823C145.795 156.823 146.495 156.291 146.495 155.395C146.495 154.513 145.795 153.981 144.871 153.995C143.905 153.981 143.191 154.513 143.219 155.395ZM143.387 160.295V158.951H151.731V162.311H145.123V163.123H152.067V164.495H143.415V161.051H149.995V160.295H143.387ZM149.995 158.419V152.175H151.731V158.419H149.995ZM163.915 152.175V159.567H162.179V156.627H160.219V155.227H162.179V152.175H163.915ZM153.331 158.195C155.375 157.523 156.313 155.899 156.355 154.331H153.835V152.931H160.583V154.331H158.119C158.147 155.773 159.043 157.243 160.975 157.887L160.107 159.259C158.749 158.811 157.797 157.915 157.251 156.795C156.705 158.069 155.725 159.077 154.255 159.595L153.331 158.195ZM155.375 162.255C155.375 160.743 156.999 159.861 159.659 159.847C162.319 159.861 163.943 160.743 163.943 162.255C163.943 163.767 162.319 164.649 159.659 164.663C156.999 164.649 155.375 163.767 155.375 162.255ZM157.111 162.255C157.111 162.969 158.007 163.319 159.659 163.319C161.311 163.319 162.207 162.969 162.207 162.255C162.207 161.541 161.311 161.177 159.659 161.191C158.007 161.177 157.111 161.541 157.111 162.255ZM175.93 152.175V164.663H174.166V152.175H175.93ZM165.878 157.495C165.878 154.779 167.278 153.071 169.182 153.071C171.058 153.071 172.444 154.779 172.458 157.495C172.444 160.225 171.058 161.947 169.182 161.947C167.278 161.947 165.878 160.225 165.878 157.495ZM167.558 157.495C167.558 159.357 168.216 160.351 169.182 160.351C170.12 160.351 170.764 159.357 170.778 157.495C170.764 155.647 170.12 154.639 169.182 154.639C168.216 154.639 167.558 155.647 167.558 157.495ZM183.837 159.483V160.715H185.181V159.483H186.777V163.235C188.177 162.633 188.765 161.457 188.765 160.323V159.371H190.501V160.323C190.501 161.597 191.117 162.801 192.657 163.291L191.761 164.607C190.697 164.229 190.011 163.529 189.605 162.647C189.199 163.501 188.513 164.215 187.505 164.607L186.777 163.501V164.495H182.213V159.483H183.837ZM181.009 155.591C180.995 153.869 182.409 152.665 184.313 152.651C185.895 152.665 187.155 153.533 187.519 154.863H189.605V152.175H191.341V158.783H189.605V156.291H187.519C187.183 157.649 185.909 158.531 184.313 158.531C182.409 158.531 180.995 157.327 181.009 155.591ZM182.661 155.591C182.661 156.529 183.347 157.103 184.313 157.103C185.265 157.103 185.937 156.529 185.937 155.591C185.937 154.667 185.265 154.093 184.313 154.107C183.347 154.093 182.661 154.667 182.661 155.591ZM183.837 163.179H185.181V162.003H183.837V163.179ZM196.384 153.071C198.05 153.071 199.31 154.443 199.562 156.683H201.732V152.175H203.44V164.663H201.732V158.083H199.576C199.394 160.463 198.106 161.947 196.384 161.947C194.48 161.947 193.136 160.225 193.136 157.495C193.136 154.779 194.48 153.071 196.384 153.071ZM194.816 157.495C194.802 159.357 195.446 160.351 196.384 160.351C197.322 160.351 197.938 159.357 197.952 157.495C197.938 155.647 197.322 154.639 196.384 154.639C195.446 154.639 194.802 155.647 194.816 157.495ZM216.436 161.751V163.179H205.04V161.751H207.588V158.699C206.622 158.111 206.048 157.229 206.048 156.123C206.048 154.135 208.022 152.791 210.724 152.791C213.412 152.791 215.4 154.135 215.4 156.123C215.4 157.215 214.826 158.097 213.888 158.671V161.751H216.436ZM207.756 156.123C207.77 157.355 208.932 158.111 210.724 158.111C212.474 158.111 213.678 157.355 213.692 156.123C213.678 154.891 212.474 154.163 210.724 154.163C208.932 154.163 207.77 154.891 207.756 156.123ZM209.324 161.751H212.124V159.329C211.69 159.413 211.214 159.455 210.724 159.455C210.234 159.455 209.758 159.413 209.324 159.329V161.751Z" fill="#A9AEB3"/>
</svg>
