<svg width="45" height="55" viewBox="0 0 45 55" fill="none" xmlns="http://www.w3.org/2000/svg">
<mask id="mask0_3211_37262" style="mask-type:alpha" maskUnits="userSpaceOnUse" x="3" y="2" width="38" height="52">
<path fill-rule="evenodd" clip-rule="evenodd" d="M23.6248 2.27028C21.9458 3.74757 19.6048 6.94304 19.4677 9.55061C19.2092 14.4673 22.0826 14.7265 22.9675 14.7719C23.8524 14.8173 26.7568 14.7797 27.0114 9.93742C27.1538 7.22878 24.9753 3.94154 23.6248 2.27028ZM20.9564 53.2303C31.0413 53.7474 39.6457 46.0068 40.1749 35.9411C40.7041 25.8755 32.9577 17.2965 22.8728 16.7793C12.7879 16.2622 4.18346 24.0029 3.65424 34.0685C3.12502 44.1341 10.8714 52.7131 20.9564 53.2303Z" fill="#FF623D"/>
</mask>
<g mask="url(#mask0_3211_37262)">
<ellipse opacity="0.7" cx="9.2921" cy="10.1174" rx="9.2921" ry="10.1174" transform="matrix(0.998632 0.0512054 -0.052507 0.998677 27.5586 31.1199)" fill="#FF3F18"/>
<ellipse opacity="0.6" cx="13.2968" cy="14.4777" rx="13.2968" ry="14.4777" transform="matrix(0.998632 0.0512054 -0.052507 0.998677 9.01465 34.8608)" fill="#FF3F18"/>
<ellipse opacity="0.8" cx="19.2906" cy="21.0768" rx="19.2906" ry="21.0768" transform="matrix(0.998632 0.0512054 -0.052507 0.998677 -7.02441 5.14136)" fill="#FF3F18"/>
<ellipse opacity="0.4" cx="13.1863" cy="14.4073" rx="13.1863" ry="14.4073" transform="matrix(0.998632 0.0512054 -0.052507 0.998677 -6.82812 12.2319)" fill="#EB2706"/>
<ellipse opacity="0.3" cx="19.941" cy="21.712" rx="19.941" ry="21.712" transform="matrix(0.998632 0.0512054 -0.052507 0.998677 8.41895 16.9985)" fill="#FF3F18"/>
<ellipse opacity="0.3" cx="12.825" cy="13.964" rx="12.825" ry="13.964" transform="matrix(0.998632 0.0512054 -0.052507 0.998677 28.7354 -0.631348)" fill="#FF3F18"/>
<path opacity="0.6" fill-rule="evenodd" clip-rule="evenodd" d="M23.6352 0.170737L18.024 0.170737L18.0054 14.5008L22.9607 14.5008L22.9513 14.6793L28.4869 14.9631L29.2393 0.652787L23.7037 0.368944L23.6333 1.70838L23.6352 0.170737Z" fill="#00D6A2"/>
<rect width="5.54321" height="14.3293" transform="matrix(0.999944 3.45832e-10 -0.00129755 1.00006 23.5488 1.26538)" fill="#038F7E"/>
<rect width="7.51093" height="4.3446" transform="matrix(0.729143 -0.684279 0.683409 0.730113 21.3428 12.9004)" fill="#0DA98F"/>
<rect width="5.54321" height="14.3293" transform="matrix(0.999944 3.45832e-10 -0.00129755 1.00006 18.041 0.926025)" fill="#00D6A2"/>
<ellipse opacity="0.5" cx="3.41035" cy="1.64539" rx="3.41035" ry="1.64539" transform="matrix(0.663432 -0.748967 0.749532 0.661142 7.25195 26.5266)" fill="white"/>
<ellipse opacity="0.5" cx="3.40747" cy="1.64678" rx="3.40747" ry="1.64678" transform="matrix(0.09987 -0.995109 0.99504 0.0983894 7.24805 31.9302)" fill="white"/>
</g>
<mask id="mask1_3211_37262" style="mask-type:alpha" maskUnits="userSpaceOnUse" x="3" y="2" width="38" height="52">
<path fill-rule="evenodd" clip-rule="evenodd" d="M34.9412 2.44413C33.2622 3.92142 30.9212 7.11689 30.7841 9.72446C30.5256 14.6411 33.3989 14.9004 34.2839 14.9457C35.1688 14.9911 38.0731 14.9535 38.3277 10.1113C38.4701 7.40262 36.2917 4.11539 34.9412 2.44413ZM20.9556 53.2295C31.0405 53.7466 39.6449 46.006 40.1741 35.9403C40.7034 25.8747 32.9569 17.2957 22.872 16.7786C12.7871 16.2615 4.18267 24.0021 3.65346 34.0677C3.12424 44.1334 10.8707 52.7124 20.9556 53.2295Z" fill="#FF623D"/>
</mask>
<g mask="url(#mask1_3211_37262)">
<path opacity="0.5" d="M39.9974 34.0065C39.6079 41.4143 32.5718 45.1606 25.7921 44.813C19.0124 44.4653 13.8321 38.1783 14.2215 30.7705C14.611 23.3626 20.4228 17.6392 27.2025 17.9869C33.9822 18.3345 40.3868 26.5987 39.9974 34.0065Z" fill="#FF3F18"/>
<ellipse opacity="0.6" cx="26.0945" cy="47.5319" rx="15.6587" ry="15.6587" transform="rotate(-1.69869 26.0945 47.5319)" fill="#EB2706"/>
<ellipse opacity="0.5" cx="26.8978" cy="49.4766" rx="14.1677" ry="14.1677" transform="rotate(-1.69869 26.8978 49.4766)" fill="#EB2706"/>
<ellipse opacity="0.5" cx="9.2921" cy="10.1174" rx="9.2921" ry="10.1174" transform="matrix(0.998632 0.0512054 -0.052507 0.998677 27.2617 31.5662)" fill="#FF3F18"/>
<ellipse opacity="0.5" cx="7.42733" cy="8.08698" rx="7.42733" ry="8.08698" transform="matrix(0.998632 0.0512054 -0.052507 0.998677 31.1035 33.6396)" fill="#FF3F18"/>
<circle opacity="0.7" cx="27.1899" cy="49.0857" r="10.5707" transform="rotate(-1.69869 27.1899 49.0857)" fill="#EB2706"/>
</g>
</svg>
