<svg width="8" height="16" viewBox="0 0 8 16" fill="none" xmlns="http://www.w3.org/2000/svg">
<path d="M7.69408 1.11677C7.88996 1.31979 8 1.5951 8 1.88216C8 2.16922 7.88996 2.44453 7.69408 2.64755L2.52205 8.00634L7.69408 13.3651C7.88441 13.5693 7.98973 13.8428 7.98734 14.1266C7.98496 14.4105 7.87508 14.682 7.68135 14.8827C7.48763 15.0834 7.22557 15.1973 6.95161 15.1998C6.67765 15.2022 6.41372 15.0931 6.21666 14.8959L0.30592 8.77173C0.11004 8.56871 4.76837e-07 8.2934 4.76837e-07 8.00634C4.76837e-07 7.71928 0.11004 7.44397 0.30592 7.24095L6.21666 1.11677C6.4126 0.913818 6.67831 0.799805 6.95537 0.799805C7.23243 0.799805 7.49814 0.913818 7.69408 1.11677Z" fill="#757A80"/>
</svg>
