<svg width="40" height="40" viewBox="0 0 40 40" fill="none" xmlns="http://www.w3.org/2000/svg">
<path d="M23.6941 13.1168C23.89 13.3198 24 13.5951 24 13.8822C24 14.1692 23.89 14.4445 23.6941 14.6475L18.5221 20.0063L23.6941 25.3651C23.8844 25.5693 23.9897 25.8428 23.9873 26.1266C23.985 26.4105 23.8751 26.682 23.6814 26.8827C23.4876 27.0834 23.2256 27.1973 22.9516 27.1998C22.6777 27.2022 22.4137 27.0931 22.2167 26.8959L16.3059 20.7717C16.11 20.5687 16 20.2934 16 20.0063C16 19.7193 16.11 19.444 16.3059 19.241L22.2167 13.1168C22.4126 12.9138 22.6783 12.7998 22.9554 12.7998C23.2324 12.7998 23.4981 12.9138 23.6941 13.1168Z" fill="#757A80"/>
</svg>
