<svg width="56" height="30" viewBox="0 0 56 30" fill="none" xmlns="http://www.w3.org/2000/svg">
<rect x="0.601562" y="1" width="54" height="28" rx="7.5" fill="#0DA98E"/>
<path d="M16.5771 9.71289V14.9658H15.2021V9.71289H16.5771ZM8.54199 12.4414C8.54199 11.0664 9.69141 10.1104 11.2168 10.1211C12.7368 10.1104 13.8862 11.0664 13.8916 12.4414C13.8862 13.7734 12.7368 14.7295 11.2168 14.7295C9.69141 14.7295 8.54199 13.7734 8.54199 12.4414ZM9.88477 12.4414C9.87402 13.1665 10.4326 13.6016 11.2168 13.6016C11.9795 13.6016 12.5327 13.1665 12.5381 12.4414C12.5327 11.7056 11.9795 11.2544 11.2168 11.2598C10.4326 11.2544 9.87402 11.7056 9.88477 12.4414ZM10.0352 19.3809V15.3955H11.3887V16.3086H15.2129V15.3955H16.5771V19.3809H10.0352ZM11.3887 18.2744H15.2129V17.3721H11.3887V18.2744ZM26.0032 10.1533V10.9375C26.0086 11.7002 26.0086 12.5435 25.7722 13.666H27.0667V14.7725H18.1184V13.666H24.3919C24.6013 12.6938 24.6282 11.9365 24.6389 11.249H19.2141V10.1533H26.0032ZM19.1819 19.3809V15.8037H25.971V19.3809H19.1819ZM20.5247 18.2852H24.6067V16.8779H20.5247V18.2852ZM36.7828 14.1816V15.2988H27.8453V14.1816H36.7828ZM28.8658 17.6836C28.8658 16.5342 30.1548 15.8843 32.2925 15.8896C34.4141 15.8843 35.6871 16.5342 35.6978 17.6836C35.6871 18.8384 34.4141 19.4937 32.2925 19.4883C30.1548 19.4937 28.8658 18.8384 28.8658 17.6836ZM28.9302 13.4941V9.9707H35.7086V11.0771H30.2945V12.4092H35.7623V13.4941H28.9302ZM30.2623 17.6836C30.2569 18.1992 30.939 18.4463 32.2925 18.4463C33.6192 18.4463 34.3174 18.1992 34.3228 17.6836C34.3174 17.1895 33.6192 16.9316 32.2925 16.9316C30.939 16.9316 30.2569 17.1895 30.2623 17.6836ZM46.5096 14.9551V16.0508H37.5614V14.9551H41.3534V14.2461H38.6786V11.5605H44.0496V10.959H38.6571V9.89551H45.4246V12.5488H40.0428V13.1934H45.6073V14.2461H42.7176V14.9551H46.5096ZM38.5604 17.6836V16.6094H45.4784V19.4453H44.0926V17.6836H38.5604Z" fill="white"/>
<rect x="0.601562" y="1" width="54" height="28" rx="7.5" stroke="#45B9A2"/>
</svg>
