<svg width="18" height="18" viewBox="0 0 18 18" fill="none" xmlns="http://www.w3.org/2000/svg">
<circle cx="9" cy="9" r="9" fill="#B0E0D6"/>
<path d="M5.21547 5.21596C5.28491 5.14641 5.36738 5.09124 5.45817 5.0536C5.54895 5.01596 5.64627 4.99658 5.74455 4.99658C5.84283 4.99658 5.94014 5.01596 6.03093 5.0536C6.12171 5.09124 6.20418 5.14641 6.27363 5.21596L8.98891 7.93024L11.7042 5.21596C11.7737 5.14648 11.8562 5.09136 11.9469 5.05376C12.0377 5.01616 12.135 4.9968 12.2333 4.9968C12.3315 4.9968 12.4288 5.01616 12.5196 5.05376C12.6104 5.09136 12.6929 5.14648 12.7624 5.21596C12.8318 5.28544 12.887 5.36792 12.9246 5.4587C12.9622 5.54948 12.9815 5.64678 12.9815 5.74504C12.9815 5.8433 12.9622 5.94059 12.9246 6.03137C12.887 6.12215 12.8318 6.20464 12.7624 6.27412L10.0481 8.9894L12.7624 11.7047C12.9027 11.845 12.9815 12.0353 12.9815 12.2338C12.9815 12.4322 12.9027 12.6225 12.7624 12.7628C12.622 12.9032 12.4317 12.982 12.2333 12.982C12.0348 12.982 11.8445 12.9032 11.7042 12.7628L8.98891 10.0486L6.27363 12.7628C6.13331 12.9032 5.94299 12.982 5.74455 12.982C5.5461 12.982 5.35579 12.9032 5.21547 12.7628C5.07515 12.6225 4.99631 12.4322 4.99631 12.2338C4.99631 12.0353 5.07515 11.845 5.21547 11.7047L7.92975 8.9894L5.21547 6.27412C5.14592 6.20467 5.09075 6.1222 5.05311 6.03142C5.01547 5.94063 4.99609 5.84332 4.99609 5.74504C4.99609 5.64676 5.01547 5.54944 5.05311 5.45866C5.09075 5.36787 5.14592 5.2854 5.21547 5.21596Z" fill="#45B9A2"/>
</svg>
