<svg width="21" height="21" viewBox="0 0 21 21" fill="none" xmlns="http://www.w3.org/2000/svg">
<path d="M8.1912 6.1981C8.06877 6.32499 8 6.49706 8 6.67647C8 6.85589 8.06877 7.02795 8.1912 7.15484L11.4237 10.5041L8.1912 13.8533C8.07224 13.9809 8.00642 14.1519 8.00791 14.3293C8.0094 14.5067 8.07808 14.6764 8.19915 14.8018C8.32023 14.9273 8.48402 14.9984 8.65524 15C8.82647 15.0015 8.99143 14.9333 9.11459 14.8101L12.8088 10.9825C12.9312 10.8556 13 10.6835 13 10.5041C13 10.3247 12.9312 10.1526 12.8088 10.0257L9.11459 6.1981C8.99213 6.07126 8.82606 6 8.65289 6C8.47973 6 8.31366 6.07126 8.1912 6.1981Z" fill="#757A80"/>
</svg>
