<svg width="21" height="21" viewBox="0 0 21 21" fill="none" xmlns="http://www.w3.org/2000/svg">
<path d="M7.76151 5.90514C7.63909 6.03202 7.57031 6.20409 7.57031 6.3835C7.57031 6.56292 7.63909 6.73499 7.76151 6.86187L10.994 10.2111L7.76151 13.5604C7.64256 13.688 7.57673 13.8589 7.57822 14.0363C7.57971 14.2137 7.64839 14.3834 7.76947 14.5089C7.89054 14.6343 8.05433 14.7055 8.22556 14.707C8.39678 14.7085 8.56174 14.6403 8.6849 14.5171L12.3791 10.6895C12.5015 10.5626 12.5703 10.3905 12.5703 10.2111C12.5703 10.0317 12.5015 9.85963 12.3791 9.73275L8.6849 5.90514C8.56244 5.77829 8.39637 5.70703 8.22321 5.70703C8.05005 5.70703 7.88397 5.77829 7.76151 5.90514Z" fill="#757A80"/>
</svg>
