<svg width="40" height="40" viewBox="0 0 40 40" fill="none" xmlns="http://www.w3.org/2000/svg">
<path opacity="0.1" d="M20 40C31.0457 40 40 31.0457 40 20C40 8.9543 31.0457 0 20 0C8.9543 0 0 8.9543 0 20C0 31.0457 8.9543 40 20 40Z" fill="#00C78F"/>
<path opacity="0.1" d="M20.0029 32.7836C27.0634 32.7836 32.787 27.0599 32.787 19.9995C32.787 12.939 27.0634 7.21533 20.0029 7.21533C12.9424 7.21533 7.21875 12.939 7.21875 19.9995C7.21875 27.0599 12.9424 32.7836 20.0029 32.7836Z" fill="#00C78F"/>
<path opacity="0.1" d="M20 13C23.866 13 27 16.134 27 20C27 23.866 23.866 27 20 27C16.134 27 13 23.866 13 20C13 16.134 16.134 13 20 13Z" fill="#00C78F"/>
</svg>
