<svg width="56" height="30" viewBox="0 0 56 30" fill="none" xmlns="http://www.w3.org/2000/svg">
<path d="M16.1475 9.71289V11.6035H17.4688V12.7314H16.1475V14.6006H14.7725V9.71289H16.1475ZM8.45605 12.2158C8.45068 10.9106 9.58398 10.0083 11.0879 10.0029C12.5864 10.0083 13.709 10.9106 13.709 12.2158C13.709 13.5049 12.5864 14.4287 11.0879 14.4287C9.58398 14.4287 8.45068 13.5049 8.45605 12.2158ZM9.65918 16.04V14.9873H16.1475V17.6514H11.0234V18.3066H16.4268V19.3809H9.68066V16.6631H14.7832V16.04H9.65918ZM9.79883 12.2158C9.78809 12.9087 10.3359 13.3438 11.0879 13.3438C11.8345 13.3438 12.377 12.9087 12.377 12.2158C12.377 11.5337 11.8345 11.1201 11.0879 11.1201C10.3359 11.1201 9.78809 11.5337 9.79883 12.2158ZM26.304 9.72363V15.5137H24.929V9.72363H26.304ZM18.6233 11.3564V10.2822H23.1565V13.2148H19.9768V14.0635C21.6096 14.0581 22.7644 14.0151 24.0804 13.7949L24.2522 14.8906C22.7537 15.1323 21.4324 15.1807 19.4934 15.1807H18.6341V12.1729H21.7923V11.3564H18.6233ZM19.7513 19.3809V15.9434H26.304V19.3809H19.7513ZM21.1048 18.2852H24.9612V17.0283H21.1048V18.2852ZM36.0845 9.72363V16.8564H34.7203V13.3545H33.1197V12.248H34.7203V9.72363H36.0845ZM27.7916 14.6543C29.4083 14.1494 30.1387 12.8765 30.1441 11.625V11.4746H28.1783V10.3789H33.4849V11.4746H31.5406V11.6357C31.5352 12.769 32.2335 13.9775 33.7857 14.4824L33.1089 15.5674C32.0294 15.2129 31.2828 14.5039 30.8585 13.6284C30.4234 14.6006 29.6446 15.3901 28.4898 15.7715L27.7916 14.6543ZM29.5963 19.3164V16.2334H30.9713V18.2207H36.3209V19.3164H29.5963ZM42.6961 13.1719V14.375H46.4881V15.4707H37.5721V14.375H41.3426V13.1719H42.6961ZM38.034 12.6885C40.1932 12.4146 41.3158 11.2974 41.3211 10.1963V9.87402H42.7176V10.1963C42.7122 11.3403 43.8079 12.4146 46.0155 12.6885L45.4891 13.752C43.8348 13.5049 42.6209 12.812 42.0033 11.8345C41.3802 12.8066 40.1663 13.5103 38.5174 13.752L38.034 12.6885ZM38.5926 17.7588C38.5926 16.647 39.8763 16.0132 42.0194 16.0078C44.1463 16.0132 45.4139 16.647 45.4246 17.7588C45.4139 18.8706 44.1463 19.4937 42.0194 19.4883C39.8763 19.4937 38.5926 18.8706 38.5926 17.7588ZM39.9891 17.7588C39.9837 18.2368 40.6497 18.4678 42.0194 18.4678C43.3568 18.4678 44.0443 18.2368 44.0496 17.7588C44.0443 17.27 43.3568 17.0552 42.0194 17.0498C40.6497 17.0552 39.9837 17.27 39.9891 17.7588Z" fill="#0DA98F"/>
<rect x="0.601562" y="1" width="54" height="28" rx="7.5" stroke="#45B9A2"/>
</svg>
