<svg width="142" height="64" viewBox="0 0 142 64" fill="none" xmlns="http://www.w3.org/2000/svg">
<rect width="142" height="64" rx="8" fill="#F1F3F5"/>
<path d="M75.0035 17.7973H77.0053C77.5362 17.7973 78.0453 18.0082 78.4207 18.3836C78.7961 18.759 79.007 19.2681 79.007 19.799V29.4073C79.007 29.9382 78.7961 30.4473 78.4207 30.8227C78.0453 31.1981 77.5362 31.409 77.0053 31.409H64.9949C64.464 31.409 63.9549 31.1981 63.5795 30.8227C63.2041 30.4473 62.9932 29.9382 62.9932 29.4073V19.799C62.9932 19.2681 63.2041 18.759 63.5795 18.3836C63.9549 18.0082 64.464 17.7973 64.9949 17.7973H66.9966M75.0035 14.5945L71.0001 10.5911M71.0001 10.5911L66.9966 14.5945M71.0001 10.5911V24.2529" stroke="#757A80" stroke-width="2.35063" stroke-linecap="round" stroke-linejoin="round"/>
<path d="M26.6315 41.6969V45.4149H28.1715V46.2729H26.6315V51.3329H25.6195V41.6969H26.6315ZM19.5475 48.9569V42.6209H24.0355V43.4569H20.5595V48.0989C22.1765 48.0879 23.3865 48.0219 24.7615 47.7689L24.8935 48.6489C23.3865 48.9019 22.0995 48.9569 20.3175 48.9569H19.5475ZM37.5463 46.9769V47.8129H28.7463V46.9769H37.5463ZM29.8463 42.7969V41.9829H36.4463V44.4689H30.8803V45.3929H36.6223V46.1849H29.8683V43.7209H35.4123V42.7969H29.8463ZM29.8903 51.1129V48.4949H30.9023V50.2989H36.6443V51.1129H29.8903ZM45.6247 47.7029C47.6047 47.6919 48.8147 48.3519 48.8147 49.5069C48.8147 50.6509 47.6047 51.3109 45.6247 51.3109C43.6117 51.3109 42.3907 50.6509 42.3907 49.5069C42.3907 48.3519 43.6117 47.6919 45.6247 47.7029ZM41.5327 46.7569V42.2909H42.5447V43.6769H45.0527V42.2909H46.0647V46.7569H41.5327ZM42.5447 45.9429H45.0527V44.4909H42.5447V45.9429ZM43.4027 49.5069C43.4027 50.1449 44.2277 50.5079 45.6247 50.5189C46.9997 50.5079 47.8137 50.1449 47.8247 49.5069C47.8137 48.8579 46.9997 48.4949 45.6247 48.4949C44.2277 48.4949 43.4027 48.8579 43.4027 49.5069ZM47.7147 47.4389V41.6969H48.7267V44.0509H50.1127V44.9089H48.7267V47.4389H47.7147ZM52.2496 42.1809V43.5889H54.6696V42.1809H55.6816V44.0069H57.7936V41.6969H58.8056V46.9549H57.7936V44.8649H55.6816V46.6249H51.2376V42.1809H52.2496ZM52.2496 45.8109H54.6696V44.4029H52.2496V45.8109ZM52.5356 51.1789V47.3949H53.5476V48.4949H57.7936V47.3949H58.8056V51.1789H52.5356ZM53.5476 50.3649H57.7936V49.2869H53.5476V50.3649ZM64.7704 42.2689C66.7944 42.2799 68.3344 43.3469 68.3344 44.9529C68.3344 46.5919 66.7944 47.6589 64.7704 47.6589C62.7574 47.6589 61.2284 46.5919 61.2284 44.9529C61.2284 43.3469 62.7574 42.2799 64.7704 42.2689ZM60.3924 50.0789V49.2429H69.2144V50.0789H60.3924ZM62.2184 44.9529C62.2074 46.0859 63.3074 46.8119 64.7704 46.8229C66.2554 46.8119 67.3444 46.0859 67.3444 44.9529C67.3444 43.8419 66.2554 43.0939 64.7704 43.1049C63.3074 43.0939 62.2074 43.8419 62.2184 44.9529ZM78.8312 49.3089V50.1669H70.0092V49.3089H73.8812V47.6149H71.0872V44.5569H76.7412V43.2149H71.0652V42.3789H77.7532V45.3929H72.0992V46.7789H77.9732V47.6149H74.8932V49.3089H78.8312ZM90.4076 41.6969V47.5929H89.3956V41.6969H90.4076ZM82.9056 43.1269V42.2909H87.3276V45.0189H83.9176V46.2289C85.6116 46.2289 86.8436 46.1629 88.3176 45.9429L88.4496 46.7789C86.8656 47.0209 85.5566 47.0649 83.7416 47.0649H82.9276V44.2489H86.3156V43.1269H82.9056ZM83.9176 49.5509C83.9176 48.4289 85.1496 47.7799 87.1956 47.7909C89.2306 47.7799 90.4736 48.4289 90.4736 49.5509C90.4736 50.6619 89.2306 51.3109 87.1956 51.3109C85.1496 51.3109 83.9176 50.6619 83.9176 49.5509ZM84.9296 49.5509C84.9296 50.1559 85.7656 50.4969 87.1956 50.4969C88.6146 50.4969 89.4506 50.1559 89.4616 49.5509C89.4506 48.9349 88.6146 48.5939 87.1956 48.5829C85.7656 48.5939 84.9296 48.9349 84.9296 49.5509ZM99.7824 42.6209V43.8089C99.7824 45.2169 99.7824 46.5259 99.3644 48.5169L98.3524 48.4289C98.5504 47.5489 98.6604 46.7789 98.7154 46.0639L92.9404 46.3609L92.8084 45.5469L98.7704 45.2939C98.7814 44.7879 98.7924 44.2929 98.7924 43.8089V43.4789H93.0724V42.6209H99.7824ZM92.0384 50.0349V49.1989H100.816V50.0349H92.0384ZM108.807 47.7469C110.875 47.7469 112.195 48.4069 112.195 49.5289C112.195 50.6509 110.875 51.3109 108.807 51.3109C106.728 51.3109 105.408 50.6509 105.419 49.5289C105.408 48.4069 106.728 47.7469 108.807 47.7469ZM104.473 46.9549V46.1189H107.971V44.3149H108.983V46.1189H113.229V46.9549H104.473ZM105.485 42.9949V42.1589H112.129V42.9729C112.129 43.7429 112.129 44.5349 111.865 45.5249L110.853 45.4369C111.117 44.4469 111.117 43.7319 111.117 42.9949H105.485ZM106.431 49.5289C106.42 50.1449 107.333 50.5079 108.807 50.5189C110.27 50.5079 111.183 50.1449 111.183 49.5289C111.183 48.9019 110.27 48.5279 108.807 48.5169C107.333 48.5279 106.42 48.9019 106.431 49.5289ZM122.868 47.1309V47.9669H120.624V51.3109H119.612V47.9669H117.302V51.3109H116.246V47.9669H114.068V47.1309H122.868ZM115.014 44.1829C115.014 42.8849 116.4 42.0599 118.446 42.0489C120.481 42.0599 121.878 42.8849 121.878 44.1829C121.878 45.4699 120.481 46.2839 118.446 46.2729C116.4 46.2839 115.014 45.4699 115.014 44.1829ZM116.07 44.1829C116.059 44.9749 117.016 45.4699 118.446 45.4589C119.876 45.4699 120.822 44.9749 120.822 44.1829C120.822 43.3799 119.876 42.8849 118.446 42.8849C117.016 42.8849 116.059 43.3799 116.07 44.1829Z" fill="#757A80"/>
</svg>
