<svg width="58" height="30" viewBox="0 0 58 30" fill="none" xmlns="http://www.w3.org/2000/svg">
<rect x="0.5" y="0.5" width="57" height="29" rx="7.5" fill="#0DA98E"/>
<path d="M18.0195 13.9609V15.0508H13.918V15.7188H16.8594V18.3203H10.918V18.9062H17.1406V20.0078H9.45312V17.3125H15.3828V16.7852H9.44141V15.7188H12.4297V15.0508H8.33984V13.9609H18.0195ZM8.71484 12.5664C10.8477 12.4727 11.9316 11.9629 12.2422 11.3477H9.25391V10.2461H12.4297V9.40234H13.9062V10.2461H17.1055V11.3477H14.0879C14.3926 11.9629 15.4824 12.4727 17.6328 12.5664L17.1992 13.668C15.2188 13.5684 13.8418 13.0703 13.168 12.2676C12.4941 13.0703 11.123 13.5684 9.125 13.668L8.71484 12.5664ZM27.6758 9.41406V14.7812H26.1875V13.9609H23.75V12.8242H26.1875V11.8867H23.8672C23.2051 13.4863 21.6816 14.5117 19.3203 15.0273L18.8164 13.8086C21.2598 13.3281 22.3848 12.3145 22.584 11.0312H19.4141V9.82422H24.2422C24.2422 10.1465 24.2188 10.457 24.1719 10.75H26.1875V9.41406H27.6758ZM20.5859 16.3398V15.168H27.6758V18.0859H22.0977V18.7891H27.9102V19.9727H20.5977V16.9844H26.1758V16.3398H20.5859ZM32.3867 12.6602C32.3867 14.2773 32.9668 15.9004 34.4844 16.7148L33.6641 17.8047C32.7031 17.3125 32.0645 16.4512 31.6895 15.4141C31.3203 16.5449 30.6816 17.5 29.7148 18.0625L28.8594 16.9375C30.4004 16.0469 30.9688 14.3066 30.9805 12.6602V12.4141H29.2578V11.2188H30.9805V9.77734H32.375V11.2188H34.0625V12.4141H32.3867V12.6602ZM33.4414 14.6758V13.457H34.6953V9.58984H36.1016V19.5859H34.6953V14.6758H33.4414ZM36.8633 20.0781V9.41406H38.2812V20.0781H36.8633ZM48.1602 10.3516V11.5938C48.1543 13.1465 48.1543 14.623 47.668 16.9375L46.1797 16.7969C46.3906 15.9121 46.5137 15.127 46.5898 14.4062L40.4023 14.7109L40.2148 13.5156L46.666 13.2812C46.6895 12.6953 46.6953 12.1445 46.6953 11.5938V11.5469H40.543V10.3516H48.1602ZM39.4297 18.8008V17.582H49.1562V18.8008H39.4297Z" fill="white"/>
<rect x="0.5" y="0.5" width="57" height="29" rx="7.5" stroke="#45B9A2"/>
</svg>
