<svg width="113" height="155" viewBox="0 0 113 155" fill="none" xmlns="http://www.w3.org/2000/svg">
<mask id="mask0_984_58827" style="mask-type:alpha" maskUnits="userSpaceOnUse" x="18" y="96" width="77" height="59">
<path opacity="0.9" d="M48.4684 103.953C51.6673 106.567 54.2509 109.677 56.2237 113.146C58.1966 109.677 60.7801 106.567 63.979 103.953C72.1799 97.2508 82.9747 94.9927 94.0646 96.7069C93.876 107.636 89.7197 117.594 81.5189 124.296C75.1792 129.476 67.2902 132 58.9123 132.089L60.7333 154.373H52.5516L54.6887 132.086C45.8829 132.226 37.5585 129.713 30.9285 124.296C22.7277 117.594 18.5714 107.636 18.3828 96.7069C29.4727 94.9927 40.2676 97.2508 48.4684 103.953Z" fill="#00D6A2"/>
</mask>
<g mask="url(#mask0_984_58827)">
<path opacity="0.5" d="M48.3553 110.139C51.6008 112.791 54.2219 115.946 56.2234 119.466C58.225 115.946 60.8461 112.791 64.0916 110.139C72.4117 103.339 83.3636 101.048 94.6148 102.787C94.4235 113.875 90.2068 123.979 81.8866 130.778C75.4547 136.034 67.4509 138.594 58.9511 138.684L60.7986 161.293H52.4979L54.6661 138.681C45.7322 138.824 37.2866 136.274 30.5602 130.778C22.2401 123.979 18.0234 113.875 17.832 102.787C29.0833 101.048 40.0352 103.339 48.3553 110.139Z" fill="#00D6A2"/>
<path opacity="0.5" d="M49.0191 113.387C52.2181 116.001 54.8016 119.11 56.7745 122.58C58.7473 119.11 61.3309 116.001 64.5298 113.387C72.7306 106.685 83.5255 104.426 94.6154 106.141C94.4268 117.07 90.2705 127.028 82.0697 133.73C75.73 138.91 67.841 141.434 59.463 141.523L61.2841 163.807H53.1024L55.2395 141.52C46.4337 141.66 38.1092 139.147 31.4793 133.73C23.2785 127.028 19.1222 117.07 18.9336 106.141C30.0235 104.426 40.8183 106.685 49.0191 113.387Z" fill="#00D6A2"/>
<path opacity="0.9" d="M48.3553 116.304C51.6008 118.956 54.2219 122.111 56.2234 125.631C58.225 122.111 60.8461 118.956 64.0916 116.304C72.4117 109.504 83.3636 107.213 94.6148 108.952C94.4235 120.041 90.2068 130.144 81.8866 136.943C75.4547 142.199 67.4509 144.759 58.9511 144.849L60.7986 167.458H52.4979L54.6661 144.846C45.7322 144.989 37.2866 142.439 30.5602 136.943C22.2401 130.144 18.0234 120.041 17.832 108.952C29.0833 107.213 40.0352 109.504 48.3553 116.304Z" fill="#00D6A2"/>
<path opacity="0.9" d="M49.2691 118.158C52.4681 120.773 55.0516 123.882 57.0245 127.352C58.9973 123.882 61.5809 120.773 64.7798 118.158C72.9806 111.457 83.7755 109.198 94.8654 110.913C94.6768 121.842 90.5205 131.8 82.3197 138.502C75.98 143.682 68.091 146.206 59.713 146.295L61.5341 168.579H53.3524L55.4895 146.292C46.6837 146.432 38.3592 143.919 31.7293 138.502C23.5285 131.8 19.3722 121.842 19.1836 110.913C30.2735 109.198 41.0683 111.457 49.2691 118.158Z" fill="#00D6A2"/>
<path d="M51.234 127C54.433 129.614 57.0165 132.723 58.9893 136.193C60.9622 132.723 63.5457 129.614 66.7447 127C74.9455 120.298 85.7403 118.04 96.8302 119.754C96.6416 130.683 92.4854 140.641 84.2845 147.343C77.9449 152.523 70.0558 155.047 61.6779 155.136L63.4989 177.42H55.3172L57.4543 155.133C48.6486 155.273 40.3241 152.76 33.6941 147.343C25.4933 140.641 21.337 130.683 21.1484 119.754C32.2383 118.04 43.0332 120.298 51.234 127Z" fill="#00D6A2"/>
</g>
</svg>
