<svg width="86" height="120" viewBox="0 0 86 120" fill="none" xmlns="http://www.w3.org/2000/svg">
<g clip-path="url(#clip0_2742_136002)">
<mask id="mask0_2742_136002" style="mask-type:alpha" maskUnits="userSpaceOnUse" x="51" y="46" width="18" height="75">
<path d="M57.4346 46.4326H63.5072L68.4887 120.067H51.5898L57.4346 46.4326Z" fill="#D7953B"/>
</mask>
<g mask="url(#mask0_2742_136002)">
<path opacity="0.8" d="M57.4346 46.4316H63.5072L68.4887 120.066H51.5898L57.4346 46.4316Z" fill="#D7953B"/>
<rect opacity="0.7" x="57.1602" y="70.0264" width="12.6888" height="51.2704" fill="#D7953B"/>
<rect x="62.7148" y="68.7952" width="14.0714" height="51.2704" fill="#D7953B"/>
</g>
<path d="M59.1896 39.5487C64.5624 33.3445 72.3293 29.4438 80.9719 29.4438C83.5904 29.4438 86.1286 29.8026 88.5448 30.4768C88.4534 13.6266 75.3469 0 59.1923 0C43.0378 0 29.9313 13.6295 29.8398 30.4768C32.2561 29.8055 34.7915 29.4466 37.41 29.4466C46.0526 29.4466 53.8195 33.3474 59.1923 39.5516L59.1896 39.5487Z" fill="#5FE1B7"/>
<path d="M17.4237 78.8497C17.4237 71.1668 32.1762 63.2958 51.6475 61.6319C51.6253 61.1834 51.6142 60.732 51.6142 60.2777C39.073 56.7907 29.8319 44.8483 29.8319 30.6545C29.8319 30.5937 29.8319 30.5359 29.8319 30.4751C17.2907 33.9592 8.04688 45.9016 8.04688 60.0983C8.04688 72.8712 15.5284 83.8182 26.166 88.425C20.6879 85.7802 17.4237 82.461 17.4237 78.8468V78.8497Z" fill="#00D6A2"/>
<path d="M51.6077 60.2736C51.6077 60.2129 51.6077 60.155 51.6077 60.0942C51.6077 52.1885 54.4756 44.9802 59.1806 39.5429C53.8078 33.3387 46.0408 29.438 37.3983 29.438C34.7798 29.438 32.2444 29.7968 29.8281 30.4682C29.8281 30.5289 29.8281 30.5868 29.8281 30.6476C29.8281 44.8442 39.0692 56.7838 51.6104 60.2707L51.6077 60.2736Z" fill="#00CF91"/>
<path d="M110.319 60.0983C110.319 45.9016 101.078 33.962 88.5371 30.4751C88.5371 30.5359 88.5371 30.5937 88.5371 30.6545C88.5371 44.8512 79.2932 56.7936 66.752 60.2806C66.752 60.7349 66.7381 61.1863 66.7188 61.6348C86.1956 63.2958 100.954 71.1668 100.954 78.8526C100.954 82.4755 97.6507 85.8149 92.1116 88.4684C102.796 83.8848 110.319 72.9117 110.319 60.1012V60.0983Z" fill="#02BDA5"/>
<path d="M59.1836 39.5458C63.8914 44.9831 66.7566 52.1914 66.7566 60.0971C66.7566 60.1579 66.7566 60.2158 66.7566 60.2765C79.3006 56.7896 88.5416 44.85 88.5416 30.6505C88.5416 30.5897 88.5416 30.5318 88.5416 30.471C86.1254 29.7997 83.5872 29.438 80.9687 29.438C72.3261 29.438 64.5592 33.3387 59.1864 39.5429L59.1836 39.5458Z" fill="#00AB8E"/>
<path d="M51.6239 60.278C51.6239 60.7323 51.6377 61.1837 51.6571 61.6323C54.1038 61.4239 56.6254 61.3111 59.1996 61.3111C61.7738 61.3111 64.287 61.421 66.731 61.6294C66.7532 61.1809 66.7642 60.7294 66.7642 60.2751C64.348 60.9465 61.8126 61.3053 59.194 61.3053C56.5755 61.3053 54.0373 60.9465 51.6211 60.2722L51.6239 60.278Z" fill="#00AC8E"/>
<path d="M59.1941 39.5439C54.4862 44.9813 51.6211 52.1896 51.6211 60.0953C51.6211 60.156 51.6211 60.2139 51.6211 60.2747C54.0373 60.946 56.5755 61.3077 59.1941 61.3077C61.8126 61.3077 64.348 60.9489 66.7642 60.2776C66.7642 60.2168 66.7642 60.1589 66.7642 60.0981C66.7642 52.1925 63.8963 44.9842 59.1913 39.5468L59.1941 39.5439Z" fill="#00B38E"/>
<path d="M59.1865 80.6492C54.7863 75.5649 51.9932 68.9354 51.6496 61.6316C32.1782 63.2926 17.4258 71.1636 17.4258 78.8493C17.4258 82.4607 20.6872 85.7827 26.1681 88.4276C29.629 89.9265 33.4251 90.757 37.4042 90.757C46.0467 90.757 53.8137 86.8563 59.1865 80.6521V80.6492Z" fill="#00D6A2"/>
<path d="M100.955 78.8493C100.955 71.1636 86.1974 63.2926 66.7205 61.6316C66.3769 68.9354 63.5838 75.5678 59.1836 80.6492C64.5564 86.8534 72.3234 90.7541 80.9659 90.7541C84.9117 90.7541 88.6774 89.9381 92.1134 88.4652C97.6525 85.8116 100.955 82.4723 100.955 78.8493Z" fill="#02BDA5"/>
<path d="M51.6523 61.6313C51.9959 68.9351 54.789 75.5646 59.1893 80.6489C63.5895 75.5646 66.3826 68.9351 66.7262 61.6313C64.2823 61.423 61.7662 61.313 59.1948 61.313C56.6234 61.313 54.0991 61.4258 51.6523 61.6342V61.6313Z" fill="#00AB8E"/>
</g>
<defs>
<clipPath id="clip0_2742_136002">
<rect width="85" height="120" fill="white" transform="translate(0.851562)"/>
</clipPath>
</defs>
</svg>
