<svg width="33" height="33" viewBox="0 0 33 33" fill="none" xmlns="http://www.w3.org/2000/svg">
<g clip-path="url(#clip0_984_54403)">
<mask id="mask0_984_54403" style="mask-type:alpha" maskUnits="userSpaceOnUse" x="14" y="12" width="5" height="21">
<path d="M15.6593 12.875H17.2777L18.6054 32.4998H14.1016L15.6593 12.875Z" fill="#D7953B"/>
</mask>
<g mask="url(#mask0_984_54403)">
<path opacity="0.8" d="M15.6573 12.8748H17.2758L18.6034 32.4996H14.0996L15.6573 12.8748Z" fill="#D7953B"/>
<rect opacity="0.7" x="15.5859" y="19.1631" width="3.38176" height="13.6643" fill="#D7953B"/>
<rect x="17.0664" y="18.835" width="3.75024" height="13.6643" fill="#D7953B"/>
</g>
<path d="M16.1288 11.0403C17.5607 9.38682 19.6307 8.34721 21.9341 8.34721C22.632 8.34721 23.3084 8.44284 23.9524 8.62254C23.928 4.1317 20.435 0.5 16.1295 0.5C11.8241 0.5 8.33101 4.13247 8.30664 8.62254C8.95061 8.44361 9.62633 8.34798 10.3242 8.34798C12.6276 8.34798 14.6976 9.38759 16.1295 11.0411L16.1288 11.0403Z" fill="#5FE1B7"/>
<path d="M4.99907 21.5146C4.99907 19.467 8.93082 17.3693 14.1202 16.9258C14.1143 16.8063 14.1114 16.686 14.1114 16.5649C10.7689 15.6356 8.30605 12.4527 8.30605 8.66989C8.30605 8.65369 8.30605 8.63827 8.30605 8.62207C4.96362 9.55062 2.5 12.7335 2.5 16.5171C2.5 19.9213 4.49394 22.8388 7.32902 24.0666C5.86902 23.3617 4.99907 22.4771 4.99907 21.5139V21.5146Z" fill="#00D6A2"/>
<path d="M14.1093 16.5639C14.1093 16.5477 14.1093 16.5323 14.1093 16.5161C14.1093 14.4091 14.8736 12.4879 16.1276 11.0388C14.6956 9.38531 12.6256 8.3457 10.3223 8.3457C9.62438 8.3457 8.94866 8.44133 8.30469 8.62026C8.30469 8.63645 8.30469 8.65188 8.30469 8.66808C8.30469 12.4517 10.7676 15.6338 14.11 16.5631L14.1093 16.5639Z" fill="#00CF91"/>
<path d="M29.7569 16.5171C29.7569 12.7335 27.2941 9.5514 23.9516 8.62207C23.9516 8.63827 23.9516 8.65369 23.9516 8.66989C23.9516 12.4535 21.488 15.6364 18.1456 16.5657C18.1456 16.6868 18.1419 16.8071 18.1367 16.9266C23.3276 17.3693 27.2608 19.467 27.2608 21.5154C27.2608 22.481 26.3805 23.371 24.9043 24.0782C27.7519 22.8566 29.7569 19.9321 29.7569 16.5179V16.5171Z" fill="#02BDA5"/>
<path d="M16.1289 11.0396C17.3836 12.4887 18.1472 14.4098 18.1472 16.5168C18.1472 16.533 18.1472 16.5484 18.1472 16.5646C21.4904 15.6353 23.9533 12.4532 23.9533 8.66885C23.9533 8.65265 23.9533 8.63723 23.9533 8.62103C23.3093 8.44211 22.6328 8.3457 21.935 8.3457C19.6316 8.3457 17.5616 9.38531 16.1296 11.0388L16.1289 11.0396Z" fill="#00AB8E"/>
<path d="M14.1121 16.565C14.1121 16.6861 14.1158 16.8064 14.1209 16.926C14.773 16.8704 15.4451 16.8403 16.1311 16.8403C16.8172 16.8403 17.487 16.8697 18.1383 16.9252C18.1443 16.8056 18.1472 16.6853 18.1472 16.5642C17.5032 16.7432 16.8275 16.8388 16.1296 16.8388C15.4318 16.8388 14.7553 16.7432 14.1113 16.5635L14.1121 16.565Z" fill="#00AC8E"/>
<path d="M16.1316 11.0391C14.8769 12.4882 14.1133 14.4093 14.1133 16.5163C14.1133 16.5325 14.1133 16.5479 14.1133 16.5641C14.7572 16.743 15.4337 16.8394 16.1316 16.8394C16.8295 16.8394 17.5052 16.7438 18.1492 16.5649C18.1492 16.5487 18.1492 16.5333 18.1492 16.5171C18.1492 14.4101 17.3848 12.489 16.1309 11.0398L16.1316 11.0391Z" fill="#00B38E"/>
<path d="M16.1299 21.9943C14.9571 20.6392 14.2127 18.8724 14.1212 16.9258C8.93175 17.3685 5 19.4662 5 21.5146C5 22.4771 5.86921 23.3624 7.32995 24.0673C8.25234 24.4668 9.26408 24.6882 10.3246 24.6882C12.6279 24.6882 14.6979 23.6485 16.1299 21.995V21.9943Z" fill="#00D6A2"/>
<path d="M27.2617 21.5146C27.2617 19.4662 23.3285 17.3685 18.1376 16.9258C18.046 18.8724 17.3016 20.64 16.1289 21.9943C17.5608 23.6478 19.6309 24.6874 21.9342 24.6874C22.9858 24.6874 23.9895 24.4699 24.9052 24.0773C26.3814 23.3701 27.2617 22.4801 27.2617 21.5146Z" fill="#02BDA5"/>
<path d="M14.1211 16.9257C14.2127 18.8722 14.9571 20.6391 16.1298 21.9941C17.3025 20.6391 18.0469 18.8722 18.1385 16.9257C17.4872 16.8701 16.8166 16.8408 16.1313 16.8408C15.446 16.8408 14.7732 16.8709 14.1211 16.9264V16.9257Z" fill="#00AB8E"/>
</g>
<defs>
<clipPath id="clip0_984_54403">
<rect width="32" height="32" fill="white" transform="translate(0.5 0.5)"/>
</clipPath>
</defs>
</svg>
