<svg width="86" height="155" viewBox="0 0 86 155" fill="none" xmlns="http://www.w3.org/2000/svg">
<g clip-path="url(#clip0_984_58740)">
<mask id="mask0_984_58740" style="mask-type:alpha" maskUnits="userSpaceOnUse" x="51" y="80" width="18" height="74">
<path d="M57.5947 80.3643H63.6673L68.6488 153.999H51.75L57.5947 80.3643Z" fill="#D7953B"/>
</mask>
<g mask="url(#mask0_984_58740)">
<path opacity="0.8" d="M57.5869 80.3643H63.6595L68.641 153.999H51.7422L57.5869 80.3643Z" fill="#D7953B"/>
<rect opacity="0.7" x="57.3242" y="103.958" width="12.6888" height="51.2704" fill="#D7953B"/>
<rect x="62.8789" y="102.727" width="14.0714" height="51.2704" fill="#D7953B"/>
</g>
<path d="M59.3536 73.4803C64.7265 67.2761 72.4934 63.3754 81.1359 63.3754C83.7545 63.3754 86.2926 63.7342 88.7089 64.4085C88.6174 47.5582 75.5109 33.9316 59.3564 33.9316C43.2019 33.9316 30.0953 47.5611 30.0039 64.4085C32.4202 63.7371 34.9556 63.3783 37.5741 63.3783C46.2166 63.3783 53.9836 67.279 59.3564 73.4832L59.3536 73.4803Z" fill="#5FE1B7"/>
<path d="M17.5956 112.781C17.5956 105.098 32.348 97.2275 51.8194 95.5636C51.7972 95.1151 51.7861 94.6636 51.7861 94.2093C39.2449 90.7224 30.0038 78.7799 30.0038 64.5861C30.0038 64.5254 30.0038 64.4675 30.0038 64.4067C17.4626 67.8908 8.21875 79.8332 8.21875 94.0299C8.21875 106.803 15.7003 117.75 26.3379 122.357C20.8597 119.712 17.5956 116.393 17.5956 112.778V112.781Z" fill="#00D6A2"/>
<path d="M51.7795 94.2053C51.7795 94.1445 51.7795 94.0866 51.7795 94.0259C51.7795 86.1202 54.6474 78.9119 59.3525 73.4746C53.9796 67.2704 46.2127 63.3696 37.5702 63.3696C34.9517 63.3696 32.4163 63.7285 30 64.3998C30 64.4606 30 64.5184 30 64.5792C30 78.7759 39.2411 90.7154 51.7823 94.2024L51.7795 94.2053Z" fill="#00CF91"/>
<path d="M110.495 94.0299C110.495 79.8332 101.254 67.8937 88.7128 64.4067C88.7128 64.4675 88.7128 64.5254 88.7128 64.5861C88.7128 78.7828 79.469 90.7253 66.9278 94.2122C66.9278 94.6665 66.9139 95.118 66.8945 95.5665C86.3714 97.2275 101.129 105.098 101.129 112.784C101.129 116.407 97.8264 119.747 92.2874 122.4C102.972 117.816 110.495 106.843 110.495 94.0328V94.0299Z" fill="#02BDA5"/>
<path d="M59.3516 73.4774C64.0594 78.9148 66.9245 86.1231 66.9245 94.0288C66.9245 94.0895 66.9245 94.1474 66.9245 94.2082C79.4685 90.7212 88.7096 78.7817 88.7096 64.5821C88.7096 64.5213 88.7096 64.4635 88.7096 64.4027C86.2933 63.7313 83.7552 63.3696 81.1366 63.3696C72.4941 63.3696 64.7272 67.2704 59.3543 73.4746L59.3516 73.4774Z" fill="#00AB8E"/>
<path d="M51.7879 94.2097C51.7879 94.664 51.8018 95.1154 51.8212 95.5639C54.2679 95.3556 56.7895 95.2427 59.3637 95.2427C61.9378 95.2427 64.4511 95.3527 66.895 95.561C66.9172 95.1125 66.9283 94.6611 66.9283 94.2068C64.512 94.8781 61.9766 95.2369 59.3581 95.2369C56.7396 95.2369 54.2014 94.8781 51.7852 94.2039L51.7879 94.2097Z" fill="#00AC8E"/>
<path d="M59.362 73.4756C54.6542 78.9129 51.7891 86.1212 51.7891 94.0269C51.7891 94.0877 51.7891 94.1455 51.7891 94.2063C54.2053 94.8777 56.7435 95.2394 59.362 95.2394C61.9805 95.2394 64.516 94.8805 66.9322 94.2092C66.9322 94.1484 66.9322 94.0906 66.9322 94.0298C66.9322 86.1241 64.0643 78.9158 59.3592 73.4785L59.362 73.4756Z" fill="#00B38E"/>
<path d="M59.3545 114.581C54.9542 109.497 52.1611 102.867 51.8175 95.5632C32.3462 97.2242 17.5938 105.095 17.5938 112.781C17.5938 116.392 20.8551 119.714 26.336 122.359C29.7969 123.858 33.5931 124.689 37.5722 124.689C46.2147 124.689 53.9816 120.788 59.3545 114.584V114.581Z" fill="#00D6A2"/>
<path d="M101.123 112.781C101.123 105.095 86.3654 97.2242 66.8885 95.5632C66.5449 102.867 63.7518 109.499 59.3516 114.581C64.7244 120.785 72.4913 124.686 81.1339 124.686C85.0797 124.686 88.8454 123.87 92.2813 122.397C97.8204 119.743 101.123 116.404 101.123 112.781Z" fill="#02BDA5"/>
<path d="M51.8203 95.5629C52.1639 102.867 54.957 109.496 59.3572 114.581C63.7575 109.496 66.5506 102.867 66.8942 95.5629C64.4502 95.3546 61.9342 95.2446 59.3628 95.2446C56.7914 95.2446 54.267 95.3575 51.8203 95.5658V95.5629Z" fill="#00AB8E"/>
</g>
<defs>
<clipPath id="clip0_984_58740">
<rect width="120.068" height="120.068" fill="white" transform="translate(0.714844 33.9319)"/>
</clipPath>
</defs>
</svg>
