<svg width="85" height="120" viewBox="0 0 85 120" fill="none" xmlns="http://www.w3.org/2000/svg">
<g clip-path="url(#clip0_862_1202)">
<mask id="mask0_862_1202" style="mask-type:alpha" maskUnits="userSpaceOnUse" x="50" y="46" width="18" height="75">
<path d="M56.5791 46.4326H62.6517L67.6332 120.067H50.7344L56.5791 46.4326Z" fill="#D7953B"/>
</mask>
<g mask="url(#mask0_862_1202)">
<path opacity="0.8" d="M56.5791 46.4316H62.6517L67.6332 120.066H50.7344L56.5791 46.4316Z" fill="#D7953B"/>
<rect opacity="0.7" x="56.3047" y="70.0264" width="12.6888" height="51.2704" fill="#D7953B"/>
<rect x="61.8594" y="68.7949" width="14.0714" height="51.2704" fill="#D7953B"/>
</g>
<path d="M58.3341 39.5487C63.7069 33.3445 71.4739 29.4438 80.1164 29.4438C82.7349 29.4438 85.2731 29.8026 87.6893 30.4768C87.5979 13.6266 74.4914 0 58.3369 0C42.1823 0 29.0758 13.6295 28.9844 30.4768C31.4006 29.8055 33.936 29.4466 36.5546 29.4466C45.1971 29.4466 52.964 33.3474 58.3369 39.5516L58.3341 39.5487Z" fill="#5FE1B7"/>
<path d="M16.5721 78.8492C16.5721 71.1663 31.3246 63.2954 50.7959 61.6315C50.7738 61.1829 50.7627 60.7315 50.7627 60.2772C38.2214 56.7902 28.9804 44.8478 28.9804 30.654C28.9804 30.5933 28.9804 30.5354 28.9804 30.4746C16.4391 33.9587 7.19531 45.9011 7.19531 60.0978C7.19531 72.8707 14.6768 83.8177 25.3144 88.4245C19.8363 85.7797 16.5721 82.4606 16.5721 78.8463V78.8492Z" fill="#00D6A2"/>
<path d="M50.7561 60.2731C50.7561 60.2124 50.7561 60.1545 50.7561 60.0937C50.7561 52.1881 53.624 44.9798 58.329 39.5424C52.9562 33.3383 45.1893 29.4375 36.5467 29.4375C33.9282 29.4375 31.3928 29.7963 28.9766 30.4677C28.9766 30.5284 28.9766 30.5863 28.9766 30.6471C28.9766 44.8437 38.2176 56.7833 50.7589 60.2702L50.7561 60.2731Z" fill="#00CF91"/>
<path d="M109.468 60.0978C109.468 45.9011 100.227 33.9616 87.6855 30.4746C87.6855 30.5354 87.6855 30.5933 87.6855 30.654C87.6855 44.8507 78.4417 56.7931 65.9004 60.2801C65.9004 60.7344 65.8866 61.1858 65.8672 61.6344C85.3441 63.2954 100.102 71.1663 100.102 78.8521C100.102 82.475 96.7991 85.8144 91.26 88.468C101.945 83.8843 109.468 72.9112 109.468 60.1007V60.0978Z" fill="#02BDA5"/>
<path d="M58.3281 39.5453C63.0359 44.9826 65.9011 52.1909 65.9011 60.0966C65.9011 60.1574 65.9011 60.2153 65.9011 60.276C78.4451 56.7891 87.6862 44.8495 87.6862 30.65C87.6862 30.5892 87.6862 30.5313 87.6862 30.4706C85.2699 29.7992 82.7317 29.4375 80.1132 29.4375C71.4707 29.4375 63.7037 33.3383 58.3309 39.5424L58.3281 39.5453Z" fill="#00AB8E"/>
<path d="M50.7684 60.2783C50.7684 60.7326 50.7822 61.184 50.8016 61.6325C53.2484 61.4242 55.7699 61.3113 58.3441 61.3113C60.9183 61.3113 63.4316 61.4213 65.8755 61.6296C65.8977 61.1811 65.9088 60.7297 65.9088 60.2754C63.4925 60.9467 60.9571 61.3055 58.3386 61.3055C55.72 61.3055 53.1819 60.9467 50.7656 60.2725L50.7684 60.2783Z" fill="#00AC8E"/>
<path d="M58.3386 39.5439C53.6308 44.9813 50.7656 52.1896 50.7656 60.0953C50.7656 60.156 50.7656 60.2139 50.7656 60.2747C53.1819 60.946 55.7201 61.3077 58.3386 61.3077C60.9571 61.3077 63.4925 60.9489 65.9088 60.2776C65.9088 60.2168 65.9088 60.1589 65.9088 60.0981C65.9088 52.1925 63.0409 44.9842 58.3358 39.5468L58.3386 39.5439Z" fill="#00B38E"/>
<path d="M58.3389 80.6495C53.9386 75.5652 51.1455 68.9356 50.8019 61.6318C31.3306 63.2928 16.5781 71.1638 16.5781 78.8496C16.5781 82.4609 19.8395 85.7829 25.3204 88.4278C28.7813 89.9268 32.5775 90.7573 36.5566 90.7573C45.1991 90.7573 52.966 86.8565 58.3389 80.6524V80.6495Z" fill="#00D6A2"/>
<path d="M100.1 78.8496C100.1 71.1638 85.3419 63.2928 65.8651 61.6318C65.5215 68.9356 62.7284 75.5681 58.3281 80.6495C63.701 86.8536 71.4679 90.7544 80.1104 90.7544C84.0562 90.7544 87.8219 89.9384 91.2579 88.4654C96.797 85.8119 100.1 82.4725 100.1 78.8496Z" fill="#02BDA5"/>
<path d="M50.7969 61.6308C51.1405 68.9346 53.9336 75.5641 58.3338 80.6484C62.734 75.5641 65.5271 68.9346 65.8707 61.6308C63.4268 61.4225 60.9108 61.3125 58.3394 61.3125C55.7679 61.3125 53.2436 61.4254 50.7969 61.6337V61.6308Z" fill="#00AB8E"/>
</g>
<defs>
<clipPath id="clip0_862_1202">
<rect width="85" height="120" fill="white"/>
</clipPath>
</defs>
</svg>
