<svg width="118" height="35" viewBox="0 0 118 35" fill="none" xmlns="http://www.w3.org/2000/svg">
<path d="M24.777 7.9038C26.85 7.9038 28.5305 6.21869 28.5305 4.14001C28.5305 2.06133 26.85 0.376221 24.777 0.376221C22.7039 0.376221 21.0234 2.06133 21.0234 4.14001C21.0234 6.21869 22.7039 7.9038 24.777 7.9038Z" fill="#00D6A2"/>
<path d="M18.1672 6.9822V33.675H11.5921V6.9822H0.0546875V0.8125H18.1584V6.9822H18.1672Z" fill="#293A3A"/>
<path d="M44.9889 12.0033V33.6746H39.4714V31.0956C37.9378 32.9912 35.7079 33.9936 33.24 33.9936C28.2072 33.9936 24.6641 30.9316 24.6641 24.2424V11.9941H30.4812V23.3128C30.4812 26.9399 31.9708 28.553 34.5444 28.553C37.1181 28.553 39.1717 26.703 39.1717 22.7114V11.9941H44.9889V12.0033Z" fill="#293A3A"/>
<path d="M63.1779 32.6272C61.988 33.5567 60.2341 33.9942 58.4449 33.9942C53.7118 33.9942 50.9531 31.3786 50.9531 26.2205V17.3168H47.8594V12.4868H50.9531V7.21021H56.7702V12.4868H61.7677V17.3168H56.7702V26.1385C56.7702 27.9885 57.7045 29.0001 59.2645 29.0001C60.1195 29.0001 60.9833 28.7176 61.6179 28.1981L63.1867 32.6272H63.1779Z" fill="#293A3A"/>
<path d="M72.6357 5.2235C72.6357 7.30133 71.0052 8.98729 68.9956 8.98729C66.986 8.98729 65.3555 7.30133 65.3555 5.2235C65.3555 3.14568 66.986 1.45972 68.9956 1.45972C71.0052 1.45972 72.6357 3.14568 72.6357 5.2235ZM66.087 12.0038H71.9042V33.6752H66.087V12.0038Z" fill="#293A3A"/>
<path d="M75.4492 22.8402C75.4492 16.3151 80.1118 11.6855 86.634 11.6855C90.8471 11.6855 94.1699 13.6631 95.6242 17.2082L91.1115 19.8237C90.0274 17.7732 88.4233 16.8437 86.5988 16.8437C83.655 16.8437 81.3369 19.0582 81.3369 22.8493C81.3369 26.6405 83.6461 28.855 86.5988 28.855C88.4233 28.855 90.0274 27.971 91.1115 25.8749L95.6242 28.536C94.1699 31.9991 90.8471 34.0131 86.634 34.0131C80.1118 34.0131 75.4492 29.3836 75.4492 22.8584V22.8402Z" fill="#293A3A"/>
<path d="M117.885 24.617H102.708C103.263 27.3145 105.396 28.964 108.455 28.964C110.579 28.964 112.112 28.2805 113.487 26.868L116.581 30.4951C114.712 32.7916 111.918 34.0037 108.305 34.0037C101.368 34.0037 96.8555 29.2921 96.8555 22.849C96.8555 16.4059 101.439 11.6943 107.556 11.6943C113.672 11.6943 118 15.9685 118 22.931C118 23.414 117.929 24.0975 117.885 24.6261V24.617ZM102.629 20.9534H112.509C112.103 18.2103 110.2 16.4424 107.591 16.4424C104.982 16.4424 103.043 18.1739 102.629 20.9534Z" fill="#293A3A"/>
</svg>
