<svg width="90" height="36" viewBox="0 0 90 36" fill="none" xmlns="http://www.w3.org/2000/svg">
<path d="M40.155 13.7559C41.2039 13.7559 42.0542 12.9056 42.0542 11.8567C42.0542 10.8078 41.2039 9.95752 40.155 9.95752C39.1062 9.95752 38.2559 10.8078 38.2559 11.8567C38.2559 12.9056 39.1062 13.7559 40.155 13.7559Z" fill="#00D6A2"/>
<path d="M36.8105 13.2909V26.7601H33.4836V13.2909H27.646V10.1777H36.806V13.2909H36.8105Z" fill="#293A3A"/>
<path d="M50.3825 15.8244V26.7598H47.5908V25.4584C46.8148 26.4149 45.6865 26.9207 44.4378 26.9207C41.8914 26.9207 40.0986 25.3756 40.0986 22.0003V15.8198H43.042V21.5312C43.042 23.3614 43.7956 24.1754 45.0978 24.1754C46.4 24.1754 47.4391 23.2419 47.4391 21.2277V15.8198H50.3825V15.8244Z" fill="#293A3A"/>
<path d="M59.5848 26.2311C58.9827 26.7001 58.0953 26.9209 57.19 26.9209C54.7952 26.9209 53.3993 25.6011 53.3993 22.9983V18.5055H51.834V16.0683H53.3993V13.4058H56.3426V16.0683H58.8712V18.5055H56.3426V22.9569C56.3426 23.8904 56.8154 24.4009 57.6047 24.4009C58.0373 24.4009 58.4743 24.2583 58.7954 23.9962L59.5892 26.2311H59.5848Z" fill="#293A3A"/>
<path d="M64.3697 12.4031C64.3697 13.4516 63.5446 14.3023 62.5279 14.3023C61.5111 14.3023 60.686 13.4516 60.686 12.4031C60.686 11.3546 61.5111 10.5039 62.5279 10.5039C63.5446 10.5039 64.3697 11.3546 64.3697 12.4031ZM61.0562 15.8244H63.9995V26.7597H61.0562V15.8244Z" fill="#293A3A"/>
<path d="M65.7939 21.2927C65.7939 18.0001 68.1531 15.6641 71.4532 15.6641C73.5849 15.6641 75.2661 16.6619 76.002 18.4508L73.7187 19.7706C73.1701 18.7359 72.3585 18.2668 71.4353 18.2668C69.9458 18.2668 68.773 19.3843 68.773 21.2973C68.773 23.2103 69.9414 24.3277 71.4353 24.3277C72.3585 24.3277 73.1701 23.8817 73.7187 22.824L76.002 24.1668C75.2661 25.9142 73.5849 26.9305 71.4532 26.9305C68.1531 26.9305 65.7939 24.5944 65.7939 21.3019V21.2927Z" fill="#293A3A"/>
<path d="M87.2651 22.1892H79.5857C79.8666 23.5504 80.9459 24.3827 82.4934 24.3827C83.5681 24.3827 84.3441 24.0378 85.0398 23.325L86.6051 25.1552C85.6597 26.3141 84.246 26.9257 82.4175 26.9257C78.9078 26.9257 76.6245 24.5482 76.6245 21.2971C76.6245 18.0459 78.9435 15.6685 82.0385 15.6685C85.1334 15.6685 87.3231 17.8252 87.3231 21.3385C87.3231 21.5822 87.2874 21.9271 87.2651 22.1938V22.1892ZM79.5456 20.3406H84.5448C84.3396 18.9564 83.3763 18.0643 82.0563 18.0643C80.7363 18.0643 79.7552 18.938 79.5456 20.3406Z" fill="#293A3A"/>
<g opacity="0.8">
<path d="M13.834 19.0089C17.1661 19.0089 19.8672 16.2257 19.8672 12.7923C19.8672 9.35889 17.1661 6.57568 13.834 6.57568C10.5019 6.57568 7.80078 9.35889 7.80078 12.7923C7.80078 16.2257 10.5019 19.0089 13.834 19.0089Z" fill="#6CDDAF"/>
</g>
<path opacity="0.8" d="M9.35647 24.9796C12.6886 24.9796 15.3897 22.1964 15.3897 18.763C15.3897 15.3296 12.6886 12.5464 9.35647 12.5464C6.02435 12.5464 3.32324 15.3296 3.32324 18.763C3.32324 22.1964 6.02435 24.9796 9.35647 24.9796Z" fill="#00C78F"/>
<path d="M18.3096 24.9796C21.6417 24.9796 24.3428 22.1964 24.3428 18.763C24.3428 15.3296 21.6417 12.5464 18.3096 12.5464C14.9775 12.5464 12.2764 15.3296 12.2764 18.763C12.2764 22.1964 14.9775 24.9796 18.3096 24.9796Z" fill="#00AB8E"/>
<path opacity="0.8" d="M22.4185 22.5653C22.4185 24.314 18.5767 25.7352 13.8345 25.7352C9.0923 25.7352 5.25049 24.3193 5.25049 22.5653C5.25049 20.8114 9.0923 19.0093 13.8345 19.0093C18.5767 19.0093 22.4185 20.8114 22.4185 22.5653Z" fill="#008855"/>
<path d="M13.8334 14.5955C14.9376 13.3374 16.5339 12.5464 18.3101 12.5464C18.8483 12.5464 19.37 12.6192 19.8666 12.7559C19.8478 9.33894 17.1541 6.57568 13.8339 6.57568C10.5138 6.57568 7.82006 9.33953 7.80127 12.7559C8.29787 12.6198 8.81896 12.547 9.35713 12.547C11.1334 12.547 12.7297 13.338 13.8339 14.5961L13.8334 14.5955Z" fill="#5FE1B7"/>
<path d="M5.25041 22.5655C5.25041 21.0075 8.2824 19.4114 12.2842 19.074C12.2797 18.983 12.2774 18.8915 12.2774 18.7993C9.69987 18.0923 7.80061 15.6705 7.80061 12.7922C7.80061 12.7799 7.80061 12.7682 7.80061 12.7559C5.22308 13.4624 3.32324 15.8841 3.32324 18.763C3.32324 21.3531 4.86088 23.573 7.04717 24.5072C5.92128 23.9708 5.25041 23.2978 5.25041 22.5649V22.5655Z" fill="#00D6A2"/>
<path d="M12.2765 18.7994C12.2765 18.787 12.2765 18.7753 12.2765 18.763C12.2765 17.1598 12.8659 15.6981 13.8329 14.5955C12.7287 13.3374 11.1324 12.5464 9.35615 12.5464C8.81798 12.5464 8.29689 12.6192 7.80029 12.7553C7.80029 12.7676 7.80029 12.7793 7.80029 12.7917C7.80029 15.6705 9.69956 18.0917 12.2771 18.7988L12.2765 18.7994Z" fill="#00CF91"/>
<path d="M24.3433 18.763C24.3433 15.8841 22.4441 13.463 19.8665 12.7559C19.8665 12.7682 19.8665 12.7799 19.8665 12.7922C19.8665 15.6711 17.9667 18.0928 15.3892 18.7999C15.3892 18.8921 15.3863 18.9836 15.3823 19.0746C19.3853 19.4114 22.4184 21.0075 22.4184 22.566C22.4184 23.3007 21.7396 23.9779 20.6012 24.516C22.7971 23.5865 24.3433 21.3613 24.3433 18.7636V18.763Z" fill="#02BDA5"/>
<path d="M13.833 14.5956C14.8006 15.6982 15.3894 17.1599 15.3894 18.7631C15.3894 18.7754 15.3894 18.7871 15.3894 18.7995C17.9675 18.0924 19.8668 15.6712 19.8668 12.7918C19.8668 12.7794 19.8668 12.7677 19.8668 12.7554C19.3702 12.6192 18.8485 12.5459 18.3104 12.5459C16.5341 12.5459 14.9378 13.3369 13.8336 14.595L13.833 14.5956Z" fill="#00AB8E"/>
<path d="M12.2769 18.7995C12.2769 18.8916 12.2798 18.9832 12.2838 19.0741C12.7866 19.0319 13.3049 19.009 13.8339 19.009C14.363 19.009 14.8795 19.0313 15.3818 19.0736C15.3864 18.9826 15.3887 18.8911 15.3887 18.7989C14.8921 18.9351 14.371 19.0078 13.8328 19.0078C13.2946 19.0078 12.773 18.9351 12.2764 18.7983L12.2769 18.7995Z" fill="#00AC8E"/>
<path d="M13.8333 14.5957C12.8657 15.6983 12.2769 17.16 12.2769 18.7632C12.2769 18.7755 12.2769 18.7872 12.2769 18.7996C12.7735 18.9357 13.2951 19.0091 13.8333 19.0091C14.3715 19.0091 14.8925 18.9363 15.3891 18.8001C15.3891 18.7878 15.3891 18.7761 15.3891 18.7638C15.3891 17.1606 14.7997 15.6989 13.8327 14.5963L13.8333 14.5957Z" fill="#00B38E"/>
<path d="M13.8335 22.9303C12.7292 24.1884 11.1329 24.9794 9.35666 24.9794C8.5383 24.9794 7.75866 24.811 7.04736 24.507C8.61746 25.2546 11.0731 25.7346 13.8346 25.7346C16.5961 25.7346 19.0307 25.257 20.6013 24.5146C19.8946 24.8139 19.1212 24.9788 18.3103 24.9788C16.534 24.9788 14.9377 24.1878 13.8335 22.9297V22.9303Z" fill="#009980"/>
<path d="M13.8333 22.9307C12.929 21.8997 12.3549 20.5553 12.2843 19.0742C8.28248 19.411 5.25049 21.0071 5.25049 22.5657C5.25049 23.298 5.92078 23.9717 7.04724 24.508C7.75854 24.812 8.53875 24.9804 9.35654 24.9804C11.1328 24.9804 12.7291 24.1894 13.8333 22.9313V22.9307Z" fill="#00906D"/>
<path d="M22.4181 22.5657C22.4181 21.0071 19.385 19.411 15.382 19.0742C15.3114 20.5553 14.7374 21.9003 13.833 22.9307C14.9373 24.1888 16.5336 24.9798 18.3098 24.9798C19.1208 24.9798 19.8947 24.8143 20.6009 24.5156C21.7393 23.9775 22.4181 23.3004 22.4181 22.5657Z" fill="#008B6E"/>
<path d="M12.2842 19.0738C12.3548 20.5549 12.9288 21.8993 13.8332 22.9303C14.7376 21.8993 15.3116 20.5549 15.3822 19.0738C14.8799 19.0316 14.3628 19.0093 13.8343 19.0093C13.3059 19.0093 12.787 19.0322 12.2842 19.0744V19.0738Z" fill="#008A68"/>
<path d="M16.3188 5.77398C16.3188 4.36191 15.2081 3.21191 13.833 3.21191C12.4578 3.21191 11.3472 4.35644 11.3472 5.77398C12.9506 5.16428 14.7152 5.16428 16.3187 5.77398H16.3188Z" fill="#32E2BD"/>
<path d="M10.4141 27.5252H10.4193C10.4193 29.4728 11.9497 31.05 13.8394 31.05C15.7291 31.05 17.2595 29.4728 17.2595 27.5252C15.0523 26.6882 12.6265 26.6882 10.4143 27.5252H10.4141Z" fill="#008A74"/>
</svg>
