<svg xmlns="http://www.w3.org/2000/svg" width="71" height="98" viewBox="0 0 71 98" fill="none">
  <g style="mix-blend-mode:soft-light">
    <mask id="mask0_702_393" style="mask-type:alpha" maskUnits="userSpaceOnUse" x="2" y="3" width="66" height="93">
      <path fill-rule="evenodd" clip-rule="evenodd" d="M37.0145 3.35475C34.1107 6.02473 30.0996 11.8001 29.9448 16.5129C29.6529 25.3991 34.7145 25.8676 36.2722 25.9496C37.83 26.0316 42.9363 25.9637 43.2238 17.212C43.3846 12.3165 39.4448 6.3753 37.0145 3.35475ZM34.0065 95.4559C51.7588 96.3905 66.6344 82.4005 67.232 64.2083C67.8297 46.016 53.923 30.5107 36.1707 29.5761C18.4183 28.6415 3.54269 42.6315 2.94506 60.8238C2.34744 79.016 16.2541 94.5213 34.0065 95.4559Z" fill="#FF623D"/>
    </mask>
    <g mask="url(#mask0_702_393)">
      <ellipse opacity="0.7" cx="16.3422" cy="18.2875" rx="16.3422" ry="18.2875" transform="matrix(0.999521 0.0526214 -0.032804 0.99858 44.8828 55.498)" fill="#FF3F18"/>
      <ellipse opacity="0.6" cx="23.3854" cy="26.169" rx="23.3854" ry="26.169" transform="matrix(0.999521 0.0526214 -0.032804 0.99858 12.3984 62.2598)" fill="#FF3F18"/>
      <ellipse opacity="0.8" cx="33.9268" cy="38.0971" rx="33.9268" ry="38.0971" transform="matrix(0.999521 0.0526214 -0.032804 0.99858 -16.7852 8.54395)" fill="#FF3F18"/>
      <ellipse opacity="0.4" cx="23.191" cy="26.0417" rx="23.191" ry="26.0417" transform="matrix(0.999521 0.0526214 -0.032804 0.99858 -16.2109 21.3594)" fill="#EB2706"/>
      <ellipse opacity="0.3" cx="35.0706" cy="39.2452" rx="35.0706" ry="39.2452" transform="matrix(0.999521 0.0526214 -0.032804 0.99858 10.7617 29.9746)" fill="#FF3F18"/>
      <ellipse opacity="0.3" cx="22.5555" cy="25.2404" rx="22.5555" ry="25.2404" transform="matrix(0.999521 0.0526214 -0.032804 0.99858 45.9063 -1.8916)" fill="#FF3F18"/>
      <path opacity="0.6" fill-rule="evenodd" clip-rule="evenodd" d="M46.8361 0.433904L37.0918 -0.0791016L37.0916 -0.0742362L27.4648 -0.581055L26.6152 25.2828L36.3595 25.7958L36.3597 25.791L45.9865 26.2978L46.8361 0.433904Z" fill="#00D6A2"/>
      <rect width="9.74898" height="25.9006" transform="matrix(0.999521 0.0526214 -0.032804 0.99858 36.9023 1.25391)" fill="#038F7E"/>
      <rect width="14.6025" height="9.01131" transform="matrix(0.705958 -0.693131 0.687845 0.740347 32.4766 21.7773)" fill="#0DA98F"/>
      <rect width="9.74898" height="25.9006" transform="matrix(0.999521 0.0526214 -0.032804 0.99858 27.2812 0.680664)" fill="#00D6A2"/>
      <ellipse opacity="0.5" cx="6.10019" cy="2.9251" rx="6.10019" ry="2.9251" transform="matrix(0.6384 -0.756767 0.753759 0.672153 9.02734 47.1953)" fill="white"/>
      <ellipse opacity="0.5" cx="6.15875" cy="2.89641" rx="6.15875" ry="2.89641" transform="matrix(0.0789547 -0.995073 0.996754 0.101104 9.19531 56.9639)" fill="white"/>
    </g>
    <mask id="mask1_702_393" style="mask-type:alpha" maskUnits="userSpaceOnUse" x="2" y="3" width="66" height="93">
      <path fill-rule="evenodd" clip-rule="evenodd" d="M56.9221 3.6711C54.0183 6.34109 50.0072 12.1164 49.8524 16.8293C49.5605 25.7155 54.6221 26.184 56.1799 26.266C57.7376 26.348 62.8439 26.2801 63.1314 17.5284C63.2922 12.6329 59.3524 6.69166 56.9221 3.6711ZM34.0059 95.4569C51.7582 96.3915 66.6338 82.4014 67.2315 64.2092C67.8291 46.017 53.9224 30.5116 36.1701 29.577C18.4177 28.6424 3.54211 42.6325 2.94448 60.8247C2.34685 79.0169 16.2535 94.5223 34.0059 95.4569Z" fill="#FF623D"/>
    </mask>
    <g mask="url(#mask1_702_393)">
      <path opacity="0.5" d="M66.8625 60.7169C66.4227 74.1054 54.173 80.8763 42.2387 80.248C30.3045 79.6197 20.9865 68.2568 21.4263 54.8682C21.8661 41.4796 31.8973 31.1353 43.8315 31.7636C55.7657 32.3919 67.3024 47.3283 66.8625 60.7169Z" fill="#FF3F18"/>
      <ellipse opacity="0.6" cx="27.5444" cy="28.2986" rx="27.5444" ry="28.2986" transform="matrix(0.998744 -0.0304576 0.0471468 0.999643 14.0078 57.7119)" fill="#EB2706"/>
      <ellipse opacity="0.5" cx="24.9216" cy="25.6039" rx="24.9216" ry="25.6039" transform="matrix(0.998744 -0.0304576 0.0471468 0.999643 18.2383 63.8389)" fill="#EB2706"/>
      <ellipse opacity="0.5" cx="16.3422" cy="18.2875" rx="16.3422" ry="18.2875" transform="matrix(0.999521 0.0526214 -0.032804 0.99858 44.3789 56.3076)" fill="#FF3F18"/>
      <ellipse opacity="0.5" cx="13.0626" cy="14.6175" rx="13.0626" ry="14.6175" transform="matrix(0.999521 0.0526214 -0.032804 0.99858 51.2031 60.0498)" fill="#FF3F18"/>
      <ellipse opacity="0.7" cx="18.5943" cy="19.1034" rx="18.5943" ry="19.1034" transform="matrix(0.998744 -0.0304576 0.0471468 0.999643 25.3633 69.4385)" fill="#EB2706"/>
    </g>
  </g>
</svg>