<svg width="71" height="76" viewBox="0 0 71 76" fill="none" xmlns="http://www.w3.org/2000/svg">
<g style="mix-blend-mode:soft-light">
<mask id="mask0_984_50392" style="mask-type:alpha" maskUnits="userSpaceOnUse" x="2" y="3" width="66" height="93">
<path fill-rule="evenodd" clip-rule="evenodd" d="M37.015 3.35462C34.1112 6.02461 30.1001 11.8 29.9453 16.5128C29.6533 25.399 34.715 25.8675 36.2727 25.9495C37.8305 26.0315 42.9368 25.9636 43.2243 17.2119C43.3851 12.3164 39.4453 6.37518 37.015 3.35462ZM34.0069 95.4558C51.7593 96.3904 66.6349 82.4004 67.2325 64.2081C67.8302 46.0159 53.9235 30.5106 36.1711 29.576C18.4188 28.6414 3.54318 42.6314 2.94555 60.8236C2.34793 79.0159 16.2546 94.5212 34.0069 95.4558Z" fill="#FF623D"/>
</mask>
<g mask="url(#mask0_984_50392)">
<ellipse opacity="0.7" cx="16.3422" cy="18.2875" rx="16.3422" ry="18.2875" transform="matrix(0.999521 0.0526214 -0.032804 0.99858 44.8853 55.498)" fill="#FF3F18"/>
<ellipse opacity="0.6" cx="23.3854" cy="26.169" rx="23.3854" ry="26.169" transform="matrix(0.999521 0.0526214 -0.032804 0.99858 12.3989 62.2598)" fill="#FF3F18"/>
<ellipse opacity="0.8" cx="33.9268" cy="38.0971" rx="33.9268" ry="38.0971" transform="matrix(0.999521 0.0526214 -0.032804 0.99858 -16.7847 8.54395)" fill="#FF3F18"/>
<ellipse opacity="0.4" cx="23.191" cy="26.0417" rx="23.191" ry="26.0417" transform="matrix(0.999521 0.0526214 -0.032804 0.99858 -16.2104 21.3594)" fill="#EB2706"/>
<ellipse opacity="0.3" cx="35.0706" cy="39.2452" rx="35.0706" ry="39.2452" transform="matrix(0.999521 0.0526214 -0.032804 0.99858 10.7642 29.9746)" fill="#FF3F18"/>
<ellipse opacity="0.3" cx="22.5555" cy="25.2404" rx="22.5555" ry="25.2404" transform="matrix(0.999521 0.0526214 -0.032804 0.99858 45.9087 -1.8916)" fill="#FF3F18"/>
<path opacity="0.6" fill-rule="evenodd" clip-rule="evenodd" d="M46.8386 0.433904L37.0942 -0.0791016L37.0941 -0.0742362L27.4673 -0.581055L26.6176 25.2828L36.362 25.7958L36.3621 25.791L45.9889 26.2978L46.8386 0.433904Z" fill="#00D6A2"/>
<rect width="9.74898" height="25.9006" transform="matrix(0.999521 0.0526214 -0.032804 0.99858 36.9048 1.25391)" fill="#038F7E"/>
<rect width="14.6025" height="9.01131" transform="matrix(0.705958 -0.693131 0.687845 0.740347 32.479 21.7773)" fill="#0DA98F"/>
<rect width="9.74898" height="25.9006" transform="matrix(0.999521 0.0526214 -0.032804 0.99858 27.2817 0.680664)" fill="#00D6A2"/>
<ellipse opacity="0.5" cx="6.10019" cy="2.9251" rx="6.10019" ry="2.9251" transform="matrix(0.6384 -0.756767 0.753759 0.672153 9.02979 47.1953)" fill="white"/>
<ellipse opacity="0.5" cx="6.15875" cy="2.89641" rx="6.15875" ry="2.89641" transform="matrix(0.0789547 -0.995073 0.996754 0.101104 9.19775 56.9639)" fill="white"/>
</g>
<mask id="mask1_984_50392" style="mask-type:alpha" maskUnits="userSpaceOnUse" x="2" y="3" width="66" height="93">
<path fill-rule="evenodd" clip-rule="evenodd" d="M56.9231 3.6711C54.0193 6.34109 50.0082 12.1164 49.8534 16.8293C49.5615 25.7155 54.6231 26.184 56.1808 26.266C57.7386 26.348 62.8449 26.2801 63.1324 17.5284C63.2932 12.6329 59.3534 6.69166 56.9231 3.6711ZM34.0069 95.4569C51.7592 96.3915 66.6348 82.4014 67.2324 64.2092C67.8301 46.017 53.9234 30.5116 36.171 29.577C18.4187 28.6424 3.54308 42.6325 2.94546 60.8247C2.34783 79.0169 16.2545 94.5223 34.0069 95.4569Z" fill="#FF623D"/>
</mask>
<g mask="url(#mask1_984_50392)">
<path opacity="0.5" d="M66.8625 60.7169C66.4227 74.1054 54.173 80.8763 42.2387 80.248C30.3045 79.6197 20.9865 68.2568 21.4263 54.8682C21.8661 41.4796 31.8973 31.1353 43.8315 31.7636C55.7657 32.3919 67.3024 47.3283 66.8625 60.7169Z" fill="#FF3F18"/>
<ellipse opacity="0.6" cx="27.5444" cy="28.2986" rx="27.5444" ry="28.2986" transform="matrix(0.998744 -0.0304576 0.0471468 0.999643 14.0098 57.7119)" fill="#EB2706"/>
<ellipse opacity="0.5" cx="24.9216" cy="25.6039" rx="24.9216" ry="25.6039" transform="matrix(0.998744 -0.0304576 0.0471468 0.999643 18.2383 63.8389)" fill="#EB2706"/>
<ellipse opacity="0.5" cx="16.3422" cy="18.2875" rx="16.3422" ry="18.2875" transform="matrix(0.999521 0.0526214 -0.032804 0.99858 44.3809 56.3076)" fill="#FF3F18"/>
<ellipse opacity="0.5" cx="13.0626" cy="14.6175" rx="13.0626" ry="14.6175" transform="matrix(0.999521 0.0526214 -0.032804 0.99858 51.2031 60.0498)" fill="#FF3F18"/>
<ellipse opacity="0.7" cx="18.5943" cy="19.1034" rx="18.5943" ry="19.1034" transform="matrix(0.998744 -0.0304576 0.0471468 0.999643 25.3652 69.4385)" fill="#EB2706"/>
</g>
</g>
</svg>
