<svg width="73" height="75" viewBox="0 0 73 75" fill="none" xmlns="http://www.w3.org/2000/svg">
<mask id="mask0_1326_64169" style="mask-type:alpha" maskUnits="userSpaceOnUse" x="0" y="0" width="73" height="75">
<rect y="0.599609" width="72.8477" height="74.3121" fill="#D9D9D9"/>
</mask>
<g mask="url(#mask0_1326_64169)">
<g opacity="0.8">
<mask id="mask1_1326_64169" style="mask-type:alpha" maskUnits="userSpaceOnUse" x="5" y="4" width="62" height="88">
<mask id="mask2_1326_64169" style="mask-type:alpha" maskUnits="userSpaceOnUse" x="5" y="4" width="62" height="88">
<path fill-rule="evenodd" clip-rule="evenodd" d="M37.825 4.51412C35.0837 7.03463 31.2972 12.4867 31.151 16.9356C30.8755 25.3243 35.6537 25.7666 37.1243 25.844C38.5948 25.9214 43.4152 25.8573 43.6866 17.5956C43.8384 12.9742 40.1192 7.36557 37.825 4.51412ZM34.9853 91.459C51.7438 92.3412 65.7866 79.1344 66.3508 61.9607C66.9149 44.787 53.7868 30.1497 37.0284 29.2674C20.2699 28.3852 6.22709 41.592 5.66293 58.7657C5.09876 75.9394 18.2268 90.5767 34.9853 91.459Z" fill="#FF623D"/>
</mask>
<g mask="url(#mask2_1326_64169)">
<ellipse opacity="0.7" cx="15.4273" cy="17.2636" rx="15.4273" ry="17.2636" transform="matrix(0.999521 0.0526214 -0.032804 0.99858 45.2539 53.7383)" fill="#FF3F18"/>
<ellipse opacity="0.6" cx="22.0761" cy="24.7039" rx="22.0761" ry="24.7039" transform="matrix(0.999521 0.0526214 -0.032804 0.99858 14.5859 60.1211)" fill="#FF3F18"/>
<ellipse opacity="0.8" cx="32.0274" cy="35.9642" rx="32.0274" ry="35.9642" transform="matrix(0.999521 0.0526214 -0.032804 0.99858 -12.9609 9.41309)" fill="#FF3F18"/>
<ellipse opacity="0.4" cx="21.8927" cy="24.5837" rx="21.8927" ry="24.5837" transform="matrix(0.999521 0.0526214 -0.032804 0.99858 -12.4219 21.5107)" fill="#EB2706"/>
<ellipse opacity="0.3" cx="33.1072" cy="37.048" rx="33.1072" ry="37.048" transform="matrix(0.999521 0.0526214 -0.032804 0.99858 13.043 29.6436)" fill="#FF3F18"/>
<ellipse opacity="0.3" cx="21.2928" cy="23.8273" rx="21.2928" ry="23.8273" transform="matrix(0.999521 0.0526214 -0.032804 0.99858 46.2227 -0.438477)" fill="#FF3F18"/>
<path opacity="0.6" fill-rule="evenodd" clip-rule="evenodd" d="M47.0991 1.75667L37.9003 1.27239L37.9002 1.27698L28.8123 0.798539L28.0103 25.2144L37.209 25.6987L37.2092 25.6941L46.297 26.1725L47.0991 1.75667Z" fill="#00D6A2"/>
<rect width="9.20318" height="24.4506" transform="matrix(0.999521 0.0526214 -0.032804 0.99858 37.7227 2.53125)" fill="#038F7E"/>
<rect width="13.785" height="8.50681" transform="matrix(0.705958 -0.693131 0.687845 0.740347 33.543 21.9053)" fill="#0DA98F"/>
<rect width="9.20318" height="24.4506" transform="matrix(0.999521 0.0526214 -0.032804 0.99858 28.6367 1.99023)" fill="#00D6A2"/>
<ellipse opacity="0.5" cx="5.75867" cy="2.76133" rx="5.75867" ry="2.76133" transform="matrix(0.6384 -0.756767 0.753759 0.672153 11.4062 45.9004)" fill="white"/>
<ellipse opacity="0.5" cx="5.81395" cy="2.73425" rx="5.81395" ry="2.73425" transform="matrix(0.0789547 -0.995073 0.996754 0.101104 11.5664 55.1221)" fill="white"/>
</g>
<mask id="mask3_1326_64169" style="mask-type:alpha" maskUnits="userSpaceOnUse" x="5" y="4" width="62" height="88">
<path fill-rule="evenodd" clip-rule="evenodd" d="M56.6193 4.81289C53.8781 7.3334 50.0916 12.7854 49.9454 17.2344C49.6698 25.6231 54.4481 26.0654 55.9186 26.1428C57.3892 26.2202 62.2096 26.1561 62.481 17.8943C62.6328 13.2729 58.9136 7.66434 56.6193 4.81289ZM34.9861 91.46C51.7446 92.3422 65.7873 79.1354 66.3515 61.9617C66.9157 44.788 53.7876 30.1507 37.0291 29.2684C20.2706 28.3862 6.22785 41.593 5.66369 58.7667C5.09952 75.9404 18.2276 90.5777 34.9861 91.46Z" fill="#FF623D"/>
</mask>
<g mask="url(#mask3_1326_64169)">
<path opacity="0.5" d="M66.3243 58.5361C65.9091 71.1751 54.3451 77.5669 43.0791 76.9738C31.813 76.3806 23.0166 65.6539 23.4318 53.0149C23.847 40.3758 33.3166 30.6107 44.5826 31.2038C55.8487 31.7969 66.7395 45.8971 66.3243 58.5361Z" fill="#FF3F18"/>
<ellipse opacity="0.6" cx="26.0023" cy="26.7143" rx="26.0023" ry="26.7143" transform="matrix(0.998744 -0.0304576 0.0471468 0.999643 16.1094 55.8281)" fill="#EB2706"/>
<ellipse opacity="0.5" cx="23.5263" cy="24.1705" rx="23.5263" ry="24.1705" transform="matrix(0.998744 -0.0304576 0.0471468 0.999643 20.1016 61.6123)" fill="#EB2706"/>
<ellipse opacity="0.5" cx="15.4273" cy="17.2636" rx="15.4273" ry="17.2636" transform="matrix(0.999521 0.0526214 -0.032804 0.99858 44.7812 54.502)" fill="#FF3F18"/>
<ellipse opacity="0.5" cx="12.3313" cy="13.7991" rx="12.3313" ry="13.7991" transform="matrix(0.999521 0.0526214 -0.032804 0.99858 51.2188 58.0352)" fill="#FF3F18"/>
<ellipse opacity="0.7" cx="17.5533" cy="18.0339" rx="17.5533" ry="18.0339" transform="matrix(0.998744 -0.0304576 0.0471468 0.999643 26.8281 66.8984)" fill="#EB2706"/>
</g>
</mask>
<g mask="url(#mask1_1326_64169)">
<path opacity="0.7" d="M60.9726 87.5385C69.3513 87.153 75.7927 79.2148 75.3598 69.8081C74.927 60.4014 67.7839 53.0883 59.4053 53.4738C51.0266 53.8594 44.5852 61.7975 45.0181 71.2042C45.4509 80.6109 52.594 87.924 60.9726 87.5385Z" fill="#249675"/>
<path opacity="0.6" d="M37.367 108.867C49.3952 108.313 58.6437 96.9469 58.024 83.4794C57.4043 70.0119 47.1511 59.543 35.1228 60.0965C23.0946 60.65 13.8461 72.0162 14.4658 85.4837C15.0855 98.9513 25.3387 109.42 37.367 108.867Z" fill="#249675"/>
<path opacity="0.8" d="M20.0848 81.5647C37.5139 80.8085 50.9539 64.316 50.1041 44.7276C49.2542 25.1392 34.4363 9.87272 17.0073 10.6289C-0.421762 11.3851 -13.8618 27.8776 -13.012 47.4659C-12.1621 67.0543 2.65582 82.3208 20.0848 81.5647Z" fill="#249675"/>
<path opacity="0.4" d="M10.463 70.4882C22.3908 69.9707 31.5901 58.7148 31.0102 45.3474C30.4302 31.98 20.2907 21.5631 8.36287 22.0806C-3.56496 22.5981 -12.7642 33.854 -12.1843 47.2214C-11.6044 60.5888 -1.46484 71.0057 10.463 70.4882Z" fill="#00855E"/>
<path opacity="0.3" d="M46.4949 104.404C64.5372 103.574 78.4119 86.5666 77.4847 66.4167C76.5575 46.2668 61.1797 30.6051 43.1373 31.4353C25.095 32.2655 11.2204 49.2732 12.1475 69.4231C13.0747 89.5729 28.4525 105.235 46.4949 104.404Z" fill="#249675"/>
<path opacity="0.3" d="M67.7905 47.2817C79.4075 46.7472 88.3418 35.813 87.7458 22.8595C87.1498 9.90602 77.2492 -0.161544 65.6321 0.37298C54.0151 0.907503 45.0808 11.8417 45.6768 24.7952C46.2729 37.7487 56.1735 47.8163 67.7905 47.2817Z" fill="#249675"/>
<path opacity="0.6" fill-rule="evenodd" clip-rule="evenodd" d="M47.3376 1.46634L38.2996 1.00046L29.3548 0.441406L28.6094 24.5738L37.6474 25.0397L46.5922 25.5056L47.3376 1.46634Z" fill="#4FAB90"/>
<path d="M38.112 2.21094L47.15 2.67681L46.4046 26.8092L37.2734 26.2502L38.112 2.21094Z" fill="#088863"/>
<path d="M34.0117 21.3121L43.6088 11.9014L49.3857 18.0509L39.7886 27.5548L34.0117 21.3121Z" fill="#299878"/>
<path d="M29.1667 1.65234L38.2047 2.11822L37.4593 26.2507L28.3281 25.7848L29.1667 1.65234Z" fill="#4BC19F"/>
<path opacity="0.5" d="M19.9814 44.3399C21.9519 41.9628 22.5858 39.2371 21.3972 38.2518C20.2086 37.2666 17.6477 38.3949 15.6772 40.772C13.7068 43.1491 13.0729 45.8749 14.2614 46.8601C15.45 47.8453 18.0109 46.717 19.9814 44.3399Z" fill="white"/>
<path opacity="0.5" d="M18.0809 48.8122C18.3096 45.6816 17.2884 43.0557 15.8001 42.947C14.3118 42.8383 12.92 45.288 12.6913 48.4186C12.4627 51.5491 13.4838 54.175 14.9721 54.2837C16.4604 54.3924 17.8523 51.9427 18.0809 48.8122Z" fill="white"/>
<path opacity="0.5" d="M65.9718 58.172C65.599 70.6575 54.1385 76.9935 43.0506 76.3412C31.9627 75.7822 23.2042 65.1602 23.6701 52.6747C24.0428 40.1892 33.4535 30.5921 44.5414 31.1512C55.7225 31.8034 66.4376 45.6865 65.9718 58.172Z" fill="#249675"/>
<path opacity="0.6" d="M51.5035 105.652C65.0109 101.433 72.4291 86.7051 68.0726 72.7556C63.716 58.8061 49.2344 50.9176 35.7269 55.1361C22.2195 59.3546 14.8012 74.0827 19.1578 88.0322C23.5144 101.982 37.996 109.87 51.5035 105.652Z" fill="#00855E"/>
<path opacity="0.5" d="M52.1453 106.508C64.3265 102.704 71.0054 89.3868 67.0631 76.7634C63.1207 64.1401 50.0499 56.9909 37.8686 60.7952C25.6874 64.5996 19.0084 77.9168 22.9508 90.5401C26.8932 103.163 39.964 110.313 52.1453 106.508Z" fill="#00855E"/>
<path opacity="0.5" d="M60.5078 88.2846C68.8865 87.8991 75.3278 79.9609 74.895 70.5542C74.4622 61.1475 67.3191 53.8344 58.9404 54.2199C50.5618 54.6054 44.1204 62.5436 44.5532 71.9503C44.986 81.357 52.1292 88.6701 60.5078 88.2846Z" fill="#249675"/>
<path opacity="0.5" d="M63.8024 84.8399C70.5362 84.5301 75.715 78.1951 75.3697 70.6903C75.0244 63.1855 69.2857 57.3528 62.5519 57.6626C55.8182 57.9725 50.6393 64.3075 50.9846 71.8123C51.3299 79.3171 57.0687 85.1498 63.8024 84.8399Z" fill="#249675"/>
<path opacity="0.7" d="M50.8065 100.075C59.8933 97.2375 64.872 87.2919 61.9267 77.8612C58.9814 68.4306 49.2275 63.0861 40.1406 65.924C31.0538 68.7619 26.0751 78.7075 29.0204 88.1382C31.9657 97.5688 41.7197 102.913 50.8065 100.075Z" fill="#00855E"/>
</g>
</g>
</g>
</svg>
