<svg width="3000" height="3000" viewBox="0 0 3000 3000" fill="none" xmlns="http://www.w3.org/2000/svg">
<rect width="3000" height="3000" fill="white"/>
<g opacity="0.8">
<path d="M1500.04 1660.81C1785.38 1660.81 2016.68 1422.47 2016.68 1128.46C2016.68 834.456 1785.38 596.123 1500.04 596.123C1214.7 596.123 983.402 834.456 983.402 1128.46C983.402 1422.47 1214.7 1660.81 1500.04 1660.81Z" fill="#6CDDAF"/>
</g>
<path opacity="0.8" d="M1116.64 2172.09C1401.98 2172.09 1633.28 1933.76 1633.28 1639.75C1633.28 1345.74 1401.98 1107.41 1116.64 1107.41C831.303 1107.41 600 1345.74 600 1639.75C600 1933.76 831.303 2172.09 1116.64 2172.09Z" fill="#00C78F"/>
<path d="M1883.3 2172.09C2168.64 2172.09 2399.94 1933.76 2399.94 1639.75C2399.94 1345.74 2168.64 1107.41 1883.3 1107.41C1597.96 1107.41 1366.66 1345.74 1366.66 1639.75C1366.66 1933.76 1597.96 2172.09 1883.3 2172.09Z" fill="#00AB8E"/>
<path opacity="0.8" d="M2235.16 1965.36C2235.16 2115.11 1906.17 2236.81 1500.09 2236.81C1094.01 2236.81 765.023 2115.56 765.023 1965.36C765.023 1815.17 1094.01 1660.85 1500.09 1660.85C1906.17 1660.85 2235.16 1815.17 2235.16 1965.36Z" fill="#008855"/>
<path d="M1499.99 1282.88C1594.55 1175.15 1731.24 1107.41 1883.35 1107.41C1929.43 1107.41 1974.1 1113.64 2016.63 1125.35C2015.02 832.747 1784.35 596.123 1500.04 596.123C1215.73 596.123 985.059 832.798 983.449 1125.35C1025.97 1113.69 1070.6 1107.46 1116.68 1107.46C1268.79 1107.46 1405.48 1175.2 1500.04 1282.93L1499.99 1282.88Z" fill="#5FE1B7"/>
<path d="M765.028 1965.37C765.028 1831.96 1024.66 1695.28 1367.35 1666.38C1366.96 1658.6 1366.77 1650.76 1366.77 1642.87C1146.05 1582.32 983.407 1374.94 983.407 1128.47C983.407 1127.41 983.407 1126.4 983.407 1125.35C762.687 1185.85 600 1393.23 600 1639.75C600 1861.55 731.671 2051.65 918.888 2131.64C822.476 2085.72 765.028 2028.08 765.028 1965.32V1965.37Z" fill="#00D6A2"/>
<path d="M1366.71 1642.87C1366.71 1641.81 1366.71 1640.81 1366.71 1639.75C1366.71 1502.47 1417.19 1377.3 1499.99 1282.88C1405.43 1175.15 1268.74 1107.41 1116.63 1107.41C1070.55 1107.41 1025.93 1113.64 983.402 1125.3C983.402 1126.36 983.402 1127.36 983.402 1128.42C983.402 1374.94 1146.04 1582.27 1366.76 1642.82L1366.71 1642.87Z" fill="#00CF91"/>
<path d="M2400 1639.75C2400 1393.23 2237.36 1185.9 2016.64 1125.35C2016.64 1126.4 2016.64 1127.41 2016.64 1128.47C2016.64 1374.99 1853.96 1582.37 1633.24 1642.92C1633.24 1650.81 1632.99 1658.65 1632.65 1666.43C1975.43 1695.28 2235.17 1831.96 2235.17 1965.42C2235.17 2028.33 2177.04 2086.32 2079.55 2132.4C2267.6 2052.8 2400 1862.26 2400 1639.8V1639.75Z" fill="#02BDA5"/>
<path d="M1499.99 1282.88C1582.85 1377.3 1633.27 1502.47 1633.27 1639.75C1633.27 1640.8 1633.27 1641.81 1633.27 1642.86C1854.04 1582.31 2016.68 1374.98 2016.68 1128.41C2016.68 1127.36 2016.68 1126.35 2016.68 1125.3C1974.16 1113.64 1929.49 1107.36 1883.4 1107.36C1731.3 1107.36 1594.6 1175.09 1500.04 1282.83L1499.99 1282.88Z" fill="#00AB8E"/>
<path d="M1366.71 1642.87C1366.71 1650.76 1366.95 1658.59 1367.3 1666.38C1410.36 1662.76 1454.74 1660.81 1500.04 1660.81C1545.34 1660.81 1589.58 1662.71 1632.59 1666.33C1632.98 1658.54 1633.17 1650.71 1633.17 1642.82C1590.65 1654.47 1546.03 1660.7 1499.94 1660.7C1453.86 1660.7 1409.19 1654.47 1366.66 1642.77L1366.71 1642.87Z" fill="#00AC8E"/>
<path d="M1500 1282.88C1417.14 1377.3 1366.72 1502.47 1366.72 1639.75C1366.72 1640.8 1366.72 1641.81 1366.72 1642.86C1409.24 1654.52 1453.91 1660.8 1500 1660.8C1546.08 1660.8 1590.71 1654.57 1633.23 1642.91C1633.23 1641.86 1633.23 1640.85 1633.23 1639.8C1633.23 1502.52 1582.76 1377.35 1499.95 1282.93L1500 1282.88Z" fill="#00B38E"/>
<path d="M1499.99 1996.62C1405.43 2104.36 1268.74 2172.09 1116.64 2172.09C1046.56 2172.09 979.795 2157.67 918.885 2131.64C1053.34 2195.66 1263.62 2236.76 1500.09 2236.76C1736.56 2236.76 1945.04 2195.86 2079.54 2132.3C2019.02 2157.92 1952.8 2172.04 1883.35 2172.04C1731.25 2172.04 1594.55 2104.31 1499.99 1996.57V1996.62Z" fill="#009980"/>
<path d="M1499.99 1996.62C1422.55 1908.34 1373.39 1793.22 1367.35 1666.39C1024.66 1695.23 765.023 1831.91 765.023 1965.37C765.023 2028.08 822.422 2085.77 918.884 2131.69C979.794 2157.72 1046.6 2172.15 1116.63 2172.15C1268.74 2172.15 1405.43 2104.41 1499.99 1996.67V1996.62Z" fill="#00906D"/>
<path d="M2235.16 1965.37C2235.16 1831.91 1975.42 1695.23 1632.64 1666.39C1626.59 1793.22 1577.44 1908.39 1499.99 1996.62C1594.55 2104.36 1731.25 2172.1 1883.35 2172.1C1952.8 2172.1 2019.07 2157.93 2079.54 2132.35C2177.03 2086.27 2235.16 2028.28 2235.16 1965.37Z" fill="#008B6E"/>
<path d="M1367.35 1666.38C1373.39 1793.21 1422.55 1908.33 1499.99 1996.62C1577.44 1908.33 1626.59 1793.21 1632.64 1666.38C1589.63 1662.76 1545.35 1660.85 1500.09 1660.85C1454.84 1660.85 1410.41 1662.81 1367.35 1666.43V1666.38Z" fill="#008A68"/>
<path d="M1712.86 527.47C1712.86 406.551 1617.75 308.074 1500 308.074C1382.24 308.074 1287.13 406.083 1287.13 527.47C1424.44 475.26 1575.54 475.26 1712.85 527.47H1712.86Z" fill="#32E2BD"/>
<path d="M1207.22 2390.09H1207.67C1207.67 2556.87 1338.72 2691.93 1500.54 2691.93C1662.36 2691.93 1793.41 2556.87 1793.41 2390.09C1604.4 2318.42 1396.68 2318.42 1207.24 2390.09H1207.22Z" fill="#008A74"/>
</svg>
